ply
format ascii 1.0
comment Created by Blender 2.79 (sub 0) - www.blender.org, source file: 'plants.blend'
comment Property "shading" of element "globals_ply_v2"
comment   0x2  = const shading
comment   0x4  = flat shading
comment   0x8  = phong shading
comment   0x10 = gouraud shading
element globals_ply_v2 1
property uint shading
property uint rt
property uint gt
property uint bt
element vertex 29
property float x
property float y
property float z
property float s
property float t
element face 10
property list uchar uint vertex_indices
end_header
4 255 255 255
-1.202546 -0.724465 -0.099168 0.515627 0.858916
-0.486704 0.703250 -1.838890 0.025942 0.310671
0.062927 0.663291 1.756468 1.015422 0.310670
-0.486704 0.703250 -1.838890 0.025942 0.310671
0.062927 0.663291 1.756468 1.015422 0.310670
1.159532 -0.266326 -0.220078 0.515627 0.858916
-0.079961 0.704466 -1.948348 0.025942 0.310671
0.331480 0.664402 1.656519 1.015422 0.310670
-0.079961 0.704466 -1.948348 0.025942 0.310671
1.159532 -0.266326 -0.220078 0.515627 0.858916
0.331480 0.664402 1.656519 1.015422 0.310670
-0.170912 -0.911134 -0.815980 0.515627 0.858916
-2.109620 0.687665 -0.436648 0.025942 0.310671
1.950938 0.685422 -0.234852 1.015422 0.310670
-2.109620 0.687665 -0.436648 0.025942 0.310671
-0.170912 -0.911134 -0.815980 0.515627 0.858916
1.950938 0.685422 -0.234852 1.015422 0.310670
0.245732 -0.930595 0.669552 0.515627 0.858916
-1.635881 0.679651 0.284470 0.025942 0.310671
1.860898 0.684150 -0.120308 1.015422 0.310670
-1.635881 0.679651 0.284470 0.025942 0.310671
0.245732 -0.930595 0.669552 0.515627 0.858916
1.860898 0.684150 -0.120308 1.015422 0.310670
0.268844 -0.420520 1.452299 0.515627 0.858916
1.387469 0.679095 0.334520 0.025942 0.310671
-1.328575 0.672861 0.895424 1.015422 0.310670
1.387469 0.679095 0.334520 0.025942 0.310671
0.268844 -0.420520 1.452299 0.515627 0.858916
-1.328575 0.672861 0.895424 1.015422 0.310670
3 0 1 2
3 3 0 4
3 5 6 7
3 8 9 10
3 11 12 13
3 14 15 16
3 17 18 19
3 20 21 22
3 23 24 25
3 26 27 28
