ply
format ascii 1.0
comment Created by Blender 2.79 (sub 0) - www.blender.org, source file: 'plants.blend'
comment Property "shading" of element "globals_ply_v2"
comment   0x2  = const shading
comment   0x4  = flat shading
comment   0x8  = phong shading
comment   0x10 = gouraud shading
element globals_ply_v2 1
property uint shading
property uint rt
property uint gt
property uint bt
element vertex 76
property float x
property float y
property float z
property float s
property float t
element face 26
property list uchar uint vertex_indices
end_header
4 255 255 255
0.733183 -0.896337 -0.352787 0.515627 0.858916
0.368477 0.664724 1.627567 0.025942 0.310671
-0.839210 0.699575 -1.508264 1.015422 0.310670
0.368477 0.664724 1.627567 0.025942 0.310671
0.733183 -0.896337 -0.352787 0.515627 0.858916
-0.839210 0.699575 -1.508264 1.015422 0.310670
-0.591976 -0.529027 -0.919999 0.515627 0.858916
1.630550 0.697705 -1.340010 0.025942 0.310671
-1.503087 0.674920 0.710120 1.015422 0.310670
1.630550 0.697705 -1.340010 0.025942 0.310671
-0.591976 -0.529027 -0.919999 0.515627 0.858916
-1.503087 0.674920 0.710120 1.015422 0.310670
-1.202546 -0.724465 -0.099168 0.515627 0.858916
-0.486704 0.703250 -1.838890 0.025942 0.310671
0.062927 0.663291 1.756468 1.015422 0.310670
-0.486704 0.703250 -1.838890 0.025942 0.310671
0.062927 0.663291 1.756468 1.015422 0.310670
1.159532 -0.266326 -0.220078 0.515627 0.858916
-0.079961 0.704466 -1.948348 0.025942 0.310671
0.331480 0.664402 1.656519 1.015422 0.310670
-0.079961 0.704466 -1.948348 0.025942 0.310671
1.159532 -0.266326 -0.220078 0.515627 0.858916
0.331480 0.664402 1.656519 1.015422 0.310670
-0.170912 -0.911134 -0.815980 0.515627 0.858916
-2.109620 0.687665 -0.436648 0.025942 0.310671
1.950938 0.685422 -0.234852 1.015422 0.310670
-2.109620 0.687665 -0.436648 0.025942 0.310671
-0.170912 -0.911134 -0.815980 0.515627 0.858916
1.950938 0.685422 -0.234852 1.015422 0.310670
0.245732 -0.930595 0.669552 0.515627 0.858916
-1.635881 0.679651 0.284470 0.025942 0.310671
1.860898 0.684150 -0.120308 1.015422 0.310670
-1.635881 0.679651 0.284470 0.025942 0.310671
0.245732 -0.930595 0.669552 0.515627 0.858916
1.860898 0.684150 -0.120308 1.015422 0.310670
-0.481550 -0.701585 1.137467 0.515627 0.858916
-1.921599 0.684127 -0.118264 0.025942 0.310671
1.500311 0.676417 0.575448 1.015422 0.310670
-1.921599 0.684127 -0.118264 0.025942 0.310671
-0.481550 -0.701585 1.137467 0.515627 0.858916
1.500311 0.676417 0.575448 1.015422 0.310670
-1.578982 -0.379626 -0.607450 0.515627 0.858916
-0.992612 0.673055 0.877981 0.025942 0.310671
-0.242502 0.698184 -1.383113 1.015422 0.310670
-0.992612 0.673055 0.877981 0.025942 0.310671
-1.578982 -0.379626 -0.607450 0.515627 0.858916
-0.242502 0.698184 -1.383113 1.015422 0.310670
0.038776 -0.546288 -1.585199 0.515627 0.858916
-1.397727 0.688507 -0.512440 0.025942 0.310671
1.378556 0.689804 -0.629128 1.015422 0.310670
0.038776 -0.546288 -1.585199 0.515627 0.858916
1.378556 0.689804 -0.629128 1.015422 0.310670
1.185488 -0.379216 0.450452 0.515627 0.858916
0.894519 0.693636 -0.973911 0.025942 0.310671
0.001650 0.668916 1.250363 1.015422 0.310670
0.894519 0.693636 -0.973911 0.025942 0.310671
1.185488 -0.379216 0.450452 0.515627 0.858916
0.001650 0.668916 1.250363 1.015422 0.310670
0.268844 -0.420520 1.452299 0.515627 0.858916
1.387469 0.679095 0.334520 0.025942 0.310671
-1.328575 0.672861 0.895424 1.015422 0.310670
1.387469 0.679095 0.334520 0.025942 0.310671
0.268844 -0.420520 1.452299 0.515627 0.858916
-1.328575 0.672861 0.895424 1.015422 0.310670
1.105017 -0.375575 -1.090896 0.515627 0.858916
-0.425890 0.699511 -1.502511 0.025942 0.310671
1.232710 0.678507 0.387398 1.015422 0.310670
-0.425890 0.699511 -1.502511 0.025942 0.310671
1.105017 -0.375575 -1.090896 0.515627 0.858916
1.232710 0.678507 0.387398 1.015422 0.310670
-1.220098 -0.545639 1.026535 0.515627 0.858916
0.259995 0.665917 1.520204 0.025942 0.310671
-1.307438 0.687522 -0.423721 1.015422 0.310670
0.259995 0.665917 1.520204 0.025942 0.310671
-1.220098 -0.545639 1.026535 0.515627 0.858916
-1.307438 0.687522 -0.423721 1.015422 0.310670
3 0 1 2
3 3 4 5
3 6 7 8
3 9 10 11
3 12 13 14
3 15 12 16
3 17 18 19
3 20 21 22
3 23 24 25
3 26 27 28
3 29 30 31
3 32 33 34
3 35 36 37
3 38 39 40
3 41 42 43
3 44 45 46
3 47 48 49
3 48 50 51
3 52 53 54
3 55 56 57
3 58 59 60
3 61 62 63
3 64 65 66
3 67 68 69
3 70 71 72
3 73 74 75
