ply
format ascii 1.0
comment Created by Blender 2.78 (sub 0) - www.blender.org, source file: ''
element vertex 72
property float x
property float y
property float z
property float s
property float t
element face 24
property list uchar uint vertex_indices
end_header
1.603589 -0.321829 0.173499 0.922658 0.452196
1.271593 -0.321829 -0.997518 0.795247 0.452196
1.271593 0.555995 -0.295528 0.865944 0.264098
0.803997 0.830315 0.552467 0.923493 0.568232
1.603589 -0.321829 0.173499 0.923493 0.264098
1.271593 0.555995 -0.295528 0.999582 0.422491
-0.206806 -0.646949 -0.059420 0.381003 0.000417
1.271593 -0.321829 -0.997518 0.236260 0.235361
1.603589 -0.321829 0.173499 0.186926 0.000418
-0.029705 0.830315 -1.103921 0.564114 0.264098
1.271593 0.555995 -0.295528 0.438147 0.470714
1.271593 -0.321829 -0.997518 0.381838 0.264098
0.104262 0.961379 -0.032036 0.890724 0.684728
0.803997 0.830315 0.552467 0.795294 0.712291
1.271593 0.555995 -0.295528 0.795294 0.501580
0.803997 0.830315 0.552467 0.533906 0.000417
0.352544 -0.321829 1.113172 0.479578 0.263263
1.603589 -0.321829 0.173499 0.381838 0.000417
-0.206806 -0.646949 -0.059420 0.381003 0.468410
1.603589 -0.321829 0.173499 0.186926 0.468410
0.352544 -0.321829 1.113172 0.302442 0.236196
-0.480659 -0.321829 -1.272930 0.186091 0.251877
1.271593 -0.321829 -0.997518 0.000417 0.251877
-0.206806 -0.646949 -0.059420 0.138049 0.000417
-0.029705 0.830315 -1.103921 0.349838 0.685779
0.104262 0.961379 -0.032036 0.282250 0.869149
1.271593 0.555995 -0.295528 0.186926 0.685779
-0.029705 0.830315 -1.103921 0.136712 0.494772
1.271593 -0.321829 -0.997518 0.000417 0.252712
-0.480659 -0.321829 -1.272930 0.186091 0.252712
-0.108310 0.830315 0.748351 0.917075 0.906966
0.803997 0.830315 0.552467 0.830027 0.818357
0.104262 0.961379 -0.032036 0.917075 0.735426
-0.108310 0.830315 0.748351 0.741059 0.000417
0.352544 -0.321829 1.113172 0.876451 0.000418
0.803997 0.830315 0.552467 0.769302 0.187422
-1.010762 -0.321829 0.914578 0.526052 0.471549
-0.206806 -0.646949 -0.059420 0.457472 0.707619
0.352544 -0.321829 1.113172 0.381838 0.471549
-1.406183 -0.321829 -0.309391 0.734372 0.500745
-0.480659 -0.321829 -1.272930 0.659817 0.264098
-0.206806 -0.646949 -0.059420 0.794412 0.264098
-1.406183 0.451715 -0.309391 0.356301 0.684944
0.104262 0.961379 -0.032036 0.186926 0.684943
-0.029705 0.830315 -1.103921 0.223571 0.469245
-1.406183 -0.321829 -0.309391 0.740224 0.176267
-0.029705 0.830315 -1.103921 0.534741 0.176267
-0.480659 -0.321829 -1.272930 0.631466 0.000417
-1.010762 0.830315 0.442137 0.099992 0.899057
-0.108310 0.830315 0.748351 0.000417 0.911099
0.104262 0.961379 -0.032036 0.000417 0.739559
-1.010762 0.830315 0.442137 0.581450 0.962707
0.352544 -0.321829 1.113172 0.381838 0.962707
-0.108310 0.830315 0.748351 0.502633 0.840406
-1.406183 -0.321829 -0.309391 0.659817 0.734591
-0.206806 -0.646949 -0.059420 0.723312 0.501580
-1.010762 -0.321829 0.914578 0.794459 0.734591
-1.010762 0.830315 0.442137 0.564949 0.264098
-1.010762 -0.321829 0.914578 0.658982 0.444639
0.352544 -0.321829 1.113172 0.564949 0.663321
-0.029705 0.830315 -1.103921 0.381838 0.708454
-1.406183 -0.321829 -0.309391 0.587322 0.708454
-1.406183 0.451715 -0.309391 0.539796 0.839571
-1.406183 0.451715 -0.309391 0.829192 0.735426
-1.010762 0.830315 0.442137 0.764585 0.881009
0.104262 0.961379 -0.032036 0.659817 0.735426
-1.010762 -0.321829 0.914578 0.135060 0.495607
-1.010762 0.830315 0.442137 0.088001 0.738724
-1.406183 -0.321829 -0.309391 0.000417 0.495608
-1.010762 0.830315 0.442137 0.183937 0.795255
-1.406183 0.451715 -0.309391 0.135895 0.625968
-1.406183 -0.321829 -0.309391 0.183937 0.495607
3 0 1 2
3 3 4 5
3 6 7 8
3 9 10 11
3 12 13 14
3 15 16 17
3 18 19 20
3 21 22 23
3 24 25 26
3 27 28 29
3 30 31 32
3 33 34 35
3 36 37 38
3 39 40 41
3 42 43 44
3 45 46 47
3 48 49 50
3 51 52 53
3 54 55 56
3 57 58 59
3 60 61 62
3 63 64 65
3 66 67 68
3 69 70 71
