ply
format ascii 1.0
comment Created by Blender 2.79 (sub 0) - www.blender.org, source file: ''
comment Property "shading" of element "globals_ply_v2"
comment   0x2  = const shading
comment   0x4  = flat shading
comment   0x8  = phong shading
comment   0x10 = gouraud shading
element globals_ply_v2 1
property uint shading
property uint rt
property uint gt
property uint bt
element vertex 164
property float x
property float y
property float z
property float s
property float t
element face 210
property list uchar uint vertex_indices
end_header
4 255 20 147
0.323486 1.428682 -0.490054 0.652928 0.298448
1.357544 0.000005 -0.021119 0.639790 0.009955
0.359572 0.000275 -1.072736 0.677905 0.028201
-0.074148 1.722118 0.293354 0.569414 0.316872
-0.863169 0.000007 -0.025353 0.543768 0.007701
-0.833631 -0.000206 0.801795 0.565388 0.000000
0.323486 1.428682 -0.490054 0.526304 0.297553
-0.098569 1.722247 -0.209469 0.547834 0.320256
0.307785 3.845303 -0.115724 0.577939 0.512932
0.226076 3.860703 -0.745281 0.553502 0.511494
0.734840 4.706062 -0.844575 0.527583 0.574736
1.106420 4.118686 -0.388611 0.618504 0.517978
0.834991 1.428525 0.121957 0.620556 0.290392
0.639332 4.948315 -0.010089 0.716388 0.091978
2.267703 7.100449 -0.273684 0.734047 0.277945
2.031595 7.797143 0.051262 0.698703 0.339692
0.612371 5.409904 -0.516580 0.677905 0.115945
1.901974 7.826874 -0.275302 0.677905 0.327427
0.734840 4.706062 -0.844575 0.791354 0.087504
1.106420 4.118686 -0.388611 0.759681 0.028566
0.612371 5.409904 -0.516580 0.815966 0.104720
-0.268422 5.649042 0.233144 0.849231 0.236368
0.064263 6.015564 0.141901 0.830130 0.250236
0.639332 4.948315 -0.010089 0.896426 0.081860
0.064263 6.015564 0.141901 0.902432 0.256881
0.255787 6.098304 0.504570 0.886333 0.258048
0.612371 5.409904 -0.516580 1.000000 0.132175
-0.025058 5.964909 -1.078413 0.969504 0.241564
-0.196419 4.913487 -0.356635 0.980345 0.091119
0.193550 5.680460 -1.306908 0.958351 0.216304
0.226076 3.860703 -0.745281 0.957597 0.012726
0.612371 5.409904 -0.516580 0.922012 0.130633
0.399724 5.961377 -1.301615 0.947619 0.233033
0.261486 6.115820 -0.939076 0.932940 0.248797
0.734840 4.706062 -0.844575 0.933790 0.071318
-0.391950 7.406505 -1.368658 0.963130 0.369523
-0.134630 7.596011 -1.499232 0.949748 0.376771
-0.275072 8.067347 -1.222067 0.935273 0.411583
0.261486 6.115820 -0.939076 0.983679 0.248021
-0.515399 7.754573 -1.148759 0.974239 0.394931
2.271474 7.706604 0.032989 0.720567 0.345985
2.609133 9.211261 0.014805 0.728546 0.494605
2.389151 9.254766 0.222411 0.715235 0.501501
2.065541 8.162950 -0.210376 0.697889 0.381497
2.160172 9.594975 0.039720 0.697649 0.527112
2.065541 8.162950 -0.210376 0.774106 0.403498
2.380154 9.551471 -0.167886 0.743959 0.519465
2.166067 7.776269 -0.653166 0.759922 0.346540
2.065541 8.162950 -0.210376 0.660165 0.621734
1.724382 9.433129 0.404421 0.639411 0.743063
2.271474 7.706604 0.032989 0.645324 0.574736
2.031595 7.797143 0.051262 0.629777 0.590928
1.595174 9.394816 0.575866 0.628540 0.745490
1.333832 9.572895 0.346533 0.657745 0.765617
1.524626 9.569243 0.229132 0.649790 0.756188
1.901974 7.826874 -0.275302 0.611464 0.588002
1.333832 9.572895 0.346533 0.611464 0.759995
-0.097352 6.469157 0.746782 0.880012 0.301877
0.030480 5.779995 0.673952 0.870326 0.247917
-0.311128 6.279113 0.841586 0.867814 0.296974
-0.311128 6.279113 0.841586 0.554971 0.613052
0.099136 6.627203 1.173044 0.569869 0.646917
-0.205760 7.009340 1.221118 0.558670 0.671812
-0.097352 6.469157 0.746782 0.599923 0.622496
-0.205760 7.009340 1.221118 0.608363 0.681585
-0.083021 7.170181 1.028586 0.597011 0.683047
0.375810 6.329011 0.841663 0.580888 0.617826
0.255787 6.098304 0.504570 0.584671 0.587805
0.030480 5.779995 0.673952 0.569008 0.574736
-1.101811 7.758852 0.790588 0.846718 0.435891
-0.982986 7.704329 1.120499 0.862412 0.434978
-0.960506 8.117959 0.780959 0.834519 0.454634
-0.960506 8.117959 0.780959 0.889340 0.461627
-0.841681 8.063440 1.110869 0.874730 0.455328
-0.275072 8.067347 -1.222067 0.986840 0.410120
-1.051942 8.493363 -1.655505 0.968384 0.476967
-1.036754 8.419872 -1.815334 0.960883 0.476601
-0.893827 8.525927 -1.858333 0.953532 0.474943
-0.901941 8.630886 -1.652610 0.944781 0.476881
2.677927 10.695562 0.833633 0.722637 0.625159
2.160172 9.594975 0.039720 0.753963 0.532888
2.525333 10.922280 0.711893 0.727848 0.638121
2.519171 10.650367 0.933216 0.716527 0.624780
2.366583 10.877081 0.811471 0.711219 0.637522
0.206406 7.661732 1.425330 0.582398 0.733249
0.154314 7.484789 1.546521 0.573345 0.728010
-0.022657 7.676071 1.569197 0.597462 0.743531
0.035035 7.814357 1.457151 0.590430 0.740554
-0.022657 7.676071 1.569197 0.562370 0.736600
-1.679344 8.862687 1.413422 0.868689 0.544581
-1.843256 8.670762 1.211611 0.851130 0.542518
-1.754216 8.897041 1.205541 0.841470 0.550619
-1.768384 8.636408 1.419492 0.859740 0.538176
1.437079 11.069843 0.917987 0.628452 0.865434
1.283219 11.174682 0.782970 0.622565 0.886486
1.454343 11.132464 0.765454 0.634908 0.878361
-2.690986 9.107641 1.385154 0.857516 0.599660
-2.754456 9.136762 1.208935 0.853645 0.602413
-2.678977 9.328572 1.203793 0.850176 0.617833
-1.754216 8.897041 1.205541 0.876069 0.551365
-2.615507 9.299451 1.380008 0.862226 0.617658
0.448523 7.715426 2.021713 0.573590 0.782222
0.387558 7.903328 2.053435 0.566443 0.788328
0.387558 7.903328 2.053435 0.583415 0.788328
0.498495 7.840711 1.979020 0.579114 0.778634
2.538688 12.539580 1.094700 0.712799 0.661846
2.525186 12.487304 0.835971 0.710034 0.685354
2.366583 10.877081 0.811471 0.733321 0.641781
2.703143 12.581260 1.002796 0.712792 0.664931
-1.852638 9.019636 -2.170897 0.955864 0.563606
-1.935747 9.055838 -1.966621 0.947344 0.567070
-1.935747 9.055838 -1.966621 0.968998 0.567070
-1.995564 8.913583 -2.127898 0.961896 0.555605
-0.901941 8.630886 -1.652610 0.976632 0.476247
0.307785 3.845303 -0.115724 0.871884 0.000000
0.524322 1.575228 0.560338 0.597673 0.301389
0.655117 -0.000275 1.073889 0.604864 0.000000
0.888188 3.988218 -0.028333 0.601229 0.514183
0.888188 3.988218 -0.028333 0.741280 0.000000
0.307785 3.845303 -0.115724 0.980738 0.000000
-0.196419 4.913487 -0.356635 0.844495 0.081103
0.612371 5.409904 -0.516580 0.815966 0.165755
1.901974 7.826874 -0.275302 0.788481 0.366707
-1.198807 9.606417 0.274928 0.339635 0.233473
0.129104 10.090233 -1.669914 0.390495 0.588193
-2.224933 10.578479 -1.669788 0.243007 0.480831
-3.347360 8.824600 -0.468197 0.155241 0.220596
-3.347360 8.825216 -2.872284 0.092137 0.567353
-1.198807 9.607414 -3.615003 0.237529 0.794541
-0.563488 8.665165 1.428476 0.389766 0.081501
-3.799575 7.005633 0.143003 0.095788 0.077406
-3.546376 6.714400 -3.694946 0.004999 0.638210
-0.153856 8.193923 -4.781391 0.242865 0.988888
1.689657 9.399549 -1.614967 0.480662 0.644826
2.663818 8.895989 -3.613273 0.242865 0.988888
4.600571 10.381607 0.347066 0.390495 0.588193
5.418511 8.369190 0.416714 0.480662 0.644826
2.957411 11.112804 2.822990 0.339635 0.233473
2.706938 9.689117 4.291273 0.389766 0.081501
-1.750292 10.541506 -2.229436 0.004999 0.638210
2.957411 11.114074 -2.128477 0.237529 0.794541
-1.723687 11.031699 2.655892 0.095788 0.077406
0.298789 12.297944 -1.182516 0.092137 0.567353
0.298789 12.297159 1.877630 0.155241 0.220596
2.877166 12.910386 0.347715 0.243007 0.480831
-1.757509 9.063127 4.572258 0.339635 0.233473
-0.214052 9.250995 3.581650 0.390495 0.588193
-1.565335 10.495684 3.427847 0.243007 0.480831
-3.175634 9.603354 3.525419 0.155241 0.220596
-2.508661 10.125104 1.887835 0.092137 0.567353
-0.678311 9.907336 1.922573 0.237529 0.794541
-1.970575 7.977805 5.135759 0.389766 0.081501
-4.213931 8.530280 3.288691 0.095788 0.077406
-3.080156 9.081495 0.612822 0.004999 0.638210
-0.136153 8.869691 0.806150 0.242865 0.988888
0.549602 8.187576 3.601451 0.480662 0.644826
0.359572 0.000275 -1.072736 0.500000 0.023393
0.734840 4.706062 -0.844575 0.641315 0.566358
0.612371 5.409904 -0.516580 0.922012 0.116971
1.901974 7.826874 -0.275302 0.677905 0.606922
-0.311128 6.279113 0.841586 0.611464 0.611728
1.283219 11.174682 0.782970 0.641974 0.887071
-2.678977 9.328572 1.203793 0.868074 0.625513
0.888188 3.988218 -0.028333 0.896810 0.000000
3 0 1 2
3 3 4 5
3 6 4 7
3 7 8 9
3 6 9 10
3 0 11 12
3 13 14 15
3 16 15 17
3 18 14 19
3 20 21 22
3 23 24 25
3 26 27 28
3 28 29 30
3 31 32 33
3 34 29 32
3 32 35 36
3 33 36 37
3 27 35 29
3 38 39 27
3 15 14 40
3 40 41 42
3 43 42 44
3 45 46 47
3 47 41 14
3 48 49 50
3 51 49 52
3 48 53 54
3 55 52 56
3 25 24 57
3 21 58 59
3 60 61 62
3 63 64 65
3 63 66 67
3 68 66 61
3 59 69 21
3 57 70 59
3 22 69 71
3 57 72 73
3 74 75 39
3 39 76 35
3 37 77 78
3 36 76 77
3 46 79 41
3 80 81 46
3 44 82 83
3 42 79 82
3 61 84 85
3 65 84 66
3 65 86 87
3 62 85 88
3 72 89 73
3 71 90 91
3 73 92 70
3 69 92 90
3 56 93 94
3 53 95 54
3 49 93 52
3 49 54 95
3 94 93 95
3 90 96 97
3 89 96 92
3 91 97 98
3 99 100 89
3 97 100 98
3 88 101 102
3 87 86 103
3 87 104 84
3 84 101 85
3 101 104 103
3 79 105 82
3 83 105 106
3 81 107 106
3 81 108 79
3 108 106 105
3 76 109 77
3 78 109 110
3 76 111 112
3 75 113 111
3 109 112 111
3 114 25 58
3 5 115 3
3 12 116 1
3 12 117 115
3 115 8 3
3 114 23 25
3 19 13 118
3 114 58 21
3 30 119 28
3 114 21 120
3 47 18 121
3 122 47 121
3 47 122 45
3 123 124 125
3 126 123 125
3 127 126 125
3 128 127 125
3 124 128 125
3 129 126 130
3 130 127 131
3 131 128 132
3 133 123 129
3 132 124 133
3 134 135 136
3 136 137 138
3 139 140 134
3 141 142 139
3 138 143 141
3 135 140 144
3 140 142 144
3 142 143 144
3 143 137 144
3 137 135 144
3 145 146 147
3 148 145 147
3 149 148 147
3 150 149 147
3 146 150 147
3 151 148 152
3 152 149 153
3 153 150 154
3 155 145 151
3 154 146 155
3 0 12 1
3 3 7 4
3 6 156 4
3 7 3 8
3 6 7 9
3 0 157 11
3 13 19 14
3 16 13 15
3 18 47 14
3 20 120 21
3 23 158 24
3 26 38 27
3 28 27 29
3 31 34 32
3 34 30 29
3 32 29 35
3 33 32 36
3 27 39 35
3 38 74 39
3 40 14 41
3 43 40 42
3 45 80 46
3 47 46 41
3 48 54 49
3 51 50 49
3 48 159 53
3 55 51 52
3 60 68 61
3 63 160 64
3 63 65 66
3 68 67 66
3 59 70 69
3 57 73 70
3 22 21 69
3 57 24 72
3 74 113 75
3 39 75 76
3 37 36 77
3 36 35 76
3 46 81 79
3 80 107 81
3 44 42 82
3 42 41 79
3 61 66 84
3 65 87 84
3 65 64 86
3 62 61 85
3 72 99 89
3 71 69 90
3 73 89 92
3 69 70 92
3 56 52 93
3 53 161 95
3 49 95 93
3 90 92 96
3 89 100 96
3 91 90 97
3 99 162 100
3 97 96 100
3 88 85 101
3 87 103 104
3 84 104 101
3 79 108 105
3 83 82 105
3 81 106 108
3 76 112 109
3 78 77 109
3 76 75 111
3 5 116 115
3 12 115 116
3 12 11 117
3 115 117 8
3 114 163 23
3 129 123 126
3 130 126 127
3 131 127 128
3 133 124 123
3 132 128 124
3 134 140 135
3 136 135 137
3 139 142 140
3 141 143 142
3 138 137 143
3 151 145 148
3 152 148 149
3 153 149 150
3 155 146 145
3 154 150 146
