ply
format ascii 1.0
comment Created by Blender 2.78 (sub 0) - www.blender.org, source file: ''
element vertex 235
property float x
property float y
property float z
property float s
property float t
element face 93
property list uchar uint vertex_indices
end_header
0.796279 14.811133 0.189124 0.897978 0.457080
-0.283712 11.956277 1.817301 0.897977 0.344062
1.114639 11.958877 1.347817 0.941080 0.365613
-0.283712 11.956277 1.817301 0.980596 0.334869
0.796279 14.811133 0.189124 0.867578 0.334869
-0.880361 11.951900 0.787780 0.970969 0.297205
1.114639 11.958877 1.347817 0.495847 0.904429
-0.212475 11.949679 -0.739579 0.440374 0.963193
1.475819 11.956075 -0.079231 0.447755 0.904429
-0.283712 11.956277 1.817301 0.521925 0.944954
-0.880361 11.951900 0.787780 0.494101 0.972103
1.114639 11.958877 1.347817 0.496409 0.651194
1.475819 11.956075 -0.079231 0.543980 0.644140
0.796279 14.811133 0.189124 0.543980 0.740419
-0.880361 11.951900 0.787780 0.978140 0.124798
0.796279 14.811133 0.189124 0.868102 0.124798
-0.212475 11.949679 -0.739579 0.958472 0.074013
0.796279 14.811133 0.189124 0.500806 0.851293
1.475819 11.956075 -0.079231 0.483654 0.756554
-0.212475 11.949679 -0.739579 0.542880 0.756554
-0.179305 12.557636 0.690931 0.275472 0.793445
-1.523290 10.161455 1.840451 0.298900 0.699012
0.620075 12.560552 0.960970 0.298900 0.807970
-1.523290 10.161455 1.840451 0.961940 0.972827
-0.179305 12.557636 0.690931 0.864645 0.972827
-1.944701 10.154437 -0.364940 0.940528 0.902668
0.620075 12.560552 0.960970 0.240500 0.829392
-1.523290 10.161455 1.840451 0.300970 0.920030
1.203809 10.170899 2.570695 0.208737 0.920030
-0.179305 12.557636 0.690931 0.999287 0.617647
-0.095056 12.556864 0.313335 0.986918 0.615047
-1.944701 10.154437 -0.364940 0.999287 0.514301
1.203809 10.170899 2.570695 0.067250 0.699012
-0.068933 10.157430 -1.179965 0.056556 0.827966
2.310420 10.167130 0.006855 0.000713 0.761427
-1.523290 10.161455 1.840451 0.139456 0.756398
-1.944701 10.154437 -0.364940 0.123371 0.827966
1.203809 10.170899 2.570695 0.990856 0.344062
0.797690 12.559827 0.504153 0.990856 0.448106
0.620075 12.560552 0.960970 0.977563 0.439180
0.454942 12.557949 0.153014 0.339428 0.324896
-1.944701 10.154437 -0.364940 0.451668 0.324896
-0.095056 12.556864 0.313335 0.351214 0.339435
0.454942 12.557949 0.153014 0.947796 0.295779
2.310420 10.167130 0.006855 0.867578 0.237786
-0.068933 10.157430 -1.179965 0.947796 0.204457
1.203809 10.170899 2.570695 0.912462 0.618345
2.310420 10.167130 0.006855 0.835926 0.568697
0.797690 12.559827 0.504153 0.912462 0.514301
0.454942 12.557949 0.153014 0.000713 0.995067
-0.068933 10.157430 -1.179965 0.074097 0.940711
-1.944701 10.154437 -0.364940 0.112953 0.995067
0.797690 12.559827 0.504153 0.970732 0.607031
2.310420 10.167130 0.006855 0.985492 0.514301
0.454942 12.557949 0.153014 0.985492 0.613287
-0.861765 10.554658 0.765871 0.707205 0.317803
-0.509404 10.553601 0.003727 0.691002 0.339938
-1.707002 8.087531 -2.183191 0.578592 0.317803
-0.509404 10.553601 0.003727 0.419818 0.852633
3.406764 8.106814 -0.220648 0.303281 0.756554
-1.707002 8.087531 -2.183191 0.482228 0.756554
-3.370218 8.089882 0.421858 0.866152 0.204457
-0.861765 10.554658 0.765871 0.866151 0.319896
-1.707002 8.087531 -2.183191 0.769811 0.234691
0.873116 10.558549 0.434319 0.837340 0.511827
3.406764 8.106814 -0.220648 0.723795 0.482977
-0.509404 10.553601 0.003727 0.874831 0.482977
2.529669 8.111192 2.333568 0.417381 0.000713
-1.707002 8.087531 -2.183191 0.417548 0.203031
3.406764 8.106814 -0.220648 0.339428 0.042036
-0.763200 8.104452 3.205816 0.515382 0.053446
-3.370218 8.089882 0.421858 0.515382 0.178051
-0.472860 10.557847 1.563491 0.516808 0.194245
-0.861765 10.554658 0.765871 0.533624 0.170629
-3.370218 8.089882 0.421858 0.646622 0.194245
2.529669 8.111192 2.333568 0.866676 0.115480
3.406764 8.106814 -0.220648 0.784264 0.083978
0.873116 10.558549 0.434319 0.866676 0.000713
0.655795 10.561110 1.622748 0.296927 0.586467
-0.763200 8.104452 3.205816 0.296927 0.692605
2.529669 8.111192 2.333568 0.203873 0.631566
-0.763200 8.104452 3.205816 0.799148 0.754081
-0.472860 10.557847 1.563491 0.757865 0.666396
-3.370218 8.089882 0.421858 0.887678 0.666396
2.529669 8.111192 2.333568 0.713041 0.950604
0.873116 10.558549 0.434319 0.827808 0.950604
0.655795 10.561110 1.622748 0.810223 0.985940
-0.472860 10.557847 1.563491 0.942506 0.434958
-0.763200 8.104452 3.205816 0.976137 0.344062
0.655795 10.561110 1.622748 0.976137 0.450200
-0.276397 8.428617 0.261865 0.638067 0.768050
2.667193 5.873573 -1.170567 0.548224 0.666396
-3.663210 5.854196 -1.908857 0.756439 0.666396
-0.276397 8.428617 0.261865 0.438948 0.904429
1.478231 8.434461 0.644693 0.402747 0.950602
2.667193 5.873573 -1.170567 0.303281 0.904429
-0.487223 5.879220 4.218871 0.445010 0.344062
2.667193 5.873573 -1.170567 0.363048 0.530886
4.062318 5.887589 2.659272 0.303281 0.411889
-3.663210 5.854196 -1.908857 0.571262 0.530886
-4.508537 5.858706 0.662207 0.588963 0.444257
-4.508537 5.858706 0.662207 0.875326 0.852571
-0.276397 8.428617 0.261865 0.713041 0.852571
-3.663210 5.854196 -1.908857 0.845104 0.769476
4.062318 5.887589 2.659272 0.274046 0.800011
2.667193 5.873573 -1.170567 0.140882 0.800011
1.478231 8.434461 0.644693 0.183597 0.699012
1.951977 8.439199 1.936824 0.831984 0.344062
-0.487223 5.879220 4.218871 0.831984 0.481550
4.062318 5.887589 2.659272 0.723795 0.367608
-0.631712 8.433572 2.493388 0.548224 0.769476
-4.508537 5.858706 0.662207 0.711614 0.769476
-0.487223 5.879220 4.218871 0.566888 0.868549
-4.508537 5.858706 0.662207 0.276665 0.940711
-0.811773 8.430060 1.359011 0.132145 0.976419
-0.276397 8.428617 0.261865 0.114380 0.940711
4.062318 5.887589 2.659272 0.835926 0.619771
1.478231 8.434461 0.644693 0.971506 0.619771
1.951977 8.439199 1.936824 0.941471 0.653230
1.951977 8.439199 1.936824 0.833410 0.344062
-0.631712 8.433572 2.493388 0.896551 0.402957
-0.487223 5.879220 4.218871 0.833410 0.481550
-4.508537 5.858706 0.662207 0.703024 0.990500
-0.631712 8.433572 2.493388 0.539634 0.990500
-0.811773 8.430060 1.359011 0.557822 0.957679
0.663118 6.303470 2.359746 0.813366 0.128062
3.232518 3.754068 3.437101 0.936743 0.128062
1.714389 6.301403 0.494515 0.819395 0.197750
0.663118 6.303470 2.359746 0.834500 0.514301
-1.691694 3.745712 5.389929 0.834500 0.664969
3.232518 3.754068 3.437101 0.713993 0.540758
3.232518 3.754068 3.437101 0.782837 0.137194
4.762362 3.745859 -1.235328 0.649258 0.048000
1.714389 6.301403 0.494515 0.782837 0.000713
-1.691694 3.745712 5.389929 0.940998 0.666396
0.663118 6.303470 2.359746 0.940998 0.817064
-1.158600 6.298299 2.300210 0.889105 0.787860
3.232518 3.754068 3.437101 0.138609 0.344062
-0.831159 3.726300 -2.804413 0.104939 0.585041
4.762362 3.745859 -1.235328 0.000713 0.426427
-1.691694 3.745712 5.389929 0.301855 0.401516
-5.220842 3.724375 1.014318 0.295019 0.585041
-0.511361 6.293024 -0.354340 0.496768 0.854059
1.714389 6.301403 0.494515 0.436262 0.903003
4.762362 3.745859 -1.235328 0.303281 0.854059
-1.691694 3.745712 5.389929 0.711614 0.920205
-1.158600 6.298299 2.300210 0.584543 0.956253
-2.082341 6.291768 0.798944 0.539634 0.920205
-5.220842 3.724375 1.014318 0.548224 0.532313
-1.691694 3.745712 5.389929 0.712567 0.614286
-2.082341 6.291768 0.798944 0.548224 0.664969
-2.082341 6.291768 0.798944 0.590389 0.494241
-0.831159 3.726300 -2.804413 0.590389 0.344062
-5.220842 3.724375 1.014318 0.722368 0.480854
-0.511361 6.293024 -0.354340 0.736425 0.316377
4.762362 3.745859 -1.235328 0.578592 0.204457
-0.831159 3.726300 -2.804413 0.768385 0.204457
-2.082341 6.291768 0.798944 0.863219 0.902668
-0.511361 6.293024 -0.354340 0.819738 0.949178
-0.831159 3.726300 -2.804413 0.713041 0.902668
-4.026790 1.707414 -1.902818 0.543124 0.869976
-1.403027 4.283574 1.713513 0.711614 0.869976
-1.028027 4.279818 -0.087831 0.676521 0.918779
-4.026790 1.707414 -1.902818 0.904742 0.853997
-1.028027 4.279818 -0.087831 0.770786 0.901242
1.133725 4.283806 -0.824304 0.713041 0.853997
-4.062583 1.722226 3.707196 0.647832 0.128873
-1.403027 4.283574 1.713513 0.516808 0.169203
-4.026790 1.707414 -1.902818 0.516808 0.000713
-4.026790 1.707414 -1.902818 0.494983 0.755128
1.133725 4.283806 -0.824304 0.303281 0.755128
0.203532 1.713288 -4.070410 0.386371 0.644140
2.768234 1.747685 6.216001 0.338002 0.181404
0.039279 1.729250 2.104653 0.177808 0.199499
0.653641 1.726712 0.513516 0.140698 0.157932
-4.062583 1.722226 3.707196 0.163293 0.342636
-1.227534 1.725447 1.984925 0.155454 0.234548
-4.026790 1.707414 -1.902818 0.000713 0.258019
0.203532 1.713288 -4.070410 0.000713 0.102729
5.411851 1.736432 -0.753346 0.174751 0.000713
0.080543 1.722883 -0.333833 0.107523 0.161971
-0.980803 1.722410 0.586698 0.118476 0.206544
-4.062583 1.722226 3.707196 0.207311 0.896251
1.676367 4.295595 3.048998 0.000713 0.896251
-1.403027 4.283574 1.713513 0.087630 0.829392
0.203532 1.713288 -4.070410 0.202447 0.586467
1.133725 4.283806 -0.824304 0.119532 0.697586
5.411851 1.736432 -0.753346 0.000713 0.586467
2.768234 1.747685 6.216001 0.546798 0.642713
5.411851 1.736432 -0.753346 0.303281 0.642713
2.424825 4.291872 0.873975 0.387725 0.532313
-4.062583 1.722226 3.707196 0.577166 0.323470
2.768234 1.747685 6.216001 0.339428 0.323470
1.676367 4.295595 3.048998 0.408291 0.204457
1.133725 4.283806 -0.824304 0.811940 0.138620
2.424825 4.291872 0.873975 0.775046 0.197750
5.411851 1.736432 -0.753346 0.649258 0.138620
2.768234 1.747685 6.216001 0.194343 0.939285
2.424825 4.291872 0.873975 0.000713 0.939285
1.676367 4.295595 3.048998 0.063290 0.897677
-0.735370 -0.267760 2.750455 0.964734 0.047907
0.554228 -0.271932 -0.153287 0.872283 0.000713
0.650974 -0.266912 1.635091 0.930795 0.000713
-0.361875 -0.274661 -0.231889 0.868102 0.030460
-1.556360 -0.273185 1.559365 0.924429 0.072587
0.080543 1.722883 -0.333833 0.966160 0.067954
0.554228 -0.271932 -0.153287 0.966160 0.000713
-0.361875 -0.274661 -0.231889 0.995365 0.007740
0.650974 -0.266912 1.635091 0.913888 0.533076
0.554228 -0.271932 -0.153287 0.969306 0.514301
0.653641 1.726712 0.513516 0.969306 0.583211
0.039279 1.729250 2.104653 0.992406 0.197973
-0.735370 -0.267760 2.750455 0.938170 0.148978
0.650974 -0.266912 1.635091 0.992406 0.128062
-0.735370 -0.267760 2.750455 0.988021 0.746805
-1.227534 1.725447 1.984925 0.942424 0.801989
-1.556360 -0.273185 1.559365 0.942424 0.734372
-1.556360 -0.273185 1.559365 0.968736 0.860023
-0.980803 1.722410 0.586698 0.906168 0.901242
-0.361875 -0.274661 -0.231889 0.906168 0.827888
0.080543 1.722883 -0.333833 0.949222 0.257302
-0.361875 -0.274661 -0.231889 0.990284 0.204457
-0.980803 1.722410 0.586698 0.990284 0.277810
0.653641 1.726712 0.513516 0.963366 0.968579
0.554228 -0.271932 -0.153287 0.983475 0.902668
0.080543 1.722883 -0.333833 0.996786 0.968579
0.039279 1.729250 2.104653 0.897977 0.458506
0.650974 -0.266912 1.635091 0.967888 0.458506
0.653641 1.726712 0.513516 0.915199 0.511501
-1.227534 1.725447 1.984925 0.303281 0.952028
-0.735370 -0.267760 2.750455 0.374865 0.952028
0.039279 1.729250 2.104653 0.313831 0.992238
-1.227534 1.725447 1.984925 0.988810 0.732946
-0.980803 1.722410 0.586698 0.942424 0.732946
-1.556360 -0.273185 1.559365 0.976846 0.666396
3 0 1 2
3 3 4 5
3 6 7 8
3 7 6 9
3 7 9 10
3 11 12 13
3 14 15 16
3 17 18 19
3 20 21 22
3 23 24 25
3 26 27 28
3 29 30 31
3 32 33 34
3 33 32 35
3 33 35 36
3 37 38 39
3 40 41 42
3 43 44 45
3 46 47 48
3 49 50 51
3 52 53 54
3 55 56 57
3 58 59 60
3 61 62 63
3 64 65 66
3 67 68 69
3 68 67 70
3 68 70 71
3 72 73 74
3 75 76 77
3 78 79 80
3 81 82 83
3 84 85 86
3 87 88 89
3 90 91 92
3 93 94 95
3 96 97 98
3 97 96 99
3 99 96 100
3 101 102 103
3 104 105 106
3 107 108 109
3 110 111 112
3 113 114 115
3 116 117 118
3 119 120 121
3 122 123 124
3 125 126 127
3 128 129 130
3 131 132 133
3 134 135 136
3 137 138 139
3 138 137 140
3 138 140 141
3 142 143 144
3 145 146 147
3 148 149 150
3 151 152 153
3 154 155 156
3 157 158 159
3 160 161 162
3 163 164 165
3 166 167 168
3 169 170 171
3 172 173 174
3 173 172 175
3 173 175 176
3 176 175 177
3 172 178 179
3 178 172 174
3 178 174 180
3 178 180 177
3 177 180 181
3 177 181 176
3 182 183 184
3 185 186 187
3 188 189 190
3 191 192 193
3 194 195 196
3 197 198 199
3 200 201 202
3 201 200 203
3 203 200 204
3 205 206 207
3 208 209 210
3 211 212 213
3 214 215 216
3 217 218 219
3 220 221 222
3 223 224 225
3 226 227 228
3 229 230 231
3 232 233 234
