ply
format ascii 1.0
comment Created by Blender 2.79 (sub 0) - www.blender.org, source file: ''
comment Property "shading" of element "globals_ply_v2"
comment   0x2  = const shading
comment   0x4  = flat shading
comment   0x8  = phong shading
comment   0x10 = gouraud shading
element globals_ply_v2 1
property uint shading
property uint rt
property uint gt
property uint bt
element vertex 179
property float x
property float y
property float z
property float s
property float t
element face 224
property list uchar uint vertex_indices
end_header
4 255 20 147
0.734840 4.706062 -0.844575 0.933790 0.071318
0.193550 5.680460 -1.306908 0.958351 0.216304
0.399724 5.961377 -1.301615 0.947619 0.233033
0.206406 7.661732 1.425330 0.582398 0.733249
0.448523 7.715426 2.021713 0.573590 0.782222
0.154314 7.484789 1.546521 0.573345 0.728010
-0.205760 7.009340 1.221118 0.608363 0.681585
0.035035 7.814357 1.457151 0.590430 0.740554
-0.097352 6.469157 0.746782 0.599923 0.622496
-0.515399 7.754573 -1.148759 0.974239 0.394931
-1.036754 8.419872 -1.815334 0.960883 0.476601
-0.391950 7.406505 -1.368658 0.963130 0.369523
0.323486 1.428682 -0.490054 0.526304 0.297553
0.226076 3.860703 -0.745281 0.553502 0.511494
0.734840 4.706062 -0.844575 0.527583 0.574736
-0.134630 7.596011 -1.499232 0.949748 0.376771
-0.025058 5.964909 -1.078413 0.969504 0.241564
-0.196419 4.913487 -0.356635 0.980345 0.091119
2.065541 8.162950 -0.210376 0.660165 0.621734
1.454343 11.132464 0.765454 0.634908 0.878361
1.724382 9.433129 0.404421 0.639411 0.743063
0.639332 4.948315 -0.010089 0.896426 0.081860
0.064263 6.015564 0.141901 0.902432 0.256881
0.255787 6.098304 0.504570 0.886333 0.258048
0.612371 5.409904 -0.516580 1.000000 0.132175
0.323486 1.428682 -0.490054 0.652928 0.298448
1.357544 0.000005 -0.021119 0.639790 0.009955
0.359572 0.000275 -1.072736 0.677905 0.028201
0.834991 1.428525 0.121957 0.620556 0.290392
0.888188 3.988218 -0.028333 0.601229 0.514183
0.655117 -0.000275 1.073889 0.604864 0.000000
-0.863169 0.000007 -0.025353 0.543768 0.007701
2.031595 7.797143 0.051262 0.698703 0.339692
2.267703 7.100449 -0.273684 0.734047 0.277945
2.271474 7.706604 0.032989 0.720567 0.345985
2.677927 10.695562 0.833633 0.722637 0.625159
2.519171 10.650367 0.933216 0.716527 0.624780
2.609133 9.211261 0.014805 0.728546 0.494605
2.166067 7.776269 -0.653166 0.759922 0.346540
2.271474 7.706604 0.032989 0.645324 0.574736
0.261486 6.115820 -0.939076 0.932940 0.248797
-0.097352 6.469157 0.746782 0.880012 0.301877
0.375810 6.329011 0.841663 0.580888 0.617826
0.255787 6.098304 0.504570 0.584671 0.587805
0.612371 5.409904 -0.516580 0.815966 0.104720
-0.268422 5.649042 0.233144 0.849231 0.236368
0.064263 6.015564 0.141901 0.830130 0.250236
0.734840 4.706062 -0.844575 0.791354 0.087504
1.106420 4.118686 -0.388611 0.759681 0.028566
0.639332 4.948315 -0.010089 0.716388 0.091978
-0.960506 8.117959 0.780959 0.889340 0.461627
-0.841681 8.063440 1.110869 0.874730 0.455328
0.030480 5.779995 0.673952 0.870326 0.247917
0.307785 3.845303 -0.115724 0.871884 0.000000
1.901974 7.826874 -0.275302 0.611464 0.588002
1.437079 11.069843 0.917987 0.628452 0.865434
1.283219 11.174682 0.782970 0.622565 0.886486
0.099136 6.627203 1.173044 0.569869 0.646917
0.612371 5.409904 -0.516580 0.677905 0.115945
1.901974 7.826874 -0.275302 0.677905 0.327427
-1.768384 8.636408 1.419492 0.859740 0.538176
-1.833841 10.089036 1.915184 0.853645 0.602413
-1.843256 8.670762 1.211611 0.851130 0.542518
-1.754216 8.897041 1.205541 0.841470 0.550619
-1.758362 10.280847 1.910042 0.850176 0.617833
-1.694891 10.251725 2.086257 0.862226 0.617658
0.307785 3.845303 -0.115724 0.577939 0.512932
-0.833631 -0.000206 0.801795 0.565388 0.000000
2.065541 8.162950 -0.210376 0.774106 0.403498
2.160172 9.594975 0.039720 0.753963 0.532888
-1.101811 7.758852 0.790588 0.846718 0.435891
-0.022657 7.676071 1.569197 0.597462 0.743531
0.387558 7.903328 2.053435 0.583415 0.788328
0.498495 7.840711 1.979020 0.579114 0.778634
2.366583 10.877081 0.811471 0.711219 0.637522
2.538688 12.539580 1.094700 0.712799 0.661846
2.525186 12.487304 0.835971 0.710034 0.685354
-0.022657 7.676071 1.569197 0.562370 0.736600
-0.311128 6.279113 0.841586 0.554971 0.613052
2.703143 12.581260 1.002796 0.712792 0.664931
-0.901941 8.630886 -1.652610 0.944781 0.476881
-1.852638 9.019636 -2.170897 0.955864 0.563606
-1.935747 9.055838 -1.966621 0.947344 0.567070
-1.935747 9.055838 -1.966621 0.968998 0.567070
-1.995564 8.913583 -2.127898 0.961896 0.555605
0.030480 5.779995 0.673952 0.569008 0.574736
2.031595 7.797143 0.051262 0.629777 0.590928
0.888188 3.988218 -0.028333 0.741280 0.000000
0.226076 3.860703 -0.745281 0.957597 0.012726
0.307785 3.845303 -0.115724 0.980738 0.000000
-1.758362 10.280847 1.910042 0.868074 0.625513
-1.679344 8.862687 1.413422 0.868689 0.544581
0.261486 6.115820 -0.939076 0.983679 0.248021
0.129104 10.090233 -1.669914 0.390495 0.588193
-0.563488 8.665165 1.428476 0.389766 0.081501
1.689657 9.399549 -1.614967 0.480662 0.644826
-3.347360 8.825216 -2.872284 0.092137 0.567353
-3.347360 8.824600 -0.468197 0.155241 0.220596
-2.224933 10.578479 -1.669788 0.243007 0.480831
-1.198807 9.607414 -3.615003 0.237529 0.794541
-3.799575 7.005633 0.143003 0.095788 0.077406
-0.153856 8.193923 -4.781391 0.242865 0.988888
-3.546376 6.714400 -3.694946 0.004999 0.638210
-1.723687 11.031699 2.655892 0.095788 0.077406
0.298789 12.297944 -1.182516 0.092137 0.567353
-1.750292 10.541506 -2.229436 0.004999 0.638210
2.663818 8.895989 -3.613273 0.242865 0.988888
4.600571 10.381607 0.347066 0.390495 0.588193
5.418511 8.369190 0.416714 0.480662 0.644826
2.706938 9.689117 4.291273 0.389766 0.081501
2.877166 12.910386 0.347715 0.243007 0.480831
0.298789 12.297159 1.877630 0.155241 0.220596
2.957411 11.114074 -2.128477 0.237529 0.794541
-1.757509 9.063127 4.572258 0.339635 0.233473
-0.214052 9.250995 3.581650 0.390495 0.588193
-1.565335 10.495684 3.427847 0.243007 0.480831
-2.508661 10.125104 1.887835 0.092137 0.567353
-3.175634 9.603354 3.525419 0.155241 0.220596
-0.678311 9.907336 1.922573 0.237529 0.794541
-1.970575 7.977805 5.135759 0.389766 0.081501
-4.213931 8.530280 3.288691 0.095788 0.077406
0.549602 8.187576 3.601451 0.480662 0.644826
-0.136153 8.869691 0.806150 0.242865 0.988888
-3.080156 9.081495 0.612822 0.004999 0.638210
0.612371 5.409904 -0.516580 0.922012 0.116971
-0.275072 8.067347 -1.222067 0.986840 0.410120
1.283219 11.174682 0.782970 0.641974 0.887071
-0.311128 6.279113 0.841586 0.611464 0.611728
-0.311128 6.279113 0.841586 0.867814 0.296974
-0.893827 8.525927 -1.858333 0.953532 0.474943
-0.275072 8.067347 -1.222067 0.935273 0.411583
-0.901941 8.630886 -1.652610 0.976632 0.476247
-1.051942 8.493363 -1.655505 0.968384 0.476967
1.106420 4.118686 -0.388611 0.618504 0.517978
0.888188 3.988218 -0.028333 0.896810 0.000000
2.160172 9.594975 0.039720 0.697649 0.527112
-0.563488 8.665165 1.428476 0.389766 0.081501
0.129104 10.090233 -1.669914 0.390495 0.588193
1.689657 9.399549 -1.614967 0.480662 0.644826
-3.347360 8.825216 -2.872284 0.092137 0.567353
-2.224933 10.578479 -1.669788 0.243007 0.480831
-3.347360 8.824600 -0.468197 0.155241 0.220596
-1.198807 9.607414 -3.615003 0.237529 0.794541
-3.799575 7.005633 0.143003 0.095788 0.077406
-0.153856 8.193923 -4.781391 0.242865 0.988888
-1.723687 11.031699 2.655892 0.095788 0.077406
0.298789 12.297944 -1.182516 0.092137 0.567353
0.298789 12.297159 1.877630 0.155241 0.220596
2.663818 8.895989 -3.613273 0.242865 0.988888
4.600571 10.381607 0.347066 0.390495 0.588193
2.957411 11.114074 -2.128477 0.237529 0.794541
2.706938 9.689117 4.291273 0.389766 0.081501
2.877166 12.910386 0.347715 0.243007 0.480831
5.418511 8.369190 0.416714 0.480662 0.644826
-3.546376 6.714400 -3.694946 0.004999 0.638210
-1.757509 9.063127 4.572258 0.339635 0.233473
-1.565335 10.495684 3.427847 0.243007 0.480831
-0.214052 9.250995 3.581650 0.390495 0.588193
-2.508661 10.125104 1.887835 0.092137 0.567353
-3.175634 9.603354 3.525419 0.155241 0.220596
-0.678311 9.907336 1.922573 0.237529 0.794541
-1.970575 7.977805 5.135759 0.389766 0.081501
-4.213931 8.530280 3.288691 0.095788 0.077406
0.549602 8.187576 3.601451 0.480662 0.644826
-0.136153 8.869691 0.806150 0.242865 0.988888
-1.750292 10.541506 -2.229436 0.004999 0.638210
-3.080156 9.081495 0.612822 0.004999 0.638210
0.359572 0.000275 -1.072736 0.500000 0.023393
0.612371 5.409904 -0.516580 0.922012 0.130633
-0.196419 4.913487 -0.356635 0.844495 0.081103
-1.770370 10.059916 2.091403 0.857516 0.599660
0.612371 5.409904 -0.516580 0.815966 0.165755
2.366583 10.877081 0.811471 0.733321 0.641781
-0.982986 7.704329 1.120499 0.862412 0.434978
0.387558 7.903328 2.053435 0.566443 0.788328
-1.754216 8.897041 1.205541 0.876069 0.551365
1.901974 7.826874 -0.275302 0.677905 0.606922
0.734840 4.706062 -0.844575 0.641315 0.566358
2.065541 8.162950 -0.210376 0.697889 0.381497
3 0 1 2
3 3 4 5
3 6 7 8
3 9 10 11
3 12 13 14
3 10 15 11
3 16 1 17
3 18 19 20
3 21 22 23
3 24 16 17
3 25 26 27
3 28 29 30
3 2 11 15
3 12 31 13
3 32 33 34
3 35 36 37
3 38 37 33
3 18 20 39
3 15 40 2
3 23 22 41
3 8 42 43
3 44 45 46
3 47 33 48
3 49 33 32
3 41 50 51
3 21 52 53
3 54 55 56
3 57 3 5
3 8 3 42
3 58 32 59
3 60 61 62
3 63 61 64
3 61 65 64
3 66 31 67
3 56 55 19
3 68 69 38
3 70 60 62
3 7 71 72
3 7 73 3
3 4 73 72
3 74 75 76
3 77 78 57
3 79 76 75
3 80 81 82
3 10 83 84
3 81 84 83
3 42 57 85
3 66 30 29
3 46 70 63
3 20 55 86
3 48 49 87
3 88 89 17
3 90 65 91
3 92 16 24
3 93 94 95
3 96 97 98
3 99 96 98
3 93 99 98
3 94 97 100
3 94 98 97
3 101 93 95
3 100 96 102
3 103 104 105
3 106 107 108
3 109 110 111
3 109 111 103
3 107 112 110
3 112 104 110
3 104 111 110
3 107 109 108
3 102 99 101
3 113 114 115
3 116 117 115
3 118 116 115
3 114 118 115
3 119 117 120
3 113 117 119
3 121 113 119
3 122 114 121
3 120 116 123
3 91 60 51
3 21 124 22
3 2 1 11
3 16 9 11
3 92 125 9
3 34 33 37
3 76 35 37
3 86 39 20
3 18 126 19
3 8 127 6
3 85 43 42
3 128 70 45
3 15 129 130
3 20 19 55
3 7 72 73
3 131 132 125
3 10 132 83
3 25 133 28
3 53 134 21
3 34 36 135
3 105 112 106
3 123 118 122
3 136 137 138
3 139 140 141
3 142 140 139
3 137 140 142
3 136 143 141
3 136 141 140
3 144 137 142
3 143 139 141
3 145 146 147
3 148 149 150
3 151 147 152
3 151 145 147
3 149 152 150
3 150 152 146
3 146 152 147
3 151 149 153
3 154 142 139
3 155 156 157
3 158 156 159
3 160 156 158
3 157 156 160
3 161 162 159
3 159 155 161
3 163 155 157
3 164 157 160
3 162 158 159
3 165 150 146
3 166 160 158
3 0 88 1
3 3 73 4
3 6 71 7
3 9 132 10
3 10 84 81
3 129 15 10
3 10 81 129
3 88 17 1
3 16 11 1
3 25 28 26
3 28 133 29
3 30 26 28
3 12 167 31
3 34 37 36
3 35 79 75
3 75 36 35
3 0 2 168
3 15 130 40
3 40 168 2
3 44 169 45
3 47 38 33
3 49 48 33
3 41 22 50
3 21 23 52
3 54 86 55
3 8 7 3
3 58 49 32
3 60 170 61
3 63 62 61
3 61 170 65
3 66 13 31
3 47 171 38
3 69 172 76
3 38 171 68
3 69 76 38
3 70 173 60
3 5 4 77
3 77 57 5
3 85 57 78
3 4 174 77
3 42 3 57
3 66 67 30
3 46 45 70
3 70 62 63
3 51 50 91
3 175 90 91
3 91 50 175
3 92 9 16
3 93 98 94
3 101 99 93
3 100 97 96
3 103 111 104
3 106 112 107
3 107 110 109
3 102 96 99
3 113 115 117
3 121 114 113
3 122 118 114
3 120 117 116
3 41 51 173
3 91 65 170
3 173 128 41
3 91 170 60
3 173 51 60
3 37 38 76
3 76 79 35
3 18 176 126
3 169 53 52
3 52 128 45
3 173 70 128
3 45 169 52
3 80 130 129
3 129 81 80
3 9 125 132
3 131 83 132
3 25 177 133
3 135 178 34
3 36 75 74
3 74 135 36
3 105 104 112
3 123 116 118
3 136 140 137
3 144 138 137
3 143 154 139
3 145 165 146
3 148 153 149
3 151 152 149
3 154 144 142
3 159 156 155
3 163 161 155
3 164 163 157
3 162 166 158
3 165 148 150
3 166 164 160
