ply
format ascii 1.0
comment This is v.2 of custom PLY file format
comment
comment Additional properties of element "face":
comment     - "ind_ply_v2" vertexes indicies
comment     - "attr" represents attributes of polygon in hex code
comment    - "ind_ply_v2" name is the sign that this is custom ply v2 format
comment Custom PLY v.2 attributes
comment     - 0x0  = visible
comment     - 0x1  = hidden surface
comment     - 0x2  = const shading
comment     - 0x4  = flat shading
comment     - 0x8  = phong shading
comment     - 0x10 = gourang shading
element vertex 8
property float x
property float y
property float z
property uchar red
property uchar green
property uchar blue
element face 12
property list uchar uint ind_ply_v2
property uint attr
end_header
1.000000 -1.000000 -1.000000 145 178 74
-1.000000 1.000000 -1.000000 128 128 128
1.000000 1.000000 -1.000000 255 255 255
-1.000000 1.000000 1.000000 23 66 98
0.999999 -1.000001 1.000000 0 0 255
1.000000 0.999999 1.000000 255 0 0
-1.000000 -1.000000 -1.000000 0 255 0
-1.000000 -1.000000 1.000000 128 255 10
3 0 1 2 2
3 3 4 5 2
3 5 0 2 2
3 4 6 0 2
3 6 3 1 2
3 2 3 5 2
3 0 6 1 2
3 3 7 4 2
3 5 4 0 2
3 4 7 6 2
3 6 7 3 2
3 2 1 3 2