ply
format ascii 1.0
comment Created by Blender 2.79 (sub 0) - www.blender.org, source file: ''
element globals_ply_v2 1
property uint shading
element vertex 512
property float x
property float y
property float z
property float s
property float t
element face 960
property list uchar uint vertex_indices
end_header
16
0.000000 1.111140 1.662939 0.697492 0.824480
0.275899 1.387040 1.414214 0.709376 0.752105
0.000000 1.414214 1.414214 0.735147 0.779654
0.000001 1.662938 -1.111140 0.848920 0.390841
0.275899 1.387040 -1.414214 0.841590 0.313094
0.000000 1.414213 -1.414214 0.864196 0.334814
0.324423 1.630986 1.111140 0.733105 0.700875
0.000000 1.662939 1.111140 0.761226 0.728711
0.216773 1.089790 -1.662939 0.863688 0.261010
0.000000 1.111140 -1.662939 0.882867 0.280332
0.360480 1.812255 0.765367 0.751695 0.647001
0.000000 1.847759 0.765367 0.780693 0.674598
0.149316 0.750660 -1.847759 0.893414 0.213060
0.000000 0.765366 -1.847759 0.907539 0.228698
0.382684 1.923879 0.390181 0.767340 0.591668
0.000000 1.961571 0.390181 0.796418 0.618773
0.076121 0.382683 -1.961571 0.935719 0.172890
0.000000 0.390180 -1.961571 0.942759 0.182515
0.390181 1.961571 0.000000 0.781429 0.535581
0.000000 2.000000 0.000000 0.810089 0.562031
0.000000 0.390181 1.961571 0.567268 0.868303
-0.000000 -0.000001 2.000000 0.495265 0.852857
0.076121 0.382683 1.961571 0.566457 0.856148
0.000000 -0.000001 -2.000000 0.995266 0.147143
0.382684 1.923880 -0.390180 0.794966 0.479228
0.000000 1.961571 -0.390180 0.822818 0.504873
0.149316 0.750661 1.847759 0.630338 0.835624
0.000000 0.765367 1.847759 0.641452 0.857179
0.360480 1.812255 -0.765367 0.808822 0.423029
0.000000 1.847758 -0.765367 0.835477 0.447684
0.216773 1.089790 1.662939 0.676891 0.798466
0.324423 1.630986 -1.111140 0.823944 0.367441
0.750661 1.812255 -0.390180 0.767315 0.452094
0.707107 1.707107 -0.765367 0.782092 0.396562
0.425215 1.026560 1.662939 0.657173 0.773912
0.636380 1.536355 -1.111140 0.798714 0.341964
0.541196 1.306563 1.414214 0.685241 0.725518
0.541196 1.306563 -1.414214 0.818709 0.289116
0.636380 1.536355 1.111140 0.706593 0.673391
0.425215 1.026560 -1.662939 0.844487 0.239416
0.707107 1.707107 0.765367 0.723996 0.619193
0.292893 0.707106 -1.847759 0.879896 0.195479
0.750661 1.812255 0.390181 0.739178 0.563865
0.149316 0.360479 -1.961571 0.929896 0.162212
0.765367 1.847759 0.000000 0.753309 0.508011
0.149316 0.360480 1.961571 0.563300 0.844314
0.292893 0.707107 1.847759 0.618082 0.815427
0.425215 0.636379 -1.847759 0.867123 0.176171
1.026560 1.536355 0.765367 0.697047 0.592015
1.089790 1.630986 0.390181 0.711466 0.536245
0.216773 0.324423 -1.961571 0.925640 0.150719
1.111141 1.662939 0.000000 0.725311 0.480192
0.216773 0.324423 1.961571 0.558329 0.833135
1.089790 1.630986 -0.390180 0.739467 0.424292
0.425215 0.636379 1.847759 0.604972 0.796826
1.026560 1.536355 -0.765367 0.754885 0.369020
0.617317 0.923879 1.662939 0.637870 0.751148
0.923880 1.382683 -1.111140 0.772822 0.315021
0.785695 1.175875 1.414214 0.662044 0.700446
0.785695 1.175875 -1.414214 0.795182 0.263338
0.923880 1.382683 1.111140 0.681041 0.646993
0.617317 0.923879 -1.662939 0.825051 0.215853
1.306563 1.306563 -0.765367 0.726706 0.341193
1.175876 1.175875 -1.111140 0.745717 0.287291
1.000000 1.000000 1.414214 0.639317 0.677374
1.000000 1.000000 -1.414214 0.770454 0.236269
1.175876 1.175875 1.111140 0.655961 0.622327
0.785695 0.785695 -1.662939 0.805029 0.190637
1.306563 1.306563 0.765367 0.670392 0.566231
0.541196 0.541196 -1.847759 0.855308 0.155368
1.387040 1.387039 0.390181 0.683774 0.509644
0.275899 0.275899 -1.961571 0.923407 0.138703
1.414214 1.414213 0.000000 0.697011 0.452991
0.275900 0.275899 1.961571 0.551952 0.822879
1.387040 1.387039 -0.390180 0.710973 0.396675
0.541197 0.541196 1.847759 0.591182 0.780044
0.785695 0.785695 1.662939 0.618699 0.730484
0.324423 0.216772 -1.961571 0.923791 0.126533
1.630987 1.089790 0.390181 0.655731 0.484878
1.662940 1.111140 0.000000 0.668005 0.427287
0.324424 0.216772 1.961571 0.544481 0.813763
1.630987 1.089790 -0.390180 0.681363 0.370149
0.636380 0.425215 1.847759 0.576832 0.765294
1.536356 1.026560 -0.765367 0.696970 0.313966
0.923880 0.617316 1.662939 0.599486 0.712215
1.382684 0.923879 -1.111140 0.716668 0.259562
1.175876 0.785695 1.414214 0.616747 0.656744
1.175876 0.785695 -1.414214 0.743695 0.208508
1.382684 0.923879 1.111140 0.631000 0.599984
0.923880 0.617316 -1.662939 0.783837 0.164110
1.536356 1.026560 0.765367 0.643669 0.542558
0.636380 0.425215 -1.847759 0.844816 0.133311
1.306563 0.541196 1.414214 0.594131 0.638967
1.536356 0.636379 -1.111140 0.684737 0.232805
1.306563 0.541196 -1.414214 0.713639 0.180821
1.536356 0.636379 1.111140 0.605914 0.580518
1.026560 0.425215 -1.662939 0.760428 0.136665
1.707107 0.707106 0.765367 0.616615 0.521685
0.707107 0.292893 -1.847759 0.836350 0.110271
1.812255 0.750660 0.390181 0.627046 0.462757
0.360480 0.149315 -1.961571 0.927547 0.114679
1.847759 0.765366 0.000000 0.637946 0.403995
0.360480 0.149315 1.961571 0.536166 0.805967
1.812255 0.750660 -0.390180 0.650183 0.345708
0.707107 0.292893 1.847759 0.562017 0.752770
1.707107 0.707106 -0.765367 0.665037 0.288362
1.026560 0.425215 1.662939 0.580132 0.696622
1.961571 0.390180 0.000000 0.606595 0.384057
0.382684 0.076120 1.961571 0.527209 0.799637
0.382684 0.076120 -1.961571 0.935539 0.103753
1.923880 0.382683 -0.390180 0.617071 0.324434
0.750661 0.149315 1.847759 0.546824 0.742646
1.812255 0.360480 -0.765367 0.630288 0.265587
1.089791 0.216772 1.662939 0.560593 0.683958
1.630987 0.324423 -1.111140 0.648805 0.208274
1.387040 0.275899 1.414214 0.571358 0.624416
1.387040 0.275899 -1.414214 0.678348 0.154298
1.630987 0.324423 1.111140 0.580561 0.564436
1.089791 0.216772 -1.662939 0.732723 0.108828
1.812255 0.360479 0.765367 0.589070 0.504263
0.750661 0.149315 -1.847759 0.831424 0.086572
1.923880 0.382683 0.390181 0.597536 0.444077
1.414214 -0.000001 -1.414214 0.635028 0.130630
1.662940 -0.000001 1.111140 0.554891 0.552189
1.111141 -0.000001 -1.662939 0.696016 0.081502
1.847759 -0.000001 0.765367 0.560989 0.490881
0.765367 -0.000001 -1.847759 0.833915 0.062714
1.961571 -0.000001 0.390181 0.567156 0.429587
0.390181 -0.000001 -1.961571 0.948527 0.094534
2.000000 -0.000001 0.000000 0.573887 0.368405
0.390181 -0.000001 1.961571 0.517784 0.794886
1.961571 -0.000001 -0.390180 0.581872 0.307471
0.765367 -0.000001 1.847759 0.531335 0.735069
1.847759 -0.000000 -0.765367 0.592315 0.247027
1.111141 -0.000001 1.662939 0.540867 0.674443
1.662940 -0.000001 -1.111140 0.607782 0.187599
1.414214 -0.000001 1.414214 0.548386 0.613417
0.382684 -0.076121 1.961571 0.508043 0.791799
0.382684 -0.076121 -1.961571 0.966638 0.087931
1.923879 -0.382684 -0.390180 0.544778 0.295915
0.750661 -0.149316 1.847759 0.515638 0.730152
1.812255 -0.360480 -0.765367 0.551220 0.234138
1.089791 -0.216773 1.662939 0.520989 0.668252
1.630987 -0.324424 -1.111140 0.561220 0.172764
1.387040 -0.275900 1.414214 0.525234 0.606227
1.387040 -0.275900 -1.414214 0.580647 0.112472
1.630987 -0.324424 1.111140 0.528936 0.544141
1.089790 -0.216773 -1.662939 0.638246 0.056841
1.812255 -0.360481 0.765367 0.532439 0.482033
0.750661 -0.149316 -1.847759 0.856456 0.039893
1.923879 -0.382684 0.390181 0.536021 0.419934
1.961571 -0.390181 0.000000 0.539986 0.357878
1.536356 -0.636380 1.111140 0.502796 0.540546
1.026560 -0.425216 -1.662939 0.534176 0.041338
1.707107 -0.707107 0.765367 0.503585 0.478066
0.707107 -0.292894 -1.847759 0.947683 0.023355
1.812255 -0.750661 0.390181 0.504397 0.415586
0.360480 -0.149316 -1.961571 0.988610 0.084811
1.847759 -0.765368 0.000000 0.505301 0.353109
0.360480 -0.149317 1.961571 0.498129 0.790428
1.812255 -0.750661 -0.390180 0.506404 0.290637
0.707107 -0.292894 1.847759 0.499822 0.727971
1.707107 -0.707107 -0.765367 0.507906 0.228175
1.026560 -0.425216 1.662939 0.501015 0.665501
1.536356 -0.636380 -1.111140 0.510297 0.165735
1.306563 -0.541197 1.414214 0.501965 0.603025
1.306563 -0.541197 -1.414214 0.515221 0.103359
1.662939 -1.111141 0.000000 0.470429 0.354404
1.630986 -1.089791 -0.390180 0.467719 0.292073
0.636380 -0.425216 1.847759 0.483979 0.728560
1.536356 -1.026561 -0.765367 0.464040 0.229802
0.923880 -0.617317 1.662939 0.481020 0.666245
1.382684 -0.923880 -1.111140 0.458226 0.167665
1.175876 -0.785696 1.414214 0.478668 0.603891
1.175876 -0.785696 -1.414214 0.446455 0.105901
1.382684 -0.923880 1.111140 0.476612 0.541519
0.923880 -0.617317 -1.662939 0.404978 0.046051
1.536356 -1.026561 0.765367 0.474660 0.479141
0.636379 -0.425216 -1.847759 1.095877 0.028785
1.630986 -1.089791 0.390181 0.472657 0.416765
0.324423 -0.216773 -1.961571 1.011577 0.085667
0.324424 -0.216774 1.961571 0.488176 0.790799
1.000000 -1.000001 -1.414214 0.385287 0.119299
0.785695 -0.785696 -1.662939 0.323807 0.066742
1.306563 -1.306564 0.765367 0.445911 0.485214
0.541196 -0.541197 -1.847759 0.147808 0.049313
0.636379 -0.425216 -1.847759 0.095877 0.028785
1.387040 -1.387040 0.390181 0.441200 0.423411
0.324423 -0.216773 -1.961571 0.011577 0.085667
0.275899 -0.275900 -1.961571 0.032175 0.090357
1.414214 -1.414214 0.000000 0.436013 0.361679
0.275900 -0.275900 1.961571 0.478319 0.792904
0.275899 -0.275900 -1.961571 1.032175 0.090357
1.387040 -1.387040 -0.390180 0.429787 0.300102
0.541196 -0.541197 1.847759 0.468202 0.731911
1.306563 -1.306564 -0.765367 0.421503 0.238833
0.785695 -0.785696 1.662939 0.461079 0.670468
1.175876 -1.175876 -1.111140 0.408873 0.178221
1.000000 -1.000001 1.414214 0.455439 0.608804
1.175876 -1.175876 1.111140 0.450535 0.547029
1.026560 -1.536356 -0.765367 0.381676 0.254306
0.617317 -0.923880 1.662939 0.441260 0.678089
0.923879 -1.382684 -1.111140 0.364639 0.195793
0.785695 -1.175876 1.414214 0.432358 0.617639
0.785695 -1.175876 -1.414214 0.335902 0.140195
0.923879 -1.382684 1.111140 0.424693 0.556900
0.617317 -0.923880 -1.662939 0.277305 0.092963
1.026560 -1.536356 0.765367 0.417545 0.496040
0.425215 -0.636380 -1.847759 0.159037 0.072825
1.089790 -1.630987 0.390181 0.410362 0.435188
0.216773 -0.324424 -1.961571 0.048166 0.098187
1.111140 -1.662940 0.000000 0.402582 0.374476
0.216773 -0.324424 1.961571 0.468695 0.796706
0.216773 -0.324424 -1.961571 1.048166 0.098187
1.089790 -1.630987 -0.390180 0.393448 0.314080
0.425215 -0.636380 1.847759 0.452583 0.737970
0.292893 -0.707107 -1.847759 0.157607 0.096698
0.707107 -1.707107 0.765367 0.389690 0.511206
0.750660 -1.812255 0.390181 0.380347 0.451545
0.149316 -0.360481 -1.961571 0.058962 0.108237
0.765367 -1.847760 0.000000 0.370446 0.392059
0.149316 -0.360481 1.961571 0.459449 0.802140
0.149316 -0.360481 -1.961571 1.058962 0.108237
0.750660 -1.812255 -0.390180 0.359136 0.333015
0.292893 -0.707108 1.847759 0.437209 0.746646
0.707107 -1.707107 -0.765367 0.345097 0.274835
0.425215 -1.026561 1.662939 0.421611 0.688967
0.636379 -1.536356 -1.111140 0.325891 0.218332
0.541196 -1.306564 1.414214 0.409472 0.630184
0.541196 -1.306564 -1.414214 0.296385 0.165337
0.636379 -1.536356 1.111140 0.399158 0.570827
0.425215 -1.026561 -1.662939 0.245300 0.120662
0.216773 -1.089791 1.662939 0.402153 0.702905
0.360480 -1.812256 -0.765367 0.311613 0.298972
0.324423 -1.630987 -1.111140 0.291803 0.243985
0.275899 -1.387040 1.414214 0.386774 0.646148
0.275899 -1.387040 -1.414214 0.263610 0.192518
0.324423 -1.630987 1.111140 0.373929 0.588406
0.216773 -1.089791 -1.662939 0.219785 0.148411
0.360480 -1.812256 0.765367 0.362365 0.530171
0.149316 -0.750661 -1.847759 0.150900 0.120164
0.382683 -1.923880 0.390181 0.351201 0.471783
0.076120 -0.382684 -1.961571 0.065047 0.119643
0.390180 -1.961571 0.000000 0.339664 0.413539
0.076121 -0.382684 1.961571 0.450742 0.809109
0.076120 -0.382684 -1.961571 1.065047 0.119643
0.382683 -1.923880 -0.390180 0.326879 0.355773
0.149316 -0.750661 1.847759 0.422167 0.757809
0.000000 -1.847760 0.765367 0.335478 0.552316
-0.000000 -1.961571 0.390181 0.322818 0.495127
0.000000 -0.765367 -1.847759 0.141452 0.142821
0.000000 -0.390181 -1.961571 0.067268 0.131697
-0.000000 -2.000001 0.000000 0.310089 0.437969
-0.000000 -0.390182 1.961571 0.442759 0.817485
0.000000 -0.390181 -1.961571 1.067268 0.131697
-0.000000 -1.961571 -0.390180 0.296418 0.381227
0.000000 -0.765368 1.847759 0.407539 0.771302
0.000000 -1.847760 -0.765367 0.280693 0.325402
0.000000 -1.111141 1.662939 0.382867 0.719668
-0.000000 -1.662939 -1.111140 0.261226 0.271289
-0.000000 -1.414214 1.414214 0.364196 0.665186
-0.000000 -1.414214 -1.414214 0.235147 0.220347
-0.000000 -1.662939 1.111140 0.348920 0.609159
-0.000000 -1.111141 -1.662939 0.197492 0.175520
-0.360480 -1.812256 -0.765367 0.251695 0.353000
-0.324423 -1.630986 -1.111140 0.233105 0.299125
-0.216773 -1.089791 1.662939 0.363688 0.738990
-0.275899 -1.387040 1.414214 0.341590 0.686906
-0.275899 -1.387040 -1.414214 0.209376 0.247895
-0.324423 -1.630986 1.111140 0.323944 0.632559
-0.216773 -1.089791 -1.662939 0.176891 0.201534
-0.360480 -1.812256 0.765367 0.308822 0.576971
-0.149316 -0.750661 -1.847759 0.130338 0.164376
-0.382684 -1.923880 0.390181 0.294966 0.520772
-0.076120 -0.382684 -1.961571 0.066457 0.143852
-0.390181 -1.961571 0.000000 0.281429 0.464420
-0.076121 -0.382684 1.961571 0.435719 0.827110
-0.076120 -0.382684 -1.961571 1.066457 0.143852
-0.382684 -1.923880 -0.390180 0.267340 0.408332
-0.149316 -0.750661 1.847759 0.393414 0.786940
-0.292893 -0.707107 -1.847759 0.118082 0.184573
-0.149316 -0.360480 -1.961571 0.063300 0.155686
-0.765367 -1.847760 0.000000 0.253309 0.491989
-0.149316 -0.360481 1.961571 0.429896 0.837788
-0.149316 -0.360480 -1.961571 1.063300 0.155686
-0.750661 -1.812255 -0.390180 0.239178 0.436135
-0.292893 -0.707107 1.847759 0.379896 0.804521
-0.707107 -1.707107 -0.765367 0.223996 0.380807
-0.425215 -1.026561 1.662939 0.344487 0.760584
-0.636379 -1.536355 -1.111140 0.206593 0.326609
-0.541196 -1.306563 1.414214 0.318709 0.710884
-0.541196 -1.306563 -1.414214 0.185241 0.274482
-0.636379 -1.536355 1.111140 0.298714 0.658036
-0.425215 -1.026560 -1.662939 0.157173 0.226088
-0.707107 -1.707107 0.765367 0.282092 0.603438
-0.750661 -1.812255 0.390181 0.267315 0.547906
-0.785695 -1.175876 1.414214 0.295182 0.736662
-0.785695 -1.175876 -1.414214 0.162044 0.299554
-0.923879 -1.382683 1.111140 0.272822 0.684979
-0.617316 -0.923880 -1.662939 0.137870 0.248852
-1.026560 -1.536356 0.765367 0.254885 0.630980
-0.425215 -0.636380 -1.847759 0.104972 0.203174
-1.089790 -1.630986 0.390181 0.239467 0.575708
-0.216773 -0.324424 -1.961571 0.058329 0.166864
-1.111141 -1.662940 0.000000 0.225311 0.519808
-0.216773 -0.324424 1.961571 0.425640 0.849281
-0.216773 -0.324424 -1.961571 1.058329 0.166864
-1.089790 -1.630986 -0.390180 0.211466 0.463755
-0.425215 -0.636380 1.847759 0.367123 0.823829
-1.026560 -1.536356 -0.765367 0.197047 0.407985
-0.617317 -0.923880 1.662939 0.325051 0.784147
-0.923879 -1.382683 -1.111140 0.181041 0.353007
-1.387040 -1.387040 0.390181 0.210973 0.603325
-1.414214 -1.414214 0.000000 0.197011 0.547009
-0.275900 -0.275900 1.961571 0.423407 0.861296
-0.275899 -0.275900 -1.961571 1.051952 0.177121
-1.387040 -1.387040 -0.390180 0.183774 0.490356
-0.541196 -0.541197 1.847759 0.355308 0.844632
-1.306563 -1.306563 -0.765367 0.170392 0.433769
-0.785695 -0.785696 1.662939 0.305029 0.809363
-1.175875 -1.175876 -1.111140 0.155961 0.377673
-1.000000 -1.000000 1.414214 0.270454 0.763731
-1.000000 -1.000000 -1.414214 0.139317 0.322626
-1.175875 -1.175876 1.111140 0.245717 0.712709
-0.785695 -0.785695 -1.662939 0.118699 0.269516
-1.306563 -1.306563 0.765367 0.226706 0.658807
-0.541196 -0.541197 -1.847759 0.091182 0.219956
-0.275899 -0.275900 -1.961571 0.051952 0.177121
-1.175876 -0.785695 -1.414214 0.116747 0.343256
-1.175876 -0.785695 1.414214 0.243695 0.791492
-1.382683 -0.923880 1.111140 0.216668 0.740438
-0.923879 -0.617317 -1.662939 0.099486 0.287785
-1.536355 -1.026561 0.765367 0.196970 0.686034
-0.636379 -0.425215 -1.847759 0.076832 0.234706
-1.630986 -1.089790 0.390181 0.181363 0.629851
-0.324423 -0.216773 -1.961571 0.044481 0.186237
-1.662939 -1.111141 0.000000 0.168005 0.572713
-0.324424 -0.216774 1.961571 0.423791 0.873467
-0.324423 -0.216773 -1.961571 1.044481 0.186237
-1.630986 -1.089790 -0.390180 0.155731 0.515122
-0.636379 -0.425216 1.847759 0.344816 0.866689
-1.536355 -1.026561 -0.765367 0.143670 0.457442
-0.923880 -0.617317 1.662939 0.283838 0.835890
-1.382683 -0.923880 -1.111140 0.131000 0.400016
-0.360480 -0.149316 -1.961571 1.036166 0.194032
-1.812254 -0.750660 -0.390180 0.127046 0.537243
-0.707107 -0.292894 1.847759 0.336350 0.889729
-1.707107 -0.707107 -0.765367 0.116615 0.478315
-1.026560 -0.425216 1.662939 0.260428 0.863335
-1.536355 -0.636379 -1.111140 0.105914 0.419482
-1.306563 -0.541197 1.414214 0.213639 0.819179
-1.306563 -0.541197 -1.414214 0.094131 0.361033
-1.536355 -0.636379 1.111140 0.184737 0.767195
-1.026560 -0.425215 -1.662939 0.080132 0.303378
-1.707107 -0.707107 0.765367 0.165037 0.711638
-0.707107 -0.292894 -1.847759 0.062017 0.247229
-1.812254 -0.750660 0.390181 0.150183 0.654292
-0.360480 -0.149316 -1.961571 0.036166 0.194032
-1.847759 -0.765367 0.000000 0.137946 0.596005
-0.360480 -0.149316 1.961571 0.427547 0.885321
-1.089790 -0.216773 -1.662939 0.060593 0.316042
-1.812255 -0.360481 0.765367 0.130288 0.734413
-0.750660 -0.149316 -1.847759 0.046824 0.257353
-1.923879 -0.382683 0.390181 0.117071 0.675566
-0.382683 -0.076121 -1.961571 0.027209 0.200363
-1.961570 -0.390181 0.000000 0.106595 0.615943
-0.382684 -0.076121 1.961571 0.435538 0.896247
-0.382683 -0.076121 -1.961571 1.027209 0.200363
-1.923879 -0.382683 -0.390180 0.097536 0.555923
-0.750660 -0.149316 1.847759 0.331424 0.913428
-1.812255 -0.360481 -0.765367 0.089070 0.495737
-1.089790 -0.216773 1.662939 0.232723 0.891172
-1.630986 -0.324423 -1.111140 0.080561 0.435564
-1.387040 -0.275900 1.414214 0.178349 0.845702
-1.387040 -0.275900 -1.414214 0.071358 0.375584
-1.630986 -0.324423 1.111140 0.148805 0.791726
-0.390181 -0.000001 1.961571 0.448527 0.905466
-0.765367 -0.000001 1.847759 0.333915 0.937286
-1.847759 -0.000001 -0.765367 0.060989 0.509119
-1.111140 -0.000001 1.662939 0.196017 0.918498
-1.662938 -0.000000 -1.111140 0.054891 0.447811
-1.414213 -0.000000 1.414214 0.135028 0.869370
-1.414213 -0.000000 -1.414214 0.048386 0.386583
-1.662938 -0.000000 1.111140 0.107782 0.812401
-1.111140 -0.000001 -1.662939 0.040867 0.325557
-1.847759 -0.000001 0.765367 0.092315 0.752973
-0.765366 -0.000001 -1.847759 0.031336 0.264931
-1.961570 -0.000000 0.390181 0.081872 0.692529
-0.390180 -0.000001 -1.961571 0.017784 0.205113
-2.000000 -0.000000 0.000000 0.073887 0.631595
-0.390180 -0.000001 -1.961571 1.017784 0.205113
-1.961570 -0.000000 -0.390180 0.067156 0.570413
-1.812255 0.360479 0.765367 0.051220 0.765862
-1.089790 0.216772 -1.662939 0.020989 0.331748
-0.750660 0.149315 -1.847759 0.015638 0.269848
-1.923878 0.382683 0.390181 0.044778 0.704085
-0.382683 0.076120 -1.961571 0.008043 0.208201
-1.961570 0.390180 0.000000 0.039986 0.642122
-0.382684 0.076120 1.961571 0.466637 0.912069
-0.382683 0.076120 -1.961571 1.008043 0.208201
-1.923878 0.382683 -0.390180 0.036021 0.580066
-0.750660 0.149315 1.847759 0.356456 0.960107
-1.812255 0.360479 -0.765367 0.032439 0.517967
-1.089790 0.216772 1.662939 0.138247 0.943159
-1.630985 0.324423 -1.111140 0.028936 0.455858
-1.387040 0.275899 1.414214 0.080648 0.887528
-1.387040 0.275899 -1.414214 0.025234 0.393773
-1.630985 0.324423 1.111140 0.061221 0.827236
-1.707107 0.707106 -0.765367 0.003586 0.521934
-1.026560 0.425214 1.662939 0.034176 0.958662
-1.536355 0.636379 -1.111140 0.002796 0.459454
-1.306563 0.541196 1.414214 0.015221 0.896641
-1.306563 0.541196 -1.414214 0.001965 0.396975
-1.536355 0.636379 1.111140 0.010297 0.834265
-1.026559 0.425214 -1.662939 0.001016 0.334499
-1.707107 0.707106 0.765367 0.007907 0.771825
-0.750660 0.149315 -1.847759 1.015638 0.269848
-1.026559 0.425214 -1.662939 1.001016 0.334499
-0.707106 0.292893 -1.847759 0.999822 0.272029
-1.812254 0.750660 0.390181 0.006404 0.709363
-0.360480 0.149315 -1.961571 0.998129 0.209571
-1.847758 0.765366 0.000000 0.005301 0.646891
-0.360480 0.149315 1.961571 0.488610 0.915189
-1.812254 0.750660 -0.390180 0.004397 0.584414
-0.707107 0.292893 1.847759 0.447682 0.976645
-0.923879 0.617316 -1.662939 0.981020 0.333755
-0.636379 0.425214 -1.847759 0.983979 0.271439
-1.812254 0.750660 0.390181 1.006404 0.709363
-1.536355 1.026559 0.765367 0.964040 0.770198
-1.630985 1.089789 0.390181 0.967719 0.707927
-0.324423 0.216772 -1.961571 0.988176 0.209201
-1.662938 1.111140 0.000000 0.970429 0.645596
-1.847758 0.765366 0.000000 1.005301 0.646891
-0.324424 0.216772 1.961571 0.511577 0.914333
-1.812254 0.750660 -0.390180 1.004397 0.584414
-1.630985 1.089789 -0.390180 0.972657 0.583235
-0.636379 0.425214 1.847759 0.595876 0.971215
-1.536355 1.026559 -0.765367 0.974661 0.520859
-1.707107 0.707106 -0.765367 1.003586 0.521934
-1.026560 0.425214 1.662939 1.034176 0.958662
-0.923879 0.617316 1.662939 0.904978 0.953949
-1.536355 0.636379 -1.111140 1.002796 0.459454
-1.382682 0.923879 -1.111140 0.976612 0.458481
-1.306563 0.541196 1.414214 1.015221 0.896641
-1.175875 0.785694 1.414214 0.946455 0.894099
-1.175875 0.785694 -1.414214 0.978668 0.396109
-1.306563 0.541196 -1.414214 1.001965 0.396975
-1.536355 0.636379 1.111140 1.010297 0.834265
-1.382682 0.923879 1.111140 0.958226 0.832335
-1.707107 0.707106 0.765367 1.007907 0.771825
-0.785695 0.785694 1.662939 0.823807 0.933258
-1.306563 1.306562 -0.765367 0.945911 0.514786
-1.175875 1.175875 -1.111140 0.950536 0.452971
-1.000000 0.999999 1.414214 0.885287 0.880701
-1.000000 0.999999 -1.414214 0.955439 0.391196
-1.175875 1.175875 1.111140 0.908873 0.821780
-0.785694 0.785694 -1.662939 0.961079 0.329532
-1.306563 1.306562 0.765367 0.921503 0.761167
-0.541196 0.541195 -1.847759 0.968202 0.268089
-1.387039 1.387039 0.390181 0.929787 0.699898
-0.275899 0.275899 -1.961571 0.978319 0.207096
-1.414213 1.414213 0.000000 0.936013 0.638321
-0.275900 0.275899 1.961571 0.532175 0.909643
-1.387039 1.387039 -0.390180 0.941200 0.576589
-0.541196 0.541195 1.847759 0.647807 0.950687
-1.026560 1.536355 0.765367 0.881675 0.745695
-1.089789 1.630985 0.390181 0.893448 0.685920
-0.216773 0.324423 -1.961571 0.968695 0.203294
-1.111140 1.662938 0.000000 0.902582 0.625525
-0.216773 0.324423 1.961571 0.548166 0.901813
-1.089789 1.630985 -0.390180 0.910362 0.564812
-0.425215 0.636379 1.847759 0.659037 0.927175
-1.026560 1.536355 -0.765367 0.917545 0.503960
-0.617316 0.923879 1.662939 0.777305 0.907037
-0.923879 1.382682 -1.111140 0.924693 0.443100
-0.785695 1.175875 1.414214 0.835902 0.859805
-0.785695 1.175875 -1.414214 0.932358 0.382361
-0.923879 1.382682 1.111140 0.864639 0.804207
-0.617316 0.923879 -1.662939 0.941260 0.321910
-0.425215 0.636378 -1.847759 0.952583 0.262030
-0.707107 1.707106 -0.765367 0.889690 0.488794
-0.636378 1.536354 -1.111140 0.899158 0.429173
-0.425215 1.026559 1.662939 0.745299 0.879339
-0.541196 1.306562 1.414214 0.796385 0.834663
-0.541196 1.306562 -1.414214 0.909472 0.369816
-0.636378 1.536354 1.111140 0.825891 0.781668
-0.425215 1.026559 -1.662939 0.921611 0.311033
-0.707107 1.707106 0.765367 0.845097 0.725165
-0.292893 0.707106 -1.847759 0.937209 0.253354
-0.750660 1.812253 0.390181 0.859136 0.666985
-0.149316 0.360479 -1.961571 0.959449 0.197860
-0.765366 1.847758 0.000000 0.870446 0.607941
-0.149316 0.360480 1.961571 0.558962 0.891763
-0.750660 1.812253 -0.390180 0.880347 0.548455
-0.292893 0.707106 1.847759 0.657607 0.903302
-0.149315 0.750660 -1.847759 0.922167 0.242191
-0.076120 0.382683 -1.961571 0.950742 0.190891
-0.390180 1.961569 0.000000 0.839664 0.586462
-0.076120 0.382683 1.961571 0.565046 0.880357
-0.382683 1.923878 -0.390180 0.851201 0.528217
-0.149315 0.750660 1.847759 0.650899 0.879836
-0.360480 1.812254 -0.765367 0.862365 0.469829
-0.216772 1.089789 1.662939 0.719784 0.851589
-0.324423 1.630985 -1.111140 0.873929 0.411594
-0.275899 1.387039 1.414214 0.763610 0.807482
-0.275899 1.387039 -1.414214 0.886774 0.353851
-0.324423 1.630985 1.111140 0.791803 0.756016
-0.216772 1.089789 -1.662939 0.902153 0.297095
-0.360480 1.812254 0.765367 0.811613 0.701028
-0.382683 1.923878 0.390181 0.826879 0.644228
0.923880 -0.617317 -1.662939 1.404978 0.046051
-1.089790 0.216772 -1.662939 1.020989 0.331748
3 0 1 2
3 3 4 5
3 2 6 7
3 5 8 9
3 7 10 11
3 9 12 13
3 11 14 15
3 13 16 17
3 15 18 19
3 20 21 22
3 23 17 16
3 19 24 25
3 20 26 27
3 25 28 29
3 0 26 30
3 29 31 3
3 28 32 33
3 26 34 30
3 28 35 31
3 30 36 1
3 4 35 37
3 1 38 6
3 4 39 8
3 6 40 10
3 8 41 12
3 10 42 14
3 12 43 16
3 14 44 18
3 22 21 45
3 23 16 43
3 24 44 32
3 22 46 26
3 39 47 41
3 42 48 49
3 41 50 43
3 42 51 44
3 45 21 52
3 23 43 50
3 44 53 32
3 45 54 46
3 32 55 33
3 46 56 34
3 35 55 57
3 34 58 36
3 37 57 59
3 36 60 38
3 37 61 39
3 38 48 40
3 57 62 63
3 56 64 58
3 57 65 59
3 58 66 60
3 59 67 61
3 60 68 48
3 61 69 47
3 48 70 49
3 47 71 50
3 51 70 72
3 52 21 73
3 23 50 71
3 51 74 53
3 52 75 54
3 53 62 55
3 54 76 56
3 69 77 71
3 72 78 79
3 73 21 80
3 23 71 77
3 72 81 74
3 73 82 75
3 74 83 62
3 75 84 76
3 63 83 85
3 76 86 64
3 63 87 65
3 66 86 88
3 67 87 89
3 66 90 68
3 69 89 91
3 68 78 70
3 84 92 86
3 87 93 94
3 88 92 95
3 87 96 89
3 88 97 90
3 91 96 98
3 78 97 99
3 91 100 77
3 78 101 79
3 80 21 102
3 23 77 100
3 79 103 81
3 80 104 82
3 81 105 83
3 82 106 84
3 85 105 93
3 99 107 101
3 102 21 108
3 23 100 109
3 101 110 103
3 102 111 104
3 103 112 105
3 104 113 106
3 93 112 114
3 92 113 115
3 94 114 116
3 92 117 95
3 94 118 96
3 95 119 97
3 96 120 98
3 99 119 121
3 100 120 109
3 114 122 116
3 115 123 117
3 118 122 124
3 117 125 119
3 120 124 126
3 121 125 127
3 109 126 128
3 121 129 107
3 108 21 130
3 23 109 128
3 110 129 131
3 108 132 111
3 110 133 112
3 111 134 113
3 114 133 135
3 113 136 115
3 130 21 137
3 23 128 138
3 129 139 131
3 132 137 140
3 131 141 133
3 132 142 134
3 135 141 143
3 134 144 136
3 135 145 122
3 123 144 146
3 124 145 147
3 123 148 125
3 124 149 126
3 127 148 150
3 128 149 138
3 127 151 129
3 144 152 146
3 145 153 147
3 146 154 148
3 149 153 155
3 150 154 156
3 149 157 138
3 150 158 151
3 137 21 159
3 23 138 157
3 151 160 139
3 137 161 140
3 139 162 141
3 142 161 163
3 143 162 164
3 142 165 144
3 143 166 145
3 160 167 168
3 159 169 161
3 160 170 162
3 161 171 163
3 164 170 172
3 163 173 165
3 164 174 166
3 152 173 175
3 153 174 176
3 152 177 154
3 153 178 155
3 156 177 179
3 155 180 157
3 156 167 158
3 159 21 181
3 23 157 180
3 176 182 183
3 175 184 177
3 176 185 186
3 179 184 187
3 188 185 189
3 179 190 167
3 181 21 191
3 23 180 192
3 167 193 168
3 181 194 169
3 168 195 170
3 169 196 171
3 170 197 172
3 171 198 173
3 172 182 174
3 173 199 175
3 193 200 195
3 194 201 196
3 197 200 202
3 198 201 203
3 197 204 182
3 199 203 205
3 183 204 206
3 199 207 184
3 183 208 185
3 187 207 209
3 189 208 210
3 187 211 190
3 191 21 212
3 23 192 213
3 193 211 214
3 191 215 194
3 206 216 208
3 209 217 218
3 208 219 210
3 209 220 211
3 212 21 221
3 23 213 222
3 211 223 214
3 212 224 215
3 214 225 200
3 201 224 226
3 202 225 227
3 201 228 203
3 202 229 204
3 203 230 205
3 206 229 231
3 205 217 207
3 224 232 226
3 227 233 234
3 226 235 228
3 227 236 229
3 228 237 230
3 229 238 231
3 230 239 217
3 231 240 216
3 218 239 241
3 219 240 242
3 218 243 220
3 221 21 244
3 23 222 245
3 220 246 223
3 221 247 224
3 223 233 225
3 241 248 249
3 242 250 251
3 241 252 243
3 244 21 253
3 23 245 254
3 243 255 246
3 244 256 247
3 246 257 233
3 232 256 258
3 234 257 259
3 235 258 260
3 234 261 236
3 235 262 237
3 238 261 263
3 237 248 239
3 238 250 240
3 259 264 265
3 260 266 267
3 259 268 261
3 262 267 269
3 261 270 263
3 262 271 248
3 263 272 250
3 249 271 273
3 250 274 251
3 249 275 252
3 253 21 276
3 23 254 277
3 252 278 255
3 253 279 256
3 255 264 257
3 256 266 258
3 274 280 281
3 273 282 275
3 276 21 283
3 23 277 284
3 278 282 285
3 276 286 279
3 278 287 264
3 279 288 266
3 265 287 289
3 267 288 290
3 265 291 268
3 269 290 292
3 268 293 270
3 269 294 271
3 272 293 280
3 273 294 295
3 288 296 290
3 289 297 291
3 292 296 298
3 293 297 299
3 292 300 294
3 293 301 280
3 295 300 302
3 281 301 303
3 295 304 282
3 283 21 305
3 23 284 306
3 282 307 285
3 283 308 286
3 285 309 287
3 286 310 288
3 289 309 311
3 304 312 313
3 305 21 314
3 23 306 315
3 304 316 307
3 305 317 308
3 307 318 309
3 308 319 310
3 311 318 320
3 296 319 321
3 311 322 297
3 298 321 323
3 297 324 299
3 298 325 300
3 299 326 301
3 302 325 312
3 301 327 303
3 320 328 322
3 323 329 330
3 322 331 324
3 323 332 325
3 326 331 333
3 312 332 334
3 326 335 327
3 312 336 313
3 314 21 337
3 23 315 338
3 313 339 316
3 314 340 317
3 316 341 318
3 317 342 319
3 320 341 343
3 321 342 329
3 23 338 344
3 336 345 339
3 337 346 340
3 339 347 341
3 340 348 342
3 343 347 349
3 329 348 350
3 328 349 351
3 330 350 352
3 328 353 331
3 330 354 332
3 333 353 355
3 334 354 356
3 335 355 357
3 334 358 336
3 337 21 359
3 351 360 353
3 352 361 354
3 355 360 362
3 356 361 363
3 355 364 357
3 356 365 358
3 359 21 366
3 23 344 367
3 358 368 345
3 346 366 369
3 345 370 347
3 346 371 348
3 349 370 372
3 350 371 373
3 349 374 351
3 352 373 375
3 369 376 377
3 368 378 370
3 369 379 371
3 372 378 380
3 373 379 381
3 372 382 374
3 373 383 375
3 360 382 384
3 375 385 361
3 362 384 386
3 363 385 387
3 362 388 364
3 363 389 365
3 366 21 376
3 23 367 390
3 368 389 391
3 383 392 385
3 386 393 394
3 387 392 395
3 386 396 388
3 387 397 389
3 376 21 398
3 23 390 399
3 391 397 400
3 377 398 401
3 391 402 378
3 377 403 379
3 380 402 404
3 381 403 405
3 380 406 382
3 383 405 407
3 382 393 384
3 400 408 402
3 401 409 403
3 404 408 410
3 405 409 411
3 404 412 406
3 405 413 407
3 406 414 393
3 407 415 392
3 416 417 418
3 395 415 419
3 416 420 399
3 395 421 397
3 398 21 422
3 23 399 420
3 397 423 400
3 398 424 401
3 418 425 426
3 427 428 429
3 418 430 420
3 427 431 432
3 422 21 433
3 23 420 430
3 434 431 435
3 422 436 424
3 434 437 438
3 439 436 440
3 441 437 442
3 443 440 444
3 441 445 446
3 447 444 448
3 446 425 417
3 447 428 449
3 436 450 440
3 442 451 452
3 440 453 444
3 442 454 445
3 448 453 455
3 445 456 425
3 448 457 428
3 425 458 426
3 429 457 459
3 426 460 430
3 429 461 431
3 433 21 462
3 23 430 460
3 435 461 463
3 433 464 436
3 435 451 437
3 459 465 466
3 458 467 460
3 461 466 468
3 462 21 469
3 23 460 467
3 461 470 463
3 462 471 464
3 463 472 451
3 464 473 450
3 452 472 474
3 450 475 453
3 452 476 454
3 455 475 477
3 456 476 478
3 455 465 457
3 456 479 458
3 474 480 481
3 475 482 483
3 474 484 476
3 477 483 485
3 476 486 478
3 477 487 465
3 478 488 479
3 466 487 489
3 479 490 467
3 466 491 468
3 469 21 492
3 23 467 490
3 468 493 470
3 471 492 494
3 470 480 472
3 473 494 482
3 490 495 496
3 489 497 491
3 492 21 498
3 23 490 496
3 491 499 493
3 492 500 494
3 493 501 480
3 494 502 482
3 481 501 503
3 482 504 483
3 481 505 484
3 485 504 506
3 484 507 486
3 485 508 487
3 486 495 488
3 489 508 509
3 503 5 505
3 506 2 7
3 505 9 507
3 508 7 11
3 507 13 495
3 509 11 15
3 495 17 496
3 497 15 19
3 498 21 20
3 23 496 17
3 497 25 499
3 500 20 27
3 499 29 501
3 502 27 0
3 503 29 3
3 504 0 2
3 0 30 1
3 3 31 4
3 2 1 6
3 5 4 8
3 7 6 10
3 9 8 12
3 11 10 14
3 13 12 16
3 15 14 18
3 19 18 24
3 20 22 26
3 25 24 28
3 0 27 26
3 29 28 31
3 28 24 32
3 26 46 34
3 28 33 35
3 30 34 36
3 4 31 35
3 1 36 38
3 4 37 39
3 6 38 40
3 8 39 41
3 10 40 42
3 12 41 43
3 14 42 44
3 24 18 44
3 22 45 46
3 39 61 47
3 42 40 48
3 41 47 50
3 42 49 51
3 44 51 53
3 45 52 54
3 32 53 55
3 46 54 56
3 35 33 55
3 34 56 58
3 37 35 57
3 36 58 60
3 37 59 61
3 38 60 48
3 57 55 62
3 56 76 64
3 57 63 65
3 58 64 66
3 59 65 67
3 60 66 68
3 61 67 69
3 48 68 70
3 47 69 71
3 51 49 70
3 51 72 74
3 52 73 75
3 53 74 62
3 54 75 76
3 69 91 77
3 72 70 78
3 72 79 81
3 73 80 82
3 74 81 83
3 75 82 84
3 63 62 83
3 76 84 86
3 63 85 87
3 66 64 86
3 67 65 87
3 66 88 90
3 69 67 89
3 68 90 78
3 84 106 92
3 87 85 93
3 88 86 92
3 87 94 96
3 88 95 97
3 91 89 96
3 78 90 97
3 91 98 100
3 78 99 101
3 79 101 103
3 80 102 104
3 81 103 105
3 82 104 106
3 85 83 105
3 99 121 107
3 101 107 110
3 102 108 111
3 103 110 112
3 104 111 113
3 93 105 112
3 92 106 113
3 94 93 114
3 92 115 117
3 94 116 118
3 95 117 119
3 96 118 120
3 99 97 119
3 100 98 120
3 114 135 122
3 115 136 123
3 118 116 122
3 117 123 125
3 120 118 124
3 121 119 125
3 109 120 126
3 121 127 129
3 110 107 129
3 108 130 132
3 110 131 133
3 111 132 134
3 114 112 133
3 113 134 136
3 129 151 139
3 132 130 137
3 131 139 141
3 132 140 142
3 135 133 141
3 134 142 144
3 135 143 145
3 123 136 144
3 124 122 145
3 123 146 148
3 124 147 149
3 127 125 148
3 128 126 149
3 127 150 151
3 144 165 152
3 145 166 153
3 146 152 154
3 149 147 153
3 150 148 154
3 149 155 157
3 150 156 158
3 151 158 160
3 137 159 161
3 139 160 162
3 142 140 161
3 143 141 162
3 142 163 165
3 143 164 166
3 160 158 167
3 159 181 169
3 160 168 170
3 161 169 171
3 164 162 170
3 163 171 173
3 164 172 174
3 152 165 173
3 153 166 174
3 152 175 177
3 153 510 178
3 156 154 177
3 155 178 180
3 156 179 167
3 176 174 182
3 175 199 184
3 176 183 185
3 179 177 184
3 188 186 185
3 179 187 190
3 167 190 193
3 181 191 194
3 168 193 195
3 169 194 196
3 170 195 197
3 171 196 198
3 172 197 182
3 173 198 199
3 193 214 200
3 194 215 201
3 197 195 200
3 198 196 201
3 197 202 204
3 199 198 203
3 183 182 204
3 199 205 207
3 183 206 208
3 187 184 207
3 189 185 208
3 187 209 211
3 193 190 211
3 191 212 215
3 206 231 216
3 209 207 217
3 208 216 219
3 209 218 220
3 211 220 223
3 212 221 224
3 214 223 225
3 201 215 224
3 202 200 225
3 201 226 228
3 202 227 229
3 203 228 230
3 206 204 229
3 205 230 217
3 224 247 232
3 227 225 233
3 226 232 235
3 227 234 236
3 228 235 237
3 229 236 238
3 230 237 239
3 231 238 240
3 218 217 239
3 219 216 240
3 218 241 243
3 220 243 246
3 221 244 247
3 223 246 233
3 241 239 248
3 242 240 250
3 241 249 252
3 243 252 255
3 244 253 256
3 246 255 257
3 232 247 256
3 234 233 257
3 235 232 258
3 234 259 261
3 235 260 262
3 238 236 261
3 237 262 248
3 238 263 250
3 259 257 264
3 260 258 266
3 259 265 268
3 262 260 267
3 261 268 270
3 262 269 271
3 263 270 272
3 249 248 271
3 250 272 274
3 249 273 275
3 252 275 278
3 253 276 279
3 255 278 264
3 256 279 266
3 274 272 280
3 273 295 282
3 278 275 282
3 276 283 286
3 278 285 287
3 279 286 288
3 265 264 287
3 267 266 288
3 265 289 291
3 269 267 290
3 268 291 293
3 269 292 294
3 272 270 293
3 273 271 294
3 288 310 296
3 289 311 297
3 292 290 296
3 293 291 297
3 292 298 300
3 293 299 301
3 295 294 300
3 281 280 301
3 295 302 304
3 282 304 307
3 283 305 308
3 285 307 309
3 286 308 310
3 289 287 309
3 304 302 312
3 304 313 316
3 305 314 317
3 307 316 318
3 308 317 319
3 311 309 318
3 296 310 319
3 311 320 322
3 298 296 321
3 297 322 324
3 298 323 325
3 299 324 326
3 302 300 325
3 301 326 327
3 320 343 328
3 323 321 329
3 322 328 331
3 323 330 332
3 326 324 331
3 312 325 332
3 326 333 335
3 312 334 336
3 313 336 339
3 314 337 340
3 316 339 341
3 317 340 342
3 320 318 341
3 321 319 342
3 336 358 345
3 337 359 346
3 339 345 347
3 340 346 348
3 343 341 347
3 329 342 348
3 328 343 349
3 330 329 350
3 328 351 353
3 330 352 354
3 333 331 353
3 334 332 354
3 335 333 355
3 334 356 358
3 351 374 360
3 352 375 361
3 355 353 360
3 356 354 361
3 355 362 364
3 356 363 365
3 358 365 368
3 346 359 366
3 345 368 370
3 346 369 371
3 349 347 370
3 350 348 371
3 349 372 374
3 352 350 373
3 369 366 376
3 368 391 378
3 369 377 379
3 372 370 378
3 373 371 379
3 372 380 382
3 373 381 383
3 360 374 382
3 375 383 385
3 362 360 384
3 363 361 385
3 362 386 388
3 363 387 389
3 368 365 389
3 383 407 392
3 386 384 393
3 387 385 392
3 386 394 396
3 387 395 397
3 391 389 397
3 377 376 398
3 391 400 402
3 377 401 403
3 380 378 402
3 381 379 403
3 380 404 406
3 383 381 405
3 382 406 393
3 400 423 408
3 401 424 409
3 404 402 408
3 405 403 409
3 404 410 412
3 405 411 413
3 406 412 414
3 407 413 415
3 416 511 417
3 395 392 415
3 416 418 420
3 395 419 421
3 397 421 423
3 398 422 424
3 418 417 425
3 427 449 428
3 418 426 430
3 427 429 431
3 434 432 431
3 422 433 436
3 434 435 437
3 439 424 436
3 441 438 437
3 443 439 440
3 441 442 445
3 447 443 444
3 446 445 425
3 447 448 428
3 436 464 450
3 442 437 451
3 440 450 453
3 442 452 454
3 448 444 453
3 445 454 456
3 448 455 457
3 425 456 458
3 429 428 457
3 426 458 460
3 429 459 461
3 435 431 461
3 433 462 464
3 435 463 451
3 459 457 465
3 458 479 467
3 461 459 466
3 461 468 470
3 462 469 471
3 463 470 472
3 464 471 473
3 452 451 472
3 450 473 475
3 452 474 476
3 455 453 475
3 456 454 476
3 455 477 465
3 456 478 479
3 474 472 480
3 475 473 482
3 474 481 484
3 477 475 483
3 476 484 486
3 477 485 487
3 478 486 488
3 466 465 487
3 479 488 490
3 466 489 491
3 468 491 493
3 471 469 492
3 470 493 480
3 473 471 494
3 490 488 495
3 489 509 497
3 491 497 499
3 492 498 500
3 493 499 501
3 494 500 502
3 481 480 501
3 482 502 504
3 481 503 505
3 485 483 504
3 484 505 507
3 485 506 508
3 486 507 495
3 489 487 508
3 503 3 5
3 506 504 2
3 505 5 9
3 508 506 7
3 507 9 13
3 509 508 11
3 495 13 17
3 497 509 15
3 497 19 25
3 500 498 20
3 499 25 29
3 502 500 27
3 503 501 29
3 504 502 0
