ply
format ascii 1.0
comment Created by Blender 2.78 (sub 0) - www.blender.org, source file: 'sphere.obj'
element vertex 360
property float x
property float y
property float z
element face 716
property list uchar uint vertex_indices
end_header
-0.233304 0.323104 -0.219848
-0.251313 0.228354 -0.302761
-0.310367 0.251845 -0.216086
-0.291887 0.146790 -0.315699
-0.336155 0.181185 -0.247557
-0.362877 0.076202 -0.266601
-0.260198 0.072199 -0.368562
-0.310082 0.012245 -0.331656
-0.349918 -0.016864 -0.289089
-0.305137 -0.059983 -0.331046
-0.343683 -0.065660 -0.289617
-0.341950 -0.130367 -0.271794
-0.257024 -0.131779 -0.351040
-0.266711 -0.214300 -0.304285
-0.325857 -0.202672 -0.242983
-0.252493 -0.269754 -0.264160
-0.295031 -0.257840 -0.229722
-0.235714 -0.325152 -0.214380
-0.269979 -0.341684 -0.129084
-0.307654 -0.295319 -0.156315
-0.316209 -0.322894 -0.055446
-0.340106 -0.276510 -0.119040
-0.255540 -0.367706 -0.076095
-0.262386 -0.369223 -0.033607
-0.199339 -0.409339 -0.024525
-0.206295 -0.396243 0.081194
-0.264457 -0.368436 0.025102
-0.255207 -0.361068 0.103918
-0.316567 -0.319970 0.076410
-0.258643 -0.329258 0.181882
-0.325474 -0.280741 0.146801
-0.353060 -0.268835 0.096829
-0.376531 -0.214690 0.141111
-0.302540 -0.255052 0.222764
-0.343927 -0.188451 0.229127
-0.378068 -0.156833 0.196895
-0.361707 -0.099867 0.259262
-0.278491 -0.202343 0.302232
-0.264500 -0.118428 0.348080
-0.310541 -0.037645 0.329266
-0.353765 -0.028715 0.283417
-0.348579 0.022320 0.290334
-0.305345 0.034743 0.334450
-0.343395 0.108954 0.279415
-0.251977 0.084211 0.371385
-0.277472 0.157092 0.323467
-0.314114 0.195727 0.263320
-0.238016 0.223698 0.314334
-0.286244 0.263392 0.234560
-0.222343 0.287631 0.272269
-0.244771 0.332399 0.194637
-0.309325 0.287443 0.167315
-0.302813 0.320607 0.098386
-0.335409 0.277676 0.129226
-0.247534 0.363026 0.115059
-0.261053 0.369730 0.038097
-0.351850 0.228532 0.176858
-0.360910 0.265943 0.075237
-0.410305 0.173487 0.096058
-0.378776 0.154727 0.197198
-0.444258 0.063567 0.071585
-0.406098 0.078534 0.192195
-0.449270 -0.044063 0.050264
-0.423164 -0.020446 0.165968
-0.427687 -0.150420 0.031909
-0.414783 -0.117724 0.145691
-0.443032 -0.069907 -0.073632
-0.408632 -0.176707 -0.099014
-0.366182 -0.254167 -0.087224
-0.378872 -0.251367 0.015848
-0.353000 -0.228029 -0.171678
-0.377778 -0.161341 -0.193783
-0.352644 -0.180871 -0.221881
-0.404799 -0.087335 -0.191313
-0.368589 -0.061931 -0.258083
-0.386874 -0.014835 -0.237503
-0.423228 0.009480 -0.167045
-0.416127 0.107480 -0.150096
-0.378102 0.146015 -0.204982
-0.378837 0.209683 -0.143382
-0.429901 0.143068 -0.035489
-0.387926 0.236961 -0.022448
-0.356388 0.268077 -0.086147
-0.319187 0.323432 -0.029203
-0.261959 0.370482 -0.020563
-0.255939 0.369498 -0.065314
-0.272522 0.343139 -0.119501
-0.319034 0.292179 -0.139599
-0.196261 0.411369 -0.018242
-0.200168 0.397844 0.088222
-0.125161 0.430872 0.074506
-0.097813 0.441945 -0.004175
-0.204172 0.375361 0.154005
-0.138779 0.401226 0.161280
-0.173985 0.366099 0.204941
-0.121896 0.374027 0.227034
-0.067146 0.395109 0.213728
-0.057014 0.426255 0.146319
-0.146965 0.330520 0.276935
-0.173735 0.268278 0.322711
-0.104690 0.274778 0.346208
-0.024978 0.316642 0.326138
-0.073631 0.361718 0.264647
-0.140236 0.206038 0.381784
-0.149795 0.107109 0.416308
-0.040539 0.133734 0.432519
-0.024730 0.230037 0.392020
-0.167663 0.008777 0.423003
-0.056718 0.028576 0.449879
-0.193446 -0.086651 0.403675
-0.077881 -0.078379 0.441086
-0.198273 -0.156621 0.377435
-0.110642 -0.179491 0.404733
-0.186543 -0.218135 0.352078
-0.152796 -0.278812 0.324371
-0.109938 -0.252775 0.360991
-0.077862 -0.317338 0.317219
-0.173553 -0.326212 0.261874
-0.139213 -0.371769 0.220697
-0.100468 -0.359601 0.258636
-0.217451 -0.264164 0.298717
-0.083878 -0.393434 0.210886
-0.149256 -0.399483 0.156212
-0.067355 -0.425397 0.144419
-0.188443 -0.363618 0.196394
-0.131460 -0.429565 0.070528
-0.043290 -0.447487 0.063947
-0.103049 -0.441031 -0.007003
-0.024211 -0.453240 -0.025551
-0.104397 -0.428492 -0.114713
0.000591 -0.443340 -0.100748
-0.159477 -0.379743 -0.191488
-0.094187 -0.392921 -0.207456
-0.009296 -0.417293 -0.187485
-0.135781 -0.344925 -0.266541
-0.202824 -0.280994 -0.293746
-0.132472 -0.288513 -0.324822
-0.047298 -0.321541 -0.318638
-0.052862 -0.373507 -0.252972
-0.175545 -0.226161 -0.352275
-0.191401 -0.163683 -0.377985
-0.103157 -0.182343 -0.405221
-0.094371 -0.257409 -0.362120
-0.190390 -0.093921 -0.403610
-0.076455 -0.080587 -0.440934
-0.169759 0.002622 -0.422406
-0.057950 0.026249 -0.449893
-0.153597 0.103795 -0.415829
-0.039685 0.132356 -0.433038
-0.140687 0.209175 -0.380002
-0.090593 0.281235 -0.345167
-0.015018 0.229700 -0.392984
0.003482 0.317673 -0.326756
-0.112644 0.345663 -0.276853
-0.080568 0.393982 -0.211126
-0.028489 0.373139 -0.257373
-0.170332 0.283393 -0.312473
0.004154 0.417558 -0.187269
-0.097677 0.430568 -0.113708
0.007704 0.443689 -0.099278
-0.150600 0.381915 -0.194629
-0.018313 0.453752 -0.023648
0.070617 0.447123 -0.035346
0.084439 0.429132 -0.120476
-0.036259 0.447779 0.065785
0.051318 0.448361 0.051084
0.036412 0.429573 0.141526
0.105940 0.428137 0.108512
0.141256 0.429521 0.039488
-0.003559 0.407547 0.200479
0.071600 0.392194 0.222996
0.115486 0.405545 0.168804
0.177929 0.354642 0.224782
0.091741 0.333199 0.300110
0.136992 0.282699 0.328048
0.169386 0.300309 0.295672
-0.001219 0.372764 0.259609
0.190607 0.242878 0.333130
0.093406 0.253435 0.366708
0.076692 0.154976 0.420503
0.189791 0.166016 0.379329
0.061417 0.049911 0.447294
0.167663 0.071562 0.416525
0.042397 -0.057797 0.448552
0.165807 -0.038956 0.421712
0.026933 -0.171813 0.420313
0.121237 -0.125474 0.420570
-0.025324 -0.257582 0.376402
0.068477 -0.255632 0.369466
0.151190 -0.212244 0.375039
0.043006 -0.329041 0.313533
-0.029964 -0.371139 0.260151
0.050711 -0.394450 0.230510
0.158978 -0.354236 0.238751
0.130236 -0.289748 0.324661
-0.019826 -0.406859 0.200929
0.025851 -0.430907 0.143060
0.099308 -0.429230 0.110445
0.103472 -0.406561 0.174061
0.045062 -0.449140 0.050313
0.137761 -0.431512 0.039232
0.065226 -0.447812 -0.037128
0.145369 -0.426676 -0.056269
0.076316 -0.429805 -0.123394
0.159541 -0.401189 -0.140847
0.086205 -0.398351 -0.200135
0.105055 -0.361699 -0.253844
0.148563 -0.374641 -0.209458
0.182020 -0.329339 -0.258175
0.071775 -0.316711 -0.320436
0.081097 -0.247129 -0.372401
0.144302 -0.274355 -0.331971
0.026272 -0.371057 -0.261303
0.154353 -0.203476 -0.378742
0.031863 -0.169314 -0.420836
0.120448 -0.122839 -0.419614
-0.009600 -0.255518 -0.378014
0.042017 -0.058501 -0.448475
0.162556 -0.042070 -0.422572
0.061102 0.047112 -0.447620
0.168264 0.064646 -0.417319
0.081584 0.150278 -0.421316
0.197176 0.154760 -0.380246
0.108750 0.245201 -0.368463
0.155853 0.269544 -0.330697
0.205032 0.228563 -0.334689
0.123425 0.318554 -0.305044
0.055118 0.369886 -0.258467
0.130742 0.360767 -0.243008
0.209469 0.329670 -0.237230
0.191458 0.282574 -0.299659
0.101788 0.397483 -0.194577
0.168281 0.400218 -0.133325
0.165293 0.373665 -0.198373
0.212491 0.364554 -0.168070
0.278159 0.328437 -0.140938
0.280125 0.289905 -0.209248
0.231274 0.373364 -0.115806
0.267139 0.361119 -0.067296
0.324547 0.317770 -0.029985
0.342655 0.278767 -0.105717
0.322006 0.273853 -0.166182
0.375847 0.211383 -0.147888
0.379492 0.153503 -0.196779
0.333159 0.187551 -0.250241
0.317314 0.246152 -0.212180
0.379596 0.094205 -0.235708
0.295749 0.123494 -0.324856
0.269283 0.196164 -0.308716
0.342181 0.030890 -0.296976
0.297323 0.056991 -0.338602
0.332155 -0.037996 -0.307456
0.292598 0.005347 -0.347357
0.278214 -0.085161 -0.353135
0.355980 -0.101278 -0.263011
0.319747 -0.165546 -0.277039
0.249568 -0.183804 -0.335341
0.288310 -0.233391 -0.262113
0.216883 -0.256359 -0.306069
0.255554 -0.287777 -0.241197
0.302467 -0.271694 -0.202474
0.266609 -0.330210 -0.165861
0.327272 -0.279468 -0.145223
0.322111 -0.315470 -0.062611
0.262540 -0.361017 -0.083898
0.223305 -0.373910 -0.128939
0.213005 -0.395360 -0.067954
0.264647 -0.370167 0.005642
0.198163 -0.408689 -0.002080
0.212222 -0.396266 0.065105
0.268953 -0.340820 0.139271
0.322470 -0.317332 0.040831
0.340767 -0.282625 0.101476
0.325099 -0.275880 0.156525
0.377511 -0.209617 0.146322
0.383456 -0.139886 0.199232
0.340004 -0.163292 0.255198
0.296512 -0.258886 0.227250
0.381131 -0.071555 0.242235
0.289252 -0.076034 0.346735
0.257245 -0.192624 0.324891
0.342326 -0.008802 0.298379
0.295165 0.023667 0.344405
0.338286 0.066884 0.295608
0.293844 0.077966 0.337460
0.285059 0.145260 0.325268
0.356349 0.136897 0.245781
0.309361 0.213098 0.250931
0.254677 0.215304 0.308355
0.239594 0.278563 0.267139
0.292735 0.282559 0.201904
0.247454 0.317031 0.211085
0.266096 0.344267 0.136524
0.311685 0.290803 0.156817
0.324416 0.295150 0.118070
0.313007 0.323221 0.062076
0.262909 0.369387 0.016355
0.213234 0.395548 0.066118
0.349389 0.239001 0.162314
0.381115 0.168926 0.180317
0.408832 0.181807 0.086602
0.358687 0.270822 0.062960
0.408175 0.094934 0.179545
0.443642 0.073209 0.066241
0.426814 -0.004533 0.157949
0.450445 -0.034233 0.047814
0.419975 -0.104198 0.141956
0.430320 -0.143107 0.030460
0.444587 -0.060212 -0.072140
0.411079 -0.167671 -0.104169
0.380596 -0.249047 0.009049
0.366190 -0.249535 -0.099926
0.353225 -0.213773 -0.193814
0.382429 -0.144092 -0.198204
0.355989 -0.157519 -0.234010
0.370674 -0.034652 -0.260192
0.408851 -0.070169 -0.188413
0.390996 0.008584 -0.230972
0.426077 0.022599 -0.157419
0.449066 0.045264 -0.050845
0.416880 0.115413 -0.141789
0.427614 0.149106 -0.037832
0.375448 0.079789 0.242844
0.384609 0.025027 0.240049
0.353285 0.190337 0.212752
0.384395 0.241299 -0.029799
0.199994 0.407795 0.002167
0.216611 0.394767 -0.059484
0.149647 0.425660 -0.052421
0.174766 0.401814 0.127957
0.248414 0.082417 0.371203
0.231665 0.192509 0.339962
0.237293 0.011630 0.387142
0.200386 -0.131313 0.383795
0.210444 -0.274603 0.292938
0.238343 -0.311549 0.228972
0.169972 -0.405286 0.132942
0.198736 -0.365413 -0.182420
0.234174 0.001845 -0.389189
0.196858 -0.129869 -0.388446
0.250927 0.068525 -0.372344
0.242815 0.176870 -0.340674
0.261233 0.255327 -0.269917
-0.207357 0.385254 -0.126217
-0.223735 0.155595 -0.363435
-0.251574 -0.022521 -0.377342
-0.252914 -0.076242 -0.369490
-0.223869 -0.184110 -0.349698
-0.208723 -0.381358 -0.128364
-0.213664 -0.373335 0.145835
-0.244512 -0.288715 0.251311
-0.261425 -0.253762 0.271231
-0.232809 -0.174801 0.348635
-0.256904 -0.063156 0.369204
-0.251220 -0.009547 0.378118
-0.215325 0.158622 0.367118
-0.449684 0.036647 -0.052650
-0.383014 0.000816 0.244130
-0.373262 0.053074 0.253295
-0.350723 0.173463 0.230659
3 0 1 2
3 1 3 4
3 1 4 2
3 5 4 3
3 5 3 6
3 5 6 7
3 5 7 8
3 8 7 9
3 8 9 10
3 11 10 9
3 11 9 12
3 11 12 13
3 11 13 14
3 13 15 16
3 13 16 14
3 17 16 15
3 17 18 19
3 17 19 16
3 20 21 19
3 20 19 18
3 20 18 22
3 20 22 23
3 24 23 22
3 24 25 26
3 24 26 23
3 25 27 26
3 28 26 27
3 28 27 29
3 28 29 30
3 28 30 31
3 32 31 30
3 32 30 33
3 32 33 34
3 32 34 35
3 36 35 34
3 36 34 37
3 36 37 38
3 36 38 39
3 36 39 40
3 41 40 39
3 41 39 42
3 43 41 42
3 43 42 44
3 43 44 45
3 43 45 46
3 47 48 46
3 47 46 45
3 49 48 47
3 50 51 48
3 50 48 49
3 52 53 51
3 52 51 50
3 52 50 54
3 52 54 55
3 56 51 53
3 56 53 57
3 56 57 58
3 56 58 59
3 58 60 61
3 58 61 59
3 60 62 63
3 60 63 61
3 62 64 65
3 62 65 63
3 66 67 64
3 66 64 62
3 67 68 69
3 67 69 64
3 20 28 69
3 20 69 68
3 70 21 68
3 70 68 67
3 70 67 71
3 70 71 72
3 11 72 71
3 11 71 73
3 11 73 74
3 75 74 73
3 75 73 76
3 5 75 76
3 5 76 77
3 5 77 78
3 79 78 77
3 79 77 80
3 79 80 81
3 79 81 82
3 83 82 81
3 83 81 57
3 83 57 52
3 83 84 85
3 83 85 86
3 83 86 87
3 83 87 82
3 88 85 84
3 88 84 55
3 88 55 89
3 88 89 90
3 88 90 91
3 89 54 92
3 89 92 93
3 89 93 90
3 93 92 94
3 93 94 95
3 93 95 96
3 93 96 97
3 98 95 94
3 98 99 100
3 98 100 101
3 98 101 102
3 98 102 95
3 103 100 99
3 103 104 105
3 103 105 106
3 103 106 100
3 104 107 108
3 104 108 105
3 107 109 110
3 107 110 108
3 109 111 112
3 109 112 110
3 113 114 115
3 113 115 112
3 113 112 111
3 116 115 114
3 117 118 119
3 117 119 116
3 117 116 114
3 117 114 120
3 121 119 118
3 122 123 121
3 122 121 118
3 122 118 124
3 125 126 123
3 125 123 122
3 127 128 126
3 127 126 125
3 129 130 128
3 129 128 127
3 129 131 132
3 129 132 133
3 129 133 130
3 134 132 131
3 134 135 136
3 134 136 137
3 134 137 138
3 134 138 132
3 139 136 135
3 139 140 141
3 139 141 142
3 139 142 136
3 143 144 141
3 143 141 140
3 145 146 144
3 145 144 143
3 147 148 146
3 147 146 145
3 149 150 151
3 149 151 148
3 149 148 147
3 152 151 150
3 153 154 155
3 153 155 152
3 153 152 150
3 153 150 156
3 157 155 154
3 158 159 157
3 158 157 154
3 158 154 160
3 158 91 161
3 158 161 159
3 159 161 162
3 159 162 163
3 161 164 165
3 161 165 162
3 164 97 166
3 164 166 165
3 165 166 167
3 165 167 168
3 166 169 170
3 166 170 171
3 166 171 167
3 172 171 170
3 173 174 175
3 173 175 172
3 173 172 170
3 173 170 176
3 177 175 174
3 178 179 180
3 178 180 177
3 178 177 174
3 179 181 182
3 179 182 180
3 181 183 184
3 181 184 182
3 183 185 186
3 183 186 184
3 185 187 188
3 185 188 189
3 185 189 186
3 190 188 187
3 190 191 192
3 190 192 193
3 190 193 194
3 190 194 188
3 195 192 191
3 196 197 198
3 196 198 192
3 196 192 195
3 199 200 197
3 199 197 196
3 201 202 200
3 201 200 199
3 203 204 202
3 203 202 201
3 205 206 207
3 205 207 204
3 205 204 203
3 208 207 206
3 209 210 211
3 209 211 208
3 209 208 206
3 209 206 212
3 213 211 210
3 214 215 213
3 214 213 210
3 214 210 216
3 217 218 215
3 217 215 214
3 219 220 218
3 219 218 217
3 221 222 220
3 221 220 219
3 223 224 225
3 223 225 222
3 223 222 221
3 226 224 223
3 226 227 228
3 226 228 229
3 226 229 230
3 226 230 224
3 231 228 227
3 231 163 232
3 231 232 233
3 231 233 228
3 232 234 233
3 229 233 234
3 229 234 235
3 229 235 236
3 235 234 237
3 235 237 238
3 235 238 239
3 235 239 240
3 235 240 241
3 242 241 240
3 242 243 244
3 242 244 245
3 242 245 241
3 246 244 243
3 247 248 244
3 247 244 246
3 247 246 249
3 247 249 250
3 249 251 252
3 249 252 250
3 253 252 251
3 253 251 254
3 253 254 255
3 253 255 256
3 256 255 257
3 256 257 258
3 259 258 257
3 259 257 260
3 259 260 261
3 261 260 262
3 261 262 263
3 261 263 264
3 261 264 265
3 266 265 264
3 266 264 267
3 266 267 268
3 268 267 269
3 270 269 267
3 270 267 271
3 270 271 272
3 270 272 273
3 274 273 272
3 274 275 276
3 274 276 277
3 274 277 273
3 278 276 275
3 279 280 276
3 279 276 278
3 279 278 281
3 279 281 282
3 283 284 282
3 283 282 281
3 285 284 283
3 285 283 286
3 285 286 287
3 285 287 288
3 289 288 287
3 289 287 290
3 291 289 290
3 292 291 290
3 292 290 293
3 292 293 294
3 292 294 295
3 292 295 296
3 292 296 297
3 298 294 293
3 298 299 300
3 298 300 301
3 298 301 294
3 300 299 302
3 300 302 303
3 303 302 304
3 303 304 305
3 305 304 306
3 305 306 307
3 308 305 307
3 308 307 309
3 309 307 310
3 309 310 311
3 263 311 310
3 263 310 271
3 312 313 309
3 312 309 311
3 312 311 262
3 312 314 313
3 254 315 316
3 254 316 313
3 254 313 314
3 317 318 316
3 317 316 315
3 318 319 308
3 318 308 316
3 320 321 319
3 320 319 318
3 316 308 309
3 316 309 313
3 302 322 323
3 302 323 304
3 319 303 305
3 319 305 308
3 286 322 302
3 286 302 299
3 286 299 324
3 321 300 303
3 321 303 319
3 298 324 299
3 325 301 300
3 325 300 321
3 239 295 301
3 239 301 325
3 326 297 296
3 327 326 296
3 327 296 238
3 328 168 326
3 328 326 327
3 295 294 301
3 292 297 329
3 298 293 290
3 298 290 287
3 298 287 324
3 285 330 284
3 286 324 287
3 286 283 322
3 285 288 331
3 330 332 282
3 330 282 284
3 283 281 323
3 283 323 322
3 279 282 332
3 278 323 281
3 279 333 280
3 189 194 334
3 189 334 280
3 189 280 333
3 278 275 306
3 278 306 304
3 278 304 323
3 280 334 277
3 280 277 276
3 335 277 334
3 274 306 275
3 274 272 310
3 274 310 307
3 274 307 306
3 270 273 277
3 270 277 335
3 193 198 336
3 193 336 270
3 193 270 335
3 271 310 272
3 270 336 269
3 312 262 260
3 263 271 267
3 263 267 264
3 263 262 311
3 261 265 337
3 312 260 257
3 312 257 255
3 312 255 314
3 254 314 255
3 253 338 252
3 254 251 315
3 253 256 339
3 340 250 252
3 340 252 338
3 249 317 315
3 249 315 251
3 247 250 340
3 246 317 249
3 247 341 248
3 225 230 342
3 225 342 248
3 225 248 341
3 246 243 320
3 246 320 318
3 246 318 317
3 342 245 244
3 342 244 248
3 236 245 342
3 242 320 243
3 242 240 325
3 242 325 321
3 242 321 320
3 327 238 237
3 239 238 296
3 239 296 295
3 239 325 240
3 236 235 241
3 236 241 245
3 232 328 327
3 232 327 237
3 232 237 234
3 229 228 233
3 229 236 342
3 229 342 230
3 225 224 230
3 225 341 222
3 222 341 247
3 222 247 340
3 222 340 220
3 220 340 338
3 220 338 218
3 218 338 253
3 218 253 339
3 218 339 215
3 213 215 339
3 213 339 256
3 213 256 258
3 213 258 211
3 209 216 210
3 137 142 216
3 137 216 209
3 208 211 258
3 208 258 259
3 208 259 261
3 208 261 337
3 208 337 207
3 205 212 206
3 133 138 212
3 133 212 205
3 204 207 337
3 204 337 265
3 204 265 266
3 204 266 202
3 202 266 268
3 202 268 200
3 200 268 269
3 200 269 336
3 200 336 197
3 197 336 198
3 193 192 198
3 193 335 334
3 193 334 194
3 189 188 194
3 189 333 186
3 184 186 333
3 184 333 279
3 184 279 332
3 182 184 332
3 182 332 330
3 180 182 330
3 180 330 285
3 180 285 331
3 177 180 331
3 177 331 288
3 177 288 289
3 177 289 175
3 173 178 174
3 101 106 178
3 101 178 173
3 172 175 289
3 172 289 291
3 172 291 292
3 172 292 329
3 172 329 171
3 169 176 170
3 96 102 176
3 96 176 169
3 167 171 329
3 168 167 329
3 168 329 297
3 168 297 326
3 162 165 168
3 162 168 328
3 163 162 328
3 163 328 232
3 157 159 163
3 157 163 231
3 158 160 343
3 0 86 343
3 0 343 160
3 0 160 153
3 157 231 227
3 157 227 155
3 153 160 154
3 152 155 227
3 152 227 226
3 152 226 223
3 152 223 151
3 149 156 150
3 151 223 221
3 151 221 148
3 149 147 344
3 148 221 219
3 148 219 146
3 6 344 147
3 6 147 145
3 6 145 345
3 146 219 217
3 146 217 144
3 345 145 143
3 345 143 346
3 144 217 214
3 144 214 141
3 12 346 143
3 12 143 140
3 12 140 347
3 141 214 216
3 141 216 142
3 139 347 140
3 137 136 142
3 137 209 212
3 137 212 138
3 133 132 138
3 133 205 203
3 133 203 130
3 129 348 131
3 130 203 201
3 130 201 128
3 128 201 199
3 128 199 126
3 126 199 196
3 126 196 123
3 123 196 195
3 123 195 121
3 122 124 349
3 29 349 124
3 29 124 117
3 29 117 350
3 121 195 191
3 121 191 119
3 117 124 118
3 116 119 191
3 116 191 190
3 350 117 120
3 350 120 351
3 37 351 120
3 37 120 113
3 37 113 352
3 350 351 33
3 116 190 187
3 116 187 115
3 113 120 114
3 112 115 187
3 112 187 185
3 113 111 352
3 110 112 185
3 110 185 183
3 38 352 111
3 38 111 109
3 38 109 353
3 108 110 183
3 108 183 181
3 354 353 109
3 354 109 107
3 105 108 181
3 105 181 179
3 44 354 107
3 44 107 104
3 44 104 355
3 106 105 179
3 106 179 178
3 103 355 104
3 101 100 106
3 101 173 176
3 101 176 102
3 96 95 102
3 97 96 169
3 97 169 166
3 90 93 97
3 90 97 164
3 91 90 164
3 91 164 161
3 88 91 158
3 88 158 343
3 88 343 85
3 86 85 343
3 79 82 87
3 77 76 356
3 77 356 80
3 76 73 66
3 76 66 356
3 73 71 67
3 73 67 66
3 61 63 357
3 61 357 358
3 356 66 62
3 356 62 60
3 43 359 59
3 43 59 61
3 43 61 358
3 80 356 60
3 80 60 58
3 56 59 359
3 81 80 58
3 81 58 57
3 89 55 54
3 83 52 55
3 83 55 84
3 50 92 54
3 52 57 53
3 50 49 98
3 50 98 94
3 50 94 92
3 49 47 99
3 49 99 98
3 56 359 46
3 56 46 48
3 56 48 51
3 47 45 355
3 47 355 103
3 47 103 99
3 44 42 354
3 43 46 359
3 44 355 45
3 43 358 41
3 354 42 39
3 354 39 353
3 41 358 357
3 41 357 40
3 38 353 39
3 38 37 352
3 36 40 357
3 36 357 63
3 36 63 65
3 36 65 35
3 37 34 33
3 37 33 351
3 32 35 65
3 32 65 64
3 32 64 69
3 32 69 31
3 29 350 33
3 29 33 30
3 29 27 349
3 28 31 69
3 25 125 122
3 25 122 349
3 25 349 27
3 24 127 125
3 24 125 25
3 24 22 348
3 24 348 129
3 24 129 127
3 70 19 21
3 20 23 26
3 20 26 28
3 18 348 22
3 20 68 21
3 17 134 131
3 17 131 348
3 17 348 18
3 17 15 135
3 17 135 134
3 70 72 14
3 70 14 16
3 70 16 19
3 13 347 139
3 13 139 135
3 13 135 15
3 11 14 72
3 12 9 346
3 12 347 13
3 11 74 10
3 345 346 9
3 345 9 7
3 8 10 74
3 8 74 75
3 5 78 4
3 6 345 7
3 6 3 344
3 5 8 75
3 79 87 2
3 79 2 4
3 79 4 78
3 1 156 149
3 1 149 344
3 1 344 3
3 0 2 87
3 0 87 86
3 0 153 156
3 0 156 1
