ply
format ascii 1.0
comment Created by Blender 2.79 (sub 0) - www.blender.org, source file: ''
comment Element "face" contains list property "ind1983". This name
comment   means containing custom fields
comment Additional properties of element "face": 
comment   - "attr" is represents attributes of polygon in hex code
comment   - "color" is represents color of polygon face in ARGB format
comment 0x0 - single sided
comment 0x1 - double sided
comment 0x2 - flat shading
comment 0x4 - phong shading
comment 0x8 - gourang shading
comment 0x10 - hidden surface
comment 0x20 - reserved
element vertex 26
property float x
property float y
property float z
property float nx
property float ny
property float nz
element face 12
property list uchar uint ind1983
property uint attr
property uint color
end_header
1.159963 -0.688957 -1.041474 -0.000000 -0.000000 -1.000000
-0.840037 1.311043 -1.041474 -0.000000 -0.000000 -1.000000
1.159963 1.311043 -1.041474 -0.000000 -0.000000 -1.000000
-0.840037 1.311043 0.958526 0.000000 0.000000 1.000000
1.159962 -0.688958 0.958526 0.000000 0.000000 1.000000
1.159963 1.311042 0.958526 0.000000 0.000000 1.000000
1.159963 1.311042 0.958526 1.000000 0.000000 -0.000000
1.159963 -0.688957 -1.041474 1.000000 0.000000 -0.000000
1.159963 1.311043 -1.041474 1.000000 0.000000 -0.000000
1.159962 -0.688958 0.958526 -0.000000 -1.000000 -0.000000
-0.840037 -0.688957 -1.041474 -0.000000 -1.000000 -0.000000
1.159963 -0.688957 -1.041474 -0.000000 -1.000000 -0.000000
-0.840037 -0.688957 -1.041474 -1.000000 0.000000 -0.000000
-0.840037 1.311043 0.958526 -1.000000 0.000000 -0.000000
-0.840037 1.311043 -1.041474 -1.000000 0.000000 -0.000000
1.159963 1.311043 -1.041474 0.000000 1.000000 0.000000
-0.840037 1.311043 0.958526 0.000000 1.000000 0.000000
1.159963 1.311042 0.958526 0.000000 1.000000 0.000000
-0.840037 -0.688957 -1.041474 0.000000 -0.000000 -1.000000
-0.840038 -0.688957 0.958526 0.000000 -0.000000 1.000000
1.159963 1.311042 0.958526 1.000000 -0.000001 0.000000
1.159962 -0.688958 0.958526 1.000000 -0.000001 0.000000
1.159963 -0.688957 -1.041474 1.000000 -0.000001 0.000000
-0.840038 -0.688957 0.958526 -0.000000 -1.000000 0.000000
-0.840038 -0.688957 0.958526 -1.000000 0.000000 -0.000000
-0.840037 1.311043 -1.041474 0.000000 1.000000 0.000000
3 0 1 2 0 4294967295
3 3 4 5 0 4294967295
3 6 7 8 0 4294967295
3 9 10 11 0 4294967295
3 12 13 14 0 4294967295
3 15 16 17 0 4294967295
3 0 18 1 0 4294967295
3 3 19 4 0 4294967295
3 20 21 22 0 4294967295
3 9 23 10 0 4294967295
3 12 24 13 0 4294967295
3 15 25 16 0 4294967295
