ply
format ascii 1.0
comment Created by Blender 2.78 (sub 0) - www.blender.org, source file: ''
element globals_ply_v2 1
property uint shading
element vertex 14
property float x
property float y
property float z
property float s
property float t
element face 12
property list uchar uint vertex_indices
end_header
2
-1.000000 -1.000000 -1.000000 0.250488 0.333984
1.000000 -1.000000 -1.000000 0.499512 0.333984
1.000000 1.000000 -1.000000 0.499512 0.000651
1.000000 1.000000 1.000000 0.499512 0.999349
0.999999 -1.000000 1.000000 0.499512 0.666016
-1.000001 -0.999999 1.000000 0.250488 0.666016
-1.000000 1.000000 -1.000000 0.000488 0.333984
-1.000000 1.000000 -1.000000 0.999512 0.333984
1.000000 1.000000 -1.000000 0.750000 0.333984
1.000000 1.000000 1.000000 0.750000 0.666016
-1.000000 1.000000 -1.000000 0.250488 0.000651
-1.000000 1.000000 1.000000 0.250488 0.999349
-1.000000 1.000000 1.000000 0.000488 0.666014
-1.000000 1.000000 1.000000 0.999512 0.666016
3 2 1 0
3 5 4 3
3 0 1 4
3 0 5 6
3 9 8 7
3 9 4 1
3 10 2 0
3 11 5 3
3 0 4 5
3 12 6 5
3 13 9 7
3 8 9 1
