ply
format ascii 1.0
comment Created by Blender 2.79 (sub 0) - www.blender.org, source file: ''
comment Property "shading" of element "globals_ply_v2"
comment   0x2  = const shading
comment   0x4  = flat shading
comment   0x8  = phong shading
comment   0x10 = gourang shading
element globals_ply_v2 1
property uint shading
element vertex 72
property float x
property float y
property float z
property float s
property float t
element face 62
property list uchar uint vertex_indices
end_header
4
0.000000 1.000000 -1.000000 0.462304 0.398711
0.000000 0.000000 1.000000 0.757901 0.000000
0.195090 0.980785 -1.000000 0.491955 0.422495
0.382683 0.923880 -1.000000 0.526589 0.444324
0.555570 0.831470 -1.000000 0.564873 0.463358
0.707107 0.707107 -1.000000 0.605339 0.478866
0.831470 0.555570 -1.000000 0.646429 0.490251
0.923880 0.382683 -1.000000 0.686565 0.497077
0.980785 0.195090 -1.000000 0.724205 0.499082
1.000000 0.000000 -1.000000 0.757901 0.496187
1.000000 0.000000 -1.000000 0.438775 0.894539
0.000000 0.000000 1.000000 0.731960 0.499082
0.980785 -0.195090 -1.000000 0.463921 0.917650
0.923880 -0.382683 -1.000000 0.495103 0.939291
0.831470 -0.555570 -1.000000 0.531125 0.958631
0.707107 -0.707107 -1.000000 0.570601 0.974925
0.555570 -0.831470 -1.000000 0.612015 0.987548
0.382683 -0.923880 -1.000000 0.653774 0.996015
0.195090 -0.980785 -1.000000 0.694275 1.000000
-0.000000 -1.000000 -1.000000 0.731960 0.999350
-0.000000 -1.000000 -1.000000 0.731960 0.917650
0.000000 0.000000 1.000000 1.000000 0.499082
-0.195091 -0.980785 -1.000000 0.763143 0.939291
-0.382684 -0.923879 -1.000000 0.799165 0.958631
-0.555571 -0.831469 -1.000000 0.838641 0.974925
-0.707107 -0.707106 -1.000000 0.880054 0.987548
-0.831470 -0.555570 -1.000000 0.921814 0.996015
-0.923880 -0.382683 -1.000000 0.962315 1.000000
-0.980785 -0.195089 -1.000000 1.000000 0.999350
-0.980785 -0.195089 -1.000000 0.293186 0.449160
0.000000 0.000000 1.000000 0.293186 0.949429
-1.000000 0.000001 -1.000000 0.255500 0.448511
-0.980785 0.195091 -1.000000 0.214999 0.452496
-0.923879 0.382684 -1.000000 0.173240 0.460963
-0.831469 0.555571 -1.000000 0.131826 0.473586
-0.707106 0.707108 -1.000000 0.092350 0.489880
-0.555569 0.831470 -1.000000 0.056329 0.509219
-0.382682 0.923880 -1.000000 0.025146 0.530860
-0.195089 0.980786 -1.000000 0.000000 0.553972
-0.195089 0.980786 -1.000000 0.438775 0.373885
0.195090 -0.980785 -1.000000 0.430344 0.158842
-0.980785 -0.195089 -1.000000 0.283380 0.439893
0.980785 0.195090 -1.000000 0.155394 0.008618
-0.195089 0.980786 -1.000000 0.008431 0.289668
0.000000 1.000000 -1.000000 0.000000 0.246343
0.195090 0.980785 -1.000000 0.000000 0.202168
0.382683 0.923880 -1.000000 0.008431 0.158843
0.555570 0.831470 -1.000000 0.024969 0.118031
0.707107 0.707107 -1.000000 0.048978 0.081301
0.831470 0.555570 -1.000000 0.079536 0.050065
0.923880 0.382683 -1.000000 0.115468 0.025523
1.000000 0.000000 -1.000000 0.197780 0.000000
0.980785 -0.195090 -1.000000 0.240995 0.000000
0.923880 -0.382683 -1.000000 0.283380 0.008618
0.831470 -0.555570 -1.000000 0.323306 0.025523
0.707107 -0.707107 -1.000000 0.359239 0.050065
0.555570 -0.831470 -1.000000 0.389797 0.081301
0.382683 -0.923880 -1.000000 0.413806 0.118031
-0.000000 -1.000000 -1.000000 0.438775 0.202168
-0.195091 -0.980785 -1.000000 0.438775 0.246343
-0.382684 -0.923879 -1.000000 0.430344 0.289668
-0.555571 -0.831469 -1.000000 0.413806 0.330480
-0.707107 -0.707106 -1.000000 0.389797 0.367210
-0.831470 -0.555570 -1.000000 0.359239 0.398446
-0.923880 -0.382683 -1.000000 0.323306 0.422988
-1.000000 0.000001 -1.000000 0.240995 0.448511
-0.980785 0.195091 -1.000000 0.197779 0.448511
-0.923879 0.382684 -1.000000 0.155394 0.439893
-0.831469 0.555571 -1.000000 0.115468 0.422988
-0.707106 0.707108 -1.000000 0.079536 0.398446
-0.555569 0.831470 -1.000000 0.048978 0.367210
-0.382682 0.923880 -1.000000 0.024969 0.330480
3 0 1 2
3 2 1 3
3 3 1 4
3 4 1 5
3 5 1 6
3 6 1 7
3 7 1 8
3 8 1 9
3 10 11 12
3 12 11 13
3 13 11 14
3 14 11 15
3 15 11 16
3 16 11 17
3 17 11 18
3 18 11 19
3 20 21 22
3 22 21 23
3 23 21 24
3 24 21 25
3 25 21 26
3 26 21 27
3 27 21 28
3 29 30 31
3 31 30 32
3 32 30 33
3 33 30 34
3 34 30 35
3 35 30 36
3 36 30 37
3 37 30 38
3 39 1 0
3 40 41 42
3 43 44 45
3 45 46 47
3 47 48 49
3 49 50 47
3 42 51 52
3 52 53 42
3 54 55 40
3 56 57 40
3 40 58 59
3 59 60 61
3 61 62 63
3 63 64 41
3 41 65 66
3 66 67 68
3 68 69 43
3 70 71 43
3 43 45 42
3 47 50 42
3 42 53 54
3 55 56 40
3 40 59 41
3 61 63 41
3 41 66 43
3 69 70 43
3 45 47 42
3 42 54 40
3 59 61 41
3 66 68 43
3 43 42 41
