ply
format ascii 1.0
comment Created by Blender 2.79 (sub 0) - www.blender.org, source file: ''
comment Property "shading" of element "globals_ply_v2"
comment   0x2  = const shading
comment   0x4  = flat shading
comment   0x8  = phong shading
comment   0x10 = gourang shading
element globals_ply_v2 1
property uint shading
element vertex 26
property float x
property float y
property float z
property float nx
property float ny
property float nz
property float s
property float t
element face 12
property list uchar uint vertex_indices
end_header
4
1.000000 -1.000000 -1.000000 -0.000000 -0.000000 -1.000000 1.000000 0.000000
-1.000000 1.000000 -1.000000 -0.000000 -0.000000 -1.000000 0.000000 1.000000
1.000000 1.000000 -1.000000 -0.000000 -0.000000 -1.000000 0.000000 0.000000
-1.000000 1.000000 1.000000 0.000000 0.000000 1.000000 1.000000 0.000000
0.999999 -1.000001 1.000000 0.000000 0.000000 1.000000 0.000000 1.000000
1.000000 0.999999 1.000000 0.000000 0.000000 1.000000 0.000000 0.000000
1.000000 0.999999 1.000000 1.000000 0.000000 -0.000000 1.000000 0.000000
1.000000 -1.000000 -1.000000 1.000000 0.000000 -0.000000 0.000000 1.000000
1.000000 1.000000 -1.000000 1.000000 0.000000 -0.000000 0.000000 0.000000
0.999999 -1.000001 1.000000 -0.000000 -1.000000 -0.000000 1.000000 0.000000
-1.000000 -1.000000 -1.000000 -0.000000 -1.000000 -0.000000 0.000000 1.000000
1.000000 -1.000000 -1.000000 -0.000000 -1.000000 -0.000000 0.000000 0.000000
-1.000000 -1.000000 -1.000000 -1.000000 0.000000 -0.000000 0.000000 0.000000
-1.000000 1.000000 1.000000 -1.000000 0.000000 -0.000000 1.000000 1.000000
-1.000000 1.000000 -1.000000 -1.000000 0.000000 -0.000000 0.000000 1.000000
1.000000 1.000000 -1.000000 0.000000 1.000000 0.000000 1.000000 0.000000
-1.000000 1.000000 1.000000 0.000000 1.000000 0.000000 0.000000 1.000000
1.000000 0.999999 1.000000 0.000000 1.000000 0.000000 0.000000 0.000000
-1.000000 -1.000000 -1.000000 0.000000 -0.000000 -1.000000 1.000000 1.000000
-1.000000 -1.000000 1.000000 0.000000 -0.000000 1.000000 1.000000 1.000000
1.000000 0.999999 1.000000 1.000000 -0.000001 0.000000 1.000000 0.000000
0.999999 -1.000001 1.000000 1.000000 -0.000001 0.000000 1.000000 1.000000
1.000000 -1.000000 -1.000000 1.000000 -0.000001 0.000000 0.000000 1.000000
-1.000000 -1.000000 1.000000 -0.000000 -1.000000 0.000000 1.000000 1.000000
-1.000000 -1.000000 1.000000 -1.000000 0.000000 -0.000000 1.000000 0.000000
-1.000000 1.000000 -1.000000 0.000000 1.000000 0.000000 1.000000 1.000000
3 0 1 2
3 3 4 5
3 6 7 8
3 9 10 11
3 12 13 14
3 15 16 17
3 0 18 1
3 3 19 4
3 20 21 22
3 9 23 10
3 12 24 13
3 15 25 16
