ply
format ascii 1.0
comment Created by Blender 2.79 (sub 0) - www.blender.org, source file: ''
comment Property "shading" of element "globals_ply_v2"
comment   0x2  = const shading
comment   0x4  = flat shading
comment   0x8  = phong shading
comment   0x10 = gourang shading
element globals_ply_v2 1
property uint shading
element vertex 26
property float x
property float y
property float z
property float nx
property float ny
property float nz
property float s
property float t
element face 12
property list uchar uint vertex_indices
end_header
2
1.000000 -1.000000 -1.000000 -0.000000 -0.000000 -1.000000 1.000000 0.000000
-1.000000 1.000000 -1.000000 -0.000000 -0.000000 -1.000000 0.000000 1.000000
1.000000 1.000000 -1.000000 -0.000000 -0.000000 -1.000000 0.000000 0.000000
-1.000000 1.000000 1.000000 0.000000 0.000000 1.000000 1.000000 0.000000
0.999999 -1.000001 1.000000 0.000000 0.000000 1.000000 0.000000 1.000000
1.000000 0.999999 1.000000 0.000000 0.000000 1.000000 0.000000 0.000000
1.000000 0.999999 1.000000 1.000000 0.000000 -0.000000 1.000000 0.000000
1.000000 -1.000000 -1.000000 1.000000 0.000000 -0.000000 0.000000 1.000000
1.000000 1.000000 -1.000000 1.000000 0.000000 -0.000000 0.000000 0.000000
0.999999 -1.000001 1.000000 -0.000000 -1.000000 -0.000000 1.000000 0.000000
-1.000000 -1.000000 -1.000000 -0.000000 -1.000000 -0.000000 0.000000 1.000000
1.000000 -1.000000 -1.000000 -0.000000 -1.000000 -0.000000 0.000000 0.000000
-1.000000 -1.000000 -1.000000 -1.000000 0.000000 -0.000000 0.000000 0.000000
-1.000000 1.000000 1.000000 -1.000000 0.000000 -0.000000 1.000000 1.000000
-1.000000 1.000000 -1.000000 -1.000000 0.000000 -0.000000 0.000000 1.000000
1.000000 1.000000 -1.000000 0.000000 1.000000 0.000000 1.000000 0.000000
-1.000000 1.000000 1.000000 0.000000 1.000000 0.000000 0.000000 1.000000
1.000000 0.999999 1.000000 0.000000 1.000000 0.000000 0.000000 0.000000
-1.000000 -1.000000 -1.000000 0.000000 -0.000000 -1.000000 1.000000 1.000000
-1.000000 -1.000000 1.000000 0.000000 -0.000000 1.000000 1.000000 1.000000
1.000000 0.999999 1.000000 1.000000 -0.000001 0.000000 1.000000 0.000000
0.999999 -1.000001 1.000000 1.000000 -0.000001 0.000000 1.000000 1.000000
1.000000 -1.000000 -1.000000 1.000000 -0.000001 0.000000 0.000000 1.000000
-1.000000 -1.000000 1.000000 -0.000000 -1.000000 0.000000 1.000000 1.000000
-1.000000 -1.000000 1.000000 -1.000000 0.000000 -0.000000 1.000000 0.000000
-1.000000 1.000000 -1.000000 0.000000 1.000000 0.000000 1.000000 1.000000
3 2 1 0
3 5 4 3
3 8 7 6
3 11 10 9
3 14 13 12
3 17 16 15
3 1 18 0
3 4 19 3
3 22 21 20
3 10 23 9
3 13 24 12
3 16 25 15
