ply
format ascii 1.0
comment Created by Blender 2.79 (sub 0) - www.blender.org, source file: ''
comment Property "shading" of element "globals_ply_v2"
comment   0x2  = const shading
comment   0x4  = flat shading
comment   0x8  = phong shading
comment   0x10 = gourang shading
element globals_ply_v2 1
property uint shading
element vertex 14
property float x
property float y
property float z
property float red
property float green
property float blue
element face 12
property list uchar uint vertex_indices
end_header
16
1.000000 -1.000000 -1.000000 27 129 32
-1.000000 1.000000 -1.000000 182 92 224
1.000000 1.000000 -1.000000 8 82 1
-1.000000 1.000000 1.000000 82 54 112
0.999999 -1.000001 1.000000 98 21 41
1.000000 0.999999 1.000000 76 99 110
-1.000000 -1.000000 -1.000000 251 220 200
-1.000000 -1.000000 -1.000000 200 27 189
-1.000000 1.000000 1.000000 28 198 200
-1.000000 1.000000 -1.000000 100 100 100 
-1.000000 -1.000000 -1.000000 128 128 128
-1.000000 -1.000000 1.000000 150 150 244
-1.000000 -1.000000 1.000000 100 0 200
-1.000000 -1.000000 1.000000 200 100 0
3 0 1 2
3 3 4 5
3 5 0 2
3 4 6 0
3 7 8 9
3 2 8 5
3 0 10 1
3 3 11 4
3 5 4 0
3 4 12 6
3 7 13 8
3 2 9 8
