ply
format ascii 1.0
comment Created by Blender 2.78 (sub 0) - www.blender.org, source file: ''
comment   0x2  = const shading
comment   0x4  = flat shading
comment   0x8  = phong shading
comment   0x10 = gourang shading
element globals_ply_v2 1
property uint shading
element vertex 482
property float x
property float y
property float z
element face 960
property list uchar uint vertex_indices
end_header
16
-0.086435 0.434398 -0.723160
-0.048375 0.243056 -0.780066
-0.086435 0.246805 -0.780066
-0.086435 1.051714 0.200719
0.104907 1.013655 0.395810
0.108655 1.032500 0.200719
-0.086435 0.246805 1.181505
-0.086435 0.051714 1.200719
-0.048375 0.243057 1.181505
-0.086435 0.051715 -0.799281
0.104907 1.013655 0.005629
-0.086435 1.032499 0.005629
-0.086435 0.434398 1.124599
-0.011777 0.427045 1.124599
0.093805 0.957842 -0.181964
-0.086435 0.975594 -0.181964
-0.086435 0.607285 1.032189
0.021951 0.596610 1.032189
0.075777 0.867208 -0.354851
-0.086435 0.883184 -0.354851
-0.086435 0.758821 0.907826
0.051515 0.745235 0.907826
0.051515 0.745235 -0.506387
-0.086435 0.758821 -0.506387
-0.086435 0.883184 0.756290
0.075777 0.867208 0.756290
0.021951 0.596610 -0.630750
-0.086435 0.607284 -0.630750
-0.086435 0.975594 0.583403
0.093805 0.957842 0.583403
-0.011777 0.427045 -0.723160
-0.086435 1.032499 0.395810
0.267118 0.905268 0.583403
0.060012 0.405268 -0.723160
0.288895 0.957842 0.395810
-0.011777 0.231955 -0.780066
0.296248 0.975594 0.200719
-0.011777 0.231955 1.181505
0.288895 0.957842 0.005629
0.060012 0.405268 1.124599
0.267118 0.905268 -0.181964
0.126173 0.564995 1.032189
0.231755 0.819893 -0.354851
0.184163 0.704996 0.907826
0.184163 0.704996 -0.506387
0.231755 0.819893 0.756290
0.126173 0.564995 -0.630750
0.426845 0.819893 -0.181964
0.222223 0.513655 1.032189
0.375505 0.743057 -0.354851
0.306413 0.639653 0.907826
0.306413 0.639653 -0.506387
0.375505 0.743057 0.756290
0.222223 0.513655 -0.630750
0.426845 0.819893 0.583403
0.126173 0.369904 -0.723160
0.458460 0.867208 0.395810
0.021951 0.213926 -0.780066
0.469135 0.883184 0.200719
0.021951 0.213927 1.181505
0.458460 0.867208 0.005629
0.126173 0.369905 1.124599
0.184163 0.322313 -0.723160
0.607085 0.745235 0.395810
0.051515 0.189664 -0.780066
0.620672 0.758821 0.200719
0.051515 0.189664 1.181505
0.607085 0.745235 0.005629
0.184163 0.322313 1.124599
0.566847 0.704996 -0.181964
0.306413 0.444562 1.032189
0.501503 0.639653 -0.354851
0.413565 0.551715 0.907826
0.413565 0.551715 -0.506387
0.501503 0.639653 0.756290
0.306413 0.444562 -0.630750
0.566847 0.704996 0.583403
0.681743 0.564995 -0.181964
0.604907 0.513654 -0.354851
0.501503 0.444562 0.907826
0.501503 0.444562 -0.506387
0.604907 0.513654 0.756290
0.375505 0.360373 -0.630750
0.681743 0.564995 0.583403
0.231755 0.264322 -0.723160
0.729058 0.596610 0.395810
0.075777 0.160101 -0.780066
0.745035 0.607285 0.200719
0.075777 0.160101 1.181505
0.729058 0.596610 0.005629
0.231755 0.264322 1.124599
0.375505 0.360373 1.032189
0.093805 0.126372 -0.780066
0.837445 0.434398 0.200719
0.093805 0.126373 1.181505
0.819692 0.427045 0.005629
0.267119 0.198161 1.124599
0.767118 0.405268 -0.181964
0.426845 0.264322 1.032189
0.681743 0.369904 -0.354851
0.566847 0.322313 0.907826
0.566847 0.322313 -0.506387
0.681743 0.369904 0.756290
0.426845 0.264322 -0.630750
0.767118 0.405268 0.583403
0.267118 0.198161 -0.723160
0.819692 0.427045 0.395810
0.458460 0.160101 1.032189
0.607085 0.189664 0.907826
0.729058 0.213926 -0.354851
0.607085 0.189664 -0.506387
0.729058 0.213926 0.756290
0.458460 0.160101 -0.630750
0.819692 0.231955 0.583403
0.288895 0.126372 -0.723160
0.875505 0.243056 0.395810
0.104907 0.089775 -0.780066
0.894350 0.246805 0.200719
0.104907 0.089775 1.181505
0.875505 0.243056 0.005629
0.288895 0.126372 1.124599
0.819692 0.231955 -0.181964
0.913565 0.051715 0.200719
0.108656 0.051715 1.181505
0.108655 0.051715 -0.780066
0.894350 0.051715 0.005629
0.296249 0.051715 1.124599
0.837445 0.051715 -0.181964
0.469135 0.051715 1.032189
0.745035 0.051715 -0.354851
0.620672 0.051715 0.907826
0.620672 0.051715 -0.506387
0.745035 0.051715 0.756290
0.469135 0.051715 -0.630750
0.837445 0.051715 0.583403
0.296248 0.051715 -0.723160
0.894350 0.051715 0.395810
0.607085 -0.086235 -0.506387
0.607085 -0.086235 0.907826
0.729058 -0.110497 0.756290
0.458460 -0.056672 -0.630750
0.819692 -0.128525 0.583403
0.288895 -0.022943 -0.723160
0.875505 -0.139627 0.395810
0.104907 0.013654 -0.780066
0.894350 -0.143376 0.200719
0.104907 0.013654 1.181505
0.875505 -0.139627 0.005629
0.288895 -0.022943 1.124599
0.819692 -0.128525 -0.181964
0.458460 -0.056672 1.032189
0.729058 -0.110497 -0.354851
0.093805 -0.022943 1.181505
0.093805 -0.022943 -0.780066
0.819692 -0.323616 0.005629
0.267119 -0.094732 1.124599
0.767118 -0.301839 -0.181964
0.426845 -0.160893 1.032189
0.681743 -0.266475 -0.354851
0.566847 -0.218884 0.907826
0.566847 -0.218884 -0.506387
0.681743 -0.266475 0.756290
0.426845 -0.160893 -0.630750
0.767118 -0.301839 0.583403
0.267118 -0.094732 -0.723160
0.819692 -0.323616 0.395810
0.837445 -0.330969 0.200719
0.501503 -0.341133 0.907826
0.604907 -0.410225 0.756290
0.501503 -0.341133 -0.506387
0.375505 -0.256944 -0.630750
0.681743 -0.461565 0.583403
0.231755 -0.160893 -0.723160
0.729058 -0.493181 0.395810
0.075777 -0.056672 -0.780066
0.745035 -0.503856 0.200719
0.075777 -0.056672 1.181505
0.729058 -0.493181 0.005629
0.231755 -0.160893 1.124599
0.681743 -0.461565 -0.181964
0.375505 -0.256944 1.032189
0.604907 -0.410225 -0.354851
0.607085 -0.641805 0.005629
0.184163 -0.218884 1.124599
0.566847 -0.601567 -0.181964
0.306413 -0.341133 1.032189
0.501503 -0.536223 -0.354851
0.413565 -0.448285 0.907826
0.413565 -0.448285 -0.506387
0.501503 -0.536223 0.756290
0.306412 -0.341133 -0.630750
0.566847 -0.601567 0.583403
0.184163 -0.218884 -0.723160
0.607085 -0.641805 0.395810
0.051515 -0.086235 -0.780066
0.620672 -0.655392 0.200719
0.051515 -0.086235 1.181505
0.306412 -0.536223 -0.506387
0.222223 -0.410225 -0.630750
0.426845 -0.716463 0.583403
0.126172 -0.266475 -0.723160
0.458460 -0.763779 0.395810
0.021951 -0.110497 -0.780066
0.469135 -0.779755 0.200719
0.021951 -0.110497 1.181505
0.458460 -0.763779 0.005629
0.126173 -0.266475 1.124599
0.426845 -0.716463 -0.181964
0.222223 -0.410225 1.032189
0.375505 -0.639627 -0.354851
0.306412 -0.536223 0.907826
0.375505 -0.639627 0.756290
0.267118 -0.801839 -0.181964
0.060012 -0.301839 1.124599
0.126173 -0.461565 1.032189
0.231754 -0.716463 -0.354851
0.184163 -0.601567 0.907826
0.184163 -0.601567 -0.506387
0.231754 -0.716463 0.756290
0.126172 -0.461565 -0.630750
0.267118 -0.801839 0.583403
0.060012 -0.301839 -0.723160
0.288895 -0.854413 0.395810
-0.011777 -0.128525 -0.780066
0.296248 -0.872165 0.200719
-0.011777 -0.128526 1.181505
0.288895 -0.854413 0.005629
-0.011777 -0.323616 -0.723160
0.093805 -0.854413 0.583403
0.104907 -0.910225 0.395810
-0.048375 -0.139627 -0.780066
0.108655 -0.929071 0.200719
-0.048375 -0.139627 1.181505
0.104907 -0.910225 0.005629
-0.011777 -0.323616 1.124599
0.093805 -0.854413 -0.181964
0.021951 -0.493181 1.032189
0.075776 -0.763778 -0.354851
0.051515 -0.641805 0.907826
0.051515 -0.641805 -0.506387
0.075776 -0.763778 0.756290
0.021951 -0.493181 -0.630750
-0.086435 -0.330969 1.124599
-0.086435 -0.503856 1.032189
-0.086435 -0.872165 -0.181964
-0.086435 -0.779755 -0.354851
-0.086435 -0.655392 0.907826
-0.086435 -0.655392 -0.506387
-0.086435 -0.779755 0.756290
-0.086435 -0.503856 -0.630750
-0.086435 -0.872165 0.583403
-0.086435 -0.330969 -0.723160
-0.086435 -0.929070 0.395810
-0.086435 -0.143376 -0.780066
-0.086435 -0.948285 0.200719
-0.086435 -0.143376 1.181505
-0.086435 -0.929070 0.005629
-0.266675 -0.854413 0.583403
-0.277777 -0.910225 0.395810
-0.124495 -0.139627 -0.780066
-0.281526 -0.929071 0.200719
-0.124495 -0.139627 1.181505
-0.277777 -0.910225 0.005629
-0.161093 -0.323616 1.124599
-0.266675 -0.854413 -0.181964
-0.194821 -0.493181 1.032189
-0.248647 -0.763778 -0.354851
-0.224385 -0.641805 0.907826
-0.224385 -0.641805 -0.506387
-0.248647 -0.763778 0.756290
-0.194821 -0.493180 -0.630750
-0.161093 -0.323616 -0.723160
-0.439988 -0.801839 -0.181964
-0.404625 -0.716463 -0.354851
-0.299043 -0.461565 1.032189
-0.357033 -0.601567 0.907826
-0.357033 -0.601567 -0.506387
-0.404625 -0.716463 0.756290
-0.299043 -0.461565 -0.630750
-0.439988 -0.801839 0.583403
-0.232882 -0.301839 -0.723160
-0.461765 -0.854413 0.395810
-0.161093 -0.128525 -0.780066
-0.469119 -0.872165 0.200719
-0.161093 -0.128526 1.181505
-0.461765 -0.854413 0.005629
-0.232882 -0.301839 1.124599
-0.299043 -0.266475 -0.723160
-0.194821 -0.110497 -0.780066
-0.642005 -0.779755 0.200719
-0.194822 -0.110497 1.181505
-0.631330 -0.763778 0.005629
-0.299043 -0.266475 1.124599
-0.599715 -0.716463 -0.181964
-0.395093 -0.410225 1.032189
-0.548375 -0.639627 -0.354851
-0.479283 -0.536223 0.907826
-0.479283 -0.536223 -0.506387
-0.548375 -0.639627 0.756290
-0.395093 -0.410225 -0.630750
-0.599715 -0.716463 0.583403
-0.631330 -0.763778 0.395810
-0.479283 -0.341133 1.032189
-0.586435 -0.448285 0.907826
-0.586435 -0.448285 -0.506387
-0.674373 -0.536223 0.756290
-0.479282 -0.341133 -0.630750
-0.739716 -0.601567 0.583403
-0.357033 -0.218883 -0.723160
-0.779955 -0.641805 0.395810
-0.224385 -0.086235 -0.780066
-0.793542 -0.655392 0.200719
-0.224385 -0.086235 1.181505
-0.779955 -0.641805 0.005629
-0.357033 -0.218883 1.124599
-0.739716 -0.601567 -0.181964
-0.674373 -0.536223 -0.354851
-0.917905 -0.503855 0.200719
-0.248647 -0.056672 1.181505
-0.248647 -0.056672 -0.780066
-0.901928 -0.493180 0.005629
-0.404625 -0.160893 1.124599
-0.854613 -0.461565 -0.181964
-0.548375 -0.256944 1.032189
-0.777777 -0.410225 -0.354851
-0.674373 -0.341133 0.907826
-0.674373 -0.341133 -0.506387
-0.777777 -0.410225 0.756290
-0.548375 -0.256944 -0.630750
-0.854613 -0.461565 0.583403
-0.404625 -0.160893 -0.723160
-0.901928 -0.493180 0.395810
-0.854613 -0.266475 -0.354851
-0.739717 -0.218883 -0.506387
-0.739717 -0.218883 0.907826
-0.854613 -0.266475 0.756290
-0.599715 -0.160893 -0.630750
-0.939988 -0.301839 0.583403
-0.439988 -0.094732 -0.723160
-0.992562 -0.323615 0.395810
-0.266675 -0.022943 -0.780066
-1.010315 -0.330969 0.200719
-0.266675 -0.022943 1.181505
-0.992562 -0.323615 0.005629
-0.439988 -0.094732 1.124599
-0.939988 -0.301839 -0.181964
-0.599715 -0.160893 1.032189
-0.277777 0.013654 -0.780066
-1.048374 -0.139627 0.005629
-0.277777 0.013654 1.181505
-0.461765 -0.022943 1.124599
-0.992562 -0.128525 -0.181964
-0.631330 -0.056672 1.032189
-0.901928 -0.110497 -0.354851
-0.779955 -0.086235 0.907826
-0.779955 -0.086235 -0.506387
-0.901928 -0.110497 0.756290
-0.631330 -0.056672 -0.630750
-0.992562 -0.128525 0.583403
-0.461765 -0.022943 -0.723160
-1.048374 -0.139627 0.395810
-1.067220 -0.143376 0.200719
-0.793542 0.051715 -0.506387
-0.642005 0.051715 -0.630750
-1.010314 0.051715 0.583403
-0.469118 0.051715 -0.723160
-1.067220 0.051715 0.395810
-0.281525 0.051715 -0.780066
-1.086435 0.051715 0.200719
-0.281526 0.051715 1.181505
-1.067220 0.051715 0.005629
-0.469118 0.051715 1.124599
-1.010314 0.051715 -0.181964
-0.642005 0.051715 1.032189
-0.917904 0.051715 -0.354851
-0.793542 0.051715 0.907826
-0.917904 0.051715 0.756290
-0.277777 0.089775 1.181505
-0.461765 0.126372 1.124599
-0.992562 0.231955 -0.181964
-0.631330 0.160101 1.032189
-0.901928 0.213926 -0.354851
-0.779955 0.189664 0.907826
-0.779955 0.189664 -0.506387
-0.901928 0.213926 0.756290
-0.631330 0.160101 -0.630750
-0.992562 0.231955 0.583403
-0.461765 0.126372 -0.723160
-1.048374 0.243056 0.395810
-0.277777 0.089775 -0.780066
-1.067220 0.246805 0.200719
-1.048374 0.243056 0.005629
-0.939988 0.405268 0.583403
-0.599715 0.264322 -0.630750
-0.439988 0.198161 -0.723160
-0.992562 0.427045 0.395810
-0.266675 0.126372 -0.780066
-1.010314 0.434398 0.200719
-0.266675 0.126372 1.181505
-0.992562 0.427045 0.005629
-0.439988 0.198161 1.124599
-0.939988 0.405268 -0.181964
-0.599715 0.264322 1.032189
-0.854612 0.369904 -0.354851
-0.739716 0.322313 0.907826
-0.739716 0.322313 -0.506387
-0.854612 0.369904 0.756290
-0.854613 0.564995 -0.181964
-0.404625 0.264322 1.124599
-0.548375 0.360373 1.032189
-0.777776 0.513654 -0.354851
-0.674373 0.444562 0.907826
-0.674373 0.444562 -0.506387
-0.777776 0.513654 0.756290
-0.548375 0.360373 -0.630750
-0.854613 0.564995 0.583403
-0.404625 0.264322 -0.723160
-0.901928 0.596610 0.395810
-0.248647 0.160101 -0.780066
-0.917904 0.607285 0.200719
-0.248647 0.160101 1.181505
-0.901928 0.596610 0.005629
-0.357033 0.322313 -0.723160
-0.739716 0.704996 0.583403
-0.779954 0.745234 0.395810
-0.224385 0.189664 -0.780066
-0.793541 0.758821 0.200719
-0.224385 0.189664 1.181505
-0.779954 0.745234 0.005629
-0.357033 0.322313 1.124599
-0.739716 0.704996 -0.181964
-0.479282 0.444562 1.032189
-0.674372 0.639652 -0.354851
-0.586435 0.551715 0.907826
-0.586435 0.551715 -0.506387
-0.674372 0.639652 0.756290
-0.479282 0.444562 -0.630750
-0.395093 0.513654 1.032189
-0.599715 0.819892 -0.181964
-0.548374 0.743056 -0.354851
-0.479282 0.639652 0.907826
-0.479282 0.639652 -0.506387
-0.548374 0.743056 0.756290
-0.395093 0.513654 -0.630750
-0.599715 0.819892 0.583403
-0.299042 0.369904 -0.723160
-0.631330 0.867207 0.395810
-0.194821 0.213926 -0.780066
-0.642005 0.883184 0.200719
-0.194822 0.213926 1.181505
-0.631330 0.867207 0.005629
-0.299042 0.369904 1.124599
-0.439988 0.905268 0.583403
-0.461765 0.957842 0.395810
-0.161093 0.231954 -0.780066
-0.469118 0.975594 0.200719
-0.161093 0.231955 1.181505
-0.461765 0.957842 0.005629
-0.232882 0.405268 1.124599
-0.439988 0.905268 -0.181964
-0.299042 0.564994 1.032189
-0.404624 0.819892 -0.354851
-0.357033 0.704996 0.907826
-0.357033 0.704996 -0.506387
-0.404624 0.819892 0.756290
-0.299042 0.564994 -0.630750
-0.232882 0.405268 -0.723160
-0.266675 0.957842 -0.181964
-0.248646 0.867207 -0.354851
-0.224385 0.745234 0.907826
-0.224385 0.745234 -0.506387
-0.248646 0.867207 0.756290
-0.194821 0.596609 -0.630750
-0.266675 0.957842 0.583403
-0.161093 0.427045 -0.723160
-0.277776 1.013654 0.395810
-0.124495 0.243056 -0.780066
-0.281525 1.032499 0.200719
-0.124495 0.243056 1.181505
-0.277776 1.013654 0.005629
-0.161093 0.427045 1.124599
-0.194821 0.596610 1.032189
3 0 1 2
3 3 4 5
3 6 7 8
3 9 2 1
3 3 10 11
3 12 8 13
3 11 14 15
3 16 13 17
3 15 18 19
3 20 17 21
3 19 22 23
3 24 21 25
3 23 26 27
3 28 25 29
3 27 30 0
3 31 29 4
3 25 32 29
3 26 33 30
3 29 34 4
3 30 35 1
3 4 36 5
3 8 7 37
3 9 1 35
3 10 36 38
3 8 39 13
3 14 38 40
3 13 41 17
3 14 42 18
3 17 43 21
3 22 42 44
3 21 45 25
3 22 46 26
3 38 47 40
3 39 48 41
3 42 47 49
3 41 50 43
3 44 49 51
3 43 52 45
3 44 53 46
3 45 54 32
3 46 55 33
3 34 54 56
3 33 57 35
3 34 58 36
3 37 7 59
3 9 35 57
3 36 60 38
3 37 61 39
3 53 62 55
3 54 63 56
3 55 64 57
3 58 63 65
3 59 7 66
3 9 57 64
3 58 67 60
3 59 68 61
3 60 69 47
3 61 70 48
3 49 69 71
3 48 72 50
3 49 73 51
3 50 74 52
3 51 75 53
3 52 76 54
3 71 77 78
3 70 79 72
3 71 80 73
3 74 79 81
3 75 80 82
3 74 83 76
3 62 82 84
3 76 85 63
3 62 86 64
3 65 85 87
3 66 7 88
3 9 64 86
3 65 89 67
3 66 90 68
3 67 77 69
3 68 91 70
3 84 92 86
3 85 93 87
3 88 7 94
3 9 86 92
3 87 95 89
3 88 96 90
3 89 97 77
3 90 98 91
3 78 97 99
3 91 100 79
3 80 99 101
3 81 100 102
3 80 103 82
3 81 104 83
3 84 103 105
3 85 104 106
3 100 107 108
3 101 109 110
3 100 111 102
3 101 112 103
3 102 113 104
3 103 114 105
3 106 113 115
3 92 114 116
3 106 117 93
3 94 7 118
3 9 92 116
3 93 119 95
3 94 120 96
3 95 121 97
3 96 107 98
3 99 121 109
3 115 122 117
3 118 7 123
3 9 116 124
3 119 122 125
3 118 126 120
3 119 127 121
3 120 128 107
3 109 127 129
3 107 130 108
3 109 131 110
3 108 132 111
3 112 131 133
3 111 134 113
3 114 133 135
3 115 134 136
3 116 135 124
3 129 137 131
3 132 138 139
3 133 137 140
3 132 141 134
3 133 142 135
3 136 141 143
3 124 142 144
3 136 145 122
3 123 7 146
3 9 124 144
3 122 147 125
3 126 146 148
3 125 149 127
3 126 150 128
3 129 149 151
3 128 138 130
3 146 7 152
3 9 144 153
3 145 154 147
3 146 155 148
3 147 156 149
3 150 155 157
3 151 156 158
3 150 159 138
3 151 160 137
3 138 161 139
3 137 162 140
3 139 163 141
3 142 162 164
3 143 163 165
3 142 153 144
3 143 166 145
3 161 167 168
3 162 169 170
3 161 171 163
3 162 172 164
3 165 171 173
3 164 174 153
3 165 175 166
3 152 7 176
3 9 153 174
3 154 175 177
3 152 178 155
3 154 179 156
3 155 180 157
3 158 179 181
3 157 167 159
3 158 169 160
3 175 182 177
3 176 183 178
3 177 184 179
3 178 185 180
3 179 186 181
3 180 187 167
3 181 188 169
3 167 189 168
3 170 188 190
3 168 191 171
3 170 192 172
3 173 191 193
3 174 192 194
3 173 195 175
3 176 7 196
3 9 174 194
3 190 197 198
3 189 199 191
3 190 200 192
3 193 199 201
3 194 200 202
3 193 203 195
3 196 7 204
3 9 194 202
3 182 203 205
3 196 206 183
3 182 207 184
3 183 208 185
3 186 207 209
3 187 208 210
3 186 197 188
3 189 210 211
3 205 212 207
3 208 213 214
3 209 212 215
3 208 216 210
3 209 217 197
3 210 218 211
3 198 217 219
3 211 220 199
3 198 221 200
3 201 220 222
3 200 223 202
3 201 224 203
3 204 7 225
3 9 202 223
3 203 226 205
3 204 213 206
3 219 227 221
3 222 228 229
3 223 227 230
3 222 231 224
3 225 7 232
3 9 223 230
3 224 233 226
3 225 234 213
3 226 235 212
3 213 236 214
3 215 235 237
3 214 238 216
3 215 239 217
3 216 240 218
3 217 241 219
3 218 228 220
3 236 242 243
3 237 244 245
3 238 243 246
3 237 247 239
3 238 248 240
3 241 247 249
3 240 250 228
3 241 251 227
3 229 250 252
3 230 251 253
3 229 254 231
3 232 7 255
3 9 230 253
3 231 256 233
3 232 242 234
3 233 244 235
3 252 257 258
3 251 259 253
3 252 260 254
3 255 7 261
3 9 253 259
3 254 262 256
3 255 263 242
3 256 264 244
3 242 265 243
3 245 264 266
3 246 265 267
3 245 268 247
3 248 267 269
3 247 270 249
3 248 257 250
3 249 271 251
3 266 272 273
3 267 274 275
3 266 276 268
3 269 275 277
3 268 278 270
3 269 279 257
3 271 278 280
3 258 279 281
3 259 280 282
3 258 283 260
3 261 7 284
3 9 259 282
3 262 283 285
3 261 286 263
3 262 272 264
3 263 274 265
3 282 287 288
3 281 289 283
3 284 7 290
3 9 282 288
3 283 291 285
3 284 292 286
3 285 293 272
3 286 294 274
3 273 293 295
3 274 296 275
3 273 297 276
3 277 296 298
3 278 297 299
3 277 300 279
3 278 287 280
3 281 300 301
3 296 302 303
3 295 304 297
3 298 303 305
3 297 306 299
3 298 307 300
3 299 308 287
3 301 307 309
3 287 310 288
3 289 309 311
3 290 7 312
3 9 288 310
3 289 313 291
3 290 314 292
3 291 315 293
3 292 302 294
3 295 315 316
3 309 317 311
3 312 7 318
3 9 310 319
3 311 320 313
3 312 321 314
3 313 322 315
3 314 323 302
3 316 322 324
3 303 323 325
3 316 326 304
3 305 325 327
3 304 328 306
3 305 329 307
3 308 328 330
3 309 329 331
3 308 319 310
3 326 332 333
3 327 334 335
3 326 336 328
3 327 337 329
3 330 336 338
3 331 337 339
3 319 338 340
3 331 341 317
3 318 7 342
3 9 319 340
3 317 343 320
3 318 344 321
3 320 345 322
3 321 346 323
3 324 345 332
3 325 346 334
3 9 340 347
3 341 348 343
3 344 349 350
3 343 351 345
3 344 352 346
3 332 351 353
3 334 352 354
3 332 355 333
3 335 354 356
3 333 357 336
3 335 358 337
3 338 357 359
3 339 358 360
3 338 347 340
3 339 361 341
3 342 7 349
3 357 362 363
3 356 364 358
3 359 363 365
3 360 364 366
3 359 367 347
3 360 368 361
3 349 7 369
3 9 347 367
3 348 368 370
3 350 369 371
3 348 372 351
3 350 373 352
3 353 372 374
3 354 373 375
3 353 362 355
3 354 376 356
3 371 377 378
3 370 379 372
3 371 380 373
3 374 379 381
3 375 380 382
3 374 383 362
3 376 382 384
3 362 385 363
3 376 386 364
3 365 385 387
3 366 386 388
3 365 389 367
3 366 390 368
3 369 7 377
3 9 367 389
3 370 390 391
3 384 392 386
3 387 393 394
3 388 392 395
3 387 396 389
3 388 397 390
3 377 7 398
3 9 389 396
3 390 399 391
3 377 400 378
3 391 401 379
3 378 402 380
3 381 401 403
3 382 402 404
3 381 405 383
3 382 406 384
3 383 393 385
3 399 407 401
3 402 408 409
3 403 407 410
3 404 409 411
3 403 412 405
3 406 411 413
3 405 414 393
3 406 415 392
3 394 414 416
3 395 415 417
3 394 418 396
3 395 419 397
3 398 7 420
3 9 396 418
3 399 419 421
3 398 408 400
3 414 422 416
3 417 423 424
3 416 425 418
3 417 426 419
3 420 7 427
3 9 418 425
3 421 426 428
3 420 429 408
3 421 430 407
3 408 431 409
3 410 430 432
3 409 433 411
3 410 434 412
3 413 433 435
3 412 436 414
3 413 423 415
3 429 437 431
3 432 438 439
3 431 440 433
3 432 441 434
3 435 440 442
3 436 441 443
3 435 444 423
3 436 445 422
3 424 444 446
3 422 447 425
3 426 446 448
3 427 7 449
3 9 425 447
3 426 450 428
3 427 451 429
3 428 438 430
3 446 452 453
3 445 454 447
3 446 455 448
3 449 7 456
3 9 447 454
3 448 457 450
3 451 456 458
3 450 459 438
3 437 458 460
3 439 459 461
3 440 460 462
3 439 463 441
3 442 462 464
3 441 465 443
3 442 452 444
3 443 466 445
3 461 467 468
3 460 469 462
3 461 470 463
3 464 469 471
3 463 472 465
3 464 473 452
3 465 474 466
3 453 473 475
3 454 474 476
3 453 477 455
3 456 7 478
3 9 454 476
3 455 479 457
3 456 480 458
3 457 467 459
3 458 481 460
3 474 2 476
3 475 3 477
3 478 7 6
3 9 476 2
3 477 11 479
3 480 6 12
3 479 15 467
3 480 16 481
3 468 15 19
3 481 20 469
3 468 23 470
3 471 20 24
3 470 27 472
3 471 28 473
3 472 0 474
3 475 28 31
3 0 30 1
3 3 31 4
3 3 5 10
3 12 6 8
3 11 10 14
3 16 12 13
3 15 14 18
3 20 16 17
3 19 18 22
3 24 20 21
3 23 22 26
3 28 24 25
3 27 26 30
3 31 28 29
3 25 45 32
3 26 46 33
3 29 32 34
3 30 33 35
3 4 34 36
3 10 5 36
3 8 37 39
3 14 10 38
3 13 39 41
3 14 40 42
3 17 41 43
3 22 18 42
3 21 43 45
3 22 44 46
3 38 60 47
3 39 61 48
3 42 40 47
3 41 48 50
3 44 42 49
3 43 50 52
3 44 51 53
3 45 52 54
3 46 53 55
3 34 32 54
3 33 55 57
3 34 56 58
3 36 58 60
3 37 59 61
3 53 75 62
3 54 76 63
3 55 62 64
3 58 56 63
3 58 65 67
3 59 66 68
3 60 67 69
3 61 68 70
3 49 47 69
3 48 70 72
3 49 71 73
3 50 72 74
3 51 73 75
3 52 74 76
3 71 69 77
3 70 91 79
3 71 78 80
3 74 72 79
3 75 73 80
3 74 81 83
3 62 75 82
3 76 83 85
3 62 84 86
3 65 63 85
3 65 87 89
3 66 88 90
3 67 89 77
3 68 90 91
3 84 105 92
3 85 106 93
3 87 93 95
3 88 94 96
3 89 95 97
3 90 96 98
3 78 77 97
3 91 98 100
3 80 78 99
3 81 79 100
3 80 101 103
3 81 102 104
3 84 82 103
3 85 83 104
3 100 98 107
3 101 99 109
3 100 108 111
3 101 110 112
3 102 111 113
3 103 112 114
3 106 104 113
3 92 105 114
3 106 115 117
3 93 117 119
3 94 118 120
3 95 119 121
3 96 120 107
3 99 97 121
3 115 136 122
3 119 117 122
3 118 123 126
3 119 125 127
3 120 126 128
3 109 121 127
3 107 128 130
3 109 129 131
3 108 130 132
3 112 110 131
3 111 132 134
3 114 112 133
3 115 113 134
3 116 114 135
3 129 151 137
3 132 130 138
3 133 131 137
3 132 139 141
3 133 140 142
3 136 134 141
3 124 135 142
3 136 143 145
3 122 145 147
3 126 123 146
3 125 147 149
3 126 148 150
3 129 127 149
3 128 150 138
3 145 166 154
3 146 152 155
3 147 154 156
3 150 148 155
3 151 149 156
3 150 157 159
3 151 158 160
3 138 159 161
3 137 160 162
3 139 161 163
3 142 140 162
3 143 141 163
3 142 164 153
3 143 165 166
3 161 159 167
3 162 160 169
3 161 168 171
3 162 170 172
3 165 163 171
3 164 172 174
3 165 173 175
3 154 166 175
3 152 176 178
3 154 177 179
3 155 178 180
3 158 156 179
3 157 180 167
3 158 181 169
3 175 195 182
3 176 196 183
3 177 182 184
3 178 183 185
3 179 184 186
3 180 185 187
3 181 186 188
3 167 187 189
3 170 169 188
3 168 189 191
3 170 190 192
3 173 171 191
3 174 172 192
3 173 193 195
3 190 188 197
3 189 211 199
3 190 198 200
3 193 191 199
3 194 192 200
3 193 201 203
3 182 195 203
3 196 204 206
3 182 205 207
3 183 206 208
3 186 184 207
3 187 185 208
3 186 209 197
3 189 187 210
3 205 226 212
3 208 206 213
3 209 207 212
3 208 214 216
3 209 215 217
3 210 216 218
3 198 197 217
3 211 218 220
3 198 219 221
3 201 199 220
3 200 221 223
3 201 222 224
3 203 224 226
3 204 225 213
3 219 241 227
3 222 220 228
3 223 221 227
3 222 229 231
3 224 231 233
3 225 232 234
3 226 233 235
3 213 234 236
3 215 212 235
3 214 236 238
3 215 237 239
3 216 238 240
3 217 239 241
3 218 240 228
3 236 234 242
3 237 235 244
3 238 236 243
3 237 245 247
3 238 246 248
3 241 239 247
3 240 248 250
3 241 249 251
3 229 228 250
3 230 227 251
3 229 252 254
3 231 254 256
3 232 255 242
3 233 256 244
3 252 250 257
3 251 271 259
3 252 258 260
3 254 260 262
3 255 261 263
3 256 262 264
3 242 263 265
3 245 244 264
3 246 243 265
3 245 266 268
3 248 246 267
3 247 268 270
3 248 269 257
3 249 270 271
3 266 264 272
3 267 265 274
3 266 273 276
3 269 267 275
3 268 276 278
3 269 277 279
3 271 270 278
3 258 257 279
3 259 271 280
3 258 281 283
3 262 260 283
3 261 284 286
3 262 285 272
3 263 286 274
3 282 280 287
3 281 301 289
3 283 289 291
3 284 290 292
3 285 291 293
3 286 292 294
3 273 272 293
3 274 294 296
3 273 295 297
3 277 275 296
3 278 276 297
3 277 298 300
3 278 299 287
3 281 279 300
3 296 294 302
3 295 316 304
3 298 296 303
3 297 304 306
3 298 305 307
3 299 306 308
3 301 300 307
3 287 308 310
3 289 301 309
3 289 311 313
3 290 312 314
3 291 313 315
3 292 314 302
3 295 293 315
3 309 331 317
3 311 317 320
3 312 318 321
3 313 320 322
3 314 321 323
3 316 315 322
3 303 302 323
3 316 324 326
3 305 303 325
3 304 326 328
3 305 327 329
3 308 306 328
3 309 307 329
3 308 330 319
3 326 324 332
3 327 325 334
3 326 333 336
3 327 335 337
3 330 328 336
3 331 329 337
3 319 330 338
3 331 339 341
3 317 341 343
3 318 342 344
3 320 343 345
3 321 344 346
3 324 322 345
3 325 323 346
3 341 361 348
3 344 342 349
3 343 348 351
3 344 350 352
3 332 345 351
3 334 346 352
3 332 353 355
3 335 334 354
3 333 355 357
3 335 356 358
3 338 336 357
3 339 337 358
3 338 359 347
3 339 360 361
3 357 355 362
3 356 376 364
3 359 357 363
3 360 358 364
3 359 365 367
3 360 366 368
3 348 361 368
3 350 349 369
3 348 370 372
3 350 371 373
3 353 351 372
3 354 352 373
3 353 374 362
3 354 375 376
3 371 369 377
3 370 391 379
3 371 378 380
3 374 372 379
3 375 373 380
3 374 381 383
3 376 375 382
3 362 383 385
3 376 384 386
3 365 363 385
3 366 364 386
3 365 387 389
3 366 388 390
3 370 368 390
3 384 406 392
3 387 385 393
3 388 386 392
3 387 394 396
3 388 395 397
3 390 397 399
3 377 398 400
3 391 399 401
3 378 400 402
3 381 379 401
3 382 380 402
3 381 403 405
3 382 404 406
3 383 405 393
3 399 421 407
3 402 400 408
3 403 401 407
3 404 402 409
3 403 410 412
3 406 404 411
3 405 412 414
3 406 413 415
3 394 393 414
3 395 392 415
3 394 416 418
3 395 417 419
3 399 397 419
3 398 420 408
3 414 436 422
3 417 415 423
3 416 422 425
3 417 424 426
3 421 419 426
3 420 427 429
3 421 428 430
3 408 429 431
3 410 407 430
3 409 431 433
3 410 432 434
3 413 411 433
3 412 434 436
3 413 435 423
3 429 451 437
3 432 430 438
3 431 437 440
3 432 439 441
3 435 433 440
3 436 434 441
3 435 442 444
3 436 443 445
3 424 423 444
3 422 445 447
3 426 424 446
3 426 448 450
3 427 449 451
3 428 450 438
3 446 444 452
3 445 466 454
3 446 453 455
3 448 455 457
3 451 449 456
3 450 457 459
3 437 451 458
3 439 438 459
3 440 437 460
3 439 461 463
3 442 440 462
3 441 463 465
3 442 464 452
3 443 465 466
3 461 459 467
3 460 481 469
3 461 468 470
3 464 462 469
3 463 470 472
3 464 471 473
3 465 472 474
3 453 452 473
3 454 466 474
3 453 475 477
3 455 477 479
3 456 478 480
3 457 479 467
3 458 480 481
3 474 0 2
3 475 31 3
3 477 3 11
3 480 478 6
3 479 11 15
3 480 12 16
3 468 467 15
3 481 16 20
3 468 19 23
3 471 469 20
3 470 23 27
3 471 24 28
3 472 27 0
3 475 473 28
