ply
format ascii 1.0
comment Additional properties of element "face": 
comment   - "attr" is represents attributes of polygon in hex code
comment   - "color" is represents color of polygon face in ARGB format
comment 0x0 - single sided
comment 0x1 - double sided
comment 0x2 - flat shading
comment 0x4 - phong shading
comment 0x8 - gourang shading
element vertex 8
property float x
property float y
property float z
element face 12
property list uchar uint index
property uint attr
property uint color
end_header
-10.0 10.0 -10.0
10.0 10.0 -10.0
10.0 -10.0 -10.0
-10.0 -10.0 -10.0
-10.0 -10.0 10.0
10.0 -10.0 10.0
10.0 10.0 10.0
-10.0 10.0 10.0
3 0 2 3 0 4294967295
3 0 1 2 0 4294967295
3 0 7 4 0 4294967295
3 0 3 4 0 4294967295
3 0 6 7 0 4294967295
3 0 1 6 0 4294967295
3 5 6 7 0 4294967295
3 5 4 7 0 4294967295
3 5 4 3 0 4294967295
3 5 2 3 0 4294967295
3 5 6 1 0 4294967295
3 5 2 1 0 4294967295