ply
format ascii 1.0
comment Property "shading" of element "globals_ply_v2"
comment   0x2  = const shading
comment   0x4  = flat shading
comment   0x8  = phong shading
comment   0x10 = gouraud shading
element globals_ply_v2 1
property uint shading
element vertex 6
property float x
property float y
property float z
property uchar red
property uchar green
property uchar blue
element face 2
property list uchar uint vertex_indices
end_header
4
-1 0 -1 255 255 255
-1 0 1 255 255 255
1 0 1 255 255 255
1 0 -1 255 255 255
-1 0 -1 255 255 255
1 0 1 255 255 255
3 0 1 2
3 3 4 5
