ply
format ascii 1.0
comment Created by Blender 2.79 (sub 0) - www.blender.org, source file: ''
element vertex 457
property float x
property float y
property float z
property float s
property float t
element face 323
property list uchar uint vertex_indices
end_header
-0.105562 -0.125294 0.039162 0.560333 0.784665
0.093832 -0.124121 0.056542 0.781583 0.801246
-0.107235 -0.125292 0.054101 0.558680 0.801246
-0.100521 -0.120677 0.036373 0.567966 0.781714
-0.107037 -0.126820 0.038487 0.557997 0.783867
0.069986 0.022972 0.074749 0.834039 0.339629
-0.088525 0.033474 0.073199 0.658394 0.352295
-0.085560 0.022066 0.072866 0.661602 0.339624
0.088247 0.132048 0.077199 0.306383 0.210236
0.091508 0.134525 0.080368 0.312972 0.212000
-0.005896 0.135232 0.079941 0.216770 0.264236
-0.005406 0.012803 0.077127 0.144072 0.141939
-0.010128 0.012776 0.077070 0.141054 0.143635
-0.009492 -0.100837 0.063865 0.074679 0.028665
-0.001598 0.131540 0.075697 0.219469 0.256610
0.039655 -0.101147 0.064243 0.127085 0.014612
0.038507 -0.099515 0.063715 0.125768 0.018188
-0.000409 -0.075732 0.062940 0.098366 0.048571
0.046495 -0.109935 0.059410 0.129920 0.000445
0.104409 0.145827 0.077655 0.334042 0.216149
-0.015290 0.131461 0.075531 0.126594 0.366019
-0.012080 0.133658 0.079127 0.130316 0.371978
-0.110392 0.134844 0.078648 0.000445 0.360202
-0.052397 -0.100045 0.062611 0.022239 0.039084
-0.050369 -0.096945 0.059905 0.026371 0.043109
-0.105139 0.130921 0.074851 0.008063 0.353650
-0.060150 -0.110556 0.058115 0.008384 0.026850
0.148733 -0.142819 0.063011 0.478350 0.448622
-0.163486 -0.143744 0.054279 0.151097 0.491847
0.151519 -0.137063 0.055434 0.484348 0.437814
-0.076692 -0.011913 0.070043 0.661602 0.353184
0.064399 0.000238 0.072968 0.818104 0.365819
-0.079667 -0.000596 0.071218 0.658394 0.365819
-0.179618 -0.149554 -0.030703 0.092419 0.388030
-0.162900 -0.145257 -0.025077 0.112367 0.389725
-0.168038 -0.144596 -0.026411 0.106706 0.391382
-0.218485 -0.069049 0.022163 0.709911 0.583254
-0.201510 -0.070257 0.010219 0.729898 0.571780
-0.198222 -0.067578 0.011058 0.733967 0.574311
-0.227134 -0.066378 0.023435 0.700338 0.586577
-0.238494 -0.067813 0.010569 0.685790 0.574214
-0.235155 -0.070453 0.009811 0.689919 0.571780
-0.209907 -0.066277 0.023644 0.719435 0.586694
0.260349 0.019781 0.042400 0.423179 0.750066
0.257639 0.019469 0.045045 0.425662 0.753465
0.173398 0.018978 0.044022 0.411062 0.845636
0.157159 -0.082940 0.031551 0.296078 0.851785
0.183697 -0.082785 0.031873 0.299325 0.822567
0.183663 -0.080483 0.033608 0.302416 0.821220
0.183474 -0.053007 0.036512 0.338115 0.825098
0.183440 -0.048246 0.037018 0.338042 0.825720
0.261063 -0.079787 0.031388 0.313095 0.736110
0.226284 -0.080235 0.034126 0.286317 0.763976
0.226319 -0.082537 0.032391 0.284126 0.761653
0.226100 -0.050613 0.035075 0.311205 0.786679
0.226055 -0.047998 0.037536 0.309699 0.790361
0.226089 -0.052759 0.037029 0.308332 0.785237
0.183485 -0.050861 0.034557 0.334586 0.827690
-0.162141 0.130376 0.063887 0.454354 0.368448
-0.162193 0.138752 0.064203 0.459571 0.368494
-0.161405 0.014468 0.059429 0.449137 0.368494
-0.161756 0.069202 0.061534 0.454349 0.368266
-0.161771 0.071647 0.061627 0.454353 0.368357
-0.264781 -0.114511 -0.007718 0.689533 0.271549
-0.168038 -0.144596 -0.026411 0.803184 0.282724
-0.271942 -0.101870 -0.010778 0.677451 0.282724
-0.221455 0.174466 0.041839 0.707473 0.265876
-0.221320 0.147113 0.043834 0.677451 0.270660
-0.215560 0.161307 0.062598 0.687831 0.245897
-0.221551 0.200935 0.037009 0.737253 0.264222
-0.221404 0.175270 0.037208 0.709540 0.270660
0.048413 -0.064140 0.064548 0.573180 0.368820
-0.062747 -0.064988 0.064534 0.470385 0.367025
0.048404 -0.064340 0.065883 0.573198 0.367026
0.145137 0.072396 0.048293 0.683581 0.133220
0.130000 0.135203 0.050589 0.753352 0.149563
0.130394 0.072295 0.048308 0.683572 0.149563
0.216664 -0.079355 0.016537 0.448248 0.367537
0.194084 -0.080345 0.016355 0.423212 0.368494
0.194080 -0.079487 0.016263 0.423212 0.367537
0.197991 -0.066785 0.025701 0.702023 0.197462
0.222142 -0.067788 0.015364 0.727682 0.183648
0.225431 -0.065109 0.016203 0.732029 0.185667
0.196519 -0.063909 0.028580 0.701312 0.202206
0.185158 -0.065344 0.015714 0.684189 0.193759
0.187823 -0.068770 0.007672 0.683572 0.183648
-0.079628 -0.000396 0.069883 0.658430 0.368751
0.064399 0.000238 0.072968 0.775445 0.366708
0.064396 0.000437 0.071632 0.775443 0.368751
-0.085526 0.022139 0.071520 0.624873 0.552589
0.069986 0.022972 0.074749 0.746217 0.554707
-0.085560 0.022066 0.072866 0.624845 0.554707
0.183935 0.160980 0.067536 0.594947 0.611010
0.187259 0.147043 0.048818 0.569806 0.604825
0.203011 0.147134 0.049009 0.571755 0.587632
0.196470 0.161079 0.067698 0.596524 0.597331
0.198565 0.163720 0.067627 0.599565 0.595217
0.196110 0.167243 0.069212 0.603417 0.598448
0.113739 0.016016 0.063493 0.428235 0.671735
0.099769 -0.113287 0.046117 0.284126 0.670426
0.148048 -0.111308 0.047244 0.292554 0.618013
0.145501 0.132169 0.067623 0.558894 0.652926
0.145448 0.140544 0.067939 0.684901 0.671737
0.146224 0.016261 0.063165 0.432579 0.636317
0.144691 0.134246 0.067696 0.561441 0.650978
0.128973 0.161922 0.068571 0.589979 0.671191
0.129160 0.132069 0.067491 0.557353 0.667713
0.129944 0.134160 0.067571 0.559726 0.667085
-0.059779 -0.076311 0.063360 0.685790 0.659289
0.045600 -0.075497 0.063304 0.785875 0.657542
0.045597 -0.075697 0.064639 0.785890 0.659289
-0.128937 0.014602 0.060547 0.495321 0.362847
-0.113049 -0.114527 0.043533 0.349874 0.362847
-0.107037 -0.126820 0.038487 0.334931 0.356675
-0.107235 -0.125292 0.054101 0.338358 0.339624
-0.136142 0.158439 0.073559 0.655074 0.349714
-0.141087 0.160348 0.065292 0.657504 0.360325
0.061583 -0.010914 0.070387 0.800430 0.669736
-0.076692 -0.011913 0.070043 0.685790 0.671737
-0.076659 -0.011713 0.068708 0.685793 0.669736
-0.161756 0.069202 0.061534 0.959311 0.316080
-0.161405 0.014468 0.059429 0.950545 0.315482
-0.128937 0.014602 0.060547 0.950895 0.310283
-0.141087 0.160348 0.065292 0.968110 0.312451
-0.145988 0.160320 0.065232 0.968082 0.313032
-0.145381 0.063349 0.061733 0.950546 0.901086
-0.145433 0.071729 0.062031 0.957817 0.312809
-0.146217 0.069636 0.061939 0.957330 0.312606
-0.161771 0.071647 0.061627 0.959702 0.316107
-0.159236 0.067726 0.061538 0.957037 0.314140
-0.000276 -0.096617 0.060516 0.688677 0.616838
0.002735 -0.088574 0.050924 0.685790 0.602862
0.038507 -0.099515 0.063715 0.729613 0.602862
-0.267080 -0.110581 -0.023787 0.000445 0.440443
-0.253347 -0.120691 -0.019547 0.019641 0.437801
-0.277794 -0.115412 -0.010590 0.000445 0.459930
0.081413 0.069231 0.076402 0.600363 0.369709
-0.097534 0.068255 0.072890 0.470394 0.371977
-0.097556 0.068188 0.074229 0.470383 0.369709
-0.068235 -0.044112 0.066698 0.685790 0.668847
0.053591 -0.043215 0.066844 0.793259 0.666971
0.053594 -0.043414 0.068179 0.793284 0.668847
-0.121472 0.144511 0.074912 0.105338 0.336746
-0.060150 -0.110556 0.058115 0.000445 0.057207
-0.110392 0.134844 0.078648 0.110896 0.320435
-0.012080 0.133658 0.079127 0.208722 0.266565
-0.015290 0.131461 0.075531 0.202572 0.266875
-0.013578 -0.096695 0.060354 0.070070 0.036487
0.036515 -0.096439 0.060960 0.128715 0.022327
-0.000276 -0.096617 0.060516 0.100321 0.041204
0.091508 0.134525 0.080368 0.313568 0.211800
0.088247 0.132048 0.077199 0.306735 0.210546
0.203011 0.147134 0.049009 0.601709 0.368131
0.206852 0.147157 0.049056 0.601418 0.363883
0.204807 0.174690 0.048819 0.632023 0.363883
-0.279485 -0.097169 0.060457 0.653957 0.298179
-0.271942 -0.101870 -0.010778 0.653957 0.218603
-0.267080 -0.110581 -0.023787 0.663430 0.203095
-0.277794 -0.115412 -0.010590 0.676562 0.217631
-0.272938 -0.107162 0.070225 0.668324 0.307463
0.056399 -0.031863 0.068088 0.795766 0.656653
-0.071204 -0.032795 0.067873 0.685790 0.654733
0.056402 -0.032057 0.069423 0.795792 0.654733
-0.267080 -0.110581 -0.023787 0.687924 0.217946
-0.168038 -0.144596 -0.026411 0.803182 0.203845
-0.168156 -0.147576 -0.039077 0.806218 0.217946
0.090011 0.104018 0.077649 0.471467 0.363736
-0.106571 0.102938 0.073917 0.334949 0.366119
-0.106587 0.102872 0.075262 0.334931 0.363736
0.222142 -0.067788 0.015364 0.737974 0.570316
0.198047 -0.079178 0.027034 0.708832 0.556499
0.222198 -0.080181 0.016697 0.737974 0.556499
-0.200895 0.158738 0.062863 0.829475 0.760340
-0.203600 0.144765 0.044072 0.813254 0.780825
-0.188142 0.016871 0.039632 0.670409 0.777400
-0.170740 -0.082548 0.029305 0.557997 0.780825
-0.183886 0.014614 0.056914 0.668495 0.757605
-0.161771 0.071647 0.061627 0.339300 0.321232
-0.159236 0.067726 0.061538 0.339361 0.322076
-0.158886 0.068775 0.044553 0.336281 0.322230
-0.161007 0.133513 0.046994 0.334931 0.310566
-0.161357 0.132463 0.063980 0.338002 0.310283
-0.162141 0.130376 0.063887 0.338231 0.310639
-0.266310 0.175473 0.036613 0.677451 0.308424
-0.221404 0.175270 0.037208 0.720610 0.283613
-0.221551 0.200935 0.037009 0.734533 0.308424
-0.145873 0.070686 0.044953 0.685233 0.150452
-0.161007 0.133513 0.046994 0.755423 0.164944
-0.158886 0.068775 0.044553 0.683572 0.164944
-0.145801 0.130467 0.064152 0.339790 0.335504
-0.148336 0.134384 0.064259 0.339775 0.336350
-0.147992 0.135434 0.047273 0.336692 0.336351
-0.145873 0.070686 0.044953 0.336403 0.324611
-0.146217 0.069636 0.061939 0.339483 0.324458
-0.145433 0.071729 0.062031 0.339602 0.324858
-0.145988 0.160320 0.065232 0.949656 0.319005
-0.239836 -0.050712 0.031878 0.724501 0.662449
-0.239572 -0.085252 0.026733 0.685790 0.662449
-0.239790 -0.053327 0.029417 0.721232 0.660178
-0.183886 0.014614 0.056914 0.422323 0.367008
-0.170740 -0.082548 0.029305 0.338926 0.368494
-0.170412 -0.084849 0.027573 0.334931 0.367008
-0.183886 0.014614 0.056914 0.798493 0.087958
-0.170412 -0.084849 0.027573 0.684563 0.109328
-0.161355 -0.113111 0.043487 0.653957 0.087958
-0.265258 -0.095031 0.062051 0.030796 0.899144
-0.264781 -0.114511 -0.007718 0.016534 0.978167
-0.271942 -0.101870 -0.010778 0.000445 0.974701
-0.161007 0.133513 0.046994 0.336711 0.338734
-0.161357 0.132463 0.063980 0.339795 0.338734
0.130394 0.072295 0.048308 0.412861 0.988573
0.145081 0.071348 0.065282 0.410826 0.986741
0.145137 0.072396 0.048293 0.412900 0.986777
0.258165 -0.108809 -0.010065 0.708014 0.624116
0.241307 -0.114374 -0.021020 0.685790 0.617727
0.261127 -0.099624 -0.007240 0.717148 0.617727
0.267470 -0.110989 0.001037 0.720504 0.634492
0.250916 -0.115600 -0.012470 0.697257 0.627668
0.090011 0.104018 0.077649 0.775945 0.814807
-0.103615 0.091464 0.074923 0.561213 0.802135
0.087182 0.092576 0.077239 0.772730 0.802135
0.129944 0.134160 0.067571 0.723978 0.647148
0.144741 0.135295 0.050707 0.740325 0.628364
0.144691 0.134246 0.067696 0.740325 0.647232
0.189410 -0.099366 0.069159 0.788946 0.691697
0.251502 -0.094012 0.065985 0.855461 0.672702
0.249871 -0.101395 0.067565 0.855211 0.681261
0.263960 -0.105580 0.066568 0.871488 0.682576
0.195191 -0.106230 0.072829 0.796742 0.699095
-0.163486 -0.143744 0.054279 0.396705 0.735221
-0.211074 -0.108895 0.072398 0.341441 0.694920
-0.201473 -0.103734 0.063740 0.355585 0.688753
-0.265841 -0.106901 0.061818 0.284126 0.687545
-0.265258 -0.095031 0.062051 0.285647 0.674457
-0.208055 -0.093754 0.073321 0.350264 0.672626
-0.157383 -0.128861 0.057737 0.403832 0.718433
0.151519 -0.137063 0.055434 0.745963 0.735221
0.143600 -0.128451 0.059033 0.737411 0.724687
0.095999 -0.134800 0.065656 0.741186 0.202206
0.086406 -0.142634 0.062964 0.732918 0.190847
0.086358 -0.131919 0.061813 0.744864 0.190847
0.196469 -0.052952 0.027401 0.702665 0.178049
0.196519 -0.063909 0.028580 0.702665 0.165833
0.225431 -0.065109 0.016203 0.737552 0.165833
0.225381 -0.054152 0.015025 0.739139 0.177945
0.205056 -0.052707 0.029323 0.711780 0.181531
-0.205214 -0.081990 0.017840 0.724780 0.587583
-0.218485 -0.069049 0.022163 0.708834 0.601399
-0.218429 -0.081442 0.023496 0.708834 0.587583
-0.197220 -0.050464 0.032396 0.697294 0.663675
-0.197175 -0.053079 0.029935 0.694122 0.666081
-0.197186 -0.055225 0.031889 0.691986 0.663675
0.144741 0.135295 0.050707 0.413211 0.979111
0.145870 0.073440 0.065363 0.410711 0.986480
0.145501 0.132169 0.067623 0.411123 0.979328
0.144691 0.134246 0.067696 0.411137 0.979057
-0.218590 -0.055175 0.024178 0.652006 0.368131
-0.234236 -0.056015 0.017023 0.632912 0.368131
-0.227184 -0.055421 0.022257 0.642455 0.366096
0.185158 -0.065344 0.015714 0.683572 0.165834
0.185109 -0.054387 0.014536 0.683574 0.178050
0.197991 -0.066785 0.025701 0.708832 0.570316
0.188553 -0.080377 0.016288 0.692882 0.556499
-0.231501 -0.082143 0.017521 0.692883 0.587583
-0.235155 -0.070453 0.009811 0.685790 0.601973
0.118950 0.159926 0.076657 0.601013 0.866247
0.093832 -0.124121 0.056542 0.284126 0.866247
0.099769 -0.113287 0.046117 0.295824 0.852674
0.113739 0.016016 0.063493 0.441287 0.852863
0.124071 0.161894 0.068512 0.603461 0.855641
0.045597 -0.075697 0.064639 0.797470 0.232366
-0.062747 -0.064988 0.064534 0.677451 0.245008
-0.059779 -0.076311 0.063360 0.680651 0.232366
0.129160 0.132069 0.067491 0.410909 0.995973
0.128973 0.161922 0.068571 0.821373 0.999555
0.129580 0.064951 0.065072 0.000445 0.999555
0.129528 0.073331 0.065370 0.410788 0.988810
0.130338 0.071247 0.065297 0.410786 0.988538
0.130000 0.135203 0.050589 0.412989 0.996245
0.129944 0.134160 0.067571 0.410915 0.996246
0.145448 0.140544 0.067939 0.454609 0.367282
0.145870 0.073440 0.065363 0.449138 0.367377
0.146224 0.016261 0.063165 0.449137 0.367282
0.195191 -0.106230 0.072829 0.549134 0.480520
0.263960 -0.105580 0.066568 0.623956 0.466361
0.251515 -0.101223 0.081993 0.612117 0.485349
0.194695 -0.104769 0.082399 0.496893 0.496633
-0.163896 -0.137547 0.065934 0.152431 0.506349
-0.201181 -0.105179 0.079397 0.112911 0.546633
-0.261711 -0.097367 0.076304 0.046126 0.555610
-0.264781 -0.114511 -0.007718 0.015111 0.458583
-0.265841 -0.106901 0.061818 0.037861 0.532295
-0.201473 -0.103734 0.063740 0.080492 0.475399
-0.211074 -0.108895 0.072398 0.083069 0.490531
-0.272938 -0.107162 0.070225 0.033170 0.543486
0.130338 0.071247 0.065297 0.687188 0.537684
0.129528 0.073331 0.065370 0.689429 0.538742
0.129580 0.064951 0.065072 0.680170 0.538029
0.128973 0.161922 0.068571 0.787315 0.546287
0.124071 0.161894 0.068512 0.786898 0.551700
0.146224 0.016261 0.063165 0.627643 0.515831
0.145870 0.073440 0.065363 0.690841 0.520514
0.145081 0.071348 0.065282 0.688452 0.521405
0.113739 0.016016 0.063493 0.624845 0.551700
-0.221455 0.174466 0.041839 0.741149 0.648634
-0.266310 0.175473 0.036613 0.691351 0.653844
-0.271397 0.174227 0.041552 0.685790 0.648121
0.072813 0.034475 0.073820 0.724656 0.371978
-0.088525 0.033474 0.073199 0.601264 0.369824
0.072815 0.034408 0.075159 0.724684 0.369824
-0.198271 -0.056621 0.009880 0.732763 0.595484
-0.197238 -0.057552 0.001181 0.738501 0.587583
-0.218590 -0.055175 0.024178 0.738501 0.622468
0.194695 -0.104769 0.082399 0.553935 0.934927
0.251515 -0.101223 0.081993 0.616650 0.941971
0.260054 -0.091282 0.074247 0.625279 0.956472
0.190785 -0.092635 0.080431 0.548620 0.948201
0.143600 -0.128451 0.059033 0.485561 0.978168
-0.157383 -0.128861 0.057737 0.164646 0.886919
-0.163896 -0.137547 0.065934 0.159223 0.872848
-0.279485 -0.097169 0.060457 0.014977 0.896462
-0.272938 -0.107162 0.070225 0.018861 0.879803
-0.261711 -0.097367 0.076304 0.036630 0.881364
-0.208055 -0.093754 0.073321 0.095432 0.900245
-0.201181 -0.105179 0.079397 0.104173 0.886555
0.261127 -0.099624 -0.007240 0.715044 0.372867
0.241307 -0.114374 -0.021020 0.736422 0.395809
0.240325 -0.113511 -0.010889 0.725516 0.398855
0.251945 -0.109120 -0.000092 0.710280 0.388819
0.249871 -0.101395 0.067565 0.635684 0.400592
0.251502 -0.094012 0.065985 0.635212 0.392043
0.189410 -0.099366 0.069159 0.639465 0.461086
0.143600 -0.128451 0.059033 0.668510 0.514942
0.190785 -0.092635 0.080431 0.624845 0.460462
0.260054 -0.091282 0.074247 0.624845 0.383358
0.118950 0.159926 0.076657 0.283237 0.871958
-0.107235 -0.125292 0.054101 0.030390 0.556500
0.093832 -0.124121 0.056542 0.253291 0.556499
-0.106982 -0.143485 0.063191 0.734856 0.578014
-0.099592 -0.132997 0.059606 0.746803 0.586693
-0.099543 -0.143712 0.060757 0.734857 0.586694
-0.227134 -0.066378 0.023435 0.705564 0.115684
-0.227184 -0.055421 0.022257 0.702269 0.127447
-0.234236 -0.056015 0.017023 0.692873 0.124816
-0.238544 -0.056856 0.009391 0.683572 0.121860
-0.238494 -0.067813 0.010569 0.687271 0.110217
0.206852 0.147157 0.049056 0.557108 0.830348
0.187259 0.147043 0.048818 0.553712 0.851785
0.250916 -0.115600 -0.012470 0.665878 0.112258
0.267470 -0.110989 0.001037 0.682683 0.129711
0.263960 -0.105580 0.066568 0.670276 0.201640
0.249871 -0.101395 0.067565 0.653957 0.202206
0.251945 -0.109120 -0.000092 0.661061 0.127022
0.240325 -0.113511 -0.010889 0.653957 0.110217
0.145448 0.140544 0.067939 0.460600 0.367282
0.145501 0.132169 0.067623 0.455498 0.367371
0.145870 0.073440 0.065363 0.455498 0.367282
0.183440 -0.048246 0.037018 0.691097 0.666082
0.183474 -0.053007 0.036512 0.685790 0.666082
0.183485 -0.050861 0.034557 0.687926 0.663675
-0.094563 0.056846 0.072551 0.472394 0.363883
0.078584 0.057789 0.075998 0.600517 0.366119
-0.094585 0.056780 0.073896 0.472374 0.366119
0.185109 -0.054387 0.014536 0.743048 0.380770
0.205056 -0.052707 0.029323 0.737311 0.407753
0.184297 -0.055329 0.005814 0.737311 0.372867
0.263960 -0.105580 0.066568 0.636711 0.931797
0.267470 -0.110989 0.001037 0.708738 0.943622
0.261127 -0.099624 -0.007240 0.716049 0.959078
-0.209907 -0.066277 0.023644 0.723863 0.110217
-0.198222 -0.067578 0.011058 0.740163 0.120156
-0.198271 -0.056621 0.009880 0.739167 0.132331
-0.218590 -0.055175 0.024178 0.711672 0.130082
0.087182 0.092576 0.077239 0.469470 0.371978
-0.103599 0.091530 0.073577 0.334956 0.369630
0.087198 0.092642 0.075894 0.469494 0.369630
0.173398 0.018978 0.044022 0.704330 0.738475
0.187259 0.147043 0.048818 0.847198 0.736111
0.183935 0.160980 0.067536 0.863266 0.756716
0.148048 -0.111308 0.047244 0.557997 0.756716
0.157159 -0.082940 0.031551 0.589122 0.736110
-0.068235 -0.044112 0.066698 0.680653 0.218842
0.056402 -0.032057 0.069423 0.818913 0.231477
-0.071204 -0.032795 0.067873 0.677451 0.231477
-0.188142 0.016871 0.039632 0.800847 0.087069
-0.271635 -0.085438 0.026344 0.653957 0.087069
-0.239572 -0.085252 0.026733 0.676483 0.059645
-0.239790 -0.053327 0.029417 0.693094 0.028317
-0.197175 -0.053079 0.029935 0.737599 0.043945
-0.197220 -0.050464 0.032396 0.736282 0.047695
-0.197186 -0.055225 0.031889 0.732188 0.044331
-0.196957 -0.085003 0.027251 0.706444 0.023122
-0.170412 -0.084849 0.027573 0.725126 0.000445
-0.170740 -0.082548 0.029305 0.728432 0.001249
0.198047 -0.079178 0.027034 0.696466 0.647232
0.188553 -0.080377 0.016288 0.685790 0.635381
0.222198 -0.080181 0.016697 0.723089 0.635381
-0.145988 0.160320 0.065232 0.508585 0.000445
-0.213179 0.164858 0.064242 0.576867 0.030633
-0.215560 0.161307 0.062598 0.577247 0.035696
-0.221320 0.147113 0.043834 0.589979 0.059337
-0.221455 0.174466 0.041839 0.606000 0.033499
-0.271397 0.174227 0.041552 0.653068 0.062648
-0.148336 0.134384 0.064259 0.479832 0.003228
-0.145801 0.130467 0.064152 0.475471 0.000445
-0.162193 0.138752 0.064203 0.484765 0.018559
-0.162141 0.130376 0.063887 0.475473 0.018560
-0.161357 0.132463 0.063980 0.477784 0.017676
-0.271635 -0.085438 0.026344 0.503898 0.309394
-0.188142 0.016871 0.039632 0.465830 0.167284
-0.203600 0.144765 0.044072 0.539740 0.044996
-0.200895 0.158738 0.062863 0.561547 0.030600
-0.183886 0.014614 0.056914 0.472867 0.164982
-0.161355 -0.113111 0.043487 0.383382 0.278479
-0.113049 -0.114527 0.043533 0.334931 0.255627
-0.128937 0.014602 0.060547 0.415962 0.134847
-0.161405 0.014468 0.059429 0.447934 0.151419
0.204807 0.174690 0.048819 0.600708 0.571788
0.204867 0.177754 0.042385 0.603834 0.556499
0.204785 0.178592 0.048785 0.608985 0.569662
0.204638 0.204257 0.048520 0.635933 0.561384
0.203011 0.147134 0.049009 0.576063 0.580333
0.078584 0.057789 0.075998 0.753186 0.815696
-0.097556 0.068188 0.074229 0.557997 0.828367
-0.094585 0.056780 0.073896 0.561212 0.815696
0.072815 0.034408 0.075159 0.837254 0.352295
0.061592 -0.011113 0.071723 0.814903 0.353184
-0.062726 -0.064787 0.063198 0.470383 0.368820
0.144741 0.135295 0.050707 0.753357 0.133222
0.216668 -0.080213 0.016629 0.448248 0.368494
-0.079667 -0.000596 0.071218 0.658394 0.366708
0.069984 0.023039 0.073409 0.746208 0.552589
-0.059757 -0.076111 0.062024 0.685790 0.657542
0.061592 -0.011113 0.071723 0.800466 0.671737
-0.168156 -0.147576 -0.039077 0.096784 0.372867
0.081423 0.069298 0.075063 0.600375 0.371978
-0.068208 -0.043912 0.065369 0.685791 0.666971
-0.071177 -0.032594 0.066544 0.685794 0.656653
-0.271942 -0.101870 -0.010778 0.677451 0.203095
0.090027 0.104084 0.076304 0.471485 0.366119
-0.147992 0.135434 0.047273 0.757089 0.150453
-0.265841 -0.106901 0.061818 0.042546 0.905109
-0.106587 0.102872 0.075262 0.557997 0.814807
0.130000 0.135203 0.050589 0.723984 0.628288
0.093763 -0.142309 0.065652 0.732922 0.199537
-0.201510 -0.070257 0.010219 0.731874 0.601973
0.187823 -0.068770 0.007672 0.685790 0.570891
0.048404 -0.064340 0.065883 0.800671 0.245008
-0.221404 0.175270 0.037208 0.741134 0.653844
-0.088492 0.033541 0.071860 0.601272 0.371978
-0.136142 0.158439 0.073559 0.000445 0.871959
-0.107051 -0.132775 0.061976 0.746804 0.578014
0.078594 0.057855 0.074653 0.600529 0.363883
0.196469 -0.052952 0.027401 0.743048 0.399861
-0.103615 0.091464 0.074923 0.334931 0.371978
0.053594 -0.043414 0.068179 0.815711 0.218835
0.081413 0.069231 0.076402 0.756401 0.828367
3 0 1 2
3 3 0 4
3 4 0 2
3 5 6 7
3 8 9 10
3 11 12 13
3 14 8 10
3 15 16 17
3 17 14 10
3 17 10 11
3 18 19 15
3 17 11 13
3 18 15 17
3 20 21 22
3 23 24 25
3 25 20 22
3 18 17 13
3 23 25 22
3 18 13 23
3 23 22 26
3 23 26 18
3 27 28 29
3 30 31 32
3 33 34 35
3 36 37 38
3 39 40 41
3 36 38 42
3 39 41 36
3 42 39 36
3 43 44 45
3 45 46 47
3 48 49 50
3 45 47 48
3 51 43 45
3 52 53 51
3 54 55 56
3 56 52 51
3 45 48 50
3 50 57 54
3 54 56 51
3 51 45 50
3 50 54 51
3 58 59 60
3 60 61 62
3 60 62 58
3 63 64 65
3 66 67 68
3 69 70 66
3 66 68 69
3 71 72 73
3 74 75 76
3 77 78 79
3 80 81 82
3 83 84 85
3 80 82 83
3 80 83 85
3 86 87 88
3 89 90 91
3 92 93 94
3 95 96 97
3 92 94 95
3 98 99 100
3 101 102 103
3 103 98 100
3 92 95 97
3 103 100 92
3 104 101 103
3 105 106 107
3 104 103 92
3 105 107 104
3 92 97 105
3 92 105 104
3 108 109 110
3 111 112 113
3 113 114 115
3 115 116 111
3 113 115 111
3 117 118 119
3 120 121 122
3 122 123 124
3 124 125 126
3 124 126 127
3 128 120 122
3 129 128 122
3 122 124 127
3 122 127 129
3 130 131 132
3 133 134 135
3 136 137 138
3 139 140 141
3 142 143 144
3 145 146 147
3 142 144 145
3 16 15 19
3 148 149 16
3 150 151 148
3 12 11 10
3 150 148 16
3 150 16 19
3 147 24 23
3 10 150 19
3 147 23 13
3 147 13 12
3 145 147 12
3 10 19 142
3 145 12 10
3 145 10 142
3 152 153 154
3 155 156 157
3 157 158 159
3 157 159 155
3 160 161 162
3 163 164 165
3 166 167 168
3 169 170 171
3 172 173 174
3 174 175 176
3 174 176 172
3 177 178 179
3 179 180 181
3 181 182 177
3 179 181 177
3 183 184 185
3 186 187 188
3 189 190 191
3 191 192 193
3 191 193 194
3 194 195 189
3 191 194 189
3 196 197 198
3 199 200 201
3 202 203 204
3 205 206 207
3 208 190 209
3 210 211 212
3 213 214 215
3 216 217 213
3 215 216 213
3 218 219 220
3 221 222 223
3 224 225 226
3 226 227 228
3 229 230 231
3 231 232 233
3 224 226 228
3 231 233 234
3 231 234 235
3 224 228 236
3 237 224 236
3 229 231 235
3 235 237 236
3 236 229 235
3 238 239 240
3 241 242 243
3 243 244 245
3 243 245 241
3 246 247 248
3 249 250 251
3 252 212 211
3 211 253 254
3 254 255 252
3 211 254 252
3 256 257 258
3 259 241 260
3 261 262 170
3 263 247 264
3 265 266 267
3 268 269 265
3 267 268 265
3 178 192 179
3 270 271 272
3 273 274 275
3 276 277 210
3 273 275 276
3 278 279 273
3 276 210 278
3 276 278 273
3 280 281 282
3 27 29 283
3 283 284 285
3 285 286 287
3 287 288 289
3 135 134 33
3 33 35 290
3 291 292 293
3 135 33 290
3 291 293 28
3 135 290 291
3 287 289 294
3 283 285 287
3 28 27 283
3 294 135 291
3 28 283 287
3 287 294 291
3 287 291 28
3 295 296 297
3 297 298 299
3 300 301 302
3 302 295 297
3 297 299 303
3 303 300 302
3 297 303 302
3 304 305 306
3 307 308 309
3 310 311 312
3 313 314 315
3 316 317 318
3 313 315 316
3 319 313 316
3 205 207 320
3 320 321 322
3 319 316 318
3 323 205 320
3 319 318 323
3 320 322 324
3 324 319 323
3 323 320 324
3 325 326 327
3 328 329 330
3 325 327 328
3 331 332 333
3 325 328 330
3 330 331 333
3 334 325 330
3 330 333 334
3 335 336 337
3 338 339 340
3 341 342 343
3 343 344 345
3 343 345 341
3 45 346 347
3 348 349 350
3 350 351 352
3 352 353 348
3 350 352 348
3 354 355 356
3 357 358 359
3 360 361 362
3 363 364 365
3 314 366 367
3 367 368 315
3 367 315 314
3 341 369 370
3 370 371 372
3 372 342 341
3 370 372 341
3 373 374 375
3 376 377 378
3 378 379 380
3 378 380 376
3 381 382 383
3 384 385 386
3 387 388 389
3 390 391 392
3 386 387 389
3 389 390 392
3 392 393 384
3 384 386 389
3 389 392 384
3 394 395 396
3 397 398 399
3 400 401 402
3 403 404 397
3 405 406 407
3 407 403 397
3 400 402 408
3 408 409 410
3 411 412 413
3 408 410 411
3 399 400 408
3 405 407 397
3 414 415 416
3 416 405 397
3 399 408 411
3 413 414 416
3 397 399 411
3 411 413 416
3 411 416 397
3 417 418 419
3 419 420 96
3 96 95 421
3 421 417 419
3 419 96 421
3 422 423 424
3 5 425 6
3 30 426 31
3 71 427 72
3 74 428 75
3 77 429 78
3 86 430 87
3 89 431 90
3 108 432 109
3 117 433 118
3 133 434 134
3 136 435 137
3 139 436 140
3 160 437 161
3 163 438 164
3 166 439 167
3 169 261 170
3 186 440 187
3 205 441 206
3 208 191 190
3 210 277 211
3 218 442 219
3 221 443 222
3 238 444 239
3 246 445 247
3 259 242 241
3 261 446 262
3 263 248 247
3 178 193 192
3 270 447 271
3 304 448 305
3 307 449 308
3 335 450 336
3 338 451 339
3 45 44 346
3 360 452 361
3 363 453 364
3 373 454 374
3 381 455 382
3 422 456 423
