ply
format ascii 1.0
comment Created by Blender 2.79 (sub 0) - www.blender.org, source file: 'lighthouse.blend'
comment Property "shading" of element "globals_ply_v2"
comment   0x2  = const shading
comment   0x4  = flat shading
comment   0x8  = phong shading
comment   0x10 = gouraud shading
element globals_ply_v2 1
property uint shading
element vertex 243
property float x
property float y
property float z
property float s
property float t
element face 232
property list uchar uint vertex_indices
end_header
4
0.000000 1.319528 0.006344 0.016328 0.489257
-0.918566 0.918566 2.159161 0.110368 0.418030
0.000000 1.212074 2.159161 0.110567 0.492396
-0.918566 -0.918566 2.159161 0.121525 0.903078
-0.000001 -1.319528 0.006343 0.016744 0.833964
-0.000000 -1.212074 2.159160 0.119566 0.833761
0.918566 -0.918566 2.159159 0.121148 0.752602
1.301771 -0.000000 0.006343 0.020623 0.685109
1.195763 -0.000000 2.159160 0.118944 0.682639
-0.000000 -0.000000 0.006344 0.832302 0.512947
-1.000000 -1.000000 0.006345 0.786368 0.598581
-1.301772 -0.000000 0.006344 0.746665 0.538789
-1.036833 0.000000 5.386709 0.419922 0.937500
-0.744863 -0.744863 6.751254 0.470703 0.872070
-0.969641 0.000000 6.751254 0.469727 0.922852
-0.744863 -0.744863 6.751254 0.171157 0.269157
0.000000 -1.385748 6.823547 0.228115 0.318006
-1.050184 -1.050184 6.823547 0.147884 0.292560
0.744863 -0.744863 6.751253 0.284906 0.268964
0.000000 -0.982867 6.751254 0.228062 0.287205
0.999999 -1.000000 0.006342 0.917933 0.558878
1.301771 -0.000000 0.006343 0.917933 0.487105
0.999999 -1.000000 0.006342 0.016824 0.760321
0.918566 0.918566 2.159160 0.113886 0.571467
1.000000 1.000000 0.006343 0.878230 0.427313
0.000000 1.319528 0.006344 0.806105 0.426145
0.744863 0.744863 6.751254 0.284962 0.155216
1.367100 0.000000 6.823547 0.332458 0.212113
0.969642 0.000000 6.751254 0.302070 0.212098
-0.744863 0.744863 6.751254 0.171213 0.154912
0.000000 1.385748 6.823548 0.228218 0.106118
0.000000 0.982868 6.751254 0.228136 0.136919
-1.036833 0.000000 5.386709 0.419922 0.492188
-0.744863 0.744863 6.751254 0.470703 0.551758
-0.796479 0.796479 5.386709 0.417969 0.540039
-1.000000 1.000000 0.006344 0.746665 0.467016
1.000000 1.000000 0.006343 0.016759 0.569886
1.367100 0.000000 6.823547 0.957866 0.398977
1.050185 1.050184 7.712680 0.981760 0.299560
1.367101 -0.000000 7.712680 0.981760 0.398977
0.000000 -1.385748 6.823547 0.957866 0.598314
-1.050184 -1.050185 7.712680 0.981760 0.698233
-1.050184 -1.050184 6.823547 0.957865 0.698233
-1.367099 0.000000 6.823548 0.957865 0.000303
-1.050183 1.050184 7.712682 0.981759 0.099721
-1.050184 1.050185 6.823548 0.957865 0.099721
1.050184 1.050185 6.823547 0.957865 0.299560
0.000001 1.385748 7.712682 0.981759 0.199640
-1.367099 0.000000 6.823548 0.123413 0.211554
-1.050184 1.050185 6.823548 0.147962 0.131486
1.050184 1.050185 6.823547 0.308337 0.131914
-1.367099 0.000000 6.823548 0.123413 0.212467
-0.969641 0.000000 6.751254 0.153801 0.212349
1.050185 -1.050184 6.823545 0.308259 0.292288
-1.367099 -0.000000 7.712682 0.926106 0.316859
-0.703977 -0.703978 7.735620 0.888349 0.356975
-0.916417 -0.000000 7.735621 0.900432 0.316870
1.367101 -0.000000 7.712680 0.770344 0.316951
0.703979 0.703978 7.735620 0.808088 0.276822
0.916420 -0.000000 7.735620 0.796019 0.316932
0.000001 -1.385748 7.712680 0.848272 0.395835
-1.050184 -1.050185 7.712680 0.908082 0.376688
-1.367099 -0.000000 7.712682 0.926106 0.316806
-0.703977 0.703978 7.735622 0.888288 0.276748
-1.050183 1.050184 7.712682 0.907990 0.257005
-1.367099 -0.000000 7.712682 0.981759 0.797651
-1.367099 0.000000 6.823548 0.957865 0.797651
1.050185 -1.050184 6.823545 0.957866 0.498395
1.050186 -1.050185 7.712678 0.981760 0.498395
0.000001 -1.385748 7.712680 0.981760 0.598314
0.000000 1.385748 6.823548 0.957865 0.199640
0.000001 -0.928919 7.735620 0.825481 0.934092
0.569843 -0.569842 8.960606 0.824845 0.864741
0.000002 -0.751922 8.960606 0.853640 0.910680
0.916420 -0.000000 7.735620 0.781567 0.811221
0.703979 -0.703978 7.735620 0.789909 0.877340
-0.916417 -0.000000 7.735621 0.938273 0.999697
-0.569839 -0.569842 8.960606 0.893551 0.947376
-0.741800 -0.000001 8.960607 0.944940 0.963784
0.569842 0.569840 8.960606 0.824845 0.757700
0.741804 -0.000001 8.960606 0.818093 0.811221
0.703979 -0.703978 7.735620 0.808149 0.357023
1.050186 -1.050185 7.712678 0.788440 0.376759
0.000001 -0.928919 7.735620 0.848257 0.369811
0.000001 1.385748 7.712682 0.848152 0.237949
0.000001 0.928919 7.735621 0.848176 0.263973
1.050185 1.050184 7.712680 0.788349 0.257117
0.569842 0.569840 8.960606 0.075806 0.157784
0.000002 0.950445 9.088145 0.034168 0.225158
0.720294 0.720291 9.088145 0.054147 0.145959
-0.569839 0.569840 8.960607 0.061287 0.299530
0.000002 0.751920 8.960607 0.056317 0.227430
0.569843 -0.569842 8.960606 0.194142 0.067443
0.000002 -0.950447 9.088145 0.280349 0.037685
0.000002 -0.751922 8.960606 0.276723 0.063862
0.937658 -0.000001 9.088145 0.110681 0.086317
0.720294 -0.720293 9.088145 0.187000 0.040913
0.000001 0.928919 7.735621 0.825481 0.688349
-0.569839 0.569840 8.960607 0.893551 0.675065
0.000002 0.751920 8.960607 0.853640 0.711761
0.703979 0.703978 7.735620 0.789909 0.745101
-0.916417 -0.000000 7.735621 0.938273 0.622745
-0.703977 0.703978 7.735622 0.874787 0.643015
-0.703977 -0.703978 7.735620 0.874788 0.979426
-0.937654 -0.000001 9.088145 0.083312 0.380727
-0.720290 0.720291 9.464370 0.025317 0.310839
-0.720290 0.720291 9.088146 0.038241 0.306589
0.000002 0.950445 9.464369 0.019363 0.223665
0.720294 0.720291 9.464369 0.042500 0.139535
0.000002 -0.950447 9.464369 0.281728 0.021137
-0.569839 -0.569842 8.960606 0.362381 0.091344
-0.720290 -0.720293 9.088145 0.378115 0.064689
0.741804 -0.000001 8.960606 0.124756 0.104598
-0.937654 -0.000001 9.088145 0.460047 0.145123
-0.741800 -0.000001 8.960607 0.431228 0.160658
0.000002 0.950445 9.464369 0.864978 0.074192
0.323129 0.323126 9.671404 0.842051 0.120054
0.720294 0.720291 9.464369 0.812977 0.091286
-0.323124 0.323126 9.671404 0.888862 0.119563
0.000002 0.426374 9.671404 0.865379 0.112386
0.000002 -0.950447 9.464369 0.864978 0.212728
0.323129 -0.323128 9.671404 0.842051 0.166866
0.000002 -0.426376 9.671404 0.865379 0.174534
0.937658 -0.000001 9.464369 0.797352 0.143460
0.720294 -0.720293 9.464369 0.812978 0.195634
-0.720290 -0.720293 9.464369 0.386623 0.048616
0.937658 -0.000001 9.464369 0.101211 0.075235
-0.937653 -0.000001 9.464369 0.474191 0.130444
0.720294 -0.720293 9.464369 0.182132 0.026103
0.796479 0.796479 5.386708 0.399414 0.628906
1.089755 0.000000 4.311977 0.313477 0.695312
0.837133 0.837133 4.311977 0.314453 0.631836
-1.195763 -0.000000 2.159161 0.144113 0.418916
-0.837132 0.837133 4.311978 0.229010 0.487873
-0.918566 0.918566 2.159161 0.144512 0.482827
0.000000 1.104620 4.311978 0.312500 0.595703
0.000000 1.050977 5.386709 0.401367 0.593750
0.000000 -1.050976 5.386708 0.400391 0.883789
0.068512 -0.978117 4.435151 0.319336 0.876953
0.068512 -0.937214 5.254635 0.395508 0.876953
-1.195763 -0.000000 2.159161 0.141565 0.985894
-0.837133 -0.837132 4.311978 0.232422 0.915039
-1.089755 0.000000 4.311978 0.233398 0.986328
0.796479 -0.796479 5.386706 0.400391 0.798828
1.036834 0.000000 5.386708 0.399414 0.693359
-0.796479 -0.796479 5.386709 0.399414 0.935547
-0.000000 -1.104620 4.311977 0.313477 0.882812
-0.061943 0.967488 4.430850 0.318359 0.587891
-0.061943 0.926214 5.257768 0.395508 0.587891
0.000000 1.050977 5.386709 0.412109 0.592773
0.000000 0.982868 6.751254 0.466797 0.599609
0.000000 -1.050976 5.386708 0.412109 0.823242
0.000000 -0.982867 6.751254 0.466797 0.815430
0.744863 -0.744863 6.751253 0.480469 0.764648
1.036834 0.000000 5.386708 0.417969 0.710938
0.969642 0.000000 6.751254 0.475586 0.710938
0.796479 -0.796479 5.386706 0.423828 0.768555
0.744863 0.744863 6.751254 0.480469 0.656250
0.796479 0.796479 5.386708 0.423828 0.652344
-1.089755 0.000000 4.311978 0.314453 0.444336
-0.796479 0.796479 5.386709 0.401367 0.508789
-0.837132 0.837133 4.311978 0.312500 0.508789
-1.089755 0.000000 4.311978 0.316406 0.982422
-1.036833 0.000000 5.386709 0.399414 0.981445
-0.674769 0.730399 5.257768 0.396484 0.516602
-0.706049 0.761679 4.430850 0.318359 0.515625
0.675829 -0.743159 5.254635 0.395508 0.805664
0.706827 -0.774157 4.435151 0.319336 0.805664
0.837133 -0.837132 4.311976 0.313477 0.798828
-1.301772 -0.000000 0.006344 0.018231 0.982717
-1.195763 -0.000000 2.159161 0.119630 0.983234
-1.301772 -0.000000 0.006344 0.740234 0.623047
-2.135704 0.283647 1.770006 0.661133 0.708008
-2.223045 0.265500 -0.009800 0.652344 0.625977
0.837133 0.837133 4.311977 0.229160 0.617199
1.195763 -0.000000 2.159160 0.142051 0.687756
0.918566 0.918566 2.159160 0.143761 0.616817
0.000000 1.212074 2.159161 0.144022 0.558416
0.000000 1.104620 4.311978 0.229421 0.557919
0.837133 -0.837132 4.311976 0.230469 0.758789
-0.000000 -1.212074 2.159160 0.142578 0.826172
0.918566 -0.918566 2.159159 0.143555 0.758789
1.089755 0.000000 4.311977 0.231064 0.686482
-0.000000 -1.104620 4.311977 0.232422 0.828125
-1.921273 1.265501 -0.009800 0.669922 0.849609
-2.135704 0.283647 1.770006 0.602539 0.947266
-1.858507 1.202213 1.770006 0.598633 0.853516
-1.301772 -0.000000 0.006344 0.760742 0.940430
-1.000000 1.000000 0.006344 0.758789 0.847656
-0.918566 0.918566 2.159161 0.755859 0.776367
-1.195763 -0.000000 2.159161 0.750000 0.701172
-1.858507 1.202213 1.770006 0.667969 0.778320
-0.323124 -0.323128 9.671404 0.355587 0.293358
-0.420635 -0.000001 10.117317 0.339002 0.344049
-0.420635 -0.000001 9.671404 0.322273 0.327926
0.323129 0.323126 9.671404 0.489182 0.154737
0.420640 -0.000001 10.117317 0.472596 0.205428
0.420640 -0.000001 9.671404 0.455867 0.189305
0.000002 -0.426376 9.671404 0.389070 0.258616
-0.323124 -0.323128 10.117317 0.372317 0.309481
-0.420635 -0.000001 9.671404 0.589461 0.050684
-0.323124 0.323126 10.117317 0.572876 0.101375
-0.323124 0.323126 9.671404 0.556147 0.085253
-0.937653 -0.000001 9.464369 0.934043 0.142025
-0.720290 0.720291 9.464370 0.917326 0.090190
-0.323124 -0.323128 9.671404 0.888862 0.167357
-0.720290 -0.720293 9.464369 0.917326 0.196729
0.420640 -0.000001 9.671404 0.835042 0.143460
-0.937653 -0.000001 9.464369 0.934043 0.144895
-0.420635 -0.000001 9.671404 0.896362 0.144103
0.000002 -0.000001 10.117331 0.713502 0.397472
-0.323124 0.323126 10.117317 0.741635 0.382383
-0.420635 -0.000001 10.117317 0.741635 0.405962
0.323129 0.323126 10.117317 0.698412 0.369339
0.420640 -0.000001 10.117317 0.685369 0.388982
0.323129 -0.323128 10.117317 0.685369 0.412562
0.000002 -0.426376 10.117317 0.704896 0.425989
-0.323124 -0.323128 10.117317 0.728592 0.425605
0.323129 -0.323128 10.117317 0.439282 0.239996
0.323129 -0.323128 9.671404 0.422552 0.223874
0.000002 -0.426376 10.117317 0.405799 0.274739
0.000002 0.426374 10.117317 0.539393 0.136118
0.000002 0.426374 9.671404 0.522664 0.119995
0.323129 0.323126 10.117317 0.505911 0.170860
-1.000000 1.000000 0.006344 0.016538 0.420490
-1.000000 -1.000000 0.006345 0.013025 0.914390
-0.000001 -1.319528 0.006343 0.858493 0.599749
-0.796479 -0.796479 5.386709 0.417969 0.882812
-0.969641 0.000000 6.751254 0.469727 0.505859
-1.367099 -0.000000 7.712682 0.981759 0.000303
-0.969641 0.000000 6.751254 0.153801 0.211702
-0.916417 -0.000000 7.735621 0.900432 0.316834
-0.741800 -0.000001 8.960607 0.944940 0.658657
-0.937653 -0.000001 9.464369 0.071925 0.387638
-0.741800 -0.000001 8.960607 0.099840 0.362365
-1.089755 0.000000 4.311978 0.235180 0.424320
-0.918566 -0.918566 2.159161 0.143703 0.914107
-0.837133 -0.837132 4.311978 0.316406 0.935547
-1.036833 0.000000 5.386709 0.402344 0.446289
-2.223045 0.265500 -0.009800 0.673828 0.944336
-0.420635 -0.000001 10.117317 0.606191 0.066807
-0.420635 -0.000001 9.671404 0.896362 0.142816
0.000002 0.426374 10.117317 0.722107 0.368955
3 0 1 2
3 3 4 5
3 6 7 8
3 9 10 11
3 12 13 14
3 15 16 17
3 18 16 19
3 20 9 21
3 6 4 22
3 23 0 2
3 24 9 25
3 26 27 28
3 29 30 31
3 32 33 34
3 9 35 25
3 23 7 36
3 37 38 39
3 40 41 42
3 43 44 45
3 46 47 38
3 29 48 49
3 26 30 50
3 15 51 52
3 18 27 53
3 54 55 56
3 57 58 59
3 60 55 61
3 62 63 64
3 42 65 66
3 67 39 68
3 67 69 40
3 70 44 47
3 71 72 73
3 74 72 75
3 76 77 78
3 74 79 80
3 57 81 82
3 60 81 83
3 84 63 85
3 84 58 86
3 87 88 89
3 90 88 91
3 92 93 94
3 92 95 96
3 97 98 99
3 97 79 100
3 101 98 102
3 71 77 103
3 104 105 106
3 89 107 108
3 88 105 107
3 96 109 93
3 90 104 106
3 110 93 111
3 87 95 112
3 110 113 114
3 115 116 117
3 115 118 119
3 120 121 122
3 123 121 124
3 93 125 111
3 95 108 126
3 111 127 113
3 96 126 128
3 129 130 131
3 132 133 134
3 129 135 136
3 137 138 139
3 140 141 142
3 143 130 144
3 145 146 137
3 136 147 148
3 149 33 150
3 13 151 152
3 153 154 155
3 153 151 156
3 157 149 150
3 157 154 158
3 159 160 161
3 162 145 163
3 147 164 148
3 160 165 161
3 135 165 147
3 160 148 164
3 166 138 167
3 143 139 166
3 143 167 168
3 146 167 138
3 169 3 170
3 171 172 173
3 174 175 176
3 174 177 178
3 179 180 181
3 179 175 182
3 141 180 183
3 177 133 178
3 184 185 186
3 187 184 188
3 189 172 190
3 188 191 189
3 192 193 194
3 195 196 197
3 198 199 192
3 200 201 202
3 203 118 204
3 120 205 206
3 123 116 207
3 208 205 209
3 210 211 212
3 213 210 214
3 215 210 216
3 210 217 216
3 197 218 219
3 219 220 198
3 202 221 222
3 222 223 195
3 0 224 1
3 3 225 4
3 6 22 7
3 9 226 10
3 12 227 13
3 15 19 16
3 18 53 16
3 20 226 9
3 6 5 4
3 23 36 0
3 24 21 9
3 26 50 27
3 29 49 30
3 32 228 33
3 9 11 35
3 23 8 7
3 37 46 38
3 40 69 41
3 43 229 44
3 46 70 47
3 29 230 48
3 26 31 30
3 15 17 51
3 18 28 27
3 54 61 55
3 57 86 58
3 60 83 55
3 62 231 63
3 42 41 65
3 67 37 39
3 67 68 69
3 70 45 44
3 71 75 72
3 74 80 72
3 76 103 77
3 74 100 79
3 57 59 81
3 60 82 81
3 84 64 63
3 84 85 58
3 87 91 88
3 90 106 88
3 92 96 93
3 92 112 95
3 97 102 98
3 97 99 79
3 101 232 98
3 71 73 77
3 104 233 105
3 89 88 107
3 88 106 105
3 96 128 109
3 90 234 104
3 110 94 93
3 87 89 95
3 110 111 113
3 115 119 116
3 115 204 118
3 120 124 121
3 123 207 121
3 93 109 125
3 95 89 108
3 111 125 127
3 96 95 126
3 129 144 130
3 132 235 133
3 129 131 135
3 137 146 138
3 140 236 141
3 143 168 130
3 145 237 146
3 136 135 147
3 149 34 33
3 13 227 151
3 153 156 154
3 153 152 151
3 157 158 149
3 157 155 154
3 159 238 160
3 162 237 145
3 147 165 164
3 160 164 165
3 135 161 165
3 160 136 148
3 166 139 138
3 143 137 139
3 143 166 167
3 146 168 167
3 169 225 3
3 171 190 172
3 174 182 175
3 174 176 177
3 179 183 180
3 179 181 175
3 141 236 180
3 177 134 133
3 184 239 185
3 187 239 184
3 189 191 172
3 188 184 191
3 192 199 193
3 195 223 196
3 198 220 199
3 200 240 201
3 203 241 118
3 120 122 205
3 123 117 116
3 208 206 205
3 210 242 211
3 213 242 210
3 215 214 210
3 210 212 217
3 197 196 218
3 219 218 220
3 202 201 221
3 222 221 223
