ply
format ascii 1.0
comment Created by Blender 2.79 (sub 0) - www.blender.org, source file: ''
element globals_ply_v2 1
property uint shading
element vertex 482
property float x
property float y
property float z
element face 960
property list uchar uint vertex_indices
end_header
16
0.000000 1.522261 -2.278227
0.204563 1.028404 -2.531430
0.000000 1.048551 -2.531430
0.000001 2.687349 0.534548
0.493858 2.482789 1.048553
0.524276 2.635715 0.534548
0.104285 0.524276 -2.687351
0.000000 0.534546 -2.687351
0.000001 2.739997 0.000000
0.534548 2.687351 0.000000
0.000000 0.534547 2.687351
-0.000000 -0.000002 2.740000
0.104285 0.524276 2.687351
0.000000 -0.000001 -2.740000
0.524276 2.635715 -0.534547
0.000001 2.687349 -0.534547
0.000000 1.048551 2.531430
0.204563 1.028405 2.531430
0.493858 2.482789 -1.048552
0.000000 2.531428 -1.048552
0.000000 1.522261 2.278227
0.296979 1.493012 2.278227
0.444460 2.234451 -1.522262
0.000001 2.278224 -1.522262
0.000000 1.937471 1.937472
0.377982 1.900244 1.937472
0.377982 1.900244 -1.937472
0.000000 1.937471 -1.937472
0.000001 2.278224 1.522262
0.444460 2.234451 1.522262
0.296979 1.493012 -2.278227
0.000000 2.531428 1.048553
0.582545 1.406387 -2.278227
0.968736 2.338736 1.048553
0.401264 0.968736 -2.531430
1.028405 2.482789 0.534548
0.204563 0.493857 -2.687351
1.048553 2.531430 0.000000
0.204563 0.493857 2.687351
1.028405 2.482789 -0.534547
0.401264 0.968736 2.531430
0.968737 2.338736 -1.048552
0.582545 1.406387 2.278227
0.871840 2.104807 -1.522262
0.741439 1.789991 1.937472
0.741439 1.789991 -1.937472
0.871840 2.104807 1.522262
0.582545 0.871839 2.531430
1.406387 2.104807 -1.048552
0.845724 1.265715 2.278227
1.265715 1.894276 -1.522262
1.076403 1.610949 1.937472
1.076403 1.610949 -1.937472
1.265715 1.894276 1.522262
0.845724 1.265715 -2.278227
1.406387 2.104806 1.048553
0.582545 0.871839 -2.531430
1.493013 2.234451 0.534548
0.296979 0.444459 -2.687351
1.522263 2.278226 0.000000
0.296979 0.444460 2.687351
1.493013 2.234451 -0.534547
1.789991 1.789991 1.048553
0.741439 0.741438 -2.531430
1.900245 1.900244 0.534548
0.377982 0.377981 -2.687351
1.937473 1.937472 0.000000
0.377983 0.377982 2.687351
1.900245 1.900244 -0.534547
0.741439 0.741438 2.531430
1.789991 1.789991 -1.048552
1.076403 1.076402 2.278227
1.610950 1.610949 -1.522262
1.370000 1.370000 1.937472
1.370000 1.370000 -1.937472
1.610950 1.610949 1.522262
1.076403 1.076401 -2.278227
2.104807 1.406387 -1.048552
1.265715 0.845723 2.278227
1.894277 1.265714 -1.522262
1.610950 1.076401 1.937472
1.610950 1.076401 -1.937472
1.894277 1.265714 1.522262
1.265715 0.845723 -2.278227
2.104807 1.406386 1.048553
0.871840 0.582544 -2.531430
2.234452 1.493012 0.534548
0.444460 0.296978 -2.687351
2.278227 1.522262 0.000000
0.444461 0.296978 2.687351
2.234452 1.493012 -0.534547
0.871840 0.582544 2.531430
1.406387 0.582544 -2.278227
0.968737 0.401263 -2.531430
2.338737 0.968736 1.048553
2.482789 1.028404 0.534548
0.493858 0.204562 -2.687351
2.531430 1.048552 0.000000
0.493858 0.204562 2.687351
2.482789 1.028404 -0.534547
0.968737 0.401263 2.531430
2.338737 0.968736 -1.048552
1.406388 0.582544 2.278227
2.104808 0.871839 -1.522262
1.789992 0.741438 1.937472
1.789992 0.741438 -1.937472
2.104808 0.871839 1.522262
2.482789 0.493857 -1.048552
2.234452 0.444459 -1.522262
1.493013 0.296978 2.278227
1.900245 0.377981 1.937472
1.900245 0.377981 -1.937472
2.234452 0.444459 1.522262
1.493013 0.296978 -2.278227
2.482789 0.493857 1.048553
1.028405 0.204562 -2.531430
2.635715 0.524275 0.534548
0.524276 0.104284 -2.687351
2.687352 0.534547 0.000000
0.524277 0.104284 2.687351
2.635715 0.524275 -0.534547
1.028406 0.204562 2.531430
1.048553 -0.000001 -2.531430
0.534548 -0.000001 -2.687351
2.740000 -0.000001 0.000000
0.534548 -0.000001 2.687351
2.687351 -0.000001 -0.534547
1.048553 -0.000001 2.531430
2.531430 -0.000001 -1.048552
1.522263 -0.000001 2.278227
2.278227 -0.000001 -1.522262
1.937473 -0.000001 1.937472
1.937473 -0.000001 -1.937472
2.278227 -0.000001 1.522262
1.522263 -0.000001 -2.278227
2.531430 -0.000001 1.048553
2.687351 -0.000001 0.534548
1.900245 -0.377983 1.937472
1.900245 -0.377983 -1.937472
2.234452 -0.444461 1.522262
1.493013 -0.296980 -2.278227
2.482789 -0.493858 1.048553
1.028405 -0.204563 -2.531430
2.635715 -0.524277 0.534548
0.524276 -0.104286 -2.687351
2.687352 -0.534549 0.000000
0.524277 -0.104286 2.687351
2.635715 -0.524277 -0.534547
1.028406 -0.204563 2.531430
2.482789 -0.493858 -1.048552
1.493013 -0.296980 2.278227
2.234452 -0.444461 -1.522262
2.531430 -1.048554 0.000000
0.493858 -0.204564 2.687351
0.493858 -0.204563 -2.687351
2.482789 -1.028406 -0.534547
0.968737 -0.401265 2.531430
2.338737 -0.968737 -1.048552
1.406387 -0.582546 2.278227
2.104807 -0.871841 -1.522262
1.789991 -0.741440 1.937472
1.789991 -0.741440 -1.937472
2.104807 -0.871841 1.522262
1.406387 -0.582546 -2.278227
2.338737 -0.968737 1.048553
0.968736 -0.401265 -2.531430
2.482789 -1.028406 0.534548
1.610950 -1.076403 -1.937472
1.610950 -1.076403 1.937472
1.894276 -1.265716 1.522262
1.265715 -0.845725 -2.278227
2.104807 -1.406388 1.048553
0.871840 -0.582546 -2.531430
2.234451 -1.493013 0.534548
0.444460 -0.296980 -2.687351
2.278227 -1.522264 0.000000
0.444461 -0.296980 2.687351
2.234451 -1.493013 -0.534547
0.871840 -0.582546 2.531430
2.104807 -1.406388 -1.048552
1.265715 -0.845725 2.278227
1.894276 -1.265716 -1.522262
0.377983 -0.377984 2.687351
0.377982 -0.377983 -2.687351
1.900244 -1.900245 -0.534547
0.741439 -0.741440 2.531430
1.789991 -1.789992 -1.048552
1.076402 -1.076403 2.278227
1.610949 -1.610950 -1.522262
1.370000 -1.370001 1.937472
1.370000 -1.370001 -1.937472
1.610949 -1.610950 1.522262
1.076402 -1.076403 -2.278227
1.789991 -1.789992 1.048553
0.741439 -0.741440 -2.531430
1.900244 -1.900245 0.534548
1.937473 -1.937474 0.000000
1.076402 -1.610950 1.937472
1.265715 -1.894277 1.522262
1.076402 -1.610950 -1.937472
0.845724 -1.265716 -2.278227
1.406387 -2.104808 1.048553
0.582545 -0.871840 -2.531430
1.493012 -2.234452 0.534548
0.296979 -0.444461 -2.687351
1.522262 -2.278228 0.000000
0.296979 -0.444461 2.687351
1.493012 -2.234452 -0.534547
0.582545 -0.871841 2.531430
1.406387 -2.104808 -1.048552
0.845724 -1.265716 2.278227
1.265715 -1.894277 -1.522262
1.028404 -2.482790 -0.534547
0.401264 -0.968737 2.531430
0.968736 -2.338737 -1.048552
0.582545 -1.406388 2.278227
0.871839 -2.104808 -1.522262
0.741439 -1.789992 1.937472
0.741439 -1.789992 -1.937472
0.871839 -2.104808 1.522262
0.582545 -1.406388 -2.278227
0.968736 -2.338737 1.048553
0.401264 -0.968737 -2.531430
1.028404 -2.482790 0.534548
0.204562 -0.493858 -2.687351
1.048552 -2.531431 0.000000
0.204563 -0.493859 2.687351
0.296979 -1.493013 -2.278227
0.493858 -2.482790 1.048553
0.204562 -1.028406 -2.531430
0.524276 -2.635715 0.534548
0.104285 -0.524277 -2.687351
0.534547 -2.687353 0.000000
0.104285 -0.524278 2.687351
0.524276 -2.635715 -0.534547
0.204563 -1.028406 2.531430
0.493858 -2.482790 -1.048552
0.296979 -1.493014 2.278227
0.444460 -2.234452 -1.522262
0.377982 -1.900245 1.937472
0.377982 -1.900245 -1.937472
0.444460 -2.234452 1.522262
0.000000 -2.531431 -1.048552
0.000000 -1.048554 2.531430
0.000000 -1.522264 2.278227
-0.000000 -2.278227 -1.522262
-0.000000 -1.937473 1.937472
-0.000000 -1.937473 -1.937472
-0.000000 -2.278227 1.522262
-0.000000 -1.522263 -2.278227
0.000000 -2.531431 1.048553
0.000000 -1.048553 -2.531430
-0.000000 -2.687352 0.534548
0.000000 -0.534548 -2.687351
-0.000000 -2.740001 0.000000
-0.000000 -0.534549 2.687351
-0.000000 -2.687352 -0.534547
-0.204562 -1.028406 -2.531430
-0.493857 -2.482790 1.048553
-0.524276 -2.635715 0.534548
-0.104285 -0.524277 -2.687351
-0.534548 -2.687352 0.000000
-0.104285 -0.524278 2.687351
-0.524276 -2.635715 -0.534547
-0.204562 -1.028406 2.531430
-0.493857 -2.482790 -1.048552
-0.296979 -1.493014 2.278227
-0.444460 -2.234451 -1.522262
-0.377982 -1.900245 1.937472
-0.377982 -1.900245 -1.937472
-0.444460 -2.234451 1.522262
-0.296979 -1.493013 -2.278227
-0.582545 -1.406388 2.278227
-0.968736 -2.338737 -1.048552
-0.871840 -2.104807 -1.522262
-0.741439 -1.789992 1.937472
-0.741439 -1.789992 -1.937472
-0.871840 -2.104807 1.522262
-0.582545 -1.406388 -2.278227
-0.968736 -2.338737 1.048553
-0.401264 -0.968737 -2.531430
-1.028405 -2.482789 0.534548
-0.204562 -0.493858 -2.687351
-1.048553 -2.531430 0.000000
-0.204563 -0.493859 2.687351
-1.028405 -2.482789 -0.534547
-0.401264 -0.968737 2.531430
-1.406387 -2.104808 1.048553
-1.493012 -2.234451 0.534548
-0.582544 -0.871840 -2.531430
-0.296979 -0.444461 -2.687351
-1.522263 -2.278227 0.000000
-0.296979 -0.444461 2.687351
-1.493012 -2.234451 -0.534547
-0.582545 -0.871840 2.531430
-1.406387 -2.104808 -1.048552
-0.845724 -1.265716 2.278227
-1.265715 -1.894276 -1.522262
-1.076402 -1.610950 1.937472
-1.076402 -1.610950 -1.937472
-1.265715 -1.894276 1.522262
-0.845724 -1.265715 -2.278227
-1.789991 -1.789992 -1.048552
-1.610949 -1.610949 -1.522262
-1.076402 -1.076403 2.278227
-1.370000 -1.370000 1.937472
-1.370000 -1.370000 -1.937472
-1.610949 -1.610949 1.522262
-1.076402 -1.076403 -2.278227
-1.789991 -1.789992 1.048553
-0.741438 -0.741439 -2.531430
-1.900244 -1.900244 0.534548
-0.377982 -0.377983 -2.687351
-1.937473 -1.937473 0.000000
-0.377982 -0.377983 2.687351
-1.900244 -1.900244 -0.534547
-0.741439 -0.741439 2.531430
-0.444460 -0.296979 -2.687351
-2.278227 -1.522263 0.000000
-0.444460 -0.296980 2.687351
-2.234450 -1.493012 -0.534547
-0.871840 -0.582545 2.531430
-2.104807 -1.406388 -1.048552
-1.265715 -0.845725 2.278227
-1.894276 -1.265715 -1.522262
-1.610949 -1.076403 1.937472
-1.610949 -1.076403 -1.937472
-1.894276 -1.265715 1.522262
-1.265715 -0.845724 -2.278227
-2.104807 -1.406388 1.048553
-0.871839 -0.582545 -2.531430
-2.234450 -1.493012 0.534548
-1.406387 -0.582545 2.278227
-1.789991 -0.741439 1.937472
-2.104806 -0.871840 -1.522262
-1.789991 -0.741439 -1.937472
-2.104806 -0.871840 1.522262
-1.406387 -0.582545 -2.278227
-2.338736 -0.968737 1.048553
-0.968736 -0.401264 -2.531430
-2.482788 -1.028405 0.534548
-0.493857 -0.204563 -2.687351
-2.531430 -1.048553 0.000000
-0.493858 -0.204563 2.687351
-2.482788 -1.028405 -0.534547
-0.968736 -0.401264 2.531430
-2.338736 -0.968737 -1.048552
-2.687351 -0.534548 0.000000
-0.524277 -0.104286 2.687351
-0.524276 -0.104286 -2.687351
-2.635714 -0.524276 -0.534547
-1.028405 -0.204563 2.531430
-2.482789 -0.493858 -1.048552
-1.493012 -0.296979 2.278227
-2.234450 -0.444460 -1.522262
-1.900244 -0.377983 1.937472
-1.900244 -0.377983 -1.937472
-2.234450 -0.444460 1.522262
-1.493012 -0.296979 -2.278227
-2.482789 -0.493858 1.048553
-1.028404 -0.204563 -2.531430
-2.635714 -0.524276 0.534548
-1.937472 -0.000001 -1.937472
-2.278225 -0.000000 1.522262
-1.522262 -0.000001 -2.278227
-2.531430 -0.000001 1.048553
-1.048552 -0.000001 -2.531430
-2.687350 -0.000000 0.534548
-0.534547 -0.000001 -2.687351
-2.739999 -0.000000 0.000000
-0.534548 -0.000001 2.687351
-2.687350 -0.000000 -0.534547
-1.048552 -0.000001 2.531430
-2.531430 -0.000001 -1.048552
-1.522262 -0.000001 2.278227
-2.278225 -0.000000 -1.522262
-1.937472 -0.000001 1.937472
-0.524276 0.104284 -2.687351
-2.687351 0.534547 0.000000
-2.635713 0.524276 -0.534547
-0.524277 0.104284 2.687351
-1.028405 0.204562 2.531430
-2.482789 0.493857 -1.048552
-1.493012 0.296978 2.278227
-2.234450 0.444459 -1.522262
-1.900244 0.377982 1.937472
-1.900244 0.377982 -1.937472
-2.234450 0.444459 1.522262
-1.493012 0.296978 -2.278227
-2.482789 0.493857 1.048553
-1.028404 0.204562 -2.531430
-2.635713 0.524276 0.534548
-1.406386 0.582544 -2.278227
-2.338736 0.968735 1.048553
-0.968736 0.401263 -2.531430
-2.482787 1.028404 0.534548
-0.493857 0.204561 -2.687351
-2.531429 1.048552 0.000000
-0.493858 0.204562 2.687351
-2.482787 1.028404 -0.534547
-0.968736 0.401263 2.531430
-2.338736 0.968735 -1.048552
-1.406387 0.582544 2.278227
-2.104805 0.871839 -1.522262
-1.789991 0.741438 1.937472
-1.789991 0.741438 -1.937472
-2.104805 0.871839 1.522262
-0.871839 0.582544 2.531430
-2.104806 1.406386 -1.048552
-1.265715 0.845723 2.278227
-1.894275 1.265714 -1.522262
-1.610949 1.076401 1.937472
-1.610949 1.076401 -1.937472
-1.894275 1.265714 1.522262
-1.265714 0.845723 -2.278227
-2.104806 1.406386 1.048553
-0.871839 0.582544 -2.531430
-2.234449 1.493011 0.534548
-0.444460 0.296978 -2.687351
-2.278225 1.522262 0.000000
-0.444460 0.296978 2.687351
-2.234449 1.493011 -0.534547
-1.789991 1.789990 1.048553
-0.741438 0.741437 -2.531430
-1.900243 1.900243 0.534548
-0.377982 0.377981 -2.687351
-1.937471 1.937471 0.000000
-0.377982 0.377982 2.687351
-1.900243 1.900243 -0.534547
-0.741438 0.741438 2.531430
-1.789991 1.789990 -1.048552
-1.076402 1.076401 2.278227
-1.610948 1.610948 -1.522262
-1.370000 1.369999 1.937472
-1.370000 1.369999 -1.937472
-1.610948 1.610948 1.522262
-1.076401 1.076401 -2.278227
-1.406387 2.104806 -1.048552
-0.845723 1.265714 2.278227
-1.265714 1.894275 -1.522262
-1.076401 1.610949 1.937472
-1.076401 1.610949 -1.937472
-1.265714 1.894275 1.522262
-0.845723 1.265714 -2.278227
-1.406387 2.104806 1.048553
-0.582544 0.871838 -2.531430
-1.493011 2.234449 0.534548
-0.296979 0.444459 -2.687351
-1.522261 2.278225 0.000000
-0.296979 0.444459 2.687351
-1.493011 2.234449 -0.534547
-0.582544 0.871839 2.531430
-0.401263 0.968735 -2.531430
-0.968736 2.338735 1.048553
-1.028404 2.482787 0.534548
-0.204562 0.493856 -2.687351
-1.048551 2.531428 0.000000
-0.204563 0.493857 2.687351
-1.028404 2.482787 -0.534547
-0.401263 0.968735 2.531430
-0.968736 2.338735 -1.048552
-0.582544 1.406386 2.278227
-0.871838 2.104805 -1.522262
-0.741438 1.789990 1.937472
-0.741438 1.789990 -1.937472
-0.871838 2.104805 1.522262
-0.582544 1.406386 -2.278227
-0.296978 1.493011 2.278227
-0.493857 2.482788 -1.048552
-0.444459 2.234449 -1.522262
-0.377982 1.900243 1.937472
-0.377982 1.900243 -1.937472
-0.444459 2.234449 1.522262
-0.296978 1.493011 -2.278227
-0.493857 2.482788 1.048553
-0.204562 1.028404 -2.531430
-0.524275 2.635712 0.534548
-0.104285 0.524275 -2.687351
-0.534546 2.687349 0.000000
-0.104285 0.524276 2.687351
-0.524275 2.635712 -0.534547
-0.204562 1.028404 2.531430
3 0 1 2
3 3 4 5
3 2 6 7
3 8 5 9
3 10 11 12
3 13 7 6
3 8 14 15
3 16 12 17
3 15 18 19
3 20 17 21
3 19 22 23
3 24 21 25
3 23 26 27
3 28 25 29
3 27 30 0
3 31 29 4
3 26 32 30
3 29 33 4
3 30 34 1
3 4 35 5
3 1 36 6
3 5 37 9
3 12 11 38
3 13 6 36
3 14 37 39
3 12 40 17
3 18 39 41
3 17 42 21
3 18 43 22
3 21 44 25
3 26 43 45
3 25 46 29
3 38 47 40
3 39 48 41
3 40 49 42
3 43 48 50
3 42 51 44
3 45 50 52
3 44 53 46
3 45 54 32
3 46 55 33
3 32 56 34
3 35 55 57
3 34 58 36
3 35 59 37
3 38 11 60
3 13 36 58
3 37 61 39
3 53 62 55
3 54 63 56
3 55 64 57
3 56 65 58
3 59 64 66
3 60 11 67
3 13 58 65
3 59 68 61
3 60 69 47
3 61 70 48
3 47 71 49
3 50 70 72
3 49 73 51
3 50 74 52
3 51 75 53
3 52 76 54
3 68 77 70
3 69 78 71
3 72 77 79
3 71 80 73
3 72 81 74
3 75 80 82
3 76 81 83
3 75 84 62
3 63 83 85
3 62 86 64
3 63 87 65
3 66 86 88
3 67 11 89
3 13 65 87
3 66 90 68
3 67 91 69
3 85 92 93
3 86 94 95
3 85 96 87
3 86 97 88
3 89 11 98
3 13 87 96
3 88 99 90
3 89 100 91
3 90 101 77
3 91 102 78
3 79 101 103
3 78 104 80
3 81 103 105
3 82 104 106
3 81 92 83
3 82 94 84
3 103 107 108
3 104 109 110
3 105 108 111
3 104 112 106
3 105 113 92
3 106 114 94
3 92 115 93
3 95 114 116
3 96 115 117
3 95 118 97
3 98 11 119
3 13 96 117
3 97 120 99
3 98 121 100
3 99 107 101
3 100 109 102
3 117 122 123
3 116 124 118
3 119 11 125
3 13 117 123
3 120 124 126
3 119 127 121
3 120 128 107
3 121 129 109
3 108 128 130
3 109 131 110
3 108 132 111
3 110 133 112
3 113 132 134
3 112 135 114
3 115 134 122
3 116 135 136
3 129 137 131
3 130 138 132
3 133 137 139
3 134 138 140
3 133 141 135
3 134 142 122
3 136 141 143
3 123 142 144
3 136 145 124
3 125 11 146
3 13 123 144
3 124 147 126
3 127 146 148
3 126 149 128
3 127 150 129
3 130 149 151
3 143 152 145
3 146 11 153
3 13 144 154
3 145 155 147
3 146 156 148
3 147 157 149
3 150 156 158
3 151 157 159
3 150 160 137
3 151 161 138
3 137 162 139
3 138 163 140
3 139 164 141
3 142 163 165
3 143 164 166
3 142 154 144
3 159 167 161
3 162 168 169
3 163 167 170
3 162 171 164
3 163 172 165
3 166 171 173
3 165 174 154
3 166 175 152
3 153 11 176
3 13 154 174
3 155 175 177
3 153 178 156
3 155 179 157
3 156 180 158
3 159 179 181
3 158 168 160
3 176 11 182
3 13 174 183
3 175 184 177
3 176 185 178
3 177 186 179
3 178 187 180
3 179 188 181
3 180 189 168
3 181 190 167
3 168 191 169
3 170 190 192
3 169 193 171
3 170 194 172
3 173 193 195
3 174 194 183
3 173 196 175
3 191 197 198
3 192 199 200
3 191 201 193
3 192 202 194
3 195 201 203
3 183 202 204
3 195 205 196
3 182 11 206
3 13 183 204
3 184 205 207
3 182 208 185
3 184 209 186
3 185 210 187
3 188 209 211
3 189 210 197
3 188 199 190
3 205 212 207
3 206 213 208
3 207 214 209
3 210 213 215
3 211 214 216
3 210 217 197
3 211 218 199
3 197 219 198
3 200 218 220
3 198 221 201
3 200 222 202
3 203 221 223
3 202 224 204
3 203 225 205
3 206 11 226
3 13 204 224
3 218 227 220
3 219 228 221
3 220 229 222
3 223 228 230
3 224 229 231
3 223 232 225
3 226 11 233
3 13 224 231
3 225 234 212
3 226 235 213
3 212 236 214
3 213 237 215
3 216 236 238
3 215 239 217
3 216 240 218
3 217 241 219
3 234 242 236
3 237 243 244
3 238 242 245
3 239 244 246
3 238 247 240
3 239 248 241
3 227 247 249
3 241 250 228
3 227 251 229
3 230 250 252
3 231 251 253
3 230 254 232
3 233 11 255
3 13 231 253
3 232 256 234
3 233 243 235
3 249 257 251
3 252 258 259
3 251 260 253
3 252 261 254
3 255 11 262
3 13 253 260
3 254 263 256
3 255 264 243
3 256 265 242
3 243 266 244
3 245 265 267
3 246 266 268
3 245 269 247
3 248 268 270
3 247 271 249
3 248 258 250
3 264 272 266
3 267 273 274
3 268 272 275
3 267 276 269
3 270 275 277
3 269 278 271
3 270 279 258
3 257 278 280
3 259 279 281
3 260 280 282
3 259 283 261
3 262 11 284
3 13 260 282
3 263 283 285
3 262 286 264
3 263 273 265
3 281 287 288
3 282 289 290
3 281 291 283
3 284 11 292
3 13 282 290
3 283 293 285
3 284 294 286
3 285 295 273
3 286 296 272
3 274 295 297
3 272 298 275
3 274 299 276
3 277 298 300
3 278 299 301
3 277 287 279
3 278 289 280
3 297 302 303
3 298 304 305
3 297 306 299
3 300 305 307
3 299 308 301
3 300 309 287
3 301 310 289
3 288 309 311
3 289 312 290
3 291 311 313
3 292 11 314
3 13 290 312
3 291 315 293
3 292 316 294
3 293 302 295
3 294 304 296
3 310 317 312
3 311 318 313
3 314 11 319
3 13 312 317
3 313 320 315
3 314 321 316
3 315 322 302
3 316 323 304
3 303 322 324
3 305 323 325
3 303 326 306
3 307 325 327
3 306 328 308
3 307 329 309
3 310 328 330
3 311 329 331
3 325 332 333
3 326 334 335
3 327 333 336
3 326 337 328
3 327 338 329
3 330 337 339
3 331 338 340
3 317 339 341
3 331 342 318
3 319 11 343
3 13 317 341
3 318 344 320
3 319 345 321
3 320 346 322
3 321 332 323
3 324 346 334
3 340 347 342
3 343 11 348
3 13 341 349
3 342 350 344
3 345 348 351
3 344 352 346
3 345 353 332
3 334 352 354
3 333 353 355
3 334 356 335
3 336 355 357
3 335 358 337
3 336 359 338
3 339 358 360
3 340 359 361
3 339 349 341
3 354 362 356
3 355 363 357
3 358 362 364
3 357 365 359
3 360 364 366
3 361 365 367
3 360 368 349
3 361 369 347
3 348 11 370
3 13 349 368
3 350 369 371
3 351 370 372
3 350 373 352
3 351 374 353
3 354 373 375
3 355 374 376
3 13 368 377
3 371 378 379
3 372 380 381
3 371 382 373
3 372 383 374
3 375 382 384
3 376 383 385
3 375 386 362
3 363 385 387
3 362 388 364
3 363 389 365
3 366 388 390
3 367 389 391
3 366 377 368
3 367 378 369
3 370 11 380
3 386 392 388
3 387 393 389
3 390 392 394
3 391 393 395
3 390 396 377
3 391 397 378
3 380 11 398
3 13 377 396
3 378 399 379
3 380 400 381
3 379 401 382
3 381 402 383
3 384 401 403
3 385 402 404
3 384 405 386
3 385 406 387
3 398 407 400
3 399 408 401
3 402 407 409
3 403 408 410
3 404 409 411
3 403 412 405
3 406 411 413
3 405 414 392
3 406 415 393
3 394 414 416
3 395 415 417
3 394 418 396
3 395 419 397
3 398 11 420
3 13 396 418
3 399 419 421
3 413 422 415
3 414 423 416
3 417 422 424
3 416 425 418
3 417 426 419
3 420 11 427
3 13 418 425
3 421 426 428
3 420 429 407
3 421 430 408
3 407 431 409
3 410 430 432
3 409 433 411
3 410 434 412
3 413 433 435
3 412 436 414
3 428 437 430
3 429 438 431
3 432 437 439
3 431 440 433
3 432 441 434
3 435 440 442
3 436 441 443
3 435 444 422
3 436 445 423
3 424 444 446
3 423 447 425
3 426 446 448
3 427 11 449
3 13 425 447
3 426 450 428
3 427 451 429
3 443 452 445
3 446 453 454
3 445 455 447
3 446 456 448
3 449 11 457
3 13 447 455
3 448 458 450
3 451 457 459
3 450 460 437
3 438 459 461
3 439 460 462
3 440 461 463
3 439 464 441
3 442 463 465
3 441 466 443
3 442 453 444
3 459 467 461
3 462 468 469
3 461 470 463
3 462 471 464
3 465 470 472
3 464 473 466
3 465 474 453
3 466 475 452
3 454 474 476
3 455 475 477
3 454 478 456
3 457 11 479
3 13 455 477
3 456 480 458
3 457 481 459
3 458 468 460
3 476 31 3
3 475 7 477
3 476 8 478
3 479 11 10
3 13 477 7
3 478 15 480
3 481 10 16
3 480 19 468
3 481 20 467
3 469 19 23
3 467 24 470
3 469 27 471
3 472 24 28
3 471 0 473
3 472 31 474
3 473 2 475
3 0 30 1
3 3 31 4
3 2 1 6
3 8 3 5
3 8 9 14
3 16 10 12
3 15 14 18
3 20 16 17
3 19 18 22
3 24 20 21
3 23 22 26
3 28 24 25
3 27 26 30
3 31 28 29
3 26 45 32
3 29 46 33
3 30 32 34
3 4 33 35
3 1 34 36
3 5 35 37
3 14 9 37
3 12 38 40
3 18 14 39
3 17 40 42
3 18 41 43
3 21 42 44
3 26 22 43
3 25 44 46
3 38 60 47
3 39 61 48
3 40 47 49
3 43 41 48
3 42 49 51
3 45 43 50
3 44 51 53
3 45 52 54
3 46 53 55
3 32 54 56
3 35 33 55
3 34 56 58
3 35 57 59
3 37 59 61
3 53 75 62
3 54 76 63
3 55 62 64
3 56 63 65
3 59 57 64
3 59 66 68
3 60 67 69
3 61 68 70
3 47 69 71
3 50 48 70
3 49 71 73
3 50 72 74
3 51 73 75
3 52 74 76
3 68 90 77
3 69 91 78
3 72 70 77
3 71 78 80
3 72 79 81
3 75 73 80
3 76 74 81
3 75 82 84
3 63 76 83
3 62 84 86
3 63 85 87
3 66 64 86
3 66 88 90
3 67 89 91
3 85 83 92
3 86 84 94
3 85 93 96
3 86 95 97
3 88 97 99
3 89 98 100
3 90 99 101
3 91 100 102
3 79 77 101
3 78 102 104
3 81 79 103
3 82 80 104
3 81 105 92
3 82 106 94
3 103 101 107
3 104 102 109
3 105 103 108
3 104 110 112
3 105 111 113
3 106 112 114
3 92 113 115
3 95 94 114
3 96 93 115
3 95 116 118
3 97 118 120
3 98 119 121
3 99 120 107
3 100 121 109
3 117 115 122
3 116 136 124
3 120 118 124
3 119 125 127
3 120 126 128
3 121 127 129
3 108 107 128
3 109 129 131
3 108 130 132
3 110 131 133
3 113 111 132
3 112 133 135
3 115 113 134
3 116 114 135
3 129 150 137
3 130 151 138
3 133 131 137
3 134 132 138
3 133 139 141
3 134 140 142
3 136 135 141
3 123 122 142
3 136 143 145
3 124 145 147
3 127 125 146
3 126 147 149
3 127 148 150
3 130 128 149
3 143 166 152
3 145 152 155
3 146 153 156
3 147 155 157
3 150 148 156
3 151 149 157
3 150 158 160
3 151 159 161
3 137 160 162
3 138 161 163
3 139 162 164
3 142 140 163
3 143 141 164
3 142 165 154
3 159 181 167
3 162 160 168
3 163 161 167
3 162 169 171
3 163 170 172
3 166 164 171
3 165 172 174
3 166 173 175
3 155 152 175
3 153 176 178
3 155 177 179
3 156 178 180
3 159 157 179
3 158 180 168
3 175 196 184
3 176 182 185
3 177 184 186
3 178 185 187
3 179 186 188
3 180 187 189
3 181 188 190
3 168 189 191
3 170 167 190
3 169 191 193
3 170 192 194
3 173 171 193
3 174 172 194
3 173 195 196
3 191 189 197
3 192 190 199
3 191 198 201
3 192 200 202
3 195 193 201
3 183 194 202
3 195 203 205
3 184 196 205
3 182 206 208
3 184 207 209
3 185 208 210
3 188 186 209
3 189 187 210
3 188 211 199
3 205 225 212
3 206 226 213
3 207 212 214
3 210 208 213
3 211 209 214
3 210 215 217
3 211 216 218
3 197 217 219
3 200 199 218
3 198 219 221
3 200 220 222
3 203 201 221
3 202 222 224
3 203 223 225
3 218 240 227
3 219 241 228
3 220 227 229
3 223 221 228
3 224 222 229
3 223 230 232
3 225 232 234
3 226 233 235
3 212 234 236
3 213 235 237
3 216 214 236
3 215 237 239
3 216 238 240
3 217 239 241
3 234 256 242
3 237 235 243
3 238 236 242
3 239 237 244
3 238 245 247
3 239 246 248
3 227 240 247
3 241 248 250
3 227 249 251
3 230 228 250
3 231 229 251
3 230 252 254
3 232 254 256
3 233 255 243
3 249 271 257
3 252 250 258
3 251 257 260
3 252 259 261
3 254 261 263
3 255 262 264
3 256 263 265
3 243 264 266
3 245 242 265
3 246 244 266
3 245 267 269
3 248 246 268
3 247 269 271
3 248 270 258
3 264 286 272
3 267 265 273
3 268 266 272
3 267 274 276
3 270 268 275
3 269 276 278
3 270 277 279
3 257 271 278
3 259 258 279
3 260 257 280
3 259 281 283
3 263 261 283
3 262 284 286
3 263 285 273
3 281 279 287
3 282 280 289
3 281 288 291
3 283 291 293
3 284 292 294
3 285 293 295
3 286 294 296
3 274 273 295
3 272 296 298
3 274 297 299
3 277 275 298
3 278 276 299
3 277 300 287
3 278 301 289
3 297 295 302
3 298 296 304
3 297 303 306
3 300 298 305
3 299 306 308
3 300 307 309
3 301 308 310
3 288 287 309
3 289 310 312
3 291 288 311
3 291 313 315
3 292 314 316
3 293 315 302
3 294 316 304
3 310 330 317
3 311 331 318
3 313 318 320
3 314 319 321
3 315 320 322
3 316 321 323
3 303 302 322
3 305 304 323
3 303 324 326
3 307 305 325
3 306 326 328
3 307 327 329
3 310 308 328
3 311 309 329
3 325 323 332
3 326 324 334
3 327 325 333
3 326 335 337
3 327 336 338
3 330 328 337
3 331 329 338
3 317 330 339
3 331 340 342
3 318 342 344
3 319 343 345
3 320 344 346
3 321 345 332
3 324 322 346
3 340 361 347
3 342 347 350
3 345 343 348
3 344 350 352
3 345 351 353
3 334 346 352
3 333 332 353
3 334 354 356
3 336 333 355
3 335 356 358
3 336 357 359
3 339 337 358
3 340 338 359
3 339 360 349
3 354 375 362
3 355 376 363
3 358 356 362
3 357 363 365
3 360 358 364
3 361 359 365
3 360 366 368
3 361 367 369
3 350 347 369
3 351 348 370
3 350 371 373
3 351 372 374
3 354 352 373
3 355 353 374
3 371 369 378
3 372 370 380
3 371 379 382
3 372 381 383
3 375 373 382
3 376 374 383
3 375 384 386
3 363 376 385
3 362 386 388
3 363 387 389
3 366 364 388
3 367 365 389
3 366 390 377
3 367 391 378
3 386 405 392
3 387 406 393
3 390 388 392
3 391 389 393
3 390 394 396
3 391 395 397
3 378 397 399
3 380 398 400
3 379 399 401
3 381 400 402
3 384 382 401
3 385 383 402
3 384 403 405
3 385 404 406
3 398 420 407
3 399 421 408
3 402 400 407
3 403 401 408
3 404 402 409
3 403 410 412
3 406 404 411
3 405 412 414
3 406 413 415
3 394 392 414
3 395 393 415
3 394 416 418
3 395 417 419
3 399 397 419
3 413 435 422
3 414 436 423
3 417 415 422
3 416 423 425
3 417 424 426
3 421 419 426
3 420 427 429
3 421 428 430
3 407 429 431
3 410 408 430
3 409 431 433
3 410 432 434
3 413 411 433
3 412 434 436
3 428 450 437
3 429 451 438
3 432 430 437
3 431 438 440
3 432 439 441
3 435 433 440
3 436 434 441
3 435 442 444
3 436 443 445
3 424 422 444
3 423 445 447
3 426 424 446
3 426 448 450
3 427 449 451
3 443 466 452
3 446 444 453
3 445 452 455
3 446 454 456
3 448 456 458
3 451 449 457
3 450 458 460
3 438 451 459
3 439 437 460
3 440 438 461
3 439 462 464
3 442 440 463
3 441 464 466
3 442 465 453
3 459 481 467
3 462 460 468
3 461 467 470
3 462 469 471
3 465 463 470
3 464 471 473
3 465 472 474
3 466 473 475
3 454 453 474
3 455 452 475
3 454 476 478
3 456 478 480
3 457 479 481
3 458 480 468
3 476 474 31
3 475 2 7
3 476 3 8
3 478 8 15
3 481 479 10
3 480 15 19
3 481 16 20
3 469 468 19
3 467 20 24
3 469 23 27
3 472 470 24
3 471 27 0
3 472 28 31
3 473 0 2
