ply
format ascii 1.0
comment Created by Blender 2.79 (sub 0) - www.blender.org, source file: ''
element globals_ply_v2 1
property uint shading
element vertex 512
property float x
property float y
property float z
property float s
property float t
element face 960
property list uchar uint vertex_indices
end_header
16
0.000000 0.555570 -0.831470 0.882867 0.280332
0.074658 0.375330 -0.923880 0.893414 0.213060
0.000000 0.382683 -0.923880 0.907539 0.228698
0.000000 0.980784 0.195090 0.796418 0.618773
0.180240 0.906127 0.382683 0.751695 0.647001
0.191342 0.961940 0.195090 0.767340 0.591668
0.038060 0.191341 -0.980785 0.935719 0.172890
0.000000 0.195090 -0.980785 0.942759 0.182515
0.000000 0.999999 0.000000 0.810089 0.562031
0.195090 0.980785 0.000000 0.781429 0.535581
0.000000 0.195090 0.980785 0.567268 0.868303
-0.000000 -0.000001 1.000000 0.495265 0.852856
0.038060 0.191342 0.980785 0.566457 0.856148
0.000000 -0.000000 -1.000000 0.995266 0.147143
0.191342 0.961940 -0.195090 0.794966 0.479228
0.000000 0.980784 -0.195090 0.822818 0.504873
0.000000 0.382683 0.923880 0.641452 0.857179
0.074658 0.375330 0.923880 0.630338 0.835624
0.180240 0.906127 -0.382683 0.808822 0.423029
0.000000 0.923879 -0.382683 0.835477 0.447684
0.000000 0.555570 0.831470 0.697492 0.824480
0.108386 0.544895 0.831470 0.676891 0.798466
0.162212 0.815493 -0.555570 0.823944 0.367441
0.000000 0.831469 -0.555570 0.848920 0.390841
0.000000 0.707106 0.707107 0.735147 0.779654
0.137950 0.693520 0.707107 0.709376 0.752105
0.137950 0.693520 -0.707107 0.841590 0.313094
0.000000 0.707106 -0.707107 0.864196 0.334814
0.000000 0.831469 0.555570 0.761226 0.728711
0.162212 0.815493 0.555570 0.733105 0.700875
0.108386 0.544895 -0.831470 0.863688 0.261010
0.000000 0.923879 0.382683 0.780693 0.674598
0.318190 0.768178 0.555570 0.706593 0.673391
0.212608 0.513280 -0.831470 0.844487 0.239416
0.353553 0.853553 0.382683 0.723996 0.619193
0.146447 0.353553 -0.923880 0.879896 0.195479
0.375330 0.906127 0.195090 0.739178 0.563865
0.074658 0.180240 -0.980785 0.929896 0.162212
0.382684 0.923879 0.000000 0.753309 0.508011
0.074658 0.180240 0.980785 0.563300 0.844314
0.375330 0.906127 -0.195090 0.767315 0.452094
0.146447 0.353553 0.923880 0.618082 0.815427
0.353554 0.853553 -0.382683 0.782092 0.396562
0.212608 0.513280 0.831470 0.657173 0.773912
0.318190 0.768178 -0.555570 0.798714 0.341964
0.270598 0.653281 0.707107 0.685241 0.725518
0.270598 0.653281 -0.707107 0.818709 0.289116
0.544895 0.815493 -0.195090 0.739467 0.424292
0.212608 0.318190 0.923880 0.604972 0.796826
0.513280 0.768178 -0.382683 0.754885 0.369020
0.308658 0.461940 0.831470 0.637870 0.751148
0.461940 0.691342 -0.555570 0.772822 0.315021
0.392848 0.587938 0.707107 0.662044 0.700446
0.392848 0.587938 -0.707107 0.795182 0.263338
0.461940 0.691342 0.555570 0.681041 0.646993
0.308658 0.461940 -0.831470 0.825051 0.215853
0.513280 0.768178 0.382683 0.697047 0.592015
0.212608 0.318189 -0.923880 0.867123 0.176171
0.544895 0.815493 0.195090 0.711466 0.536245
0.108386 0.162211 -0.980785 0.925640 0.150719
0.555570 0.831469 0.000000 0.725311 0.480192
0.108387 0.162212 0.980785 0.558329 0.833135
0.392848 0.392847 -0.831470 0.805029 0.190637
0.653282 0.653281 0.382683 0.670392 0.566231
0.270598 0.270598 -0.923880 0.855308 0.155368
0.693520 0.693520 0.195090 0.683774 0.509644
0.137950 0.137949 -0.980785 0.923407 0.138703
0.707107 0.707107 0.000000 0.697011 0.452991
0.137950 0.137950 0.980785 0.551952 0.822879
0.693520 0.693520 -0.195090 0.710973 0.396675
0.270598 0.270598 0.923880 0.591182 0.780044
0.653282 0.653281 -0.382683 0.726706 0.341193
0.392848 0.392847 0.831470 0.618699 0.730484
0.587938 0.587938 -0.555570 0.745717 0.287291
0.500000 0.500000 0.707107 0.639317 0.677374
0.500000 0.500000 -0.707107 0.770454 0.236269
0.587938 0.587938 0.555570 0.655961 0.622327
0.768178 0.513280 -0.382683 0.696970 0.313966
0.461940 0.308658 0.831470 0.599486 0.712215
0.691342 0.461940 -0.555570 0.716668 0.259562
0.587938 0.392847 0.707107 0.616747 0.656744
0.587938 0.392847 -0.707107 0.743695 0.208508
0.691342 0.461940 0.555570 0.631000 0.599984
0.461940 0.308658 -0.831470 0.783837 0.164110
0.768178 0.513280 0.382683 0.643669 0.542558
0.318190 0.212607 -0.923880 0.844816 0.133311
0.815493 0.544895 0.195090 0.655731 0.484878
0.162212 0.108386 -0.980785 0.923791 0.126533
0.831470 0.555570 0.000000 0.668005 0.427287
0.162212 0.108386 0.980785 0.544481 0.813763
0.815493 0.544895 -0.195090 0.681363 0.370149
0.318190 0.212607 0.923880 0.576832 0.765294
0.513280 0.212607 -0.831470 0.760428 0.136665
0.353554 0.146446 -0.923880 0.836350 0.110271
0.853554 0.353553 0.382683 0.616615 0.521685
0.906128 0.375330 0.195090 0.627046 0.462757
0.180240 0.074658 -0.980785 0.927547 0.114679
0.923880 0.382683 0.000000 0.637946 0.403995
0.180240 0.074658 0.980785 0.536166 0.805967
0.906128 0.375330 -0.195090 0.650183 0.345708
0.353554 0.146446 0.923880 0.562017 0.752770
0.853554 0.353553 -0.382683 0.665037 0.288362
0.513280 0.212607 0.831470 0.580132 0.696622
0.768178 0.318189 -0.555570 0.684737 0.232805
0.653282 0.270598 0.707107 0.594131 0.638967
0.653282 0.270598 -0.707107 0.713639 0.180821
0.768178 0.318189 0.555570 0.605914 0.580518
0.544895 0.108386 0.831470 0.560593 0.683958
0.906128 0.180240 -0.382683 0.630288 0.265587
0.815493 0.162211 -0.555570 0.648805 0.208274
0.693520 0.137949 0.707107 0.571358 0.624416
0.693520 0.137949 -0.707107 0.678348 0.154298
0.815493 0.162211 0.555570 0.580561 0.564436
0.544895 0.108386 -0.831470 0.732723 0.108828
0.906128 0.180240 0.382683 0.589070 0.504263
0.375330 0.074658 -0.923880 0.831424 0.086572
0.961940 0.191341 0.195090 0.597536 0.444077
0.191342 0.038060 -0.980785 0.935539 0.103753
0.980785 0.195090 0.000000 0.606595 0.384057
0.191342 0.038060 0.980785 0.527209 0.799637
0.961940 0.191341 -0.195090 0.617071 0.324434
0.375331 0.074658 0.923880 0.546824 0.742646
0.923880 -0.000000 0.382683 0.560989 0.490881
0.980785 -0.000000 0.195090 0.567156 0.429587
0.382684 -0.000000 -0.923880 0.833915 0.062714
0.195090 -0.000000 -0.980785 0.948527 0.094534
1.000000 -0.000000 0.000000 0.573887 0.368405
0.195091 -0.000000 0.980785 0.517784 0.794886
0.980785 -0.000000 -0.195090 0.581872 0.307471
0.382684 -0.000000 0.923880 0.531335 0.735069
0.923880 -0.000000 -0.382683 0.592315 0.247027
0.555570 -0.000000 0.831470 0.540867 0.674443
0.831470 -0.000000 -0.555570 0.607782 0.187599
0.707107 -0.000000 0.707107 0.548386 0.613417
0.707107 -0.000000 -0.707107 0.635028 0.130630
0.831470 -0.000000 0.555570 0.554891 0.552189
0.555570 -0.000000 -0.831470 0.696016 0.081502
0.906128 -0.180240 -0.382683 0.551220 0.234138
0.815493 -0.162212 -0.555570 0.561220 0.172764
0.693520 -0.137950 0.707107 0.525234 0.606227
0.693520 -0.137950 -0.707107 0.580647 0.112472
0.815493 -0.162212 0.555570 0.528936 0.544141
0.544895 -0.108387 -0.831470 0.638246 0.056841
0.906128 -0.180240 0.382683 0.532439 0.482033
0.375330 -0.074658 -0.923880 0.856456 0.039893
0.961940 -0.191342 0.195090 0.536021 0.419934
0.191342 -0.038061 -0.980785 0.966638 0.087931
0.980785 -0.195091 0.000000 0.539986 0.357878
0.191342 -0.038061 0.980785 0.508043 0.791799
0.961940 -0.191342 -0.195090 0.544778 0.295915
0.375331 -0.074658 0.923880 0.515638 0.730152
0.544895 -0.108387 0.831470 0.520989 0.668252
0.180240 -0.074658 -0.980785 0.988610 0.084811
0.923880 -0.382684 0.000000 0.505301 0.353109
0.180240 -0.074658 0.980785 0.498129 0.790428
0.906127 -0.375331 -0.195090 0.506404 0.290637
0.353554 -0.146447 0.923880 0.499822 0.727971
0.853554 -0.353554 -0.382683 0.507906 0.228175
0.513280 -0.212608 0.831470 0.501015 0.665501
0.768178 -0.318190 -0.555570 0.510297 0.165735
0.653282 -0.270598 0.707107 0.501965 0.603025
0.653282 -0.270598 -0.707107 0.515221 0.103359
0.768178 -0.318190 0.555570 0.502796 0.540546
0.513280 -0.212608 -0.831470 0.534176 0.041338
0.853554 -0.353554 0.382683 0.503585 0.478066
0.353553 -0.146447 -0.923880 0.947683 0.023355
0.906127 -0.375331 0.195090 0.504397 0.415586
0.587938 -0.392848 0.707107 0.478668 0.603891
0.587938 -0.392848 -0.707107 0.446455 0.105901
0.691342 -0.461940 0.555570 0.476612 0.541519
0.461940 -0.308659 -0.831470 0.404978 0.046051
0.768178 -0.513280 0.382683 0.474660 0.479141
0.318190 -0.212608 -0.923880 1.095877 0.028785
0.815493 -0.544895 0.195090 0.472657 0.416765
0.162212 -0.108387 -0.980785 1.011577 0.085667
0.831470 -0.555571 0.000000 0.470429 0.354404
0.162212 -0.108387 0.980785 0.488176 0.790799
0.815493 -0.544895 -0.195090 0.467719 0.292073
0.318190 -0.212608 0.923880 0.483979 0.728560
0.768178 -0.513280 -0.382683 0.464040 0.229802
0.461940 -0.308659 0.831470 0.481020 0.666245
0.691342 -0.461940 -0.555570 0.458226 0.167665
0.707107 -0.707107 0.000000 0.436013 0.361679
0.137950 -0.137950 0.980785 0.478319 0.792904
0.137950 -0.137950 -0.980785 1.032175 0.090357
0.693520 -0.693520 -0.195090 0.429787 0.300102
0.270598 -0.270599 0.923880 0.468202 0.731911
0.653282 -0.653282 -0.382683 0.421503 0.238833
0.392848 -0.392848 0.831470 0.461079 0.670468
0.587938 -0.587938 -0.555570 0.408873 0.178221
0.500000 -0.500000 0.707107 0.455439 0.608804
0.500000 -0.500000 -0.707107 0.385287 0.119299
0.587938 -0.587938 0.555570 0.450535 0.547029
0.392848 -0.392848 -0.831470 0.323807 0.066742
0.653282 -0.653282 0.382683 0.445911 0.485214
0.270598 -0.270598 -0.923880 0.147808 0.049313
0.318190 -0.212608 -0.923880 0.095877 0.028785
0.693520 -0.693520 0.195090 0.441200 0.423411
0.162212 -0.108387 -0.980785 0.011577 0.085667
0.137950 -0.137950 -0.980785 0.032175 0.090357
0.392848 -0.587938 -0.707107 0.335902 0.140195
0.392848 -0.587938 0.707107 0.432358 0.617639
0.461940 -0.691342 0.555570 0.424693 0.556900
0.308658 -0.461940 -0.831470 0.277305 0.092963
0.513280 -0.768178 0.382683 0.417545 0.496040
0.212608 -0.318190 -0.923880 0.159037 0.072825
0.544895 -0.815493 0.195090 0.410362 0.435188
0.108386 -0.162212 -0.980785 0.048166 0.098187
0.555570 -0.831470 0.000000 0.402582 0.374476
0.108386 -0.162212 0.980785 0.468695 0.796706
0.108386 -0.162212 -0.980785 1.048166 0.098187
0.544895 -0.815493 -0.195090 0.393448 0.314080
0.212608 -0.318190 0.923880 0.452583 0.737970
0.513280 -0.768178 -0.382683 0.381676 0.254306
0.308658 -0.461940 0.831470 0.441260 0.678089
0.461940 -0.691342 -0.555570 0.364639 0.195793
0.074658 -0.180240 -0.980785 1.058962 0.108237
0.375330 -0.906128 -0.195090 0.359136 0.333015
0.146447 -0.353554 0.923880 0.437209 0.746646
0.353553 -0.853554 -0.382683 0.345097 0.274835
0.212608 -0.513280 0.831470 0.421611 0.688967
0.318190 -0.768178 -0.555570 0.325891 0.218332
0.270598 -0.653282 0.707107 0.409472 0.630184
0.270598 -0.653282 -0.707107 0.296385 0.165337
0.318190 -0.768178 0.555570 0.399158 0.570827
0.212608 -0.513280 -0.831470 0.245300 0.120662
0.353553 -0.853554 0.382683 0.389690 0.511206
0.146447 -0.353554 -0.923880 0.157607 0.096698
0.375330 -0.906128 0.195090 0.380347 0.451545
0.074658 -0.180240 -0.980785 0.058962 0.108237
0.382683 -0.923880 0.000000 0.370446 0.392059
0.074658 -0.180240 0.980785 0.459449 0.802140
0.108386 -0.544895 -0.831470 0.219785 0.148411
0.180240 -0.906128 0.382683 0.362365 0.530171
0.074658 -0.375331 -0.923880 0.150900 0.120164
0.191342 -0.961940 0.195090 0.351201 0.471783
0.038060 -0.191342 -0.980785 0.065047 0.119643
0.195090 -0.980786 0.000000 0.339664 0.413539
0.038060 -0.191342 0.980785 0.450742 0.809109
0.038060 -0.191342 -0.980785 1.065047 0.119643
0.191342 -0.961940 -0.195090 0.326879 0.355773
0.074658 -0.375331 0.923880 0.422167 0.757809
0.180240 -0.906128 -0.382683 0.311613 0.298972
0.108386 -0.544896 0.831470 0.402153 0.702905
0.162212 -0.815493 -0.555570 0.291803 0.243985
0.137950 -0.693520 0.707107 0.386774 0.646148
0.137950 -0.693520 -0.707107 0.263610 0.192518
0.162212 -0.815493 0.555570 0.373929 0.588406
0.000000 -0.382684 0.923880 0.407539 0.771302
0.000000 -0.923880 -0.382683 0.280693 0.325402
0.000000 -0.555571 0.831470 0.382867 0.719668
-0.000000 -0.831470 -0.555570 0.261226 0.271289
-0.000000 -0.707107 0.707107 0.364196 0.665186
-0.000000 -0.707107 -0.707107 0.235147 0.220347
-0.000000 -0.831470 0.555570 0.348920 0.609159
-0.000000 -0.555570 -0.831470 0.197492 0.175520
0.000000 -0.923880 0.382683 0.335478 0.552316
0.000000 -0.382684 -0.923880 0.141452 0.142821
-0.000000 -0.980785 0.195090 0.322818 0.495127
0.000000 -0.195091 -0.980785 0.067268 0.131697
-0.000000 -1.000000 0.000000 0.310089 0.437969
-0.000000 -0.195091 0.980785 0.442759 0.817485
0.000000 -0.195091 -0.980785 1.067268 0.131697
-0.000000 -0.980785 -0.195090 0.296418 0.381227
-0.180240 -0.906128 0.382683 0.308822 0.576971
-0.074658 -0.375331 -0.923880 0.130338 0.164376
-0.191342 -0.961940 0.195090 0.294966 0.520772
-0.038060 -0.191342 -0.980785 0.066457 0.143852
-0.195090 -0.980786 0.000000 0.281429 0.464420
-0.038060 -0.191342 0.980785 0.435719 0.827110
-0.038060 -0.191342 -0.980785 1.066457 0.143852
-0.191342 -0.961940 -0.195090 0.267340 0.408332
-0.074658 -0.375331 0.923880 0.393414 0.786940
-0.180240 -0.906128 -0.382683 0.251695 0.353000
-0.108386 -0.544896 0.831470 0.363688 0.738990
-0.162212 -0.815493 -0.555570 0.233105 0.299125
-0.137950 -0.693520 0.707107 0.341590 0.686906
-0.137950 -0.693520 -0.707107 0.209376 0.247895
-0.162212 -0.815493 0.555570 0.323944 0.632559
-0.108386 -0.544895 -0.831470 0.176891 0.201534
-0.353553 -0.853554 -0.382683 0.223996 0.380807
-0.212608 -0.513280 0.831470 0.344487 0.760584
-0.318190 -0.768178 -0.555570 0.206593 0.326609
-0.270598 -0.653282 0.707107 0.318709 0.710884
-0.270598 -0.653282 -0.707107 0.185241 0.274482
-0.318190 -0.768178 0.555570 0.298714 0.658036
-0.212608 -0.513280 -0.831470 0.157173 0.226088
-0.353553 -0.853554 0.382683 0.282092 0.603438
-0.146447 -0.353554 -0.923880 0.118082 0.184573
-0.375330 -0.906127 0.195090 0.267315 0.547906
-0.074658 -0.180240 -0.980785 0.063300 0.155686
-0.382684 -0.923880 0.000000 0.253309 0.491989
-0.074658 -0.180240 0.980785 0.429896 0.837788
-0.074658 -0.180240 -0.980785 1.063300 0.155686
-0.375330 -0.906127 -0.195090 0.239178 0.436135
-0.146447 -0.353554 0.923880 0.379896 0.804521
-0.212607 -0.318190 -0.923880 0.104972 0.203174
-0.513280 -0.768178 0.382683 0.254885 0.630980
-0.544895 -0.815493 0.195090 0.239467 0.575708
-0.108386 -0.162212 -0.980785 0.058329 0.166864
-0.555570 -0.831470 0.000000 0.225311 0.519808
-0.108386 -0.162212 0.980785 0.425640 0.849281
-0.108386 -0.162212 -0.980785 1.058329 0.166864
-0.544895 -0.815493 -0.195090 0.211466 0.463755
-0.212608 -0.318190 0.923880 0.367123 0.823829
-0.513280 -0.768178 -0.382683 0.197047 0.407985
-0.308658 -0.461940 0.831470 0.325051 0.784147
-0.461940 -0.691342 -0.555570 0.181041 0.353007
-0.392847 -0.587938 0.707107 0.295182 0.736662
-0.392847 -0.587938 -0.707107 0.162044 0.299554
-0.461940 -0.691342 0.555570 0.272822 0.684979
-0.308658 -0.461940 -0.831470 0.137870 0.248852
-0.392848 -0.392848 0.831470 0.305029 0.809363
-0.653281 -0.653282 -0.382683 0.170392 0.433769
-0.587938 -0.587938 -0.555570 0.155961 0.377673
-0.500000 -0.500000 0.707107 0.270454 0.763731
-0.500000 -0.500000 -0.707107 0.139317 0.322626
-0.587938 -0.587938 0.555570 0.245717 0.712709
-0.392847 -0.392848 -0.831470 0.118699 0.269516
-0.653281 -0.653282 0.382683 0.226706 0.658807
-0.270598 -0.270598 -0.923880 0.091182 0.219956
-0.693520 -0.693520 0.195090 0.210973 0.603325
-0.137950 -0.137950 -0.980785 0.051952 0.177121
-0.707107 -0.707107 0.000000 0.197011 0.547009
-0.137950 -0.137950 0.980785 0.423407 0.861296
-0.137950 -0.137950 -0.980785 1.051952 0.177121
-0.693520 -0.693520 -0.195090 0.183774 0.490356
-0.270598 -0.270598 0.923880 0.355308 0.844632
-0.768178 -0.513280 0.382683 0.196970 0.686034
-0.815493 -0.544895 0.195090 0.181363 0.629851
-0.162212 -0.108387 -0.980785 0.044481 0.186237
-0.831470 -0.555570 0.000000 0.168005 0.572713
-0.162212 -0.108387 0.980785 0.423791 0.873467
-0.162212 -0.108387 -0.980785 1.044481 0.186237
-0.815493 -0.544895 -0.195090 0.155731 0.515122
-0.318190 -0.212608 0.923880 0.344816 0.866689
-0.768178 -0.513280 -0.382683 0.143670 0.457442
-0.461940 -0.308659 0.831470 0.283838 0.835890
-0.691342 -0.461940 -0.555570 0.131000 0.400016
-0.587938 -0.392848 0.707107 0.243695 0.791492
-0.587938 -0.392848 -0.707107 0.116747 0.343256
-0.691342 -0.461940 0.555570 0.216668 0.740438
-0.461940 -0.308658 -0.831470 0.099486 0.287785
-0.318190 -0.212608 -0.923880 0.076832 0.234706
-0.853553 -0.353554 -0.382683 0.116615 0.478315
-0.768177 -0.318190 -0.555570 0.105914 0.419482
-0.513280 -0.212608 0.831470 0.260428 0.863335
-0.653281 -0.270598 0.707107 0.213639 0.819179
-0.653281 -0.270598 -0.707107 0.094131 0.361033
-0.768177 -0.318190 0.555570 0.184737 0.767195
-0.513280 -0.212608 -0.831470 0.080132 0.303378
-0.853553 -0.353554 0.382683 0.165037 0.711638
-0.353553 -0.146447 -0.923880 0.062017 0.247229
-0.906127 -0.375330 0.195090 0.150183 0.654292
-0.180240 -0.074658 -0.980785 0.036166 0.194032
-0.923880 -0.382684 0.000000 0.137946 0.596005
-0.180240 -0.074658 0.980785 0.427547 0.885321
-0.180240 -0.074658 -0.980785 1.036166 0.194032
-0.906127 -0.375330 -0.195090 0.127046 0.537243
-0.353553 -0.146447 0.923880 0.336350 0.889729
-0.191342 -0.038061 -0.980785 0.027209 0.200363
-0.980785 -0.195090 0.000000 0.106595 0.615943
-0.191342 -0.038061 0.980785 0.435538 0.896247
-0.191342 -0.038061 -0.980785 1.027209 0.200363
-0.961939 -0.191342 -0.195090 0.097536 0.555923
-0.375330 -0.074658 0.923880 0.331424 0.913428
-0.906127 -0.180240 -0.382683 0.089070 0.495737
-0.544895 -0.108387 0.831470 0.232723 0.891172
-0.815493 -0.162212 -0.555570 0.080561 0.435564
-0.693520 -0.137950 0.707107 0.178349 0.845702
-0.693520 -0.137950 -0.707107 0.071358 0.375584
-0.815493 -0.162212 0.555570 0.148805 0.791726
-0.544895 -0.108387 -0.831470 0.060593 0.316042
-0.906127 -0.180240 0.382683 0.130288 0.734413
-0.375330 -0.074658 -0.923880 0.046824 0.257353
-0.961939 -0.191342 0.195090 0.117071 0.675566
-0.707107 -0.000000 -0.707107 0.048386 0.386583
-0.831469 -0.000000 0.555570 0.107782 0.812401
-0.555570 -0.000000 -0.831470 0.040867 0.325557
-0.923879 -0.000000 0.382683 0.092315 0.752973
-0.382683 -0.000000 -0.923880 0.031336 0.264931
-0.980785 -0.000000 0.195090 0.081872 0.692529
-0.195090 -0.000000 -0.980785 0.017784 0.205113
-1.000000 -0.000000 0.000000 0.073887 0.631595
-0.195090 -0.000000 0.980785 0.448527 0.905466
-0.195090 -0.000000 -0.980785 1.017784 0.205113
-0.980785 -0.000000 -0.195090 0.067156 0.570413
-0.382683 -0.000000 0.923880 0.333915 0.937286
-0.923879 -0.000000 -0.382683 0.060989 0.509119
-0.555570 -0.000000 0.831470 0.196017 0.918498
-0.831469 -0.000000 -0.555570 0.054891 0.447811
-0.707107 -0.000000 0.707107 0.135028 0.869370
-0.191342 0.038060 0.980785 0.466637 0.912069
-0.191342 0.038060 -0.980785 1.008043 0.208201
-0.980785 0.195090 0.000000 0.039986 0.642122
-0.961939 0.191342 -0.195090 0.036021 0.580066
-0.375330 0.074658 0.923880 0.356456 0.960107
-0.906127 0.180240 -0.382683 0.032439 0.517967
-0.544895 0.108386 0.831470 0.138247 0.943159
-0.815493 0.162211 -0.555570 0.028936 0.455858
-0.693520 0.137949 0.707107 0.080648 0.887528
-0.693520 0.137949 -0.707107 0.025234 0.393773
-0.815493 0.162211 0.555570 0.061221 0.827236
-0.544895 0.108386 -0.831470 0.020989 0.331748
-0.906127 0.180240 0.382683 0.051220 0.765862
-0.375330 0.074658 -0.923880 0.015638 0.269848
-0.961939 0.191342 0.195090 0.044778 0.704085
-0.191342 0.038060 -0.980785 0.008043 0.208201
-0.768177 0.318189 0.555570 0.010297 0.834265
-0.513280 0.212607 -0.831470 0.001016 0.334499
-0.853553 0.353553 0.382683 0.007907 0.771825
-0.375330 0.074658 -0.923880 1.015638 0.269848
-0.513280 0.212607 -0.831470 1.001016 0.334499
-0.353553 0.146446 -0.923880 0.999822 0.272029
-0.906127 0.375330 0.195090 0.006404 0.709363
-0.180240 0.074657 -0.980785 0.998129 0.209571
-0.923879 0.382683 0.000000 0.005301 0.646891
-0.180240 0.074658 0.980785 0.488610 0.915189
-0.906127 0.375330 -0.195090 0.004397 0.584414
-0.353553 0.146446 0.923880 0.447682 0.976645
-0.853553 0.353553 -0.382683 0.003586 0.521934
-0.513280 0.212607 0.831470 0.034176 0.958662
-0.768177 0.318189 -0.555570 0.002796 0.459454
-0.653281 0.270598 0.707107 0.015221 0.896641
-0.653281 0.270598 -0.707107 0.001965 0.396975
-0.906127 0.375330 -0.195090 1.004397 0.584414
-0.831469 0.555570 0.000000 0.970429 0.645596
-0.815493 0.544895 -0.195090 0.972657 0.583235
-0.318190 0.212607 0.923880 0.595876 0.971215
-0.768178 0.513280 -0.382683 0.974661 0.520859
-0.853553 0.353553 -0.382683 1.003586 0.521934
-0.513280 0.212607 0.831470 1.034176 0.958662
-0.461940 0.308658 0.831470 0.904978 0.953949
-0.768177 0.318189 -0.555570 1.002796 0.459454
-0.691341 0.461939 -0.555570 0.976612 0.458481
-0.653281 0.270598 0.707107 1.015221 0.896641
-0.587938 0.392847 0.707107 0.946455 0.894099
-0.587938 0.392847 -0.707107 0.978668 0.396109
-0.653281 0.270598 -0.707107 1.001965 0.396975
-0.768177 0.318189 0.555570 1.010297 0.834265
-0.691341 0.461939 0.555570 0.958226 0.832335
-0.461940 0.308658 -0.831470 0.981020 0.333755
-0.768178 0.513280 0.382683 0.964040 0.770198
-0.853553 0.353553 0.382683 1.007907 0.771825
-0.318189 0.212607 -0.923880 0.983979 0.271439
-0.906127 0.375330 0.195090 1.006404 0.709363
-0.815493 0.544895 0.195090 0.967719 0.707927
-0.162212 0.108386 -0.980785 0.988176 0.209201
-0.923879 0.382683 0.000000 1.005301 0.646891
-0.162212 0.108386 0.980785 0.511577 0.914333
-0.392847 0.392847 -0.831470 0.961079 0.329532
-0.653281 0.653281 0.382683 0.921503 0.761167
-0.270598 0.270598 -0.923880 0.968202 0.268089
-0.693519 0.693519 0.195090 0.929787 0.699898
-0.137950 0.137949 -0.980785 0.978319 0.207096
-0.707106 0.707106 0.000000 0.936013 0.638321
-0.137950 0.137949 0.980785 0.532175 0.909643
-0.693519 0.693519 -0.195090 0.941200 0.576589
-0.270598 0.270598 0.923880 0.647807 0.950687
-0.653281 0.653281 -0.382683 0.945911 0.514786
-0.392847 0.392847 0.831470 0.823807 0.933258
-0.587937 0.587937 -0.555570 0.950536 0.452971
-0.500000 0.500000 0.707107 0.885287 0.880701
-0.500000 0.500000 -0.707107 0.955439 0.391196
-0.587937 0.587937 0.555570 0.908873 0.821780
-0.212607 0.318189 0.923880 0.659037 0.927175
-0.513280 0.768177 -0.382683 0.917545 0.503960
-0.308658 0.461939 0.831470 0.777305 0.907037
-0.461939 0.691341 -0.555570 0.924693 0.443100
-0.392847 0.587937 0.707107 0.835902 0.859805
-0.392847 0.587937 -0.707107 0.932358 0.382361
-0.461939 0.691341 0.555570 0.864639 0.804207
-0.308658 0.461939 -0.831470 0.941260 0.321910
-0.513280 0.768177 0.382683 0.881675 0.745695
-0.212607 0.318189 -0.923880 0.952583 0.262030
-0.544895 0.815492 0.195090 0.893448 0.685920
-0.108386 0.162211 -0.980785 0.968695 0.203294
-0.555570 0.831469 0.000000 0.902582 0.625525
-0.108386 0.162211 0.980785 0.548166 0.901813
-0.544895 0.815492 -0.195090 0.910362 0.564812
-0.353553 0.853553 0.382683 0.845097 0.725165
-0.146446 0.353553 -0.923880 0.937209 0.253354
-0.375330 0.906127 0.195090 0.859136 0.666985
-0.074658 0.180240 -0.980785 0.959449 0.197860
-0.382683 0.923879 0.000000 0.870446 0.607941
-0.074658 0.180240 0.980785 0.558962 0.891763
-0.375330 0.906127 -0.195090 0.880347 0.548455
-0.146447 0.353553 0.923880 0.657607 0.903302
-0.353553 0.853553 -0.382683 0.889690 0.488794
-0.212607 0.513280 0.831470 0.745299 0.879339
-0.318189 0.768177 -0.555570 0.899158 0.429173
-0.270598 0.653281 0.707107 0.796385 0.834663
-0.270598 0.653281 -0.707107 0.909472 0.369816
-0.318189 0.768177 0.555570 0.825891 0.781668
-0.212607 0.513279 -0.831470 0.921611 0.311033
-0.180240 0.906127 -0.382683 0.862365 0.469829
-0.108386 0.544895 0.831470 0.719784 0.851589
-0.162211 0.815492 -0.555570 0.873929 0.411594
-0.137950 0.693520 0.707107 0.763610 0.807482
-0.137950 0.693520 -0.707107 0.886774 0.353851
-0.162211 0.815492 0.555570 0.791803 0.756016
-0.108386 0.544895 -0.831470 0.902153 0.297095
-0.180240 0.906127 0.382683 0.811613 0.701028
-0.074658 0.375330 -0.923880 0.922167 0.242191
-0.191341 0.961939 0.195090 0.826879 0.644228
-0.038060 0.191341 -0.980785 0.950742 0.190891
-0.195090 0.980785 0.000000 0.839664 0.586462
-0.038060 0.191342 0.980785 0.565046 0.880357
-0.191341 0.961939 -0.195090 0.851201 0.528217
-0.074658 0.375330 0.923880 0.650899 0.879836
0.461940 -0.308659 -0.831470 1.404978 0.046051
-0.544895 0.108386 -0.831470 1.020989 0.331748
3 0 1 2
3 3 4 5
3 2 6 7
3 8 5 9
3 10 11 12
3 13 7 6
3 8 14 15
3 16 12 17
3 15 18 19
3 20 17 21
3 19 22 23
3 24 21 25
3 23 26 27
3 28 25 29
3 27 30 0
3 31 29 4
3 25 32 29
3 26 33 30
3 29 34 4
3 30 35 1
3 4 36 5
3 1 37 6
3 5 38 9
3 12 11 39
3 13 6 37
3 14 38 40
3 12 41 17
3 18 40 42
3 17 43 21
3 18 44 22
3 21 45 25
3 26 44 46
3 38 47 40
3 39 48 41
3 40 49 42
3 41 50 43
3 44 49 51
3 43 52 45
3 46 51 53
3 45 54 32
3 46 55 33
3 32 56 34
3 33 57 35
3 36 56 58
3 35 59 37
3 36 60 38
3 39 11 61
3 13 37 59
3 53 62 55
3 54 63 56
3 55 64 57
3 56 65 58
3 57 66 59
3 60 65 67
3 61 11 68
3 13 59 66
3 60 69 47
3 61 70 48
3 47 71 49
3 48 72 50
3 51 71 73
3 50 74 52
3 51 75 53
3 52 76 54
3 69 77 71
3 70 78 72
3 73 77 79
3 72 80 74
3 73 81 75
3 76 80 82
3 62 81 83
3 76 84 63
3 64 83 85
3 63 86 65
3 64 87 66
3 67 86 88
3 68 11 89
3 13 66 87
3 67 90 69
3 68 91 70
3 85 92 93
3 86 94 95
3 85 96 87
3 86 97 88
3 89 11 98
3 13 87 96
3 88 99 90
3 89 100 91
3 90 101 77
3 91 102 78
3 79 101 103
3 78 104 80
3 81 103 105
3 82 104 106
3 81 92 83
3 82 94 84
3 100 107 102
3 103 108 109
3 104 107 110
3 105 109 111
3 104 112 106
3 105 113 92
3 106 114 94
3 92 115 93
3 95 114 116
3 96 115 117
3 95 118 97
3 98 11 119
3 13 96 117
3 97 120 99
3 98 121 100
3 99 108 101
3 116 122 123
3 117 124 125
3 116 126 118
3 119 11 127
3 13 117 125
3 120 126 128
3 119 129 121
3 120 130 108
3 121 131 107
3 109 130 132
3 107 133 110
3 109 134 111
3 110 135 112
3 113 134 136
3 112 122 114
3 115 136 124
3 132 137 138
3 131 139 133
3 132 140 134
3 135 139 141
3 136 140 142
3 135 143 122
3 136 144 124
3 123 143 145
3 125 144 146
3 123 147 126
3 127 11 148
3 13 125 146
3 126 149 128
3 129 148 150
3 128 137 130
3 129 151 131
3 144 152 146
3 145 153 147
3 148 11 154
3 13 146 152
3 147 155 149
3 148 156 150
3 149 157 137
3 151 156 158
3 138 157 159
3 151 160 139
3 138 161 140
3 139 162 141
3 140 163 142
3 141 164 143
3 144 163 165
3 145 164 166
3 158 167 160
3 159 168 161
3 162 167 169
3 163 168 170
3 162 171 164
3 163 172 165
3 166 171 173
3 165 174 152
3 166 175 153
3 154 11 176
3 13 152 174
3 155 175 177
3 154 178 156
3 155 179 157
3 156 180 158
3 159 179 181
3 173 182 175
3 176 11 183
3 13 174 184
3 175 185 177
3 176 186 178
3 177 187 179
3 178 188 180
3 179 189 181
3 180 190 167
3 181 191 168
3 167 192 169
3 170 191 193
3 169 194 171
3 170 195 196
3 173 194 197
3 198 195 199
3 189 200 191
3 192 201 202
3 193 200 203
3 192 204 194
3 193 205 195
3 197 204 206
3 199 205 207
3 197 208 182
3 183 11 209
3 13 184 210
3 185 208 211
3 183 212 186
3 185 213 187
3 186 214 188
3 189 213 215
3 190 214 201
3 13 210 216
3 208 217 211
3 209 218 212
3 211 219 213
3 214 218 220
3 215 219 221
3 214 222 201
3 215 223 200
3 201 224 202
3 203 223 225
3 202 226 204
3 203 227 205
3 206 226 228
3 205 229 207
3 206 230 208
3 209 11 231
3 223 232 225
3 224 233 226
3 225 234 227
3 228 233 235
3 229 234 236
3 228 237 230
3 231 11 238
3 13 216 239
3 230 240 217
3 231 241 218
3 217 242 219
3 218 243 220
3 221 242 244
3 220 245 222
3 221 246 223
3 222 247 224
3 238 248 241
3 240 249 242
3 243 248 250
3 244 249 251
3 245 250 252
3 244 253 246
3 245 254 247
3 232 253 255
3 247 256 233
3 232 257 234
3 235 256 258
3 236 257 259
3 235 260 237
3 238 11 261
3 13 239 262
3 237 263 240
3 254 264 256
3 255 265 257
3 258 264 266
3 257 267 259
3 258 268 260
3 261 11 269
3 13 262 270
3 260 271 263
3 261 272 248
3 263 273 249
3 248 274 250
3 251 273 275
3 252 274 276
3 251 277 253
3 254 276 278
3 253 279 255
3 271 280 273
3 272 281 274
3 275 280 282
3 276 281 283
3 275 284 277
3 278 283 285
3 277 286 279
3 278 287 264
3 265 286 288
3 266 287 289
3 267 288 290
3 266 291 268
3 269 11 292
3 13 270 293
3 271 291 294
3 269 295 272
3 286 296 288
3 289 297 298
3 290 296 299
3 289 300 291
3 292 11 301
3 13 293 302
3 291 303 294
3 292 304 295
3 294 305 280
3 295 306 281
3 282 305 307
3 281 308 283
3 282 309 284
3 285 308 310
3 286 309 311
3 285 297 287
3 304 312 306
3 307 313 314
3 308 312 315
3 307 316 309
3 310 315 317
3 309 318 311
3 310 319 297
3 311 320 296
3 298 319 321
3 296 322 299
3 300 321 323
3 301 11 324
3 13 302 325
3 300 326 303
3 301 327 304
3 303 313 305
3 321 328 329
3 320 330 322
3 321 331 323
3 324 11 332
3 13 325 333
3 323 334 326
3 324 335 327
3 326 336 313
3 327 337 312
3 314 336 338
3 315 337 339
3 314 340 316
3 317 339 341
3 316 342 318
3 317 328 319
3 320 342 343
3 338 344 345
3 339 346 347
3 340 345 348
3 341 347 349
3 340 350 342
3 341 351 328
3 343 350 352
3 329 351 353
3 330 352 354
3 329 355 331
3 332 11 356
3 13 333 357
3 331 358 334
3 332 359 335
3 334 344 336
3 335 346 337
3 352 360 354
3 353 361 355
3 356 11 362
3 13 357 363
3 355 364 358
3 359 362 365
3 358 366 344
3 359 367 346
3 345 366 368
3 347 367 369
3 345 370 348
3 349 369 371
3 348 372 350
3 349 373 351
3 352 372 374
3 353 373 375
3 368 376 370
3 369 377 371
3 372 376 378
3 371 379 373
3 374 378 380
3 375 379 381
3 374 382 360
3 375 383 361
3 362 11 384
3 13 363 385
3 364 383 386
3 365 384 387
3 364 388 366
3 365 389 367
3 368 388 390
3 369 389 391
3 384 11 392
3 13 385 393
3 386 394 395
3 387 392 396
3 386 397 388
3 387 398 389
3 390 397 399
3 391 398 400
3 390 401 376
3 377 400 402
3 376 403 378
3 377 404 379
3 380 403 405
3 381 404 406
3 380 407 382
3 381 394 383
3 400 408 402
3 401 409 403
3 402 410 404
3 411 412 413
3 406 410 414
3 411 415 393
3 406 416 394
3 392 11 417
3 13 393 415
3 394 418 395
3 392 419 396
3 395 420 397
3 396 421 398
3 399 420 422
3 400 421 423
3 399 424 401
3 425 426 427
3 417 428 419
3 425 429 430
3 431 428 432
3 433 429 434
3 435 432 436
3 433 437 438
3 439 436 440
3 438 441 412
3 439 442 443
3 413 441 444
3 445 442 446
3 413 447 415
3 445 426 448
3 417 11 449
3 13 415 447
3 437 450 441
3 440 451 442
3 441 452 444
3 446 451 453
3 444 454 447
3 446 455 426
3 449 11 456
3 13 447 454
3 427 455 457
3 449 458 428
3 427 459 429
3 428 460 432
3 434 459 461
3 432 462 436
3 434 463 437
3 440 462 464
3 456 465 458
3 457 466 459
3 458 467 460
3 461 466 468
3 460 469 462
3 461 470 463
3 464 469 471
3 450 470 472
3 464 473 451
3 450 474 452
3 453 473 475
3 452 476 454
3 455 475 477
3 456 11 478
3 13 454 476
3 455 479 457
3 471 480 473
3 472 481 474
3 475 480 482
3 474 483 476
3 475 484 477
3 478 11 485
3 13 476 483
3 477 486 479
3 465 485 487
3 479 488 466
3 467 487 489
3 468 488 490
3 469 489 491
3 468 492 470
3 471 491 493
3 470 494 472
3 486 495 488
3 487 496 489
3 490 495 497
3 489 498 491
3 490 499 492
3 493 498 500
3 492 501 494
3 493 502 480
3 494 503 481
3 482 502 504
3 483 503 505
3 482 506 484
3 485 11 507
3 13 483 505
3 484 508 486
3 485 509 487
3 501 2 503
3 504 31 3
3 503 7 505
3 504 8 506
3 507 11 10
3 13 505 7
3 506 15 508
3 509 10 16
3 508 19 495
3 509 20 496
3 497 19 23
3 496 24 498
3 497 27 499
3 500 24 28
3 499 0 501
3 500 31 502
3 0 30 1
3 3 31 4
3 2 1 6
3 8 3 5
3 8 9 14
3 16 10 12
3 15 14 18
3 20 16 17
3 19 18 22
3 24 20 21
3 23 22 26
3 28 24 25
3 27 26 30
3 31 28 29
3 25 45 32
3 26 46 33
3 29 32 34
3 30 33 35
3 4 34 36
3 1 35 37
3 5 36 38
3 14 9 38
3 12 39 41
3 18 14 40
3 17 41 43
3 18 42 44
3 21 43 45
3 26 22 44
3 38 60 47
3 39 61 48
3 40 47 49
3 41 48 50
3 44 42 49
3 43 50 52
3 46 44 51
3 45 52 54
3 46 53 55
3 32 54 56
3 33 55 57
3 36 34 56
3 35 57 59
3 36 58 60
3 53 75 62
3 54 76 63
3 55 62 64
3 56 63 65
3 57 64 66
3 60 58 65
3 60 67 69
3 61 68 70
3 47 69 71
3 48 70 72
3 51 49 71
3 50 72 74
3 51 73 75
3 52 74 76
3 69 90 77
3 70 91 78
3 73 71 77
3 72 78 80
3 73 79 81
3 76 74 80
3 62 75 81
3 76 82 84
3 64 62 83
3 63 84 86
3 64 85 87
3 67 65 86
3 67 88 90
3 68 89 91
3 85 83 92
3 86 84 94
3 85 93 96
3 86 95 97
3 88 97 99
3 89 98 100
3 90 99 101
3 91 100 102
3 79 77 101
3 78 102 104
3 81 79 103
3 82 80 104
3 81 105 92
3 82 106 94
3 100 121 107
3 103 101 108
3 104 102 107
3 105 103 109
3 104 110 112
3 105 111 113
3 106 112 114
3 92 113 115
3 95 94 114
3 96 93 115
3 95 116 118
3 97 118 120
3 98 119 121
3 99 120 108
3 116 114 122
3 117 115 124
3 116 123 126
3 120 118 126
3 119 127 129
3 120 128 130
3 121 129 131
3 109 108 130
3 107 131 133
3 109 132 134
3 110 133 135
3 113 111 134
3 112 135 122
3 115 113 136
3 132 130 137
3 131 151 139
3 132 138 140
3 135 133 139
3 136 134 140
3 135 141 143
3 136 142 144
3 123 122 143
3 125 124 144
3 123 145 147
3 126 147 149
3 129 127 148
3 128 149 137
3 129 150 151
3 144 165 152
3 145 166 153
3 147 153 155
3 148 154 156
3 149 155 157
3 151 150 156
3 138 137 157
3 151 158 160
3 138 159 161
3 139 160 162
3 140 161 163
3 141 162 164
3 144 142 163
3 145 143 164
3 158 180 167
3 159 181 168
3 162 160 167
3 163 161 168
3 162 169 171
3 163 510 172
3 166 164 171
3 165 172 174
3 166 173 175
3 155 153 175
3 154 176 178
3 155 177 179
3 156 178 180
3 159 157 179
3 173 197 182
3 175 182 185
3 176 183 186
3 177 185 187
3 178 186 188
3 179 187 189
3 180 188 190
3 181 189 191
3 167 190 192
3 170 168 191
3 169 192 194
3 170 193 195
3 173 171 194
3 198 196 195
3 189 215 200
3 192 190 201
3 193 191 200
3 192 202 204
3 193 203 205
3 197 194 204
3 199 195 205
3 197 206 208
3 185 182 208
3 183 209 212
3 185 211 213
3 186 212 214
3 189 187 213
3 190 188 214
3 208 230 217
3 209 231 218
3 211 217 219
3 214 212 218
3 215 213 219
3 214 220 222
3 215 221 223
3 201 222 224
3 203 200 223
3 202 224 226
3 203 225 227
3 206 204 226
3 205 227 229
3 206 228 230
3 223 246 232
3 224 247 233
3 225 232 234
3 228 226 233
3 229 227 234
3 228 235 237
3 230 237 240
3 231 238 241
3 217 240 242
3 218 241 243
3 221 219 242
3 220 243 245
3 221 244 246
3 222 245 247
3 238 261 248
3 240 263 249
3 243 241 248
3 244 242 249
3 245 243 250
3 244 251 253
3 245 252 254
3 232 246 253
3 247 254 256
3 232 255 257
3 235 233 256
3 236 234 257
3 235 258 260
3 237 260 263
3 254 278 264
3 255 279 265
3 258 256 264
3 257 265 267
3 258 266 268
3 260 268 271
3 261 269 272
3 263 271 273
3 248 272 274
3 251 249 273
3 252 250 274
3 251 275 277
3 254 252 276
3 253 277 279
3 271 294 280
3 272 295 281
3 275 273 280
3 276 274 281
3 275 282 284
3 278 276 283
3 277 284 286
3 278 285 287
3 265 279 286
3 266 264 287
3 267 265 288
3 266 289 291
3 271 268 291
3 269 292 295
3 286 311 296
3 289 287 297
3 290 288 296
3 289 298 300
3 291 300 303
3 292 301 304
3 294 303 305
3 295 304 306
3 282 280 305
3 281 306 308
3 282 307 309
3 285 283 308
3 286 284 309
3 285 310 297
3 304 327 312
3 307 305 313
3 308 306 312
3 307 314 316
3 310 308 315
3 309 316 318
3 310 317 319
3 311 318 320
3 298 297 319
3 296 320 322
3 300 298 321
3 300 323 326
3 301 324 327
3 303 326 313
3 321 319 328
3 320 343 330
3 321 329 331
3 323 331 334
3 324 332 335
3 326 334 336
3 327 335 337
3 314 313 336
3 315 312 337
3 314 338 340
3 317 315 339
3 316 340 342
3 317 341 328
3 320 318 342
3 338 336 344
3 339 337 346
3 340 338 345
3 341 339 347
3 340 348 350
3 341 349 351
3 343 342 350
3 329 328 351
3 330 343 352
3 329 353 355
3 331 355 358
3 332 356 359
3 334 358 344
3 335 359 346
3 352 374 360
3 353 375 361
3 355 361 364
3 359 356 362
3 358 364 366
3 359 365 367
3 345 344 366
3 347 346 367
3 345 368 370
3 349 347 369
3 348 370 372
3 349 371 373
3 352 350 372
3 353 351 373
3 368 390 376
3 369 391 377
3 372 370 376
3 371 377 379
3 374 372 378
3 375 373 379
3 374 380 382
3 375 381 383
3 364 361 383
3 365 362 384
3 364 386 388
3 365 387 389
3 368 366 388
3 369 367 389
3 386 383 394
3 387 384 392
3 386 395 397
3 387 396 398
3 390 388 397
3 391 389 398
3 390 399 401
3 377 391 400
3 376 401 403
3 377 402 404
3 380 378 403
3 381 379 404
3 380 405 407
3 381 406 394
3 400 423 408
3 401 424 409
3 402 408 410
3 411 511 412
3 406 404 410
3 411 413 415
3 406 414 416
3 394 416 418
3 392 417 419
3 395 418 420
3 396 419 421
3 399 397 420
3 400 398 421
3 399 422 424
3 425 448 426
3 417 449 428
3 425 427 429
3 431 419 428
3 433 430 429
3 435 431 432
3 433 434 437
3 439 435 436
3 438 437 441
3 439 440 442
3 413 412 441
3 445 443 442
3 413 444 447
3 445 446 426
3 437 463 450
3 440 464 451
3 441 450 452
3 446 442 451
3 444 452 454
3 446 453 455
3 427 426 455
3 449 456 458
3 427 457 459
3 428 458 460
3 434 429 459
3 432 460 462
3 434 461 463
3 440 436 462
3 456 478 465
3 457 479 466
3 458 465 467
3 461 459 466
3 460 467 469
3 461 468 470
3 464 462 469
3 450 463 470
3 464 471 473
3 450 472 474
3 453 451 473
3 452 474 476
3 455 453 475
3 455 477 479
3 471 493 480
3 472 494 481
3 475 473 480
3 474 481 483
3 475 482 484
3 477 484 486
3 465 478 485
3 479 486 488
3 467 465 487
3 468 466 488
3 469 467 489
3 468 490 492
3 471 469 491
3 470 492 494
3 486 508 495
3 487 509 496
3 490 488 495
3 489 496 498
3 490 497 499
3 493 491 498
3 492 499 501
3 493 500 502
3 494 501 503
3 482 480 502
3 483 481 503
3 482 504 506
3 484 506 508
3 485 507 509
3 501 0 2
3 504 502 31
3 503 2 7
3 504 3 8
3 506 8 15
3 509 507 10
3 508 15 19
3 509 16 20
3 497 495 19
3 496 20 24
3 497 23 27
3 500 498 24
3 499 27 0
3 500 28 31
