ply
format ascii 1.0
comment Created by Blender 2.79 (sub 0) - www.blender.org, source file: ''
element vertex 512
property float x
property float y
property float z
property float s
property float t
element face 960
property list uchar uint vertex_indices
end_header
0.000000 0.390181 1.961571 0.567268 0.868303
0.149316 0.750661 1.847759 0.630338 0.835624
0.000000 0.765367 1.847759 0.641452 0.857179
0.000000 1.961571 -0.390180 0.822818 0.504873
0.360480 1.812255 -0.765367 0.808822 0.423029
0.000000 1.847758 -0.765367 0.835477 0.447684
0.000000 1.111140 1.662939 0.697492 0.824480
0.216773 1.089790 1.662939 0.676891 0.798466
0.324423 1.630986 -1.111140 0.823944 0.367441
0.000001 1.662938 -1.111140 0.848920 0.390841
0.275899 1.387040 1.414214 0.709376 0.752105
0.000000 1.414214 1.414214 0.735147 0.779654
0.275899 1.387040 -1.414214 0.841590 0.313094
0.000000 1.414213 -1.414214 0.864196 0.334814
0.324423 1.630986 1.111140 0.733105 0.700875
0.000000 1.662939 1.111140 0.761226 0.728711
0.216773 1.089790 -1.662939 0.863688 0.261010
0.000000 1.111140 -1.662939 0.882867 0.280332
0.360480 1.812255 0.765367 0.751695 0.647001
0.000000 1.847759 0.765367 0.780693 0.674598
0.149316 0.750660 -1.847759 0.893414 0.213060
0.000000 0.765366 -1.847759 0.907539 0.228698
0.382684 1.923879 0.390181 0.767340 0.591668
0.000000 1.961571 0.390181 0.796418 0.618773
0.076121 0.382683 -1.961571 0.935719 0.172890
0.000000 0.390180 -1.961571 0.942759 0.182515
0.390181 1.961571 0.000000 0.781429 0.535581
0.000000 2.000000 0.000000 0.810089 0.562031
-0.000000 -0.000001 2.000000 0.495265 0.852857
0.076121 0.382683 1.961571 0.566457 0.856148
0.000000 -0.000001 -2.000000 0.995266 0.147143
0.382684 1.923880 -0.390180 0.794966 0.479228
0.765367 1.847759 0.000000 0.753309 0.508011
0.149316 0.360480 1.961571 0.563300 0.844314
0.149316 0.360479 -1.961571 0.929896 0.162212
0.750661 1.812255 -0.390180 0.767315 0.452094
0.292893 0.707107 1.847759 0.618082 0.815427
0.707107 1.707107 -0.765367 0.782092 0.396562
0.425215 1.026560 1.662939 0.657173 0.773912
0.636380 1.536355 -1.111140 0.798714 0.341964
0.541196 1.306563 1.414214 0.685241 0.725518
0.541196 1.306563 -1.414214 0.818709 0.289116
0.636380 1.536355 1.111140 0.706593 0.673391
0.425215 1.026560 -1.662939 0.844487 0.239416
0.707107 1.707107 0.765367 0.723996 0.619193
0.292893 0.707106 -1.847759 0.879896 0.195479
0.750661 1.812255 0.390181 0.739178 0.563865
0.923880 1.382683 -1.111140 0.772822 0.315021
0.785695 1.175875 -1.414214 0.795182 0.263338
0.923880 1.382683 1.111140 0.681041 0.646993
0.617317 0.923879 -1.662939 0.825051 0.215853
1.026560 1.536355 0.765367 0.697047 0.592015
0.425215 0.636379 -1.847759 0.867123 0.176171
1.089790 1.630986 0.390181 0.711466 0.536245
0.216773 0.324423 -1.961571 0.925640 0.150719
1.111141 1.662939 0.000000 0.725311 0.480192
0.216773 0.324423 1.961571 0.558329 0.833135
1.089790 1.630986 -0.390180 0.739467 0.424292
0.425215 0.636379 1.847759 0.604972 0.796826
1.026560 1.536355 -0.765367 0.754885 0.369020
0.617317 0.923879 1.662939 0.637870 0.751148
0.785695 1.175875 1.414214 0.662044 0.700446
0.275899 0.275899 -1.961571 0.923407 0.138703
1.387040 1.387039 -0.390180 0.710973 0.396675
0.541197 0.541196 1.847759 0.591182 0.780044
1.306563 1.306563 -0.765367 0.726706 0.341193
0.785695 0.785695 1.662939 0.618699 0.730484
1.175876 1.175875 -1.111140 0.745717 0.287291
1.000000 1.000000 1.414214 0.639317 0.677374
1.000000 1.000000 -1.414214 0.770454 0.236269
1.175876 1.175875 1.111140 0.655961 0.622327
0.785695 0.785695 -1.662939 0.805029 0.190637
1.306563 1.306563 0.765367 0.670392 0.566231
0.541196 0.541196 -1.847759 0.855308 0.155368
1.387040 1.387039 0.390181 0.683774 0.509644
1.414214 1.414213 0.000000 0.697011 0.452991
0.275900 0.275899 1.961571 0.551952 0.822879
1.175876 0.785695 -1.414214 0.743695 0.208508
0.923880 0.617316 -1.662939 0.783837 0.164110
1.536356 1.026560 0.765367 0.643669 0.542558
0.636380 0.425215 -1.847759 0.844816 0.133311
1.630987 1.089790 0.390181 0.655731 0.484878
0.324423 0.216772 -1.961571 0.923791 0.126533
1.662940 1.111140 0.000000 0.668005 0.427287
0.324424 0.216772 1.961571 0.544481 0.813763
1.630987 1.089790 -0.390180 0.681363 0.370149
0.636380 0.425215 1.847759 0.576832 0.765294
1.536356 1.026560 -0.765367 0.696970 0.313966
0.923880 0.617316 1.662939 0.599486 0.712215
1.382684 0.923879 -1.111140 0.716668 0.259562
1.175876 0.785695 1.414214 0.616747 0.656744
1.382684 0.923879 1.111140 0.631000 0.599984
0.707107 0.292893 1.847759 0.562017 0.752770
1.707107 0.707106 -0.765367 0.665037 0.288362
1.026560 0.425215 1.662939 0.580132 0.696622
1.536356 0.636379 -1.111140 0.684737 0.232805
1.306563 0.541196 1.414214 0.594131 0.638967
1.306563 0.541196 -1.414214 0.713639 0.180821
1.536356 0.636379 1.111140 0.605914 0.580518
1.026560 0.425215 -1.662939 0.760428 0.136665
1.707107 0.707106 0.765367 0.616615 0.521685
0.707107 0.292893 -1.847759 0.836350 0.110271
1.812255 0.750660 0.390181 0.627046 0.462757
0.360480 0.149315 -1.961571 0.927547 0.114679
1.847759 0.765366 0.000000 0.637946 0.403995
0.360480 0.149315 1.961571 0.536166 0.805967
1.812255 0.750660 -0.390180 0.650183 0.345708
1.812255 0.360479 0.765367 0.589070 0.504263
0.750661 0.149315 -1.847759 0.831424 0.086572
1.923880 0.382683 0.390181 0.597536 0.444077
0.382684 0.076120 -1.961571 0.935539 0.103753
1.961571 0.390180 0.000000 0.606595 0.384057
0.382684 0.076120 1.961571 0.527209 0.799637
1.923880 0.382683 -0.390180 0.617071 0.324434
0.750661 0.149315 1.847759 0.546824 0.742646
1.812255 0.360480 -0.765367 0.630288 0.265587
1.089791 0.216772 1.662939 0.560593 0.683958
1.630987 0.324423 -1.111140 0.648805 0.208274
1.387040 0.275899 1.414214 0.571358 0.624416
1.387040 0.275899 -1.414214 0.678348 0.154298
1.630987 0.324423 1.111140 0.580561 0.564436
1.089791 0.216772 -1.662939 0.732723 0.108828
1.847759 -0.000000 -0.765367 0.592315 0.247027
1.111141 -0.000001 1.662939 0.540867 0.674443
1.662940 -0.000001 -1.111140 0.607782 0.187599
1.414214 -0.000001 1.414214 0.548386 0.613417
1.414214 -0.000001 -1.414214 0.635028 0.130630
1.662940 -0.000001 1.111140 0.554891 0.552189
1.111141 -0.000001 -1.662939 0.696016 0.081502
1.847759 -0.000001 0.765367 0.560989 0.490881
0.765367 -0.000001 -1.847759 0.833915 0.062714
1.961571 -0.000001 0.390181 0.567156 0.429587
0.390181 -0.000001 -1.961571 0.948527 0.094534
2.000000 -0.000001 0.000000 0.573887 0.368405
0.390181 -0.000001 1.961571 0.517784 0.794886
1.961571 -0.000001 -0.390180 0.581872 0.307471
0.765367 -0.000001 1.847759 0.531335 0.735069
0.750661 -0.149316 -1.847759 0.856456 0.039893
1.812255 -0.360481 0.765367 0.532439 0.482033
1.923879 -0.382684 0.390181 0.536021 0.419934
0.382684 -0.076121 -1.961571 0.966638 0.087931
1.961571 -0.390181 0.000000 0.539986 0.357878
0.382684 -0.076121 1.961571 0.508043 0.791799
1.923879 -0.382684 -0.390180 0.544778 0.295915
0.750661 -0.149316 1.847759 0.515638 0.730152
1.812255 -0.360480 -0.765367 0.551220 0.234138
1.089791 -0.216773 1.662939 0.520989 0.668252
1.630987 -0.324424 -1.111140 0.561220 0.172764
1.387040 -0.275900 1.414214 0.525234 0.606227
1.387040 -0.275900 -1.414214 0.580647 0.112472
1.630987 -0.324424 1.111140 0.528936 0.544141
1.089790 -0.216773 -1.662939 0.638246 0.056841
0.707107 -0.292894 1.847759 0.499822 0.727971
1.026560 -0.425216 1.662939 0.501015 0.665501
1.707107 -0.707107 -0.765367 0.507906 0.228175
1.536356 -0.636380 -1.111140 0.510297 0.165735
1.306563 -0.541197 1.414214 0.501965 0.603025
1.306563 -0.541197 -1.414214 0.515221 0.103359
1.536356 -0.636380 1.111140 0.502796 0.540546
1.026560 -0.425216 -1.662939 0.534176 0.041338
1.707107 -0.707107 0.765367 0.503585 0.478066
0.707107 -0.292894 -1.847759 0.947683 0.023355
1.812255 -0.750661 0.390181 0.504397 0.415586
0.360480 -0.149316 -1.961571 0.988610 0.084811
1.847759 -0.765368 0.000000 0.505301 0.353109
0.360480 -0.149317 1.961571 0.498129 0.790428
1.812255 -0.750661 -0.390180 0.506404 0.290637
1.536356 -1.026561 0.765367 0.474660 0.479141
1.630986 -1.089791 0.390181 0.472657 0.416765
0.324423 -0.216773 -1.961571 1.011577 0.085667
1.662939 -1.111141 0.000000 0.470429 0.354404
0.324424 -0.216774 1.961571 0.488176 0.790799
1.630986 -1.089791 -0.390180 0.467719 0.292073
0.636380 -0.425216 1.847759 0.483979 0.728560
1.536356 -1.026561 -0.765367 0.464040 0.229802
0.923880 -0.617317 1.662939 0.481020 0.666245
1.382684 -0.923880 -1.111140 0.458226 0.167665
1.175876 -0.785696 1.414214 0.478668 0.603891
1.175876 -0.785696 -1.414214 0.446455 0.105901
1.382684 -0.923880 1.111140 0.476612 0.541519
0.923880 -0.617317 -1.662939 0.404978 0.046051
0.636379 -0.425216 -1.847759 1.095877 0.028785
1.175876 -1.175876 -1.111140 0.408873 0.178221
1.000000 -1.000001 1.414214 0.455439 0.608804
1.000000 -1.000001 -1.414214 0.385287 0.119299
1.175876 -1.175876 1.111140 0.450535 0.547029
0.785695 -0.785696 -1.662939 0.323807 0.066742
1.306563 -1.306564 0.765367 0.445911 0.485214
0.541196 -0.541197 -1.847759 0.147808 0.049313
0.636379 -0.425216 -1.847759 0.095877 0.028785
1.387040 -1.387040 0.390181 0.441200 0.423411
0.324423 -0.216773 -1.961571 0.011577 0.085667
0.275899 -0.275900 -1.961571 0.032175 0.090357
1.414214 -1.414214 0.000000 0.436013 0.361679
0.275900 -0.275900 1.961571 0.478319 0.792904
0.275899 -0.275900 -1.961571 1.032175 0.090357
1.387040 -1.387040 -0.390180 0.429787 0.300102
0.541196 -0.541197 1.847759 0.468202 0.731911
1.306563 -1.306564 -0.765367 0.421503 0.238833
0.785695 -0.785696 1.662939 0.461079 0.670468
0.425215 -0.636380 -1.847759 0.159037 0.072825
0.216773 -0.324424 -1.961571 0.048166 0.098187
1.111140 -1.662940 0.000000 0.402582 0.374476
0.216773 -0.324424 1.961571 0.468695 0.796706
0.216773 -0.324424 -1.961571 1.048166 0.098187
1.089790 -1.630987 -0.390180 0.393448 0.314080
0.425215 -0.636380 1.847759 0.452583 0.737970
1.026560 -1.536356 -0.765367 0.381676 0.254306
0.617317 -0.923880 1.662939 0.441260 0.678089
0.923879 -1.382684 -1.111140 0.364639 0.195793
0.785695 -1.175876 1.414214 0.432358 0.617639
0.785695 -1.175876 -1.414214 0.335902 0.140195
0.923879 -1.382684 1.111140 0.424693 0.556900
0.617317 -0.923880 -1.662939 0.277305 0.092963
1.026560 -1.536356 0.765367 0.417545 0.496040
1.089790 -1.630987 0.390181 0.410362 0.435188
0.541196 -1.306564 -1.414214 0.296385 0.165337
0.636379 -1.536356 1.111140 0.399158 0.570827
0.425215 -1.026561 -1.662939 0.245300 0.120662
0.707107 -1.707107 0.765367 0.389690 0.511206
0.292893 -0.707107 -1.847759 0.157607 0.096698
0.750660 -1.812255 0.390181 0.380347 0.451545
0.149316 -0.360481 -1.961571 0.058962 0.108237
0.765367 -1.847760 0.000000 0.370446 0.392059
0.149316 -0.360481 1.961571 0.459449 0.802140
0.149316 -0.360481 -1.961571 1.058962 0.108237
0.750660 -1.812255 -0.390180 0.359136 0.333015
0.292893 -0.707108 1.847759 0.437209 0.746646
0.707107 -1.707107 -0.765367 0.345097 0.274835
0.425215 -1.026561 1.662939 0.421611 0.688967
0.636379 -1.536356 -1.111140 0.325891 0.218332
0.541196 -1.306564 1.414214 0.409472 0.630184
0.076121 -0.382684 1.961571 0.450742 0.809109
0.076120 -0.382684 -1.961571 1.065047 0.119643
0.382683 -1.923880 -0.390180 0.326879 0.355773
0.149316 -0.750661 1.847759 0.422167 0.757809
0.360480 -1.812256 -0.765367 0.311613 0.298972
0.216773 -1.089791 1.662939 0.402153 0.702905
0.324423 -1.630987 -1.111140 0.291803 0.243985
0.275899 -1.387040 1.414214 0.386774 0.646148
0.275899 -1.387040 -1.414214 0.263610 0.192518
0.324423 -1.630987 1.111140 0.373929 0.588406
0.216773 -1.089791 -1.662939 0.219785 0.148411
0.360480 -1.812256 0.765367 0.362365 0.530171
0.149316 -0.750661 -1.847759 0.150900 0.120164
0.382683 -1.923880 0.390181 0.351201 0.471783
0.076120 -0.382684 -1.961571 0.065047 0.119643
0.390180 -1.961571 0.000000 0.339664 0.413539
-0.000000 -1.662939 1.111140 0.348920 0.609159
-0.000000 -1.414214 -1.414214 0.235147 0.220347
-0.000000 -1.111141 -1.662939 0.197492 0.175520
0.000000 -1.847760 0.765367 0.335478 0.552316
0.000000 -0.765367 -1.847759 0.141452 0.142821
-0.000000 -1.961571 0.390181 0.322818 0.495127
0.000000 -0.390181 -1.961571 0.067268 0.131697
-0.000000 -2.000001 0.000000 0.310089 0.437969
-0.000000 -0.390182 1.961571 0.442759 0.817485
0.000000 -0.390181 -1.961571 1.067268 0.131697
-0.000000 -1.961571 -0.390180 0.296418 0.381227
0.000000 -0.765368 1.847759 0.407539 0.771302
0.000000 -1.847760 -0.765367 0.280693 0.325402
0.000000 -1.111141 1.662939 0.382867 0.719668
-0.000000 -1.662939 -1.111140 0.261226 0.271289
-0.000000 -1.414214 1.414214 0.364196 0.665186
-0.382684 -1.923880 -0.390180 0.267340 0.408332
-0.149316 -0.750661 1.847759 0.393414 0.786940
-0.360480 -1.812256 -0.765367 0.251695 0.353000
-0.216773 -1.089791 1.662939 0.363688 0.738990
-0.324423 -1.630986 -1.111140 0.233105 0.299125
-0.275899 -1.387040 1.414214 0.341590 0.686906
-0.275899 -1.387040 -1.414214 0.209376 0.247895
-0.324423 -1.630986 1.111140 0.323944 0.632559
-0.216773 -1.089791 -1.662939 0.176891 0.201534
-0.360480 -1.812256 0.765367 0.308822 0.576971
-0.149316 -0.750661 -1.847759 0.130338 0.164376
-0.382684 -1.923880 0.390181 0.294966 0.520772
-0.076120 -0.382684 -1.961571 0.066457 0.143852
-0.390181 -1.961571 0.000000 0.281429 0.464420
-0.076121 -0.382684 1.961571 0.435719 0.827110
-0.076120 -0.382684 -1.961571 1.066457 0.143852
-0.425215 -1.026560 -1.662939 0.157173 0.226088
-0.707107 -1.707107 0.765367 0.282092 0.603438
-0.292893 -0.707107 -1.847759 0.118082 0.184573
-0.750661 -1.812255 0.390181 0.267315 0.547906
-0.149316 -0.360480 -1.961571 0.063300 0.155686
-0.765367 -1.847760 0.000000 0.253309 0.491989
-0.149316 -0.360481 1.961571 0.429896 0.837788
-0.149316 -0.360480 -1.961571 1.063300 0.155686
-0.750661 -1.812255 -0.390180 0.239178 0.436135
-0.292893 -0.707107 1.847759 0.379896 0.804521
-0.707107 -1.707107 -0.765367 0.223996 0.380807
-0.425215 -1.026561 1.662939 0.344487 0.760584
-0.636379 -1.536355 -1.111140 0.206593 0.326609
-0.541196 -1.306563 1.414214 0.318709 0.710884
-0.541196 -1.306563 -1.414214 0.185241 0.274482
-0.636379 -1.536355 1.111140 0.298714 0.658036
-0.425215 -0.636380 1.847759 0.367123 0.823829
-1.026560 -1.536356 -0.765367 0.197047 0.407985
-0.617317 -0.923880 1.662939 0.325051 0.784147
-0.923879 -1.382683 -1.111140 0.181041 0.353007
-0.785695 -1.175876 1.414214 0.295182 0.736662
-0.785695 -1.175876 -1.414214 0.162044 0.299554
-0.923879 -1.382683 1.111140 0.272822 0.684979
-0.617316 -0.923880 -1.662939 0.137870 0.248852
-1.026560 -1.536356 0.765367 0.254885 0.630980
-0.425215 -0.636380 -1.847759 0.104972 0.203174
-1.089790 -1.630986 0.390181 0.239467 0.575708
-0.216773 -0.324424 -1.961571 0.058329 0.166864
-1.111141 -1.662940 0.000000 0.225311 0.519808
-0.216773 -0.324424 1.961571 0.425640 0.849281
-0.216773 -0.324424 -1.961571 1.058329 0.166864
-1.089790 -1.630986 -0.390180 0.211466 0.463755
-1.306563 -1.306563 0.765367 0.226706 0.658807
-0.541196 -0.541197 -1.847759 0.091182 0.219956
-1.387040 -1.387040 0.390181 0.210973 0.603325
-0.275899 -0.275900 -1.961571 0.051952 0.177121
-1.414214 -1.414214 0.000000 0.197011 0.547009
-0.275900 -0.275900 1.961571 0.423407 0.861296
-0.275899 -0.275900 -1.961571 1.051952 0.177121
-1.387040 -1.387040 -0.390180 0.183774 0.490356
-0.541196 -0.541197 1.847759 0.355308 0.844632
-1.306563 -1.306563 -0.765367 0.170392 0.433769
-0.785695 -0.785696 1.662939 0.305029 0.809363
-1.175875 -1.175876 -1.111140 0.155961 0.377673
-1.000000 -1.000000 1.414214 0.270454 0.763731
-1.000000 -1.000000 -1.414214 0.139317 0.322626
-1.175875 -1.175876 1.111140 0.245717 0.712709
-0.785695 -0.785695 -1.662939 0.118699 0.269516
-1.536355 -1.026561 -0.765367 0.143670 0.457442
-0.923880 -0.617317 1.662939 0.283838 0.835890
-1.382683 -0.923880 -1.111140 0.131000 0.400016
-1.175876 -0.785695 1.414214 0.243695 0.791492
-1.175876 -0.785695 -1.414214 0.116747 0.343256
-1.382683 -0.923880 1.111140 0.216668 0.740438
-0.923879 -0.617317 -1.662939 0.099486 0.287785
-1.536355 -1.026561 0.765367 0.196970 0.686034
-0.636379 -0.425215 -1.847759 0.076832 0.234706
-1.630986 -1.089790 0.390181 0.181363 0.629851
-0.324423 -0.216773 -1.961571 0.044481 0.186237
-1.662939 -1.111141 0.000000 0.168005 0.572713
-0.324424 -0.216774 1.961571 0.423791 0.873467
-0.324423 -0.216773 -1.961571 1.044481 0.186237
-1.630986 -1.089790 -0.390180 0.155731 0.515122
-0.636379 -0.425216 1.847759 0.344816 0.866689
-1.026560 -0.425215 -1.662939 0.080132 0.303378
-0.707107 -0.292894 -1.847759 0.062017 0.247229
-1.707107 -0.707107 0.765367 0.165037 0.711638
-1.812254 -0.750660 0.390181 0.150183 0.654292
-0.360480 -0.149316 -1.961571 0.036166 0.194032
-1.847759 -0.765367 0.000000 0.137946 0.596005
-0.360480 -0.149316 1.961571 0.427547 0.885321
-0.360480 -0.149316 -1.961571 1.036166 0.194032
-1.812254 -0.750660 -0.390180 0.127046 0.537243
-0.707107 -0.292894 1.847759 0.336350 0.889729
-1.707107 -0.707107 -0.765367 0.116615 0.478315
-1.026560 -0.425216 1.662939 0.260428 0.863335
-1.536355 -0.636379 -1.111140 0.105914 0.419482
-1.306563 -0.541197 1.414214 0.213639 0.819179
-1.306563 -0.541197 -1.414214 0.094131 0.361033
-1.536355 -0.636379 1.111140 0.184737 0.767195
-1.812255 -0.360481 -0.765367 0.089070 0.495737
-1.630986 -0.324423 -1.111140 0.080561 0.435564
-1.089790 -0.216773 1.662939 0.232723 0.891172
-1.387040 -0.275900 1.414214 0.178349 0.845702
-1.387040 -0.275900 -1.414214 0.071358 0.375584
-1.630986 -0.324423 1.111140 0.148805 0.791726
-1.089790 -0.216773 -1.662939 0.060593 0.316042
-1.812255 -0.360481 0.765367 0.130288 0.734413
-0.750660 -0.149316 -1.847759 0.046824 0.257353
-1.923879 -0.382683 0.390181 0.117071 0.675566
-0.382683 -0.076121 -1.961571 0.027209 0.200363
-1.961570 -0.390181 0.000000 0.106595 0.615943
-0.382684 -0.076121 1.961571 0.435538 0.896247
-0.382683 -0.076121 -1.961571 1.027209 0.200363
-1.923879 -0.382683 -0.390180 0.097536 0.555923
-0.750660 -0.149316 1.847759 0.331424 0.913428
-0.390180 -0.000001 -1.961571 0.017784 0.205113
-2.000000 -0.000000 0.000000 0.073887 0.631595
-0.390181 -0.000001 1.961571 0.448527 0.905466
-0.390180 -0.000001 -1.961571 1.017784 0.205113
-1.961570 -0.000000 -0.390180 0.067156 0.570413
-0.765367 -0.000001 1.847759 0.333915 0.937286
-1.847759 -0.000001 -0.765367 0.060989 0.509119
-1.111140 -0.000001 1.662939 0.196017 0.918498
-1.662938 -0.000000 -1.111140 0.054891 0.447811
-1.414213 -0.000000 1.414214 0.135028 0.869370
-1.414213 -0.000000 -1.414214 0.048386 0.386583
-1.662938 -0.000000 1.111140 0.107782 0.812401
-1.111140 -0.000001 -1.662939 0.040867 0.325557
-1.847759 -0.000001 0.765367 0.092315 0.752973
-0.765366 -0.000001 -1.847759 0.031336 0.264931
-1.961570 -0.000000 0.390181 0.081872 0.692529
-1.089790 0.216772 1.662939 0.138247 0.943159
-1.387040 0.275899 1.414214 0.080648 0.887528
-1.387040 0.275899 -1.414214 0.025234 0.393773
-1.630985 0.324423 1.111140 0.061221 0.827236
-1.089790 0.216772 -1.662939 0.020989 0.331748
-1.812255 0.360479 0.765367 0.051220 0.765862
-0.750660 0.149315 -1.847759 0.015638 0.269848
-1.923878 0.382683 0.390181 0.044778 0.704085
-0.382683 0.076120 -1.961571 0.008043 0.208201
-1.961570 0.390180 0.000000 0.039986 0.642122
-0.382684 0.076120 1.961571 0.466637 0.912069
-0.382683 0.076120 -1.961571 1.008043 0.208201
-1.923878 0.382683 -0.390180 0.036021 0.580066
-0.750660 0.149315 1.847759 0.356456 0.960107
-1.812255 0.360479 -0.765367 0.032439 0.517967
-1.630985 0.324423 -1.111140 0.028936 0.455858
-1.847758 0.765366 0.000000 0.005301 0.646891
-0.360480 0.149315 1.961571 0.488610 0.915189
-0.360480 0.149315 -1.961571 0.998129 0.209571
-1.812254 0.750660 -0.390180 0.004397 0.584414
-0.707107 0.292893 1.847759 0.447682 0.976645
-1.707107 0.707106 -0.765367 0.003586 0.521934
-1.026560 0.425214 1.662939 0.034176 0.958662
-1.536355 0.636379 -1.111140 0.002796 0.459454
-1.306563 0.541196 1.414214 0.015221 0.896641
-1.306563 0.541196 -1.414214 0.001965 0.396975
-1.536355 0.636379 1.111140 0.010297 0.834265
-1.026559 0.425214 -1.662939 0.001016 0.334499
-1.707107 0.707106 0.765367 0.007907 0.771825
-0.750660 0.149315 -1.847759 1.015638 0.269848
-1.026559 0.425214 -1.662939 1.001016 0.334499
-0.707106 0.292893 -1.847759 0.999822 0.272029
-1.812254 0.750660 0.390181 0.006404 0.709363
-1.536355 0.636379 -1.111140 1.002796 0.459454
-1.175875 0.785694 -1.414214 0.978668 0.396109
-1.306563 0.541196 -1.414214 1.001965 0.396975
-1.536355 0.636379 1.111140 1.010297 0.834265
-1.175875 0.785694 1.414214 0.946455 0.894099
-1.382682 0.923879 1.111140 0.958226 0.832335
-0.923879 0.617316 -1.662939 0.981020 0.333755
-1.536355 1.026559 0.765367 0.964040 0.770198
-1.707107 0.707106 0.765367 1.007907 0.771825
-0.636379 0.425214 -1.847759 0.983979 0.271439
-1.812254 0.750660 0.390181 1.006404 0.709363
-1.630985 1.089789 0.390181 0.967719 0.707927
-0.324423 0.216772 -1.961571 0.988176 0.209201
-1.662938 1.111140 0.000000 0.970429 0.645596
-1.847758 0.765366 0.000000 1.005301 0.646891
-0.324424 0.216772 1.961571 0.511577 0.914333
-1.812254 0.750660 -0.390180 1.004397 0.584414
-1.630985 1.089789 -0.390180 0.972657 0.583235
-0.636379 0.425214 1.847759 0.595876 0.971215
-1.536355 1.026559 -0.765367 0.974661 0.520859
-1.707107 0.707106 -0.765367 1.003586 0.521934
-1.026560 0.425214 1.662939 1.034176 0.958662
-0.923879 0.617316 1.662939 0.904978 0.953949
-1.382682 0.923879 -1.111140 0.976612 0.458481
-1.306563 0.541196 1.414214 1.015221 0.896641
-0.275900 0.275899 1.961571 0.532175 0.909643
-0.275899 0.275899 -1.961571 0.978319 0.207096
-1.414213 1.414213 0.000000 0.936013 0.638321
-1.387039 1.387039 -0.390180 0.941200 0.576589
-0.541196 0.541195 1.847759 0.647807 0.950687
-1.306563 1.306562 -0.765367 0.945911 0.514786
-0.785695 0.785694 1.662939 0.823807 0.933258
-1.175875 1.175875 -1.111140 0.950536 0.452971
-1.000000 0.999999 1.414214 0.885287 0.880701
-1.000000 0.999999 -1.414214 0.955439 0.391196
-1.175875 1.175875 1.111140 0.908873 0.821780
-0.785694 0.785694 -1.662939 0.961079 0.329532
-1.306563 1.306562 0.765367 0.921503 0.761167
-0.541196 0.541195 -1.847759 0.968202 0.268089
-1.387039 1.387039 0.390181 0.929787 0.699898
-0.785695 1.175875 1.414214 0.835902 0.859805
-0.923879 1.382682 1.111140 0.864639 0.804207
-0.785695 1.175875 -1.414214 0.932358 0.382361
-0.617316 0.923879 -1.662939 0.941260 0.321910
-1.026560 1.536355 0.765367 0.881675 0.745695
-0.425215 0.636378 -1.847759 0.952583 0.262030
-1.089789 1.630985 0.390181 0.893448 0.685920
-0.216773 0.324423 -1.961571 0.968695 0.203294
-1.111140 1.662938 0.000000 0.902582 0.625525
-0.216773 0.324423 1.961571 0.548166 0.901813
-1.089789 1.630985 -0.390180 0.910362 0.564812
-0.425215 0.636379 1.847759 0.659037 0.927175
-1.026560 1.536355 -0.765367 0.917545 0.503960
-0.617316 0.923879 1.662939 0.777305 0.907037
-0.923879 1.382682 -1.111140 0.924693 0.443100
-0.750660 1.812253 -0.390180 0.880347 0.548455
-0.149316 0.360480 1.961571 0.558962 0.891763
-0.292893 0.707106 1.847759 0.657607 0.903302
-0.707107 1.707106 -0.765367 0.889690 0.488794
-0.425215 1.026559 1.662939 0.745299 0.879339
-0.636378 1.536354 -1.111140 0.899158 0.429173
-0.541196 1.306562 1.414214 0.796385 0.834663
-0.541196 1.306562 -1.414214 0.909472 0.369816
-0.636378 1.536354 1.111140 0.825891 0.781668
-0.425215 1.026559 -1.662939 0.921611 0.311033
-0.707107 1.707106 0.765367 0.845097 0.725165
-0.292893 0.707106 -1.847759 0.937209 0.253354
-0.750660 1.812253 0.390181 0.859136 0.666985
-0.149316 0.360479 -1.961571 0.959449 0.197860
-0.765366 1.847758 0.000000 0.870446 0.607941
-0.216772 1.089789 -1.662939 0.902153 0.297095
-0.360480 1.812254 0.765367 0.811613 0.701028
-0.149315 0.750660 -1.847759 0.922167 0.242191
-0.382683 1.923878 0.390181 0.826879 0.644228
-0.076120 0.382683 -1.961571 0.950742 0.190891
-0.390180 1.961569 0.000000 0.839664 0.586462
-0.076120 0.382683 1.961571 0.565046 0.880357
-0.382683 1.923878 -0.390180 0.851201 0.528217
-0.149315 0.750660 1.847759 0.650899 0.879836
-0.360480 1.812254 -0.765367 0.862365 0.469829
-0.216772 1.089789 1.662939 0.719784 0.851589
-0.324423 1.630985 -1.111140 0.873929 0.411594
-0.275899 1.387039 1.414214 0.763610 0.807482
-0.275899 1.387039 -1.414214 0.886774 0.353851
-0.324423 1.630985 1.111140 0.791803 0.756016
0.923880 -0.617317 -1.662939 1.404978 0.046051
-1.089790 0.216772 -1.662939 1.020989 0.331748
3 0 1 2
3 3 4 5
3 6 1 7
3 5 8 9
3 6 10 11
3 9 12 13
3 11 14 15
3 13 16 17
3 15 18 19
3 17 20 21
3 19 22 23
3 21 24 25
3 23 26 27
3 0 28 29
3 30 25 24
3 27 31 3
3 22 32 26
3 29 28 33
3 30 24 34
3 31 32 35
3 29 36 1
3 4 35 37
3 1 38 7
3 4 39 8
3 7 40 10
3 12 39 41
3 10 42 14
3 12 43 16
3 14 44 18
3 16 45 20
3 18 46 22
3 20 34 24
3 41 47 48
3 40 49 42
3 41 50 43
3 42 51 44
3 43 52 45
3 46 51 53
3 45 54 34
3 46 55 32
3 33 28 56
3 30 34 54
3 32 57 35
3 33 58 36
3 35 59 37
3 36 60 38
3 39 59 47
3 38 61 40
3 30 54 62
3 55 63 57
3 56 64 58
3 57 65 59
3 58 66 60
3 47 65 67
3 60 68 61
3 47 69 48
3 61 70 49
3 48 71 50
3 49 72 51
3 50 73 52
3 51 74 53
3 52 62 54
3 55 74 75
3 56 28 76
3 71 77 78
3 70 79 72
3 73 78 80
3 72 81 74
3 73 82 62
3 75 81 83
3 76 28 84
3 30 62 82
3 75 85 63
3 76 86 64
3 63 87 65
3 64 88 66
3 67 87 89
3 66 90 68
3 67 77 69
3 70 90 91
3 84 92 86
3 85 93 87
3 86 94 88
3 89 93 95
3 88 96 90
3 77 95 97
3 91 96 98
3 77 99 78
3 91 100 79
3 80 99 101
3 81 100 102
3 80 103 82
3 81 104 83
3 84 28 105
3 30 82 103
3 83 106 85
3 98 107 100
3 99 108 101
3 102 107 109
3 103 108 110
3 102 111 104
3 105 28 112
3 30 103 110
3 104 113 106
3 105 114 92
3 106 115 93
3 92 116 94
3 95 115 117
3 96 116 118
3 97 117 119
3 96 120 98
3 97 121 99
3 113 122 115
3 114 123 116
3 117 122 124
3 116 125 118
3 117 126 119
3 118 127 120
3 121 126 128
3 120 129 107
3 108 128 130
3 109 129 131
3 110 130 132
3 109 133 111
3 112 28 134
3 30 110 132
3 113 133 135
3 112 136 114
3 128 137 130
3 131 138 139
3 132 137 140
3 131 141 133
3 134 28 142
3 30 132 140
3 133 143 135
3 136 142 144
3 135 145 122
3 136 146 123
3 124 145 147
3 123 148 125
3 124 149 126
3 127 148 150
3 128 149 151
3 127 138 129
3 146 152 153
3 147 154 155
3 146 156 148
3 147 157 149
3 148 158 150
3 149 159 151
3 150 160 138
3 137 159 161
3 139 160 162
3 137 163 140
3 139 164 141
3 142 28 165
3 30 140 163
3 141 166 143
3 142 152 144
3 143 154 145
3 162 167 168
3 161 169 163
3 162 170 164
3 165 28 171
3 30 163 169
3 166 170 172
3 165 173 152
3 166 174 154
3 152 175 153
3 155 174 176
3 153 177 156
3 155 178 157
3 158 177 179
3 159 178 180
3 158 167 160
3 159 181 161
3 174 182 176
3 175 183 177
3 176 184 178
3 177 185 179
3 180 184 186
3 179 187 167
3 180 188 189
3 168 187 190
3 191 188 192
3 168 193 170
3 171 28 194
3 30 169 195
3 170 196 172
3 171 197 173
3 172 198 174
3 173 199 175
3 192 200 201
3 190 202 193
3 194 28 203
3 30 195 204
3 196 202 205
3 194 206 197
3 196 207 198
3 197 208 199
3 182 207 209
3 183 208 210
3 182 211 184
3 185 210 212
3 186 211 213
3 185 214 187
3 186 200 188
3 190 214 215
3 209 216 211
3 210 217 212
3 213 216 218
3 212 219 214
3 213 220 200
3 215 219 221
3 200 222 201
3 215 223 202
3 203 28 224
3 30 204 225
3 202 226 205
3 203 227 206
3 205 228 207
3 208 227 229
3 209 228 230
3 208 231 210
3 224 28 232
3 30 225 233
3 223 234 226
3 224 235 227
3 226 236 228
3 227 237 229
3 230 236 238
3 229 239 231
3 230 240 216
3 231 241 217
3 216 242 218
3 217 243 219
3 218 244 220
3 221 243 245
3 222 244 246
3 221 247 223
3 239 248 241
3 242 249 250
3 241 251 243
3 242 252 244
3 245 251 253
3 246 252 254
3 245 255 247
3 232 28 256
3 30 233 257
3 247 258 234
3 232 259 235
3 234 260 236
3 237 259 261
3 238 260 262
3 239 261 263
3 238 249 240
3 255 264 258
3 256 265 259
3 258 266 260
3 259 267 261
3 262 266 268
3 263 267 269
3 262 270 249
3 248 269 271
3 249 272 250
3 248 273 251
3 250 274 252
3 253 273 275
3 252 276 254
3 253 277 255
3 256 28 278
3 30 257 279
3 270 280 272
3 271 281 273
3 274 280 282
3 275 281 283
3 276 282 284
3 275 285 277
3 278 28 286
3 30 279 287
3 264 285 288
3 278 289 265
3 264 290 266
3 265 291 267
3 268 290 292
3 269 291 293
3 268 294 270
3 271 293 295
3 286 296 289
3 288 297 290
3 289 298 291
3 292 297 299
3 291 300 293
3 292 301 294
3 295 300 302
3 280 301 303
3 295 304 281
3 280 305 282
3 283 304 306
3 284 305 307
3 283 308 285
3 286 28 309
3 30 287 310
3 285 311 288
3 302 312 304
3 303 313 305
3 306 312 314
3 305 315 307
3 308 314 316
3 309 28 317
3 30 310 318
3 308 319 311
3 309 320 296
3 311 321 297
3 296 322 298
3 299 321 323
3 300 322 324
3 299 325 301
3 302 324 326
3 301 327 303
3 319 328 321
3 320 329 322
3 323 328 330
3 324 329 331
3 323 332 325
3 326 331 333
3 325 334 327
3 326 335 312
3 313 334 336
3 314 335 337
3 313 338 315
3 314 339 316
3 317 28 340
3 30 318 341
3 316 342 319
3 317 343 320
3 336 344 345
3 337 346 347
3 338 345 348
3 337 349 339
3 340 28 350
3 30 341 351
3 339 352 342
3 340 353 343
3 342 354 328
3 343 355 329
3 330 354 356
3 331 355 357
3 332 356 358
3 333 357 359
3 332 344 334
3 333 346 335
3 356 360 361
3 357 362 363
3 356 364 358
3 359 363 365
3 358 366 344
3 359 367 346
3 345 366 368
3 347 367 369
3 345 370 348
3 347 371 349
3 350 28 372
3 30 351 373
3 349 374 352
3 353 372 375
3 352 360 354
3 353 362 355
3 368 376 370
3 369 377 371
3 372 28 378
3 30 373 379
3 374 377 380
3 375 378 381
3 374 382 360
3 375 383 362
3 361 382 384
3 363 383 385
3 361 386 364
3 363 387 365
3 366 386 388
3 365 389 367
3 368 388 390
3 369 389 391
3 385 392 393
3 384 394 386
3 387 393 395
3 386 396 388
3 387 397 389
3 390 396 398
3 391 397 399
3 390 400 376
3 391 401 377
3 378 28 402
3 30 379 403
3 380 401 404
3 381 402 405
3 380 406 382
3 381 392 383
3 384 406 407
3 399 408 401
3 402 28 409
3 30 403 410
3 401 411 404
3 402 412 405
3 404 413 406
3 405 414 392
3 407 413 415
3 393 414 416
3 407 417 394
3 393 418 395
3 394 419 396
3 395 420 397
3 421 422 423
3 399 420 424
3 421 410 403
3 425 426 427
3 428 429 430
3 427 431 422
3 428 432 433
3 423 431 434
3 435 432 436
3 423 437 410
3 435 438 439
3 409 28 440
3 30 410 437
3 441 438 442
3 409 443 412
3 441 444 445
3 446 443 447
3 425 444 448
3 449 447 429
3 440 28 450
3 30 437 451
3 442 452 453
3 440 454 443
3 442 455 444
3 443 456 447
3 448 455 457
3 447 458 429
3 448 459 426
3 430 458 460
3 426 461 431
3 430 462 432
3 431 463 434
3 436 462 464
3 434 451 437
3 436 452 438
3 460 465 466
3 461 467 468
3 460 469 462
3 461 470 463
3 464 469 471
3 463 472 451
3 452 471 473
3 450 28 474
3 30 451 472
3 452 475 453
3 450 476 454
3 453 477 455
3 454 478 456
3 457 477 479
3 456 465 458
3 457 467 459
3 473 480 475
3 476 481 482
3 475 483 477
3 478 482 484
3 479 483 485
3 465 484 486
3 479 487 467
3 466 486 488
3 467 489 468
3 466 490 469
3 468 491 470
3 471 490 492
3 470 493 472
3 471 494 473
3 474 28 481
3 30 472 493
3 487 495 489
3 488 496 490
3 489 497 491
3 492 496 498
3 493 497 499
3 492 500 494
3 481 28 501
3 30 493 499
3 494 502 480
3 481 503 482
3 480 504 483
3 482 505 484
3 485 504 506
3 484 507 486
3 485 508 487
3 488 507 509
3 502 5 504
3 505 2 6
3 506 5 9
3 507 6 11
3 506 13 508
3 509 11 15
3 508 17 495
3 496 15 19
3 495 21 497
3 498 19 23
3 497 25 499
3 500 23 27
3 501 28 0
3 30 499 25
3 500 3 502
3 503 0 2
3 0 29 1
3 3 31 4
3 6 2 1
3 5 4 8
3 6 7 10
3 9 8 12
3 11 10 14
3 13 12 16
3 15 14 18
3 17 16 20
3 19 18 22
3 21 20 24
3 23 22 26
3 27 26 31
3 22 46 32
3 31 26 32
3 29 33 36
3 4 31 35
3 1 36 38
3 4 37 39
3 7 38 40
3 12 8 39
3 10 40 42
3 12 41 43
3 14 42 44
3 16 43 45
3 18 44 46
3 20 45 34
3 41 39 47
3 40 61 49
3 41 48 50
3 42 49 51
3 43 50 52
3 46 44 51
3 45 52 54
3 46 53 55
3 32 55 57
3 33 56 58
3 35 57 59
3 36 58 60
3 39 37 59
3 38 60 61
3 55 75 63
3 56 76 64
3 57 63 65
3 58 64 66
3 47 59 65
3 60 66 68
3 47 67 69
3 61 68 70
3 48 69 71
3 49 70 72
3 50 71 73
3 51 72 74
3 52 73 62
3 55 53 74
3 71 69 77
3 70 91 79
3 73 71 78
3 72 79 81
3 73 80 82
3 75 74 81
3 75 83 85
3 76 84 86
3 63 85 87
3 64 86 88
3 67 65 87
3 66 88 90
3 67 89 77
3 70 68 90
3 84 105 92
3 85 106 93
3 86 92 94
3 89 87 93
3 88 94 96
3 77 89 95
3 91 90 96
3 77 97 99
3 91 98 100
3 80 78 99
3 81 79 100
3 80 101 103
3 81 102 104
3 83 104 106
3 98 120 107
3 99 121 108
3 102 100 107
3 103 101 108
3 102 109 111
3 104 111 113
3 105 112 114
3 106 113 115
3 92 114 116
3 95 93 115
3 96 94 116
3 97 95 117
3 96 118 120
3 97 119 121
3 113 135 122
3 114 136 123
3 117 115 122
3 116 123 125
3 117 124 126
3 118 125 127
3 121 119 126
3 120 127 129
3 108 121 128
3 109 107 129
3 110 108 130
3 109 131 133
3 113 111 133
3 112 134 136
3 128 151 137
3 131 129 138
3 132 130 137
3 131 139 141
3 133 141 143
3 136 134 142
3 135 143 145
3 136 144 146
3 124 122 145
3 123 146 148
3 124 147 149
3 127 125 148
3 128 126 149
3 127 150 138
3 146 144 152
3 147 145 154
3 146 153 156
3 147 155 157
3 148 156 158
3 149 157 159
3 150 158 160
3 137 151 159
3 139 138 160
3 137 161 163
3 139 162 164
3 141 164 166
3 142 165 152
3 143 166 154
3 162 160 167
3 161 181 169
3 162 168 170
3 166 164 170
3 165 171 173
3 166 172 174
3 152 173 175
3 155 154 174
3 153 175 177
3 155 176 178
3 158 156 177
3 159 157 178
3 158 179 167
3 159 510 181
3 174 198 182
3 175 199 183
3 176 182 184
3 177 183 185
3 180 178 184
3 179 185 187
3 180 186 188
3 168 167 187
3 191 189 188
3 168 190 193
3 170 193 196
3 171 194 197
3 172 196 198
3 173 197 199
3 192 188 200
3 190 215 202
3 196 193 202
3 194 203 206
3 196 205 207
3 197 206 208
3 182 198 207
3 183 199 208
3 182 209 211
3 185 183 210
3 186 184 211
3 185 212 214
3 186 213 200
3 190 187 214
3 209 230 216
3 210 231 217
3 213 211 216
3 212 217 219
3 213 218 220
3 215 214 219
3 200 220 222
3 215 221 223
3 202 223 226
3 203 224 227
3 205 226 228
3 208 206 227
3 209 207 228
3 208 229 231
3 223 247 234
3 224 232 235
3 226 234 236
3 227 235 237
3 230 228 236
3 229 237 239
3 230 238 240
3 231 239 241
3 216 240 242
3 217 241 243
3 218 242 244
3 221 219 243
3 222 220 244
3 221 245 247
3 239 263 248
3 242 240 249
3 241 248 251
3 242 250 252
3 245 243 251
3 246 244 252
3 245 253 255
3 247 255 258
3 232 256 259
3 234 258 260
3 237 235 259
3 238 236 260
3 239 237 261
3 238 262 249
3 255 277 264
3 256 278 265
3 258 264 266
3 259 265 267
3 262 260 266
3 263 261 267
3 262 268 270
3 248 263 269
3 249 270 272
3 248 271 273
3 250 272 274
3 253 251 273
3 252 274 276
3 253 275 277
3 270 294 280
3 271 295 281
3 274 272 280
3 275 273 281
3 276 274 282
3 275 283 285
3 264 277 285
3 278 286 289
3 264 288 290
3 265 289 291
3 268 266 290
3 269 267 291
3 268 292 294
3 271 269 293
3 286 309 296
3 288 311 297
3 289 296 298
3 292 290 297
3 291 298 300
3 292 299 301
3 295 293 300
3 280 294 301
3 295 302 304
3 280 303 305
3 283 281 304
3 284 282 305
3 283 306 308
3 285 308 311
3 302 326 312
3 303 327 313
3 306 304 312
3 305 313 315
3 308 306 314
3 308 316 319
3 309 317 320
3 311 319 321
3 296 320 322
3 299 297 321
3 300 298 322
3 299 323 325
3 302 300 324
3 301 325 327
3 319 342 328
3 320 343 329
3 323 321 328
3 324 322 329
3 323 330 332
3 326 324 331
3 325 332 334
3 326 333 335
3 313 327 334
3 314 312 335
3 313 336 338
3 314 337 339
3 316 339 342
3 317 340 343
3 336 334 344
3 337 335 346
3 338 336 345
3 337 347 349
3 339 349 352
3 340 350 353
3 342 352 354
3 343 353 355
3 330 328 354
3 331 329 355
3 332 330 356
3 333 331 357
3 332 358 344
3 333 359 346
3 356 354 360
3 357 355 362
3 356 361 364
3 359 357 363
3 358 364 366
3 359 365 367
3 345 344 366
3 347 346 367
3 345 368 370
3 347 369 371
3 349 371 374
3 353 350 372
3 352 374 360
3 353 375 362
3 368 390 376
3 369 391 377
3 374 371 377
3 375 372 378
3 374 380 382
3 375 381 383
3 361 360 382
3 363 362 383
3 361 384 386
3 363 385 387
3 366 364 386
3 365 387 389
3 368 366 388
3 369 367 389
3 385 383 392
3 384 407 394
3 387 385 393
3 386 394 396
3 387 395 397
3 390 388 396
3 391 389 397
3 390 398 400
3 391 399 401
3 380 377 401
3 381 378 402
3 380 404 406
3 381 405 392
3 384 382 406
3 399 424 408
3 401 408 411
3 402 409 412
3 404 411 413
3 405 412 414
3 407 406 413
3 393 392 414
3 407 415 417
3 393 416 418
3 394 417 419
3 395 418 420
3 421 511 422
3 399 397 420
3 421 423 410
3 425 448 426
3 428 449 429
3 427 426 431
3 428 430 432
3 423 422 431
3 435 433 432
3 423 434 437
3 435 436 438
3 441 439 438
3 409 440 443
3 441 442 444
3 446 412 443
3 425 445 444
3 449 446 447
3 442 438 452
3 440 450 454
3 442 453 455
3 443 454 456
3 448 444 455
3 447 456 458
3 448 457 459
3 430 429 458
3 426 459 461
3 430 460 462
3 431 461 463
3 436 432 462
3 434 463 451
3 436 464 452
3 460 458 465
3 461 459 467
3 460 466 469
3 461 468 470
3 464 462 469
3 463 470 472
3 452 464 471
3 452 473 475
3 450 474 476
3 453 475 477
3 454 476 478
3 457 455 477
3 456 478 465
3 457 479 467
3 473 494 480
3 476 474 481
3 475 480 483
3 478 476 482
3 479 477 483
3 465 478 484
3 479 485 487
3 466 465 486
3 467 487 489
3 466 488 490
3 468 489 491
3 471 469 490
3 470 491 493
3 471 492 494
3 487 508 495
3 488 509 496
3 489 495 497
3 492 490 496
3 493 491 497
3 492 498 500
3 494 500 502
3 481 501 503
3 480 502 504
3 482 503 505
3 485 483 504
3 484 505 507
3 485 506 508
3 488 486 507
3 502 3 5
3 505 503 2
3 506 504 5
3 507 505 6
3 506 9 13
3 509 507 11
3 508 13 17
3 496 509 15
3 495 17 21
3 498 496 19
3 497 21 25
3 500 498 23
3 500 27 3
3 503 501 0
