ply
format ascii 1.0
comment Created by Blender 2.79 (sub 0) - www.blender.org, source file: ''
element vertex 192
property float x
property float y
property float z
property float nx
property float ny
property float nz
element face 124
property list uchar uint vertex_indices
end_header
-0.816365 -0.836323 1.009692 0.098017 0.995185 0.000000
-0.621274 -0.855538 -0.990308 0.098017 0.995185 0.000000
-0.816365 -0.836323 -0.990308 0.098017 0.995185 0.000000
-0.621274 -0.855538 1.009692 0.290285 0.956940 0.000000
-0.433681 -0.912444 -0.990308 0.290285 0.956940 0.000000
-0.621274 -0.855538 -0.990308 0.290285 0.956940 0.000000
-0.433681 -0.912444 1.009692 0.471397 0.881921 0.000000
-0.260795 -1.004854 -0.990308 0.471397 0.881921 0.000000
-0.433681 -0.912444 -0.990308 0.471397 0.881921 0.000000
-0.260795 -1.004854 1.009692 0.634393 0.773011 0.000000
-0.109258 -1.129216 -0.990308 0.634393 0.773011 0.000000
-0.260795 -1.004854 -0.990308 0.634393 0.773011 0.000000
-0.109258 -1.129216 1.009692 0.773011 0.634393 0.000000
0.015105 -1.280753 -0.990308 0.773011 0.634393 0.000000
-0.109258 -1.129216 -0.990308 0.773011 0.634393 0.000000
0.015105 -1.280753 1.009692 0.881921 0.471397 0.000000
0.107515 -1.453640 -0.990308 0.881921 0.471397 0.000000
0.015105 -1.280753 -0.990308 0.881921 0.471397 0.000000
0.107515 -1.453640 1.009692 0.956940 0.290285 0.000000
0.164420 -1.641233 -0.990308 0.956940 0.290285 0.000000
0.107515 -1.453640 -0.990308 0.956940 0.290285 0.000000
0.164420 -1.641233 1.009692 0.995185 0.098017 0.000000
0.183635 -1.836323 -0.990308 0.995185 0.098017 0.000000
0.164420 -1.641233 -0.990308 0.995185 0.098017 0.000000
0.183635 -1.836323 1.009692 0.995185 -0.098017 0.000000
0.164421 -2.031414 -0.990308 0.995185 -0.098017 0.000000
0.183635 -1.836323 -0.990308 0.995185 -0.098017 0.000000
0.164421 -2.031414 1.009692 0.956940 -0.290285 0.000000
0.107515 -2.219007 -0.990308 0.956940 -0.290285 0.000000
0.164421 -2.031414 -0.990308 0.956940 -0.290285 0.000000
0.107515 -2.219007 1.009692 0.881921 -0.471397 0.000000
0.015105 -2.391893 -0.990308 0.881921 -0.471397 0.000000
0.107515 -2.219007 -0.990308 0.881921 -0.471397 0.000000
0.015105 -2.391893 1.009692 0.773011 -0.634393 0.000000
-0.109258 -2.543430 -0.990308 0.773011 -0.634393 0.000000
0.015105 -2.391893 -0.990308 0.773011 -0.634393 0.000000
-0.109258 -2.543430 1.009692 0.634393 -0.773011 0.000000
-0.260795 -2.667793 -0.990308 0.634393 -0.773011 0.000000
-0.109258 -2.543430 -0.990308 0.634393 -0.773011 0.000000
-0.260795 -2.667793 1.009692 0.471397 -0.881921 0.000000
-0.433681 -2.760203 -0.990308 0.471397 -0.881921 0.000000
-0.260795 -2.667793 -0.990308 0.471397 -0.881921 0.000000
-0.433681 -2.760203 1.009692 0.290285 -0.956940 0.000000
-0.621275 -2.817109 -0.990308 0.290285 -0.956940 0.000000
-0.433681 -2.760203 -0.990308 0.290285 -0.956940 0.000000
-0.621275 -2.817109 1.009692 0.098017 -0.995185 0.000000
-0.816365 -2.836323 -0.990308 0.098017 -0.995185 0.000000
-0.621275 -2.817109 -0.990308 0.098017 -0.995185 0.000000
-0.816365 -2.836323 1.009692 -0.098018 -0.995185 0.000000
-1.011456 -2.817108 -0.990308 -0.098018 -0.995185 0.000000
-0.816365 -2.836323 -0.990308 -0.098018 -0.995185 0.000000
-1.011456 -2.817108 1.009692 -0.290285 -0.956940 0.000000
-1.199049 -2.760203 -0.990308 -0.290285 -0.956940 0.000000
-1.011456 -2.817108 -0.990308 -0.290285 -0.956940 0.000000
-1.199049 -2.760203 1.009692 -0.471397 -0.881921 0.000000
-1.371935 -2.667793 -0.990308 -0.471397 -0.881921 0.000000
-1.199049 -2.760203 -0.990308 -0.471397 -0.881921 0.000000
-1.371935 -2.667793 1.009692 -0.634394 -0.773010 0.000000
-1.523472 -2.543430 -0.990308 -0.634394 -0.773010 0.000000
-1.371935 -2.667793 -0.990308 -0.634394 -0.773010 0.000000
-1.523472 -2.543430 1.009692 -0.773011 -0.634393 0.000000
-1.647835 -2.391893 -0.990308 -0.773011 -0.634393 0.000000
-1.523472 -2.543430 -0.990308 -0.773011 -0.634393 0.000000
-1.647835 -2.391893 1.009692 -0.881922 -0.471396 0.000000
-1.740245 -2.219006 -0.990308 -0.881922 -0.471396 0.000000
-1.647835 -2.391893 -0.990308 -0.881922 -0.471396 0.000000
-1.740245 -2.219006 1.009692 -0.956941 -0.290283 0.000000
-1.797150 -2.031413 -0.990308 -0.956941 -0.290283 0.000000
-1.740245 -2.219006 -0.990308 -0.956941 -0.290283 0.000000
-1.797150 -2.031413 1.009692 -0.995185 -0.098017 0.000000
-1.816365 -1.836322 -0.990308 -0.995185 -0.098017 0.000000
-1.797150 -2.031413 -0.990308 -0.995185 -0.098017 0.000000
-1.816365 -1.836322 1.009692 -0.995185 0.098018 0.000000
-1.797150 -1.641232 -0.990308 -0.995185 0.098018 0.000000
-1.816365 -1.836322 -0.990308 -0.995185 0.098018 0.000000
-1.797150 -1.641232 1.009692 -0.956940 0.290286 0.000000
-1.740244 -1.453639 -0.990308 -0.956940 0.290286 0.000000
-1.797150 -1.641232 -0.990308 -0.956940 0.290286 0.000000
-1.740244 -1.453639 1.009692 -0.881921 0.471398 0.000000
-1.647834 -1.280752 -0.990308 -0.881921 0.471398 0.000000
-1.740244 -1.453639 -0.990308 -0.881921 0.471398 0.000000
-1.647834 -1.280752 1.009692 -0.773009 0.634395 0.000000
-1.523471 -1.129216 -0.990308 -0.773009 0.634395 0.000000
-1.647834 -1.280752 -0.990308 -0.773009 0.634395 0.000000
-1.523471 -1.129216 1.009692 -0.634393 0.773011 0.000000
-1.371934 -1.004853 -0.990308 -0.634393 0.773011 0.000000
-1.523471 -1.129216 -0.990308 -0.634393 0.773011 0.000000
-1.371934 -1.004853 1.009692 -0.471395 0.881922 0.000000
-1.199047 -0.912443 -0.990308 -0.471395 0.881922 0.000000
-1.371934 -1.004853 -0.990308 -0.471395 0.881922 0.000000
-1.199049 -2.760203 1.009692 0.000000 0.000000 1.000000
0.107515 -2.219007 1.009692 0.000000 0.000000 1.000000
-1.740244 -1.453639 1.009692 0.000000 0.000000 1.000000
-1.199047 -0.912443 1.009692 -0.290283 0.956941 0.000000
-1.011454 -0.855538 -0.990308 -0.290283 0.956941 0.000000
-1.199047 -0.912443 -0.990308 -0.290283 0.956941 0.000000
-1.011454 -0.855538 1.009692 -0.098017 0.995185 0.000000
-0.816365 -0.836323 -0.990308 -0.098017 0.995185 0.000000
-1.011454 -0.855538 -0.990308 -0.098017 0.995185 0.000000
-0.621275 -2.817109 -0.990308 0.000000 -0.000000 -1.000000
-1.797150 -2.031413 -0.990308 0.000000 -0.000000 -1.000000
0.164420 -1.641233 -0.990308 0.000000 -0.000000 -1.000000
-0.621274 -0.855538 1.009692 0.098017 0.995185 -0.000000
-0.433681 -0.912444 1.009692 0.290285 0.956940 -0.000000
-0.260795 -1.004854 1.009692 0.471397 0.881921 -0.000000
-0.109258 -1.129216 1.009692 0.634393 0.773011 -0.000000
0.015105 -1.280753 1.009692 0.773011 0.634393 -0.000000
0.107515 -1.453640 1.009692 0.881921 0.471397 -0.000000
0.164420 -1.641233 1.009692 0.956940 0.290285 -0.000000
0.183635 -1.836323 1.009692 0.995185 0.098017 -0.000000
0.164421 -2.031414 1.009692 0.995185 -0.098017 0.000000
0.107515 -2.219007 1.009692 0.956940 -0.290285 0.000000
0.015105 -2.391893 1.009692 0.881921 -0.471397 0.000000
-0.109258 -2.543430 1.009692 0.773011 -0.634393 0.000000
-0.260795 -2.667793 1.009692 0.634393 -0.773011 0.000000
-0.433681 -2.760203 1.009692 0.471397 -0.881921 0.000000
-0.621275 -2.817109 1.009692 0.290285 -0.956940 0.000000
-0.816365 -2.836323 1.009692 0.098017 -0.995185 0.000000
-1.011456 -2.817108 1.009692 -0.098018 -0.995185 0.000000
-1.199049 -2.760203 1.009692 -0.290285 -0.956940 0.000000
-1.371935 -2.667793 1.009692 -0.471397 -0.881921 0.000000
-1.523472 -2.543430 1.009692 -0.634394 -0.773010 0.000000
-1.647835 -2.391893 1.009692 -0.773011 -0.634393 0.000000
-1.740245 -2.219006 1.009692 -0.881922 -0.471396 0.000000
-1.797150 -2.031413 1.009692 -0.956941 -0.290283 0.000000
-1.816365 -1.836322 1.009692 -0.995185 -0.098017 0.000000
-1.797150 -1.641232 1.009692 -0.995185 0.098018 0.000000
-1.740244 -1.453639 1.009692 -0.956940 0.290286 0.000000
-1.647834 -1.280752 1.009692 -0.881921 0.471398 0.000000
-1.523471 -1.129216 1.009692 -0.773009 0.634395 0.000000
-1.371934 -1.004853 1.009692 -0.634393 0.773011 0.000000
-1.199047 -0.912443 1.009692 -0.471395 0.881922 0.000000
-0.433681 -0.912444 1.009692 0.000000 0.000000 1.000000
-0.621274 -0.855538 1.009692 0.000000 0.000000 1.000000
-0.816365 -0.836323 1.009692 0.000000 0.000000 1.000000
-1.011454 -0.855538 1.009692 0.000000 -0.000000 1.000000
-1.199047 -0.912443 1.009692 0.000000 0.000000 1.000000
-1.371934 -1.004853 1.009692 0.000000 0.000000 1.000000
-1.523471 -1.129216 1.009692 0.000000 0.000000 1.000000
-1.647834 -1.280752 1.009692 0.000000 0.000000 1.000000
-1.797150 -1.641232 1.009692 0.000000 0.000000 1.000000
-1.816365 -1.836322 1.009692 0.000000 0.000000 1.000000
-1.797150 -2.031413 1.009692 0.000000 0.000000 1.000000
-1.740245 -2.219006 1.009692 0.000000 0.000000 1.000000
-1.647835 -2.391893 1.009692 0.000000 0.000000 1.000000
-1.523472 -2.543430 1.009692 0.000000 0.000000 1.000000
-1.371935 -2.667793 1.009692 0.000000 0.000000 1.000000
-1.011456 -2.817108 1.009692 0.000000 0.000000 1.000000
-0.816365 -2.836323 1.009692 0.000000 0.000000 1.000000
-0.621275 -2.817109 1.009692 0.000000 0.000000 1.000000
-0.433681 -2.760203 1.009692 0.000000 0.000000 1.000000
-0.260795 -2.667793 1.009692 0.000000 0.000000 1.000000
-0.109258 -2.543430 1.009692 0.000000 0.000000 1.000000
0.015105 -2.391893 1.009692 0.000000 0.000000 1.000000
0.164421 -2.031414 1.009692 0.000000 0.000000 1.000000
0.183635 -1.836323 1.009692 0.000000 0.000000 1.000000
0.164420 -1.641233 1.009692 -0.000000 0.000000 1.000000
0.107515 -1.453640 1.009692 0.000000 0.000000 1.000000
0.015105 -1.280753 1.009692 0.000000 0.000000 1.000000
-0.109258 -1.129216 1.009692 0.000000 0.000000 1.000000
-0.260795 -1.004854 1.009692 0.000000 0.000000 1.000000
-1.011454 -0.855538 1.009692 -0.290283 0.956941 0.000000
-0.816365 -0.836323 1.009692 -0.098017 0.995185 0.000000
-1.011454 -0.855538 -0.990308 -0.000000 0.000000 -1.000000
-0.816365 -0.836323 -0.990308 -0.000000 0.000000 -1.000000
-0.621274 -0.855538 -0.990308 -0.000000 0.000000 -1.000000
-0.433681 -0.912444 -0.990308 0.000000 0.000000 -1.000000
-0.260795 -1.004854 -0.990308 0.000000 0.000000 -1.000000
-0.109258 -1.129216 -0.990308 0.000000 0.000000 -1.000000
0.015105 -1.280753 -0.990308 0.000000 0.000000 -1.000000
0.107515 -1.453640 -0.990308 0.000000 0.000000 -1.000000
0.183635 -1.836323 -0.990308 0.000000 0.000000 -1.000000
0.164421 -2.031414 -0.990308 0.000000 0.000000 -1.000000
0.107515 -2.219007 -0.990308 0.000000 -0.000000 -1.000000
0.015105 -2.391893 -0.990308 0.000000 0.000000 -1.000000
-0.109258 -2.543430 -0.990308 0.000000 0.000000 -1.000000
-0.260795 -2.667793 -0.990308 0.000000 0.000000 -1.000000
-0.433681 -2.760203 -0.990308 0.000000 0.000000 -1.000000
-0.816365 -2.836323 -0.990308 0.000000 0.000000 -1.000000
-1.011456 -2.817108 -0.990308 0.000000 0.000000 -1.000000
-1.199049 -2.760203 -0.990308 0.000000 0.000000 -1.000000
-1.371935 -2.667793 -0.990308 0.000000 0.000000 -1.000000
-1.523472 -2.543430 -0.990308 0.000000 0.000000 -1.000000
-1.647835 -2.391893 -0.990308 0.000000 0.000000 -1.000000
-1.740245 -2.219006 -0.990308 0.000000 0.000000 -1.000000
-1.816365 -1.836322 -0.990308 0.000000 -0.000000 -1.000000
-1.797150 -1.641232 -0.990308 0.000000 -0.000000 -1.000000
-1.740244 -1.453639 -0.990308 0.000000 0.000000 -1.000000
-1.647834 -1.280752 -0.990308 0.000000 0.000000 -1.000000
-1.523471 -1.129216 -0.990308 0.000000 0.000000 -1.000000
-1.371934 -1.004853 -0.990308 0.000000 0.000000 -1.000000
-1.199047 -0.912443 -0.990308 0.000000 0.000000 -1.000000
3 0 1 2
3 3 4 5
3 6 7 8
3 9 10 11
3 12 13 14
3 15 16 17
3 18 19 20
3 21 22 23
3 24 25 26
3 27 28 29
3 30 31 32
3 33 34 35
3 36 37 38
3 39 40 41
3 42 43 44
3 45 46 47
3 48 49 50
3 51 52 53
3 54 55 56
3 57 58 59
3 60 61 62
3 63 64 65
3 66 67 68
3 69 70 71
3 72 73 74
3 75 76 77
3 78 79 80
3 81 82 83
3 84 85 86
3 87 88 89
3 90 91 92
3 93 94 95
3 96 97 98
3 99 100 101
3 0 102 1
3 3 103 4
3 6 104 7
3 9 105 10
3 12 106 13
3 15 107 16
3 18 108 19
3 21 109 22
3 24 110 25
3 27 111 28
3 30 112 31
3 33 113 34
3 36 114 37
3 39 115 40
3 42 116 43
3 45 117 46
3 48 118 49
3 51 119 52
3 54 120 55
3 57 121 58
3 60 122 61
3 63 123 64
3 66 124 67
3 69 125 70
3 72 126 73
3 75 127 76
3 78 128 79
3 81 129 82
3 84 130 85
3 87 131 88
3 132 133 134
3 134 135 132
3 136 137 138
3 138 139 92
3 92 140 141
3 141 142 92
3 143 144 90
3 145 146 90
3 90 147 148
3 148 149 150
3 150 151 152
3 152 153 91
3 91 154 155
3 155 156 91
3 157 158 159
3 159 160 132
3 132 135 136
3 136 138 132
3 92 142 143
3 144 145 90
3 90 148 91
3 150 152 91
3 91 156 157
3 157 159 91
3 132 138 92
3 92 143 90
3 148 150 91
3 91 159 132
3 132 92 91
3 93 161 94
3 96 162 97
3 163 164 165
3 165 166 167
3 167 168 169
3 169 170 167
3 101 171 172
3 172 173 101
3 174 175 99
3 176 177 99
3 99 178 179
3 179 180 181
3 181 182 183
3 183 184 100
3 100 185 186
3 186 187 188
3 188 189 163
3 190 191 163
3 163 165 101
3 167 170 101
3 101 173 174
3 175 176 99
3 99 179 100
3 181 183 100
3 100 186 163
3 189 190 163
3 165 167 101
3 101 174 99
3 179 181 100
3 186 188 163
3 163 101 100
